<?xml version="1.0" encoding="UTF-8"?>
<svg id="Layer_2" data-name="Layer 2" xmlns="http://www.w3.org/2000/svg" viewBox="0 0 245.22 35.7">
  <g id="Layer_1-2" data-name="Layer 1">
    <g>
      <g>
        <path d="M39.73,35.7h0c.76,0,1.37-.61,1.37-1.37h0c0-.76-.61-1.37-1.37-1.37h0c-.76,0-1.37.61-1.37,1.37h0c0,.76.61,1.37,1.37,1.37Z" style="fill: #fff;"/>
        <path d="M35.61,31.58h0c0,.76.61,1.37,1.37,1.37h0c.76,0,1.37-.61,1.37-1.37h0c0-.76-.61-1.37-1.37-1.37h0c-.76,0-1.37.61-1.37,1.37Z" style="fill: #fff;"/>
        <path d="M43.85,31.58h0c0-.76-.61-1.37-1.37-1.37h0c-.76,0-1.37.61-1.37,1.37h0c0,.76.61,1.37,1.37,1.37h0c.76,0,1.37-.61,1.37-1.37Z" style="fill: #fff;"/>
        <path d="M39.73,30.21h0c.76,0,1.37-.61,1.37-1.37h0c0-.76-.61-1.37-1.37-1.37h0c-.76,0-1.37.61-1.37,1.37h0c0,.76.61,1.37,1.37,1.37Z" style="fill: #fff;"/>
        <path d="M39.73,24.72h0c.76,0,1.37-.61,1.37-1.37h0c0-.76-.61-1.37-1.37-1.37h0c-.76,0-1.37.61-1.37,1.37h0c0,.76.61,1.37,1.37,1.37Z" style="fill: #fff;"/>
        <path d="M35.61,26.09h0c0,.76.61,1.37,1.37,1.37h0c.76,0,1.37-.61,1.37-1.37h0c0-.76-.61-1.37-1.37-1.37h0c-.76,0-1.37.61-1.37,1.37Z" style="fill: #fff;"/>
        <path d="M43.85,26.09h0c0-.76-.61-1.37-1.37-1.37h0c-.76,0-1.37.61-1.37,1.37h0c0,.76.61,1.37,1.37,1.37h0c.76,0,1.37-.61,1.37-1.37Z" style="fill: #fff;"/>
        <path d="M35.61,20.6h0c0,.76.61,1.37,1.37,1.37h0c.76,0,1.37-.61,1.37-1.37h0c0-.76-.61-1.37-1.37-1.37h0c-.76,0-1.37.61-1.37,1.37Z" style="fill: #fff;"/>
        <path d="M35.61,15.1h0c0,.76.61,1.37,1.37,1.37h0c.76,0,1.37-.61,1.37-1.37h0c0-.76-.61-1.37-1.37-1.37h0c-.76,0-1.37.61-1.37,1.37Z" style="fill: #fff;"/>
        <path d="M39.73,19.22h0c.76,0,1.37-.61,1.37-1.37h0c0-.76-.61-1.37-1.37-1.37h0c-.76,0-1.37.61-1.37,1.37h0c0,.76.61,1.37,1.37,1.37Z" style="fill: #fff;"/>
        <path d="M43.85,20.6h0c0-.76-.61-1.37-1.37-1.37h0c-.76,0-1.37.61-1.37,1.37h0c0,.76.61,1.37,1.37,1.37h0c.76,0,1.37-.61,1.37-1.37Z" style="fill: #fff;"/>
        <path d="M50.72,24.72h0c.76,0,1.37-.61,1.37-1.37h0c0-.76-.61-1.37-1.37-1.37h0c-.76,0-1.37.61-1.37,1.37h0c0,.76.61,1.37,1.37,1.37Z" style="fill: #fff;"/>
        <path d="M53.47,21.97h0c.76,0,1.37-.61,1.37-1.37h0c0-.76-.61-1.37-1.37-1.37h0c-.76,0-1.37.61-1.37,1.37h0c0,.76.61,1.37,1.37,1.37Z" style="fill: #fff;"/>
        <path d="M50.72,16.48h0c-.76,0-1.37.61-1.37,1.37h0c0,.76.61,1.37,1.37,1.37h0c.76,0,1.37-.61,1.37-1.37h0c0-.76-.61-1.37-1.37-1.37Z" style="fill: #fff;"/>
        <path d="M46.6,20.6h0c0,.76.61,1.37,1.37,1.37h0c.76,0,1.37-.61,1.37-1.37h0c0-.76-.61-1.37-1.37-1.37h0c-.76,0-1.37.61-1.37,1.37Z" style="fill: #fff;"/>
        <path d="M45.23,8.24h0c.76,0,1.37-.61,1.37-1.37h0c0-.76-.61-1.37-1.37-1.37h0c-.76,0-1.37.61-1.37,1.37h0c0,.76.61,1.37,1.37,1.37Z" style="fill: #fff;"/>
        <path d="M42.48,5.49h0c.76,0,1.37-.61,1.37-1.37h0c0-.76-.61-1.37-1.37-1.37h0c-.76,0-1.37.61-1.37,1.37h0c0,.76.61,1.37,1.37,1.37Z" style="fill: #fff;"/>
        <path d="M54.84,6.87h0c0,.76.61,1.37,1.37,1.37h0c.76,0,1.37-.61,1.37-1.37h0c0-.76-.61-1.37-1.37-1.37h0c-.76,0-1.37.61-1.37,1.37Z" style="fill: #fff;"/>
        <path d="M39.73,13.73h0c.76,0,1.37-.61,1.37-1.37h0c0-.76-.61-1.37-1.37-1.37h0c-.76,0-1.37.61-1.37,1.37h0c0,.76.61,1.37,1.37,1.37Z" style="fill: #fff;"/>
        <path d="M39.73,5.49h0c-.76,0-1.37.61-1.37,1.37h0c0,.76.61,1.37,1.37,1.37h0c.76,0,1.37-.61,1.37-1.37h0c0-.76-.61-1.37-1.37-1.37Z" style="fill: #fff;"/>
        <path d="M47.97,5.49h0c.76,0,1.37-.61,1.37-1.37h0c0-.76-.61-1.37-1.37-1.37h0c-.76,0-1.37.61-1.37,1.37h0c0,.76.61,1.37,1.37,1.37Z" style="fill: #fff;"/>
        <path d="M45.23,2.75h0c.76,0,1.37-.61,1.37-1.37h0c0-.76-.61-1.37-1.37-1.37h0c-.76,0-1.37.61-1.37,1.37h0c0,.76.61,1.37,1.37,1.37Z" style="fill: #fff;"/>
        <path d="M49.35,1.37h0c0,.76.61,1.37,1.37,1.37h0c.76,0,1.37-.61,1.37-1.37h0c0-.76-.61-1.37-1.37-1.37h0c-.76,0-1.37.61-1.37,1.37Z" style="fill: #fff;"/>
        <path d="M56.21,0h0c-.76,0-1.37.61-1.37,1.37h0c0,.76.61,1.37,1.37,1.37h0c.76,0,1.37-.61,1.37-1.37h0c0-.76-.61-1.37-1.37-1.37Z" style="fill: #fff;"/>
        <rect x="52.09" y="2.75" width="2.75" height="2.75" rx="1.37" ry="1.37" style="fill: #fff;"/>
        <path d="M60.33,4.12h0c0-.76-.61-1.37-1.37-1.37h0c-.76,0-1.37.61-1.37,1.37h0c0,.76.61,1.37,1.37,1.37h0c.76,0,1.37-.61,1.37-1.37Z" style="fill: #fff;"/>
        <path d="M35.61,9.61h0c0,.76.61,1.37,1.37,1.37h0c.76,0,1.37-.61,1.37-1.37h0c0-.76-.61-1.37-1.37-1.37h0c-.76,0-1.37.61-1.37,1.37Z" style="fill: #fff;"/>
        <path d="M42.48,10.99h0c.76,0,1.37-.61,1.37-1.37h0c0-.76-.61-1.37-1.37-1.37h0c-.76,0-1.37.61-1.37,1.37h0c0,.76.61,1.37,1.37,1.37Z" style="fill: #fff;"/>
        <path d="M61.7,35.7h0c.76,0,1.37-.61,1.37-1.37h0c0-.76-.61-1.37-1.37-1.37h0c-.76,0-1.37.61-1.37,1.37h0c0,.76.61,1.37,1.37,1.37Z" style="fill: #fff;"/>
        <path d="M57.59,31.58h0c0,.76.61,1.37,1.37,1.37h0c.76,0,1.37-.61,1.37-1.37h0c0-.76-.61-1.37-1.37-1.37h0c-.76,0-1.37.61-1.37,1.37Z" style="fill: #fff;"/>
        <path d="M65.82,31.58h0c0-.76-.61-1.37-1.37-1.37h0c-.76,0-1.37.61-1.37,1.37h0c0,.76.61,1.37,1.37,1.37h0c.76,0,1.37-.61,1.37-1.37Z" style="fill: #fff;"/>
        <path d="M61.7,30.21h0c.76,0,1.37-.61,1.37-1.37h0c0-.76-.61-1.37-1.37-1.37h0c-.76,0-1.37.61-1.37,1.37h0c0,.76.61,1.37,1.37,1.37Z" style="fill: #fff;"/>
        <path d="M61.7,24.72h0c.76,0,1.37-.61,1.37-1.37h0c0-.76-.61-1.37-1.37-1.37h0c-.76,0-1.37.61-1.37,1.37h0c0,.76.61,1.37,1.37,1.37Z" style="fill: #fff;"/>
        <path d="M57.59,26.09h0c0,.76.61,1.37,1.37,1.37h0c.76,0,1.37-.61,1.37-1.37h0c0-.76-.61-1.37-1.37-1.37h0c-.76,0-1.37.61-1.37,1.37Z" style="fill: #fff;"/>
        <path d="M65.82,26.09h0c0-.76-.61-1.37-1.37-1.37h0c-.76,0-1.37.61-1.37,1.37h0c0,.76.61,1.37,1.37,1.37h0c.76,0,1.37-.61,1.37-1.37Z" style="fill: #fff;"/>
        <path d="M57.59,20.6h0c0,.76.61,1.37,1.37,1.37h0c.76,0,1.37-.61,1.37-1.37h0c0-.76-.61-1.37-1.37-1.37h0c-.76,0-1.37.61-1.37,1.37Z" style="fill: #fff;"/>
        <path d="M65.82,20.6h0c0-.76-.61-1.37-1.37-1.37h0c-.76,0-1.37.61-1.37,1.37h0c0,.76.61,1.37,1.37,1.37h0c.76,0,1.37-.61,1.37-1.37Z" style="fill: #fff;"/>
        <path d="M65.82,15.1h0c0-.76-.61-1.37-1.37-1.37h0c-.76,0-1.37.61-1.37,1.37h0c0,.76.61,1.37,1.37,1.37h0c.76,0,1.37-.61,1.37-1.37Z" style="fill: #fff;"/>
        <path d="M61.7,19.22h0c.76,0,1.37-.61,1.37-1.37h0c0-.76-.61-1.37-1.37-1.37h0c-.76,0-1.37.61-1.37,1.37h0c0,.76.61,1.37,1.37,1.37Z" style="fill: #fff;"/>
        <path d="M43.85,15.1h0c0-.76-.61-1.37-1.37-1.37h0c-.76,0-1.37.61-1.37,1.37h0c0,.76.61,1.37,1.37,1.37h0c.76,0,1.37-.61,1.37-1.37Z" style="fill: #fff;"/>
        <path d="M57.59,15.1h0c0,.76.61,1.37,1.37,1.37h0c.76,0,1.37-.61,1.37-1.37h0c0-.76-.61-1.37-1.37-1.37h0c-.76,0-1.37.61-1.37,1.37Z" style="fill: #fff;"/>
        <path d="M60.33,12.36h0c0,.76.61,1.37,1.37,1.37h0c.76,0,1.37-.61,1.37-1.37h0c0-.76-.61-1.37-1.37-1.37h0c-.76,0-1.37.61-1.37,1.37Z" style="fill: #fff;"/>
        <path d="M63.08,6.87h0c0-.76-.61-1.37-1.37-1.37h0c-.76,0-1.37.61-1.37,1.37h0c0,.76.61,1.37,1.37,1.37h0c.76,0,1.37-.61,1.37-1.37Z" style="fill: #fff;"/>
        <path d="M57.59,9.61h0c0,.76.61,1.37,1.37,1.37h0c.76,0,1.37-.61,1.37-1.37h0c0-.76-.61-1.37-1.37-1.37h0c-.76,0-1.37.61-1.37,1.37Z" style="fill: #fff;"/>
        <path d="M65.82,9.61h0c0-.76-.61-1.37-1.37-1.37h0c-.76,0-1.37.61-1.37,1.37h0c0,.76.61,1.37,1.37,1.37h0c.76,0,1.37-.61,1.37-1.37Z" style="fill: #fff;"/>
      </g>
      <g>
        <path d="M155.71,9.61h0c0-.76-.61-1.37-1.37-1.37h0c-.76,0-1.37.61-1.37,1.37h0c0,.76.61,1.37,1.37,1.37h0c.76,0,1.37-.61,1.37-1.37Z" style="fill: #fff;"/>
        <path d="M152.96,6.87h0c0-.76-.61-1.37-1.37-1.37h0c-.76,0-1.37.61-1.37,1.37h0c0,.76.61,1.37,1.37,1.37h0c.76,0,1.37-.61,1.37-1.37Z" style="fill: #fff;"/>
        <path d="M141.97,26.09h0c0,.76.61,1.37,1.37,1.37h0c.76,0,1.37-.61,1.37-1.37h0c0-.76-.61-1.37-1.37-1.37h0c-.76,0-1.37.61-1.37,1.37Z" style="fill: #fff;"/>
        <path d="M150.21,26.09h0c0-.76-.61-1.37-1.37-1.37h0c-.76,0-1.37.61-1.37,1.37h0c0,.76.61,1.37,1.37,1.37h0c.76,0,1.37-.61,1.37-1.37Z" style="fill: #fff;"/>
        <path d="M146.09,24.72h0c.76,0,1.37-.61,1.37-1.37h0c0-.76-.61-1.37-1.37-1.37h0c-.76,0-1.37.61-1.37,1.37h0c0,.76.61,1.37,1.37,1.37Z" style="fill: #fff;"/>
        <path d="M146.09,19.22h0c.76,0,1.37-.61,1.37-1.37h0c0-.76-.61-1.37-1.37-1.37h0c-.76,0-1.37.61-1.37,1.37h0c0,.76.61,1.37,1.37,1.37Z" style="fill: #fff;"/>
        <path d="M141.97,20.6h0c0,.76.61,1.37,1.37,1.37h0c.76,0,1.37-.61,1.37-1.37h0c0-.76-.61-1.37-1.37-1.37h0c-.76,0-1.37.61-1.37,1.37Z" style="fill: #fff;"/>
        <path d="M141.97,15.1h0c0,.76.61,1.37,1.37,1.37h0c.76,0,1.37-.61,1.37-1.37h0c0-.76-.61-1.37-1.37-1.37h0c-.76,0-1.37.61-1.37,1.37Z" style="fill: #fff;"/>
        <path d="M148.84,16.48h0c.76,0,1.37-.61,1.37-1.37h0c0-.76-.61-1.37-1.37-1.37h0c-.76,0-1.37.61-1.37,1.37h0c0,.76.61,1.37,1.37,1.37Z" style="fill: #fff;"/>
        <path d="M152.96,15.1h0c0,.76.61,1.37,1.37,1.37h0c.76,0,1.37-.61,1.37-1.37h0c0-.76-.61-1.37-1.37-1.37h0c-.76,0-1.37.61-1.37,1.37Z" style="fill: #fff;"/>
        <path d="M158.45,12.36h0c0-.76-.61-1.37-1.37-1.37h0c-.76,0-1.37.61-1.37,1.37h0c0,.76.61,1.37,1.37,1.37h0c.76,0,1.37-.61,1.37-1.37Z" style="fill: #fff;"/>
        <path d="M161.2,15.1h0c0-.76-.61-1.37-1.37-1.37h0c-.76,0-1.37.61-1.37,1.37h0c0,.76.61,1.37,1.37,1.37h0c.76,0,1.37-.61,1.37-1.37Z" style="fill: #fff;"/>
        <path d="M163.95,17.85h0c0-.76-.61-1.37-1.37-1.37h0c-.76,0-1.37.61-1.37,1.37h0c0,.76.61,1.37,1.37,1.37h0c.76,0,1.37-.61,1.37-1.37Z" style="fill: #fff;"/>
        <path d="M161.2,23.34h0c0,.76.61,1.37,1.37,1.37h0c.76,0,1.37-.61,1.37-1.37h0c0-.76-.61-1.37-1.37-1.37h0c-.76,0-1.37.61-1.37,1.37Z" style="fill: #fff;"/>
        <path d="M158.45,20.6h0c0,.76.61,1.37,1.37,1.37h0c.76,0,1.37-.61,1.37-1.37h0c0-.76-.61-1.37-1.37-1.37h0c-.76,0-1.37.61-1.37,1.37Z" style="fill: #fff;"/>
        <path d="M165.32,13.73h0c-.76,0-1.37.61-1.37,1.37h0c0,.76.61,1.37,1.37,1.37h0c.76,0,1.37-.61,1.37-1.37h0c0-.76-.61-1.37-1.37-1.37Z" style="fill: #fff;"/>
        <path d="M155.71,17.85h0c0,.76.61,1.37,1.37,1.37h0c.76,0,1.37-.61,1.37-1.37h0c0-.76-.61-1.37-1.37-1.37h0c-.76,0-1.37.61-1.37,1.37Z" style="fill: #fff;"/>
        <path d="M150.21,12.36h0c0,.76.61,1.37,1.37,1.37h0c.76,0,1.37-.61,1.37-1.37h0c0-.76-.61-1.37-1.37-1.37h0c-.76,0-1.37.61-1.37,1.37Z" style="fill: #fff;"/>
        <path d="M146.09,10.99h0c-.76,0-1.37.61-1.37,1.37h0c0,.76.61,1.37,1.37,1.37h0c.76,0,1.37-.61,1.37-1.37h0c0-.76-.61-1.37-1.37-1.37Z" style="fill: #fff;"/>
        <path d="M146.09,5.49h0c-.76,0-1.37.61-1.37,1.37h0c0,.76.61,1.37,1.37,1.37h0c.76,0,1.37-.61,1.37-1.37h0c0-.76-.61-1.37-1.37-1.37Z" style="fill: #fff;"/>
        <path d="M141.97,9.61h0c0,.76.61,1.37,1.37,1.37h0c.76,0,1.37-.61,1.37-1.37h0c0-.76-.61-1.37-1.37-1.37h0c-.76,0-1.37.61-1.37,1.37Z" style="fill: #fff;"/>
        <path d="M147.47,9.61h0c0,.76.61,1.37,1.37,1.37h0c.76,0,1.37-.61,1.37-1.37h0c0-.76-.61-1.37-1.37-1.37h0c-.76,0-1.37.61-1.37,1.37Z" style="fill: #fff;"/>
        <path d="M150.21,20.6h0c0-.76-.61-1.37-1.37-1.37h0c-.76,0-1.37.61-1.37,1.37h0c0,.76.61,1.37,1.37,1.37h0c.76,0,1.37-.61,1.37-1.37Z" style="fill: #fff;"/>
        <path d="M146.09,0h0c-.76,0-1.37.61-1.37,1.37h0c0,.76.61,1.37,1.37,1.37h0c.76,0,1.37-.61,1.37-1.37h0c0-.76-.61-1.37-1.37-1.37Z" style="fill: #fff;"/>
        <path d="M163.95,4.12h0c0,.76.61,1.37,1.37,1.37h0c.76,0,1.37-.61,1.37-1.37h0c0-.76-.61-1.37-1.37-1.37h0c-.76,0-1.37.61-1.37,1.37Z" style="fill: #fff;"/>
        <rect x="166.69" y="10.99" width="2.75" height="2.75" rx="1.37" ry="1.37" style="fill: #fff;"/>
        <path d="M172.18,9.61h0c0-.76-.61-1.37-1.37-1.37h0c-.76,0-1.37.61-1.37,1.37h0c0,.76.61,1.37,1.37,1.37h0c.76,0,1.37-.61,1.37-1.37Z" style="fill: #fff;"/>
        <path d="M172.18,4.12h0c0-.76-.61-1.37-1.37-1.37h0c-.76,0-1.37.61-1.37,1.37h0c0,.76.61,1.37,1.37,1.37h0c.76,0,1.37-.61,1.37-1.37Z" style="fill: #fff;"/>
        <path d="M163.95,9.61h0c0,.76.61,1.37,1.37,1.37h0c.76,0,1.37-.61,1.37-1.37h0c0-.76-.61-1.37-1.37-1.37h0c-.76,0-1.37.61-1.37,1.37Z" style="fill: #fff;"/>
        <path d="M172.18,15.1h0c0-.76-.61-1.37-1.37-1.37h0c-.76,0-1.37.61-1.37,1.37h0c0,.76.61,1.37,1.37,1.37h0c.76,0,1.37-.61,1.37-1.37Z" style="fill: #fff;"/>
        <path d="M172.18,20.6h0c0-.76-.61-1.37-1.37-1.37h0c-.76,0-1.37.61-1.37,1.37h0c0,.76.61,1.37,1.37,1.37h0c.76,0,1.37-.61,1.37-1.37Z" style="fill: #fff;"/>
        <path d="M172.18,26.09h0c0-.76-.61-1.37-1.37-1.37h0c-.76,0-1.37.61-1.37,1.37h0c0,.76.61,1.37,1.37,1.37h0c.76,0,1.37-.61,1.37-1.37Z" style="fill: #fff;"/>
        <path d="M165.32,21.97h0c.76,0,1.37-.61,1.37-1.37h0c0-.76-.61-1.37-1.37-1.37h0c-.76,0-1.37.61-1.37,1.37h0c0,.76.61,1.37,1.37,1.37Z" style="fill: #fff;"/>
        <path d="M166.69,6.87h0c0,.76.61,1.37,1.37,1.37h0c.76,0,1.37-.61,1.37-1.37h0c0-.76-.61-1.37-1.37-1.37h0c-.76,0-1.37.61-1.37,1.37Z" style="fill: #fff;"/>
        <path d="M168.06,0h0c-.76,0-1.37.61-1.37,1.37h0c0,.76.61,1.37,1.37,1.37h0c.76,0,1.37-.61,1.37-1.37h0c0-.76-.61-1.37-1.37-1.37Z" style="fill: #fff;"/>
        <path d="M168.06,19.22h0c.76,0,1.37-.61,1.37-1.37h0c0-.76-.61-1.37-1.37-1.37h0c-.76,0-1.37.61-1.37,1.37h0c0,.76.61,1.37,1.37,1.37Z" style="fill: #fff;"/>
        <path d="M168.06,24.72h0c.76,0,1.37-.61,1.37-1.37h0c0-.76-.61-1.37-1.37-1.37h0c-.76,0-1.37.61-1.37,1.37h0c0,.76.61,1.37,1.37,1.37Z" style="fill: #fff;"/>
        <path d="M163.95,26.09h0c0,.76.61,1.37,1.37,1.37h0c.76,0,1.37-.61,1.37-1.37h0c0-.76-.61-1.37-1.37-1.37h0c-.76,0-1.37.61-1.37,1.37Z" style="fill: #fff;"/>
        <path d="M146.09,35.7h0c.76,0,1.37-.61,1.37-1.37h0c0-.76-.61-1.37-1.37-1.37h0c-.76,0-1.37.61-1.37,1.37h0c0,.76.61,1.37,1.37,1.37Z" style="fill: #fff;"/>
        <path d="M141.97,31.58h0c0,.76.61,1.37,1.37,1.37h0c.76,0,1.37-.61,1.37-1.37h0c0-.76-.61-1.37-1.37-1.37h0c-.76,0-1.37.61-1.37,1.37Z" style="fill: #fff;"/>
        <rect x="147.47" y="30.21" width="2.75" height="2.75" rx="1.37" ry="1.37" style="fill: #fff;"/>
        <path d="M146.09,30.21h0c.76,0,1.37-.61,1.37-1.37h0c0-.76-.61-1.37-1.37-1.37h0c-.76,0-1.37.61-1.37,1.37h0c0,.76.61,1.37,1.37,1.37Z" style="fill: #fff;"/>
        <path d="M172.18,31.58h0c0-.76-.61-1.37-1.37-1.37h0c-.76,0-1.37.61-1.37,1.37h0c0,.76.61,1.37,1.37,1.37h0c.76,0,1.37-.61,1.37-1.37Z" style="fill: #fff;"/>
        <path d="M168.06,30.21h0c.76,0,1.37-.61,1.37-1.37h0c0-.76-.61-1.37-1.37-1.37h0c-.76,0-1.37.61-1.37,1.37h0c0,.76.61,1.37,1.37,1.37Z" style="fill: #fff;"/>
        <path d="M168.06,35.7h0c.76,0,1.37-.61,1.37-1.37h0c0-.76-.61-1.37-1.37-1.37h0c-.76,0-1.37.61-1.37,1.37h0c0,.76.61,1.37,1.37,1.37Z" style="fill: #fff;"/>
        <path d="M163.95,31.58h0c0,.76.61,1.37,1.37,1.37h0c.76,0,1.37-.61,1.37-1.37h0c0-.76-.61-1.37-1.37-1.37h0c-.76,0-1.37.61-1.37,1.37Z" style="fill: #fff;"/>
        <path d="M141.97,4.12h0c0,.76.61,1.37,1.37,1.37h0c.76,0,1.37-.61,1.37-1.37h0c0-.76-.61-1.37-1.37-1.37h0c-.76,0-1.37.61-1.37,1.37Z" style="fill: #fff;"/>
        <path d="M150.21,4.12h0c0-.76-.61-1.37-1.37-1.37h0c-.76,0-1.37.61-1.37,1.37h0c0,.76.61,1.37,1.37,1.37h0c.76,0,1.37-.61,1.37-1.37Z" style="fill: #fff;"/>
      </g>
      <g>
        <path d="M79.97,27.46h0c.76,0,1.37-.61,1.37-1.37h0c0-.76-.61-1.37-1.37-1.37h0c-.76,0-1.37.61-1.37,1.37h0c0,.76.61,1.37,1.37,1.37Z" style="fill: #fff;"/>
        <path d="M73.1,26.09h0c0,.76.61,1.37,1.37,1.37h0c.76,0,1.37-.61,1.37-1.37h0c0-.76-.61-1.37-1.37-1.37h0c-.76,0-1.37.61-1.37,1.37Z" style="fill: #fff;"/>
        <path d="M77.22,21.97h0c-.76,0-1.37.61-1.37,1.37h0c0,.76.61,1.37,1.37,1.37h0c.76,0,1.37-.61,1.37-1.37h0c0-.76-.61-1.37-1.37-1.37Z" style="fill: #fff;"/>
        <path d="M77.22,30.21h0c.76,0,1.37-.61,1.37-1.37h0c0-.76-.61-1.37-1.37-1.37h0c-.76,0-1.37.61-1.37,1.37h0c0,.76.61,1.37,1.37,1.37Z" style="fill: #fff;"/>
        <path d="M81.34,31.58h0c0-.76-.61-1.37-1.37-1.37h0c-.76,0-1.37.61-1.37,1.37h0c0,.76.61,1.37,1.37,1.37h0c.76,0,1.37-.61,1.37-1.37Z" style="fill: #fff;"/>
        <path d="M73.1,31.58h0c0,.76.61,1.37,1.37,1.37h0c.76,0,1.37-.61,1.37-1.37h0c0-.76-.61-1.37-1.37-1.37h0c-.76,0-1.37.61-1.37,1.37Z" style="fill: #fff;"/>
        <path d="M77.22,35.7h0c.76,0,1.37-.61,1.37-1.37h0c0-.76-.61-1.37-1.37-1.37h0c-.76,0-1.37.61-1.37,1.37h0c0,.76.61,1.37,1.37,1.37Z" style="fill: #fff;"/>
        <path d="M77.22,16.48h0c-.76,0-1.37.61-1.37,1.37h0c0,.76.61,1.37,1.37,1.37h0c.76,0,1.37-.61,1.37-1.37h0c0-.76-.61-1.37-1.37-1.37Z" style="fill: #fff;"/>
        <path d="M73.1,20.6h0c0,.76.61,1.37,1.37,1.37h0c.76,0,1.37-.61,1.37-1.37h0c0-.76-.61-1.37-1.37-1.37h0c-.76,0-1.37.61-1.37,1.37Z" style="fill: #fff;"/>
        <path d="M73.1,15.1h0c0,.76.61,1.37,1.37,1.37h0c.76,0,1.37-.61,1.37-1.37h0c0-.76-.61-1.37-1.37-1.37h0c-.76,0-1.37.61-1.37,1.37Z" style="fill: #fff;"/>
        <path d="M79.97,13.73h0c-.76,0-1.37.61-1.37,1.37h0c0,.76.61,1.37,1.37,1.37h0c.76,0,1.37-.61,1.37-1.37h0c0-.76-.61-1.37-1.37-1.37Z" style="fill: #fff;"/>
        <path d="M79.97,8.24h0c-.76,0-1.37.61-1.37,1.37h0c0,.76.61,1.37,1.37,1.37h0c.76,0,1.37-.61,1.37-1.37h0c0-.76-.61-1.37-1.37-1.37Z" style="fill: #fff;"/>
        <rect x="75.85" y="10.99" width="2.75" height="2.75" rx="1.37" ry="1.37" style="fill: #fff;"/>
        <path d="M77.22,5.49h0c-.76,0-1.37.61-1.37,1.37h0c0,.76.61,1.37,1.37,1.37h0c.76,0,1.37-.61,1.37-1.37h0c0-.76-.61-1.37-1.37-1.37Z" style="fill: #fff;"/>
        <path d="M73.1,9.61h0c0,.76.61,1.37,1.37,1.37h0c.76,0,1.37-.61,1.37-1.37h0c0-.76-.61-1.37-1.37-1.37h0c-.76,0-1.37.61-1.37,1.37Z" style="fill: #fff;"/>
        <path d="M73.1,4.12h0c0,.76.61,1.37,1.37,1.37h0c.76,0,1.37-.61,1.37-1.37h0c0-.76-.61-1.37-1.37-1.37h0c-.76,0-1.37.61-1.37,1.37Z" style="fill: #fff;"/>
        <path d="M77.22,0h0c-.76,0-1.37.61-1.37,1.37h0c0,.76.61,1.37,1.37,1.37h0c.76,0,1.37-.61,1.37-1.37h0c0-.76-.61-1.37-1.37-1.37Z" style="fill: #fff;"/>
        <path d="M82.71,0h0c-.76,0-1.37.61-1.37,1.37h0c0,.76.61,1.37,1.37,1.37h0c.76,0,1.37-.61,1.37-1.37h0c0-.76-.61-1.37-1.37-1.37Z" style="fill: #fff;"/>
        <path d="M88.21,0h0c-.76,0-1.37.61-1.37,1.37h0c0,.76.61,1.37,1.37,1.37h0c.76,0,1.37-.61,1.37-1.37h0c0-.76-.61-1.37-1.37-1.37Z" style="fill: #fff;"/>
        <path d="M86.83,4.12h0c0-.76-.61-1.37-1.37-1.37h0c-.76,0-1.37.61-1.37,1.37h0c0,.76.61,1.37,1.37,1.37h0c.76,0,1.37-.61,1.37-1.37Z" style="fill: #fff;"/>
        <path d="M93.7,0h0c-.76,0-1.37.61-1.37,1.37h0c0,.76.61,1.37,1.37,1.37h0c.76,0,1.37-.61,1.37-1.37h0c0-.76-.61-1.37-1.37-1.37Z" style="fill: #fff;"/>
        <path d="M92.33,4.12h0c0-.76-.61-1.37-1.37-1.37h0c-.76,0-1.37.61-1.37,1.37h0c0,.76.61,1.37,1.37,1.37h0c.76,0,1.37-.61,1.37-1.37Z" style="fill: #fff;"/>
        <path d="M97.82,4.12h0c0-.76-.61-1.37-1.37-1.37h0c-.76,0-1.37.61-1.37,1.37h0c0,.76.61,1.37,1.37,1.37h0c.76,0,1.37-.61,1.37-1.37Z" style="fill: #fff;"/>
        <path d="M97.82,12.36h0c0,.76.61,1.37,1.37,1.37h0c.76,0,1.37-.61,1.37-1.37h0c0-.76-.61-1.37-1.37-1.37h0c-.76,0-1.37.61-1.37,1.37Z" style="fill: #fff;"/>
        <path d="M103.31,9.61h0c0-.76-.61-1.37-1.37-1.37h0c-.76,0-1.37.61-1.37,1.37h0c0,.76.61,1.37,1.37,1.37h0c.76,0,1.37-.61,1.37-1.37Z" style="fill: #fff;"/>
        <path d="M96.44,16.48h0c.76,0,1.37-.61,1.37-1.37h0c0-.76-.61-1.37-1.37-1.37h0c-.76,0-1.37.61-1.37,1.37h0c0,.76.61,1.37,1.37,1.37Z" style="fill: #fff;"/>
        <path d="M95.07,9.61h0c0,.76.61,1.37,1.37,1.37h0c.76,0,1.37-.61,1.37-1.37h0c0-.76-.61-1.37-1.37-1.37h0c-.76,0-1.37.61-1.37,1.37Z" style="fill: #fff;"/>
        <path d="M92.33,6.87h0c0,.76.61,1.37,1.37,1.37h0c.76,0,1.37-.61,1.37-1.37h0c0-.76-.61-1.37-1.37-1.37h0c-.76,0-1.37.61-1.37,1.37Z" style="fill: #fff;"/>
        <path d="M90.95,21.97h0c.76,0,1.37-.61,1.37-1.37h0c0-.76-.61-1.37-1.37-1.37h0c-.76,0-1.37.61-1.37,1.37h0c0,.76.61,1.37,1.37,1.37Z" style="fill: #fff;"/>
        <path d="M93.7,24.72h0c.76,0,1.37-.61,1.37-1.37h0c0-.76-.61-1.37-1.37-1.37h0c-.76,0-1.37.61-1.37,1.37h0c0,.76.61,1.37,1.37,1.37Z" style="fill: #fff;"/>
        <path d="M96.44,21.97h0c.76,0,1.37-.61,1.37-1.37h0c0-.76-.61-1.37-1.37-1.37h0c-.76,0-1.37.61-1.37,1.37h0c0,.76.61,1.37,1.37,1.37Z" style="fill: #fff;"/>
        <path d="M99.19,19.22h0c.76,0,1.37-.61,1.37-1.37h0c0-.76-.61-1.37-1.37-1.37h0c-.76,0-1.37.61-1.37,1.37h0c0,.76.61,1.37,1.37,1.37Z" style="fill: #fff;"/>
        <path d="M103.31,15.1h0c0-.76-.61-1.37-1.37-1.37h0c-.76,0-1.37.61-1.37,1.37h0c0,.76.61,1.37,1.37,1.37h0c.76,0,1.37-.61,1.37-1.37Z" style="fill: #fff;"/>
        <path d="M84.09,20.6h0c0,.76.61,1.37,1.37,1.37h0c.76,0,1.37-.61,1.37-1.37h0c0-.76-.61-1.37-1.37-1.37h0c-.76,0-1.37.61-1.37,1.37Z" style="fill: #fff;"/>
        <path d="M86.83,23.34h0c0,.76.61,1.37,1.37,1.37h0c.76,0,1.37-.61,1.37-1.37h0c0-.76-.61-1.37-1.37-1.37h0c-.76,0-1.37.61-1.37,1.37Z" style="fill: #fff;"/>
        <path d="M89.58,26.09h0c0,.76.61,1.37,1.37,1.37h0c.76,0,1.37-.61,1.37-1.37h0c0-.76-.61-1.37-1.37-1.37h0c-.76,0-1.37.61-1.37,1.37Z" style="fill: #fff;"/>
        <path d="M100.56,28.84h0c0-.76-.61-1.37-1.37-1.37h0c-.76,0-1.37.61-1.37,1.37h0c0,.76.61,1.37,1.37,1.37h0c.76,0,1.37-.61,1.37-1.37Z" style="fill: #fff;"/>
        <path d="M97.82,26.09h0c0-.76-.61-1.37-1.37-1.37h0c-.76,0-1.37.61-1.37,1.37h0c0,.76.61,1.37,1.37,1.37h0c.76,0,1.37-.61,1.37-1.37Z" style="fill: #fff;"/>
        <path d="M103.31,31.58h0c0-.76-.61-1.37-1.37-1.37h0c-.76,0-1.37.61-1.37,1.37h0c0,.76.61,1.37,1.37,1.37h0c.76,0,1.37-.61,1.37-1.37Z" style="fill: #fff;"/>
        <path d="M99.19,35.7h0c.76,0,1.37-.61,1.37-1.37h0c0-.76-.61-1.37-1.37-1.37h0c-.76,0-1.37.61-1.37,1.37h0c0,.76.61,1.37,1.37,1.37Z" style="fill: #fff;"/>
        <rect x="95.07" y="30.21" width="2.75" height="2.75" rx="1.37" ry="1.37" style="fill: #fff;"/>
        <path d="M92.33,28.84h0c0,.76.61,1.37,1.37,1.37h0c.76,0,1.37-.61,1.37-1.37h0c0-.76-.61-1.37-1.37-1.37h0c-.76,0-1.37.61-1.37,1.37Z" style="fill: #fff;"/>
        <path d="M81.34,23.34h0c0,.76.61,1.37,1.37,1.37h0c.76,0,1.37-.61,1.37-1.37h0c0-.76-.61-1.37-1.37-1.37h0c-.76,0-1.37.61-1.37,1.37Z" style="fill: #fff;"/>
        <path d="M85.46,27.46h0c.76,0,1.37-.61,1.37-1.37h0c0-.76-.61-1.37-1.37-1.37h0c-.76,0-1.37.61-1.37,1.37h0c0,.76.61,1.37,1.37,1.37Z" style="fill: #fff;"/>
        <path d="M100.56,6.87h0c0-.76-.61-1.37-1.37-1.37h0c-.76,0-1.37.61-1.37,1.37h0c0,.76.61,1.37,1.37,1.37h0c.76,0,1.37-.61,1.37-1.37Z" style="fill: #fff;"/>
        <path d="M78.59,20.6h0c0,.76.61,1.37,1.37,1.37h0c.76,0,1.37-.61,1.37-1.37h0c0-.76-.61-1.37-1.37-1.37h0c-.76,0-1.37.61-1.37,1.37Z" style="fill: #fff;"/>
        <path d="M93.7,19.22h0c.76,0,1.37-.61,1.37-1.37h0c0-.76-.61-1.37-1.37-1.37h0c-.76,0-1.37.61-1.37,1.37h0c0,.76.61,1.37,1.37,1.37Z" style="fill: #fff;"/>
        <path d="M81.34,4.12h0c0-.76-.61-1.37-1.37-1.37h0c-.76,0-1.37.61-1.37,1.37h0c0,.76.61,1.37,1.37,1.37h0c.76,0,1.37-.61,1.37-1.37Z" style="fill: #fff;"/>
      </g>
      <g>
        <path d="M221.87,27.46h0c.76,0,1.37-.61,1.37-1.37h0c0-.76-.61-1.37-1.37-1.37h0c-.76,0-1.37.61-1.37,1.37h0c0,.76.61,1.37,1.37,1.37Z" style="fill: #fff;"/>
        <path d="M215.01,26.09h0c0,.76.61,1.37,1.37,1.37h0c.76,0,1.37-.61,1.37-1.37h0c0-.76-.61-1.37-1.37-1.37h0c-.76,0-1.37.61-1.37,1.37Z" style="fill: #fff;"/>
        <path d="M219.13,21.97h0c-.76,0-1.37.61-1.37,1.37h0c0,.76.61,1.37,1.37,1.37h0c.76,0,1.37-.61,1.37-1.37h0c0-.76-.61-1.37-1.37-1.37Z" style="fill: #fff;"/>
        <path d="M219.13,30.21h0c.76,0,1.37-.61,1.37-1.37h0c0-.76-.61-1.37-1.37-1.37h0c-.76,0-1.37.61-1.37,1.37h0c0,.76.61,1.37,1.37,1.37Z" style="fill: #fff;"/>
        <path d="M223.25,31.58h0c0-.76-.61-1.37-1.37-1.37h0c-.76,0-1.37.61-1.37,1.37h0c0,.76.61,1.37,1.37,1.37h0c.76,0,1.37-.61,1.37-1.37Z" style="fill: #fff;"/>
        <path d="M215.01,31.58h0c0,.76.61,1.37,1.37,1.37h0c.76,0,1.37-.61,1.37-1.37h0c0-.76-.61-1.37-1.37-1.37h0c-.76,0-1.37.61-1.37,1.37Z" style="fill: #fff;"/>
        <path d="M219.13,35.7h0c.76,0,1.37-.61,1.37-1.37h0c0-.76-.61-1.37-1.37-1.37h0c-.76,0-1.37.61-1.37,1.37h0c0,.76.61,1.37,1.37,1.37Z" style="fill: #fff;"/>
        <path d="M219.13,16.48h0c-.76,0-1.37.61-1.37,1.37h0c0,.76.61,1.37,1.37,1.37h0c.76,0,1.37-.61,1.37-1.37h0c0-.76-.61-1.37-1.37-1.37Z" style="fill: #fff;"/>
        <path d="M215.01,20.6h0c0,.76.61,1.37,1.37,1.37h0c.76,0,1.37-.61,1.37-1.37h0c0-.76-.61-1.37-1.37-1.37h0c-.76,0-1.37.61-1.37,1.37Z" style="fill: #fff;"/>
        <path d="M215.01,15.1h0c0,.76.61,1.37,1.37,1.37h0c.76,0,1.37-.61,1.37-1.37h0c0-.76-.61-1.37-1.37-1.37h0c-.76,0-1.37.61-1.37,1.37Z" style="fill: #fff;"/>
        <path d="M221.87,13.73h0c-.76,0-1.37.61-1.37,1.37h0c0,.76.61,1.37,1.37,1.37h0c.76,0,1.37-.61,1.37-1.37h0c0-.76-.61-1.37-1.37-1.37Z" style="fill: #fff;"/>
        <path d="M221.87,8.24h0c-.76,0-1.37.61-1.37,1.37h0c0,.76.61,1.37,1.37,1.37h0c.76,0,1.37-.61,1.37-1.37h0c0-.76-.61-1.37-1.37-1.37Z" style="fill: #fff;"/>
        <rect x="217.75" y="10.99" width="2.75" height="2.75" rx="1.37" ry="1.37" style="fill: #fff;"/>
        <path d="M219.13,5.49h0c-.76,0-1.37.61-1.37,1.37h0c0,.76.61,1.37,1.37,1.37h0c.76,0,1.37-.61,1.37-1.37h0c0-.76-.61-1.37-1.37-1.37Z" style="fill: #fff;"/>
        <path d="M215.01,9.61h0c0,.76.61,1.37,1.37,1.37h0c.76,0,1.37-.61,1.37-1.37h0c0-.76-.61-1.37-1.37-1.37h0c-.76,0-1.37.61-1.37,1.37Z" style="fill: #fff;"/>
        <path d="M215.01,4.12h0c0,.76.61,1.37,1.37,1.37h0c.76,0,1.37-.61,1.37-1.37h0c0-.76-.61-1.37-1.37-1.37h0c-.76,0-1.37.61-1.37,1.37Z" style="fill: #fff;"/>
        <path d="M219.13,0h0c-.76,0-1.37.61-1.37,1.37h0c0,.76.61,1.37,1.37,1.37h0c.76,0,1.37-.61,1.37-1.37h0c0-.76-.61-1.37-1.37-1.37Z" style="fill: #fff;"/>
        <path d="M224.62,0h0c-.76,0-1.37.61-1.37,1.37h0c0,.76.61,1.37,1.37,1.37h0c.76,0,1.37-.61,1.37-1.37h0c0-.76-.61-1.37-1.37-1.37Z" style="fill: #fff;"/>
        <path d="M230.11,0h0c-.76,0-1.37.61-1.37,1.37h0c0,.76.61,1.37,1.37,1.37h0c.76,0,1.37-.61,1.37-1.37h0c0-.76-.61-1.37-1.37-1.37Z" style="fill: #fff;"/>
        <path d="M228.74,4.12h0c0-.76-.61-1.37-1.37-1.37h0c-.76,0-1.37.61-1.37,1.37h0c0,.76.61,1.37,1.37,1.37h0c.76,0,1.37-.61,1.37-1.37Z" style="fill: #fff;"/>
        <path d="M235.6,0h0c-.76,0-1.37.61-1.37,1.37h0c0,.76.61,1.37,1.37,1.37h0c.76,0,1.37-.61,1.37-1.37h0c0-.76-.61-1.37-1.37-1.37Z" style="fill: #fff;"/>
        <path d="M234.23,4.12h0c0-.76-.61-1.37-1.37-1.37h0c-.76,0-1.37.61-1.37,1.37h0c0,.76.61,1.37,1.37,1.37h0c.76,0,1.37-.61,1.37-1.37Z" style="fill: #fff;"/>
        <path d="M239.72,4.12h0c0-.76-.61-1.37-1.37-1.37h0c-.76,0-1.37.61-1.37,1.37h0c0,.76.61,1.37,1.37,1.37h0c.76,0,1.37-.61,1.37-1.37Z" style="fill: #fff;"/>
        <path d="M239.72,12.36h0c0,.76.61,1.37,1.37,1.37h0c.76,0,1.37-.61,1.37-1.37h0c0-.76-.61-1.37-1.37-1.37h0c-.76,0-1.37.61-1.37,1.37Z" style="fill: #fff;"/>
        <path d="M245.22,9.61h0c0-.76-.61-1.37-1.37-1.37h0c-.76,0-1.37.61-1.37,1.37h0c0,.76.61,1.37,1.37,1.37h0c.76,0,1.37-.61,1.37-1.37Z" style="fill: #fff;"/>
        <path d="M238.35,16.48h0c.76,0,1.37-.61,1.37-1.37h0c0-.76-.61-1.37-1.37-1.37h0c-.76,0-1.37.61-1.37,1.37h0c0,.76.61,1.37,1.37,1.37Z" style="fill: #fff;"/>
        <path d="M236.98,9.61h0c0,.76.61,1.37,1.37,1.37h0c.76,0,1.37-.61,1.37-1.37h0c0-.76-.61-1.37-1.37-1.37h0c-.76,0-1.37.61-1.37,1.37Z" style="fill: #fff;"/>
        <path d="M234.23,6.87h0c0,.76.61,1.37,1.37,1.37h0c.76,0,1.37-.61,1.37-1.37h0c0-.76-.61-1.37-1.37-1.37h0c-.76,0-1.37.61-1.37,1.37Z" style="fill: #fff;"/>
        <path d="M232.86,21.97h0c.76,0,1.37-.61,1.37-1.37h0c0-.76-.61-1.37-1.37-1.37h0c-.76,0-1.37.61-1.37,1.37h0c0,.76.61,1.37,1.37,1.37Z" style="fill: #fff;"/>
        <path d="M235.6,24.72h0c.76,0,1.37-.61,1.37-1.37h0c0-.76-.61-1.37-1.37-1.37h0c-.76,0-1.37.61-1.37,1.37h0c0,.76.61,1.37,1.37,1.37Z" style="fill: #fff;"/>
        <path d="M238.35,21.97h0c.76,0,1.37-.61,1.37-1.37h0c0-.76-.61-1.37-1.37-1.37h0c-.76,0-1.37.61-1.37,1.37h0c0,.76.61,1.37,1.37,1.37Z" style="fill: #fff;"/>
        <path d="M241.1,19.22h0c.76,0,1.37-.61,1.37-1.37h0c0-.76-.61-1.37-1.37-1.37h0c-.76,0-1.37.61-1.37,1.37h0c0,.76.61,1.37,1.37,1.37Z" style="fill: #fff;"/>
        <path d="M245.22,15.1h0c0-.76-.61-1.37-1.37-1.37h0c-.76,0-1.37.61-1.37,1.37h0c0,.76.61,1.37,1.37,1.37h0c.76,0,1.37-.61,1.37-1.37Z" style="fill: #fff;"/>
        <path d="M225.99,20.6h0c0,.76.61,1.37,1.37,1.37h0c.76,0,1.37-.61,1.37-1.37h0c0-.76-.61-1.37-1.37-1.37h0c-.76,0-1.37.61-1.37,1.37Z" style="fill: #fff;"/>
        <path d="M228.74,23.34h0c0,.76.61,1.37,1.37,1.37h0c.76,0,1.37-.61,1.37-1.37h0c0-.76-.61-1.37-1.37-1.37h0c-.76,0-1.37.61-1.37,1.37Z" style="fill: #fff;"/>
        <path d="M231.48,26.09h0c0,.76.61,1.37,1.37,1.37h0c.76,0,1.37-.61,1.37-1.37h0c0-.76-.61-1.37-1.37-1.37h0c-.76,0-1.37.61-1.37,1.37Z" style="fill: #fff;"/>
        <path d="M242.47,28.84h0c0-.76-.61-1.37-1.37-1.37h0c-.76,0-1.37.61-1.37,1.37h0c0,.76.61,1.37,1.37,1.37h0c.76,0,1.37-.61,1.37-1.37Z" style="fill: #fff;"/>
        <path d="M239.72,26.09h0c0-.76-.61-1.37-1.37-1.37h0c-.76,0-1.37.61-1.37,1.37h0c0,.76.61,1.37,1.37,1.37h0c.76,0,1.37-.61,1.37-1.37Z" style="fill: #fff;"/>
        <path d="M245.22,31.58h0c0-.76-.61-1.37-1.37-1.37h0c-.76,0-1.37.61-1.37,1.37h0c0,.76.61,1.37,1.37,1.37h0c.76,0,1.37-.61,1.37-1.37Z" style="fill: #fff;"/>
        <path d="M241.1,35.7h0c.76,0,1.37-.61,1.37-1.37h0c0-.76-.61-1.37-1.37-1.37h0c-.76,0-1.37.61-1.37,1.37h0c0,.76.61,1.37,1.37,1.37Z" style="fill: #fff;"/>
        <rect x="236.98" y="30.21" width="2.75" height="2.75" rx="1.37" ry="1.37" style="fill: #fff;"/>
        <path d="M234.23,28.84h0c0,.76.61,1.37,1.37,1.37h0c.76,0,1.37-.61,1.37-1.37h0c0-.76-.61-1.37-1.37-1.37h0c-.76,0-1.37.61-1.37,1.37Z" style="fill: #fff;"/>
        <path d="M223.25,23.34h0c0,.76.61,1.37,1.37,1.37h0c.76,0,1.37-.61,1.37-1.37h0c0-.76-.61-1.37-1.37-1.37h0c-.76,0-1.37.61-1.37,1.37Z" style="fill: #fff;"/>
        <path d="M227.36,27.46h0c.76,0,1.37-.61,1.37-1.37h0c0-.76-.61-1.37-1.37-1.37h0c-.76,0-1.37.61-1.37,1.37h0c0,.76.61,1.37,1.37,1.37Z" style="fill: #fff;"/>
        <path d="M242.47,6.87h0c0-.76-.61-1.37-1.37-1.37h0c-.76,0-1.37.61-1.37,1.37h0c0,.76.61,1.37,1.37,1.37h0c.76,0,1.37-.61,1.37-1.37Z" style="fill: #fff;"/>
        <path d="M220.5,20.6h0c0,.76.61,1.37,1.37,1.37h0c.76,0,1.37-.61,1.37-1.37h0c0-.76-.61-1.37-1.37-1.37h0c-.76,0-1.37.61-1.37,1.37Z" style="fill: #fff;"/>
        <path d="M235.6,19.22h0c.76,0,1.37-.61,1.37-1.37h0c0-.76-.61-1.37-1.37-1.37h0c-.76,0-1.37.61-1.37,1.37h0c0,.76.61,1.37,1.37,1.37Z" style="fill: #fff;"/>
        <path d="M223.25,4.12h0c0-.76-.61-1.37-1.37-1.37h0c-.76,0-1.37.61-1.37,1.37h0c0,.76.61,1.37,1.37,1.37h0c.76,0,1.37-.61,1.37-1.37Z" style="fill: #fff;"/>
      </g>
      <g>
        <path d="M125.52,1.37h0c0,.76.61,1.37,1.37,1.37h0c.76,0,1.37-.61,1.37-1.37h0c0-.76-.61-1.37-1.37-1.37h0c-.76,0-1.37.61-1.37,1.37Z" style="fill: #fff;"/>
        <path d="M124.14,5.49h0c.76,0,1.37-.61,1.37-1.37h0c0-.76-.61-1.37-1.37-1.37h0c-.76,0-1.37.61-1.37,1.37h0c0,.76.61,1.37,1.37,1.37Z" style="fill: #fff;"/>
        <path d="M128.26,4.12h0c0,.76.61,1.37,1.37,1.37h0c.76,0,1.37-.61,1.37-1.37h0c0-.76-.61-1.37-1.37-1.37h0c-.76,0-1.37.61-1.37,1.37Z" style="fill: #fff;"/>
        <path d="M132.38,0h0c-.76,0-1.37.61-1.37,1.37h0c0,.76.61,1.37,1.37,1.37h0c.76,0,1.37-.61,1.37-1.37h0c0-.76-.61-1.37-1.37-1.37Z" style="fill: #fff;"/>
        <path d="M133.75,4.12h0c0,.76.61,1.37,1.37,1.37h0c.76,0,1.37-.61,1.37-1.37h0c0-.76-.61-1.37-1.37-1.37h0c-.76,0-1.37.61-1.37,1.37Z" style="fill: #fff;"/>
        <path d="M132.38,8.24h0c.76,0,1.37-.61,1.37-1.37h0c0-.76-.61-1.37-1.37-1.37h0c-.76,0-1.37.61-1.37,1.37h0c0,.76.61,1.37,1.37,1.37Z" style="fill: #fff;"/>
        <path d="M114.53,1.37h0c0,.76.61,1.37,1.37,1.37h0c.76,0,1.37-.61,1.37-1.37h0c0-.76-.61-1.37-1.37-1.37h0c-.76,0-1.37.61-1.37,1.37Z" style="fill: #fff;"/>
        <path d="M113.16,5.49h0c.76,0,1.37-.61,1.37-1.37h0c0-.76-.61-1.37-1.37-1.37h0c-.76,0-1.37.61-1.37,1.37h0c0,.76.61,1.37,1.37,1.37Z" style="fill: #fff;"/>
        <path d="M110.41,0h0c-.76,0-1.37.61-1.37,1.37h0c0,.76.61,1.37,1.37,1.37h0c.76,0,1.37-.61,1.37-1.37h0c0-.76-.61-1.37-1.37-1.37Z" style="fill: #fff;"/>
        <path d="M106.29,4.12h0c0,.76.61,1.37,1.37,1.37h0c.76,0,1.37-.61,1.37-1.37h0c0-.76-.61-1.37-1.37-1.37h0c-.76,0-1.37.61-1.37,1.37Z" style="fill: #fff;"/>
        <path d="M110.41,8.24h0c.76,0,1.37-.61,1.37-1.37h0c0-.76-.61-1.37-1.37-1.37h0c-.76,0-1.37.61-1.37,1.37h0c0,.76.61,1.37,1.37,1.37Z" style="fill: #fff;"/>
        <path d="M125.52,26.09h0c0-.76-.61-1.37-1.37-1.37h0c-.76,0-1.37.61-1.37,1.37h0c0,.76.61,1.37,1.37,1.37h0c.76,0,1.37-.61,1.37-1.37Z" style="fill: #fff;"/>
        <path d="M117.28,26.09h0c0,.76.61,1.37,1.37,1.37h0c.76,0,1.37-.61,1.37-1.37h0c0-.76-.61-1.37-1.37-1.37h0c-.76,0-1.37.61-1.37,1.37Z" style="fill: #fff;"/>
        <path d="M121.4,24.72h0c.76,0,1.37-.61,1.37-1.37h0c0-.76-.61-1.37-1.37-1.37h0c-.76,0-1.37.61-1.37,1.37h0c0,.76.61,1.37,1.37,1.37Z" style="fill: #fff;"/>
        <path d="M121.4,30.21h0c.76,0,1.37-.61,1.37-1.37h0c0-.76-.61-1.37-1.37-1.37h0c-.76,0-1.37.61-1.37,1.37h0c0,.76.61,1.37,1.37,1.37Z" style="fill: #fff;"/>
        <path d="M125.52,31.58h0c0-.76-.61-1.37-1.37-1.37h0c-.76,0-1.37.61-1.37,1.37h0c0,.76.61,1.37,1.37,1.37h0c.76,0,1.37-.61,1.37-1.37Z" style="fill: #fff;"/>
        <rect x="117.28" y="30.21" width="2.75" height="2.75" rx="1.37" ry="1.37" style="fill: #fff;"/>
        <path d="M121.4,35.7h0c.76,0,1.37-.61,1.37-1.37h0c0-.76-.61-1.37-1.37-1.37h0c-.76,0-1.37.61-1.37,1.37h0c0,.76.61,1.37,1.37,1.37Z" style="fill: #fff;"/>
        <path d="M121.4,19.22h0c.76,0,1.37-.61,1.37-1.37h0c0-.76-.61-1.37-1.37-1.37h0c-.76,0-1.37.61-1.37,1.37h0c0,.76.61,1.37,1.37,1.37Z" style="fill: #fff;"/>
        <path d="M117.28,20.6h0c0,.76.61,1.37,1.37,1.37h0c.76,0,1.37-.61,1.37-1.37h0c0-.76-.61-1.37-1.37-1.37h0c-.76,0-1.37.61-1.37,1.37Z" style="fill: #fff;"/>
        <path d="M117.28,15.1h0c0,.76.61,1.37,1.37,1.37h0c.76,0,1.37-.61,1.37-1.37h0c0-.76-.61-1.37-1.37-1.37h0c-.76,0-1.37.61-1.37,1.37Z" style="fill: #fff;"/>
        <path d="M125.52,15.1h0c0-.76-.61-1.37-1.37-1.37h0c-.76,0-1.37.61-1.37,1.37h0c0,.76.61,1.37,1.37,1.37h0c.76,0,1.37-.61,1.37-1.37Z" style="fill: #fff;"/>
        <path d="M125.52,9.61h0c0-.76-.61-1.37-1.37-1.37h0c-.76,0-1.37.61-1.37,1.37h0c0,.76.61,1.37,1.37,1.37h0c.76,0,1.37-.61,1.37-1.37Z" style="fill: #fff;"/>
        <path d="M121.4,13.73h0c.76,0,1.37-.61,1.37-1.37h0c0-.76-.61-1.37-1.37-1.37h0c-.76,0-1.37.61-1.37,1.37h0c0,.76.61,1.37,1.37,1.37Z" style="fill: #fff;"/>
        <path d="M121.4,8.24h0c.76,0,1.37-.61,1.37-1.37h0c0-.76-.61-1.37-1.37-1.37h0c-.76,0-1.37.61-1.37,1.37h0c0,.76.61,1.37,1.37,1.37Z" style="fill: #fff;"/>
        <path d="M117.28,9.61h0c0,.76.61,1.37,1.37,1.37h0c.76,0,1.37-.61,1.37-1.37h0c0-.76-.61-1.37-1.37-1.37h0c-.76,0-1.37.61-1.37,1.37Z" style="fill: #fff;"/>
        <path d="M117.28,4.12h0c0,.76.61,1.37,1.37,1.37h0c.76,0,1.37-.61,1.37-1.37h0c0-.76-.61-1.37-1.37-1.37h0c-.76,0-1.37.61-1.37,1.37Z" style="fill: #fff;"/>
        <path d="M121.4,0h0c-.76,0-1.37.61-1.37,1.37h0c0,.76.61,1.37,1.37,1.37h0c.76,0,1.37-.61,1.37-1.37h0c0-.76-.61-1.37-1.37-1.37Z" style="fill: #fff;"/>
        <path d="M125.52,20.6h0c0-.76-.61-1.37-1.37-1.37h0c-.76,0-1.37.61-1.37,1.37h0c0,.76.61,1.37,1.37,1.37h0c.76,0,1.37-.61,1.37-1.37Z" style="fill: #fff;"/>
      </g>
      <g>
        <path d="M6.87,27.46h0c.76,0,1.37-.61,1.37-1.37h0c0-.76-.61-1.37-1.37-1.37h0c-.76,0-1.37.61-1.37,1.37h0c0,.76.61,1.37,1.37,1.37Z" style="fill: #fff;"/>
        <path d="M0,26.09h0c0,.76.61,1.37,1.37,1.37h0c.76,0,1.37-.61,1.37-1.37h0c0-.76-.61-1.37-1.37-1.37h0c-.76,0-1.37.61-1.37,1.37Z" style="fill: #fff;"/>
        <path d="M4.12,21.97h0c-.76,0-1.37.61-1.37,1.37h0c0,.76.61,1.37,1.37,1.37h0c.76,0,1.37-.61,1.37-1.37h0c0-.76-.61-1.37-1.37-1.37Z" style="fill: #fff;"/>
        <path d="M4.12,30.21h0c.76,0,1.37-.61,1.37-1.37h0c0-.76-.61-1.37-1.37-1.37h0c-.76,0-1.37.61-1.37,1.37h0c0,.76.61,1.37,1.37,1.37Z" style="fill: #fff;"/>
        <path d="M8.24,31.58h0c0-.76-.61-1.37-1.37-1.37h0c-.76,0-1.37.61-1.37,1.37h0c0,.76.61,1.37,1.37,1.37h0c.76,0,1.37-.61,1.37-1.37Z" style="fill: #fff;"/>
        <path d="M0,31.58h0c0,.76.61,1.37,1.37,1.37h0c.76,0,1.37-.61,1.37-1.37h0c0-.76-.61-1.37-1.37-1.37h0c-.76,0-1.37.61-1.37,1.37Z" style="fill: #fff;"/>
        <path d="M4.12,35.7h0c.76,0,1.37-.61,1.37-1.37h0c0-.76-.61-1.37-1.37-1.37h0c-.76,0-1.37.61-1.37,1.37h0c0,.76.61,1.37,1.37,1.37Z" style="fill: #fff;"/>
        <path d="M4.12,16.48h0c-.76,0-1.37.61-1.37,1.37h0c0,.76.61,1.37,1.37,1.37h0c.76,0,1.37-.61,1.37-1.37h0c0-.76-.61-1.37-1.37-1.37Z" style="fill: #fff;"/>
        <path d="M0,20.6h0c0,.76.61,1.37,1.37,1.37h0c.76,0,1.37-.61,1.37-1.37h0c0-.76-.61-1.37-1.37-1.37h0c-.76,0-1.37.61-1.37,1.37Z" style="fill: #fff;"/>
        <path d="M0,15.1h0c0,.76.61,1.37,1.37,1.37h0c.76,0,1.37-.61,1.37-1.37h0c0-.76-.61-1.37-1.37-1.37h0c-.76,0-1.37.61-1.37,1.37Z" style="fill: #fff;"/>
        <path d="M8.24,15.1h0c0-.76-.61-1.37-1.37-1.37h0c-.76,0-1.37.61-1.37,1.37h0c0,.76.61,1.37,1.37,1.37h0c.76,0,1.37-.61,1.37-1.37Z" style="fill: #fff;"/>
        <path d="M8.24,9.61h0c0-.76-.61-1.37-1.37-1.37h0c-.76,0-1.37.61-1.37,1.37h0c0,.76.61,1.37,1.37,1.37h0c.76,0,1.37-.61,1.37-1.37Z" style="fill: #fff;"/>
        <path d="M4.12,10.99h0c-.76,0-1.37.61-1.37,1.37h0c0,.76.61,1.37,1.37,1.37h0c.76,0,1.37-.61,1.37-1.37h0c0-.76-.61-1.37-1.37-1.37Z" style="fill: #fff;"/>
        <path d="M4.12,5.49h0c-.76,0-1.37.61-1.37,1.37h0c0,.76.61,1.37,1.37,1.37h0c.76,0,1.37-.61,1.37-1.37h0c0-.76-.61-1.37-1.37-1.37Z" style="fill: #fff;"/>
        <path d="M0,9.61h0c0,.76.61,1.37,1.37,1.37h0c.76,0,1.37-.61,1.37-1.37h0c0-.76-.61-1.37-1.37-1.37h0c-.76,0-1.37.61-1.37,1.37Z" style="fill: #fff;"/>
        <path d="M0,4.12h0c0,.76.61,1.37,1.37,1.37h0c.76,0,1.37-.61,1.37-1.37h0c0-.76-.61-1.37-1.37-1.37h0c-.76,0-1.37.61-1.37,1.37Z" style="fill: #fff;"/>
        <path d="M4.12,0h0c-.76,0-1.37.61-1.37,1.37h0c0,.76.61,1.37,1.37,1.37h0c.76,0,1.37-.61,1.37-1.37h0c0-.76-.61-1.37-1.37-1.37Z" style="fill: #fff;"/>
        <path d="M9.61,0h0c-.76,0-1.37.61-1.37,1.37h0c0,.76.61,1.37,1.37,1.37h0c.76,0,1.37-.61,1.37-1.37h0c0-.76-.61-1.37-1.37-1.37Z" style="fill: #fff;"/>
        <path d="M15.1,0h0c-.76,0-1.37.61-1.37,1.37h0c0,.76.61,1.37,1.37,1.37h0c.76,0,1.37-.61,1.37-1.37h0c0-.76-.61-1.37-1.37-1.37Z" style="fill: #fff;"/>
        <path d="M13.73,4.12h0c0-.76-.61-1.37-1.37-1.37h0c-.76,0-1.37.61-1.37,1.37h0c0,.76.61,1.37,1.37,1.37h0c.76,0,1.37-.61,1.37-1.37Z" style="fill: #fff;"/>
        <path d="M20.6,0h0c-.76,0-1.37.61-1.37,1.37h0c0,.76.61,1.37,1.37,1.37h0c.76,0,1.37-.61,1.37-1.37h0c0-.76-.61-1.37-1.37-1.37Z" style="fill: #fff;"/>
        <path d="M19.22,4.12h0c0-.76-.61-1.37-1.37-1.37h0c-.76,0-1.37.61-1.37,1.37h0c0,.76.61,1.37,1.37,1.37h0c.76,0,1.37-.61,1.37-1.37Z" style="fill: #fff;"/>
        <path d="M24.72,4.12h0c0-.76-.61-1.37-1.37-1.37h0c-.76,0-1.37.61-1.37,1.37h0c0,.76.61,1.37,1.37,1.37h0c.76,0,1.37-.61,1.37-1.37Z" style="fill: #fff;"/>
        <path d="M24.72,12.36h0c0,.76.61,1.37,1.37,1.37h0c.76,0,1.37-.61,1.37-1.37h0c0-.76-.61-1.37-1.37-1.37h0c-.76,0-1.37.61-1.37,1.37Z" style="fill: #fff;"/>
        <path d="M23.34,16.48h0c.76,0,1.37-.61,1.37-1.37h0c0-.76-.61-1.37-1.37-1.37h0c-.76,0-1.37.61-1.37,1.37h0c0,.76.61,1.37,1.37,1.37Z" style="fill: #fff;"/>
        <path d="M30.21,15.1h0c0-.76-.61-1.37-1.37-1.37h0c-.76,0-1.37.61-1.37,1.37h0c0,.76.61,1.37,1.37,1.37h0c.76,0,1.37-.61,1.37-1.37Z" style="fill: #fff;"/>
        <path d="M21.97,9.61h0c0,.76.61,1.37,1.37,1.37h0c.76,0,1.37-.61,1.37-1.37h0c0-.76-.61-1.37-1.37-1.37h0c-.76,0-1.37.61-1.37,1.37Z" style="fill: #fff;"/>
        <path d="M30.21,9.61h0c0-.76-.61-1.37-1.37-1.37h0c-.76,0-1.37.61-1.37,1.37h0c0,.76.61,1.37,1.37,1.37h0c.76,0,1.37-.61,1.37-1.37Z" style="fill: #fff;"/>
        <path d="M19.22,6.87h0c0,.76.61,1.37,1.37,1.37h0c.76,0,1.37-.61,1.37-1.37h0c0-.76-.61-1.37-1.37-1.37h0c-.76,0-1.37.61-1.37,1.37Z" style="fill: #fff;"/>
        <path d="M16.48,20.6h0c0,.76.61,1.37,1.37,1.37h0c.76,0,1.37-.61,1.37-1.37h0c0-.76-.61-1.37-1.37-1.37h0c-.76,0-1.37.61-1.37,1.37Z" style="fill: #fff;"/>
        <path d="M20.6,24.72h0c.76,0,1.37-.61,1.37-1.37h0c0-.76-.61-1.37-1.37-1.37h0c-.76,0-1.37.61-1.37,1.37h0c0,.76.61,1.37,1.37,1.37Z" style="fill: #fff;"/>
        <path d="M23.34,21.97h0c.76,0,1.37-.61,1.37-1.37h0c0-.76-.61-1.37-1.37-1.37h0c-.76,0-1.37.61-1.37,1.37h0c0,.76.61,1.37,1.37,1.37Z" style="fill: #fff;"/>
        <path d="M26.09,19.22h0c.76,0,1.37-.61,1.37-1.37h0c0-.76-.61-1.37-1.37-1.37h0c-.76,0-1.37.61-1.37,1.37h0c0,.76.61,1.37,1.37,1.37Z" style="fill: #fff;"/>
        <path d="M10.99,20.6h0c0,.76.61,1.37,1.37,1.37h0c.76,0,1.37-.61,1.37-1.37h0c0-.76-.61-1.37-1.37-1.37h0c-.76,0-1.37.61-1.37,1.37Z" style="fill: #fff;"/>
        <path d="M15.1,24.72h0c.76,0,1.37-.61,1.37-1.37h0c0-.76-.61-1.37-1.37-1.37h0c-.76,0-1.37.61-1.37,1.37h0c0,.76.61,1.37,1.37,1.37Z" style="fill: #fff;"/>
        <path d="M9.61,24.72h0c.76,0,1.37-.61,1.37-1.37h0c0-.76-.61-1.37-1.37-1.37h0c-.76,0-1.37.61-1.37,1.37h0c0,.76.61,1.37,1.37,1.37Z" style="fill: #fff;"/>
        <path d="M27.46,6.87h0c0-.76-.61-1.37-1.37-1.37h0c-.76,0-1.37.61-1.37,1.37h0c0,.76.61,1.37,1.37,1.37h0c.76,0,1.37-.61,1.37-1.37Z" style="fill: #fff;"/>
        <path d="M8.24,20.6h0c0-.76-.61-1.37-1.37-1.37h0c-.76,0-1.37.61-1.37,1.37h0c0,.76.61,1.37,1.37,1.37h0c.76,0,1.37-.61,1.37-1.37Z" style="fill: #fff;"/>
        <path d="M20.6,19.22h0c.76,0,1.37-.61,1.37-1.37h0c0-.76-.61-1.37-1.37-1.37h0c-.76,0-1.37.61-1.37,1.37h0c0,.76.61,1.37,1.37,1.37Z" style="fill: #fff;"/>
        <path d="M8.24,4.12h0c0-.76-.61-1.37-1.37-1.37h0c-.76,0-1.37.61-1.37,1.37h0c0,.76.61,1.37,1.37,1.37h0c.76,0,1.37-.61,1.37-1.37Z" style="fill: #fff;"/>
      </g>
      <g>
        <path d="M179.6,4.12h0c0,.76.61,1.37,1.37,1.37h0c.76,0,1.37-.61,1.37-1.37h0c0-.76-.61-1.37-1.37-1.37h0c-.76,0-1.37.61-1.37,1.37Z" style="fill: #fff;"/>
        <path d="M187.84,26.09h0c0-.76-.61-1.37-1.37-1.37h0c-.76,0-1.37.61-1.37,1.37h0c0,.76.61,1.37,1.37,1.37h0c.76,0,1.37-.61,1.37-1.37Z" style="fill: #fff;"/>
        <path d="M179.6,26.09h0c0,.76.61,1.37,1.37,1.37h0c.76,0,1.37-.61,1.37-1.37h0c0-.76-.61-1.37-1.37-1.37h0c-.76,0-1.37.61-1.37,1.37Z" style="fill: #fff;"/>
        <path d="M183.72,24.72h0c.76,0,1.37-.61,1.37-1.37h0c0-.76-.61-1.37-1.37-1.37h0c-.76,0-1.37.61-1.37,1.37h0c0,.76.61,1.37,1.37,1.37Z" style="fill: #fff;"/>
        <path d="M183.72,30.21h0c.76,0,1.37-.61,1.37-1.37h0c0-.76-.61-1.37-1.37-1.37h0c-.76,0-1.37.61-1.37,1.37h0c0,.76.61,1.37,1.37,1.37Z" style="fill: #fff;"/>
        <path d="M187.84,31.58h0c0-.76-.61-1.37-1.37-1.37h0c-.76,0-1.37.61-1.37,1.37h0c0,.76.61,1.37,1.37,1.37h0c.76,0,1.37-.61,1.37-1.37Z" style="fill: #fff;"/>
        <path d="M190.58,34.33h0c0-.76-.61-1.37-1.37-1.37h0c-.76,0-1.37.61-1.37,1.37h0c0,.76.61,1.37,1.37,1.37h0c.76,0,1.37-.61,1.37-1.37Z" style="fill: #fff;"/>
        <path d="M196.08,34.33h0c0-.76-.61-1.37-1.37-1.37h0c-.76,0-1.37.61-1.37,1.37h0c0,.76.61,1.37,1.37,1.37h0c.76,0,1.37-.61,1.37-1.37Z" style="fill: #fff;"/>
        <path d="M197.45,30.21h0c-.76,0-1.37.61-1.37,1.37h0c0,.76.61,1.37,1.37,1.37h0c.76,0,1.37-.61,1.37-1.37h0c0-.76-.61-1.37-1.37-1.37Z" style="fill: #fff;"/>
        <path d="M201.57,34.33h0c0-.76-.61-1.37-1.37-1.37h0c-.76,0-1.37.61-1.37,1.37h0c0,.76.61,1.37,1.37,1.37h0c.76,0,1.37-.61,1.37-1.37Z" style="fill: #fff;"/>
        <path d="M205.69,35.7h0c.76,0,1.37-.61,1.37-1.37h0c0-.76-.61-1.37-1.37-1.37h0c-.76,0-1.37.61-1.37,1.37h0c0,.76.61,1.37,1.37,1.37Z" style="fill: #fff;"/>
        <path d="M209.81,31.58h0c0-.76-.61-1.37-1.37-1.37h0c-.76,0-1.37.61-1.37,1.37h0c0,.76.61,1.37,1.37,1.37h0c.76,0,1.37-.61,1.37-1.37Z" style="fill: #fff;"/>
        <path d="M205.69,27.46h0c-.76,0-1.37.61-1.37,1.37h0c0,.76.61,1.37,1.37,1.37h0c.76,0,1.37-.61,1.37-1.37h0c0-.76-.61-1.37-1.37-1.37Z" style="fill: #fff;"/>
        <path d="M202.94,30.21h0c-.76,0-1.37.61-1.37,1.37h0c0,.76.61,1.37,1.37,1.37h0c.76,0,1.37-.61,1.37-1.37h0c0-.76-.61-1.37-1.37-1.37Z" style="fill: #fff;"/>
        <path d="M191.96,30.21h0c-.76,0-1.37.61-1.37,1.37h0c0,.76.61,1.37,1.37,1.37h0c.76,0,1.37-.61,1.37-1.37h0c0-.76-.61-1.37-1.37-1.37Z" style="fill: #fff;"/>
        <path d="M179.6,31.58h0c0,.76.61,1.37,1.37,1.37h0c.76,0,1.37-.61,1.37-1.37h0c0-.76-.61-1.37-1.37-1.37h0c-.76,0-1.37.61-1.37,1.37Z" style="fill: #fff;"/>
        <path d="M183.72,35.7h0c.76,0,1.37-.61,1.37-1.37h0c0-.76-.61-1.37-1.37-1.37h0c-.76,0-1.37.61-1.37,1.37h0c0,.76.61,1.37,1.37,1.37Z" style="fill: #fff;"/>
        <path d="M183.72,19.22h0c.76,0,1.37-.61,1.37-1.37h0c0-.76-.61-1.37-1.37-1.37h0c-.76,0-1.37.61-1.37,1.37h0c0,.76.61,1.37,1.37,1.37Z" style="fill: #fff;"/>
        <path d="M179.6,20.6h0c0,.76.61,1.37,1.37,1.37h0c.76,0,1.37-.61,1.37-1.37h0c0-.76-.61-1.37-1.37-1.37h0c-.76,0-1.37.61-1.37,1.37Z" style="fill: #fff;"/>
        <path d="M179.6,15.1h0c0,.76.61,1.37,1.37,1.37h0c.76,0,1.37-.61,1.37-1.37h0c0-.76-.61-1.37-1.37-1.37h0c-.76,0-1.37.61-1.37,1.37Z" style="fill: #fff;"/>
        <path d="M187.84,15.1h0c0-.76-.61-1.37-1.37-1.37h0c-.76,0-1.37.61-1.37,1.37h0c0,.76.61,1.37,1.37,1.37h0c.76,0,1.37-.61,1.37-1.37Z" style="fill: #fff;"/>
        <path d="M183.72,13.73h0c.76,0,1.37-.61,1.37-1.37h0c0-.76-.61-1.37-1.37-1.37h0c-.76,0-1.37.61-1.37,1.37h0c0,.76.61,1.37,1.37,1.37Z" style="fill: #fff;"/>
        <path d="M183.72,8.24h0c.76,0,1.37-.61,1.37-1.37h0c0-.76-.61-1.37-1.37-1.37h0c-.76,0-1.37.61-1.37,1.37h0c0,.76.61,1.37,1.37,1.37Z" style="fill: #fff;"/>
        <path d="M179.6,9.61h0c0,.76.61,1.37,1.37,1.37h0c.76,0,1.37-.61,1.37-1.37h0c0-.76-.61-1.37-1.37-1.37h0c-.76,0-1.37.61-1.37,1.37Z" style="fill: #fff;"/>
        <path d="M183.72,0h0c-.76,0-1.37.61-1.37,1.37h0c0,.76.61,1.37,1.37,1.37h0c.76,0,1.37-.61,1.37-1.37h0c0-.76-.61-1.37-1.37-1.37Z" style="fill: #fff;"/>
        <path d="M187.84,1.37h0c0,.76.61,1.37,1.37,1.37h0c.76,0,1.37-.61,1.37-1.37h0c0-.76-.61-1.37-1.37-1.37h0c-.76,0-1.37.61-1.37,1.37Z" style="fill: #fff;"/>
        <path d="M193.33,1.37h0c0,.76.61,1.37,1.37,1.37h0c.76,0,1.37-.61,1.37-1.37h0c0-.76-.61-1.37-1.37-1.37h0c-.76,0-1.37.61-1.37,1.37Z" style="fill: #fff;"/>
        <path d="M198.82,1.37h0c0,.76.61,1.37,1.37,1.37h0c.76,0,1.37-.61,1.37-1.37h0c0-.76-.61-1.37-1.37-1.37h0c-.76,0-1.37.61-1.37,1.37Z" style="fill: #fff;"/>
        <path d="M197.45,5.49h0c.76,0,1.37-.61,1.37-1.37h0c0-.76-.61-1.37-1.37-1.37h0c-.76,0-1.37.61-1.37,1.37h0c0,.76.61,1.37,1.37,1.37Z" style="fill: #fff;"/>
        <path d="M191.96,5.49h0c.76,0,1.37-.61,1.37-1.37h0c0-.76-.61-1.37-1.37-1.37h0c-.76,0-1.37.61-1.37,1.37h0c0,.76.61,1.37,1.37,1.37Z" style="fill: #fff;"/>
        <path d="M187.84,9.61h0c0-.76-.61-1.37-1.37-1.37h0c-.76,0-1.37.61-1.37,1.37h0c0,.76.61,1.37,1.37,1.37h0c.76,0,1.37-.61,1.37-1.37Z" style="fill: #fff;"/>
        <path d="M201.57,4.12h0c0,.76.61,1.37,1.37,1.37h0c.76,0,1.37-.61,1.37-1.37h0c0-.76-.61-1.37-1.37-1.37h0c-.76,0-1.37.61-1.37,1.37Z" style="fill: #fff;"/>
        <path d="M205.69,0h0c-.76,0-1.37.61-1.37,1.37h0c0,.76.61,1.37,1.37,1.37h0c.76,0,1.37-.61,1.37-1.37h0c0-.76-.61-1.37-1.37-1.37Z" style="fill: #fff;"/>
        <path d="M209.81,4.12h0c0-.76-.61-1.37-1.37-1.37h0c-.76,0-1.37.61-1.37,1.37h0c0,.76.61,1.37,1.37,1.37h0c.76,0,1.37-.61,1.37-1.37Z" style="fill: #fff;"/>
        <path d="M207.06,6.87h0c0-.76-.61-1.37-1.37-1.37h0c-.76,0-1.37.61-1.37,1.37h0c0,.76.61,1.37,1.37,1.37h0c.76,0,1.37-.61,1.37-1.37Z" style="fill: #fff;"/>
        <path d="M187.84,17.85h0c0,.76.61,1.37,1.37,1.37h0c.76,0,1.37-.61,1.37-1.37h0c0-.76-.61-1.37-1.37-1.37h0c-.76,0-1.37.61-1.37,1.37Z" style="fill: #fff;"/>
        <path d="M191.96,13.73h0c-.76,0-1.37.61-1.37,1.37h0c0,.76.61,1.37,1.37,1.37h0c.76,0,1.37-.61,1.37-1.37h0c0-.76-.61-1.37-1.37-1.37Z" style="fill: #fff;"/>
        <path d="M193.33,20.6h0c0-.76-.61-1.37-1.37-1.37h0c-.76,0-1.37.61-1.37,1.37h0c0,.76.61,1.37,1.37,1.37h0c.76,0,1.37-.61,1.37-1.37Z" style="fill: #fff;"/>
        <path d="M196.08,17.85h0c0-.76-.61-1.37-1.37-1.37h0c-.76,0-1.37.61-1.37,1.37h0c0,.76.61,1.37,1.37,1.37h0c.76,0,1.37-.61,1.37-1.37Z" style="fill: #fff;"/>
        <path d="M187.84,20.6h0c0-.76-.61-1.37-1.37-1.37h0c-.76,0-1.37.61-1.37,1.37h0c0,.76.61,1.37,1.37,1.37h0c.76,0,1.37-.61,1.37-1.37Z" style="fill: #fff;"/>
        <path d="M186.46,5.49h0c.76,0,1.37-.61,1.37-1.37h0c0-.76-.61-1.37-1.37-1.37h0c-.76,0-1.37.61-1.37,1.37h0c0,.76.61,1.37,1.37,1.37Z" style="fill: #fff;"/>
      </g>
    </g>
  </g>
</svg>