<?xml version="1.0" encoding="UTF-8"?>
<svg id="Layer_2" data-name="Layer 2" xmlns="http://www.w3.org/2000/svg" viewBox="0 0 106.71 24.81">
  <g id="Layer_1-2" data-name="Layer 1">
    <g>
      <g>
        <path d="M91.44,4.77h0c0-.53-.43-.95-.95-.95h0c-.53,0-.95.43-.95.95h0c0,.53.43.95.95.95h0c.53,0,.95-.43.95-.95Z" style="fill: #fff;"/>
        <path d="M88.58,1.91h0c-.53,0-.95.43-.95.95h0c0,.53.43.95.95.95h0c.53,0,.95-.43.95-.95h0c0-.53-.43-.95-.95-.95Z" style="fill: #fff;"/>
        <path d="M86.67,3.82h0c-.53,0-.95.43-.95.95h0c0,.53.43.95.95.95h0c.53,0,.95-.43.95-.95h0c0-.53-.43-.95-.95-.95Z" style="fill: #fff;"/>
        <path d="M88.58,7.63h0c.53,0,.95-.43.95-.95h0c0-.53-.43-.95-.95-.95h0c-.53,0-.95.43-.95.95h0c0,.53.43.95.95.95Z" style="fill: #fff;"/>
        <path d="M103.85,1.91h0c-.53,0-.95.43-.95.95h0c0,.53.43.95.95.95h0c.53,0,.95-.43.95-.95h0c0-.53-.43-.95-.95-.95Z" style="fill: #fff;"/>
        <path d="M104.8,4.77h0c0,.53.43.95.95.95h0c.53,0,.95-.43.95-.95h0c0-.53-.43-.95-.95-.95h0c-.53,0-.95.43-.95.95Z" style="fill: #fff;"/>
        <path d="M103.85,7.63h0c.53,0,.95-.43.95-.95h0c0-.53-.43-.95-.95-.95h0c-.53,0-.95.43-.95.95h0c0,.53.43.95.95.95Z" style="fill: #fff;"/>
        <path d="M101.94,3.82h0c-.53,0-.95.43-.95.95h0c0,.53.43.95.95.95h0c.53,0,.95-.43.95-.95h0c0-.53-.43-.95-.95-.95Z" style="fill: #fff;"/>
        <rect x="99.08" y="5.73" width="1.91" height="1.91" rx=".95" ry=".95" style="fill: #fff;"/>
        <path d="M101.94,9.54h0c.53,0,.95-.43.95-.95h0c0-.53-.43-.95-.95-.95h0c-.53,0-.95.43-.95.95h0c0,.53.43.95.95.95Z" style="fill: #fff;"/>
        <path d="M100.03,11.45h0c.53,0,.95-.43.95-.95h0c0-.53-.43-.95-.95-.95h0c-.53,0-.95.43-.95.95h0c0,.53.43.95.95.95Z" style="fill: #fff;"/>
        <path d="M98.12,7.63h0c-.53,0-.95.43-.95.95h0c0,.53.43.95.95.95h0c.53,0,.95-.43.95-.95h0c0-.53-.43-.95-.95-.95Z" style="fill: #fff;"/>
        <path d="M96.21,9.54h0c-.53,0-.95.43-.95.95h0c0,.53.43.95.95.95h0c.53,0,.95-.43.95-.95h0c0-.53-.43-.95-.95-.95Z" style="fill: #fff;"/>
        <path d="M98.12,13.36h0c.53,0,.95-.43.95-.95h0c0-.53-.43-.95-.95-.95h0c-.53,0-.95.43-.95.95h0c0,.53.43.95.95.95Z" style="fill: #fff;"/>
        <path d="M96.21,15.27h0c.53,0,.95-.43.95-.95h0c0-.53-.43-.95-.95-.95h0c-.53,0-.95.43-.95.95h0c0,.53.43.95.95.95Z" style="fill: #fff;"/>
        <path d="M94.31,11.45h0c-.53,0-.95.43-.95.95h0c0,.53.43.95.95.95h0c.53,0,.95-.43.95-.95h0c0-.53-.43-.95-.95-.95Z" style="fill: #fff;"/>
        <path d="M92.4,13.36h0c-.53,0-.95.43-.95.95h0c0,.53.43.95.95.95h0c.53,0,.95-.43.95-.95h0c0-.53-.43-.95-.95-.95Z" style="fill: #fff;"/>
        <path d="M94.31,17.18h0c.53,0,.95-.43.95-.95h0c0-.53-.43-.95-.95-.95h0c-.53,0-.95.43-.95.95h0c0,.53.43.95.95.95Z" style="fill: #fff;"/>
        <path d="M90.49,15.27h0c-.53,0-.95.43-.95.95h0c0,.53.43.95.95.95h0c.53,0,.95-.43.95-.95h0c0-.53-.43-.95-.95-.95Z" style="fill: #fff;"/>
        <path d="M92.4,19.09h0c.53,0,.95-.43.95-.95h0c0-.53-.43-.95-.95-.95h0c-.53,0-.95.43-.95.95h0c0,.53.43.95.95.95Z" style="fill: #fff;"/>
        <path d="M88.58,17.18h0c-.53,0-.95.43-.95.95h0c0,.53.43.95.95.95h0c.53,0,.95-.43.95-.95h0c0-.53-.43-.95-.95-.95Z" style="fill: #fff;"/>
        <path d="M90.49,20.99h0c.53,0,.95-.43.95-.95h0c0-.53-.43-.95-.95-.95h0c-.53,0-.95.43-.95.95h0c0,.53.43.95.95.95Z" style="fill: #fff;"/>
        <rect x="85.72" y="19.09" width="1.91" height="1.91" rx=".95" ry=".95" style="fill: #fff;"/>
        <path d="M88.58,22.9h0c.53,0,.95-.43.95-.95h0c0-.53-.43-.95-.95-.95h0c-.53,0-.95.43-.95.95h0c0,.53.43.95.95.95Z" style="fill: #fff;"/>
        <path d="M105.76,20.99h0c.53,0,.95-.43.95-.95h0c0-.53-.43-.95-.95-.95h0c-.53,0-.95.43-.95.95h0c0,.53.43.95.95.95Z" style="fill: #fff;"/>
        <path d="M103.85,17.18h0c-.53,0-.95.43-.95.95h0c0,.53.43.95.95.95h0c.53,0,.95-.43.95-.95h0c0-.53-.43-.95-.95-.95Z" style="fill: #fff;"/>
        <path d="M100.99,20.04h0c0,.53.43.95.95.95h0c.53,0,.95-.43.95-.95h0c0-.53-.43-.95-.95-.95h0c-.53,0-.95.43-.95.95Z" style="fill: #fff;"/>
        <path d="M103.85,22.9h0c.53,0,.95-.43.95-.95h0c0-.53-.43-.95-.95-.95h0c-.53,0-.95.43-.95.95h0c0,.53.43.95.95.95Z" style="fill: #fff;"/>
      </g>
      <g>
        <path d="M48.28,21.95h0c0,.53.43.95.95.95h0c.53,0,.95-.43.95-.95h0c0-.53-.43-.95-.95-.95h0c-.53,0-.95.43-.95.95Z" style="fill: #fff;"/>
        <path d="M51.14,19.09h0c-.53,0-.95.43-.95.95h0c0,.53.43.95.95.95h0c.53,0,.95-.43.95-.95h0c0-.53-.43-.95-.95-.95Z" style="fill: #fff;"/>
        <path d="M52.1,21.95h0c0,.53.43.95.95.95h0c.53,0,.95-.43.95-.95h0c0-.53-.43-.95-.95-.95h0c-.53,0-.95.43-.95.95Z" style="fill: #fff;"/>
        <path d="M51.14,24.81h0c.53,0,.95-.43.95-.95h0c0-.53-.43-.95-.95-.95h0c-.53,0-.95.43-.95.95h0c0,.53.43.95.95.95Z" style="fill: #fff;"/>
      </g>
      <g>
        <path d="M45.8,4.77h0c0-.53-.43-.95-.95-.95h0c-.53,0-.95.43-.95.95h0c0,.53.43.95.95.95h0c.53,0,.95-.43.95-.95Z" style="fill: #fff;"/>
        <path d="M34.35,10.5h0c0,.53.43.95.95.95h0c.53,0,.95-.43.95-.95h0c0-.53-.43-.95-.95-.95h0c-.53,0-.95.43-.95.95Z" style="fill: #fff;"/>
        <path d="M36.26,12.41h0c0,.53.43.95.95.95h0c.53,0,.95-.43.95-.95h0c0-.53-.43-.95-.95-.95h0c-.53,0-.95.43-.95.95Z" style="fill: #fff;"/>
        <path d="M43.9,14.31h0c0-.53-.43-.95-.95-.95h0c-.53,0-.95.43-.95.95h0c0,.53.43.95.95.95h0c.53,0,.95-.43.95-.95Z" style="fill: #fff;"/>
        <path d="M29.58,5.73h0c.53,0,.95-.43.95-.95h0c0-.53-.43-.95-.95-.95h0c-.53,0-.95.43-.95.95h0c0,.53.43.95.95.95Z" style="fill: #fff;"/>
        <path d="M29.58,0h0C29.05,0,28.63.43,28.63.95h0c0,.53.43.95.95.95h0c.53,0,.95-.43.95-.95h0C30.54.43,30.11,0,29.58,0Z" style="fill: #fff;"/>
        <path d="M36.26.95h0c0,.53.43.95.95.95h0c.53,0,.95-.43.95-.95h0C38.17.43,37.74,0,37.22,0h0c-.53,0-.95.43-.95.95Z" style="fill: #fff;"/>
        <path d="M35.31,3.82h0c.53,0,.95-.43.95-.95h0c0-.53-.43-.95-.95-.95h0c-.53,0-.95.43-.95.95h0c0,.53.43.95.95.95Z" style="fill: #fff;"/>
        <path d="M32.44.95h0c0,.53.43.95.95.95h0c.53,0,.95-.43.95-.95h0C34.35.43,33.93,0,33.4,0h0c-.53,0-.95.43-.95.95Z" style="fill: #fff;"/>
        <path d="M31.49,3.82h0c.53,0,.95-.43.95-.95h0c0-.53-.43-.95-.95-.95h0c-.53,0-.95.43-.95.95h0c0,.53.43.95.95.95Z" style="fill: #fff;"/>
        <path d="M43.9,2.86h0c0-.53-.43-.95-.95-.95h0c-.53,0-.95.43-.95.95h0c0,.53.43.95.95.95h0c.53,0,.95-.43.95-.95Z" style="fill: #fff;"/>
        <path d="M41.03,0h0c-.53,0-.95.43-.95.95h0c0,.53.43.95.95.95h0c.53,0,.95-.43.95-.95h0C41.99.43,41.56,0,41.03,0Z" style="fill: #fff;"/>
        <path d="M41.03,3.82h0c-.53,0-.95.43-.95.95h0c0,.53.43.95.95.95h0c.53,0,.95-.43.95-.95h0c0-.53-.43-.95-.95-.95Z" style="fill: #fff;"/>
        <path d="M38.17,2.86h0c0,.53.43.95.95.95h0c.53,0,.95-.43.95-.95h0c0-.53-.43-.95-.95-.95h0c-.53,0-.95.43-.95.95Z" style="fill: #fff;"/>
        <path d="M37.22,7.63h0c-.53,0-.95.43-.95.95h0c0,.53.43.95.95.95h0c.53,0,.95-.43.95-.95h0c0-.53-.43-.95-.95-.95Z" style="fill: #fff;"/>
        <path d="M42.94,7.63h0c.53,0,.95-.43.95-.95h0c0-.53-.43-.95-.95-.95h0c-.53,0-.95.43-.95.95h0c0,.53.43.95.95.95Z" style="fill: #fff;"/>
        <path d="M41.03,9.54h0c.53,0,.95-.43.95-.95h0c0-.53-.43-.95-.95-.95h0c-.53,0-.95.43-.95.95h0c0,.53.43.95.95.95Z" style="fill: #fff;"/>
        <path d="M39.12,5.73h0c-.53,0-.95.43-.95.95h0c0,.53.43.95.95.95h0c.53,0,.95-.43.95-.95h0c0-.53-.43-.95-.95-.95Z" style="fill: #fff;"/>
        <path d="M38.17,14.31h0c0,.53.43.95.95.95h0c.53,0,.95-.43.95-.95h0c0-.53-.43-.95-.95-.95h0c-.53,0-.95.43-.95.95Z" style="fill: #fff;"/>
        <path d="M38.17,10.5h0c0,.53.43.95.95.95h0c.53,0,.95-.43.95-.95h0c0-.53-.43-.95-.95-.95h0c-.53,0-.95.43-.95.95Z" style="fill: #fff;"/>
        <path d="M41.99,12.41h0c0-.53-.43-.95-.95-.95h0c-.53,0-.95.43-.95.95h0c0,.53.43.95.95.95h0c.53,0,.95-.43.95-.95Z" style="fill: #fff;"/>
        <path d="M26.72,21.95h0c0,.53.43.95.95.95h0c.53,0,.95-.43.95-.95h0c0-.53-.43-.95-.95-.95h0c-.53,0-.95.43-.95.95Z" style="fill: #fff;"/>
        <path d="M30.54,20.04h0c0-.53-.43-.95-.95-.95h0c-.53,0-.95.43-.95.95h0c0,.53.43.95.95.95h0c.53,0,.95-.43.95-.95Z" style="fill: #fff;"/>
        <path d="M24.81,20.04h0c0,.53.43.95.95.95h0c.53,0,.95-.43.95-.95h0c0-.53-.43-.95-.95-.95h0c-.53,0-.95.43-.95.95Z" style="fill: #fff;"/>
        <path d="M27.67,17.18h0c-.53,0-.95.43-.95.95h0c0,.53.43.95.95.95h0c.53,0,.95-.43.95-.95h0c0-.53-.43-.95-.95-.95Z" style="fill: #fff;"/>
        <path d="M29.58,24.81h0c.53,0,.95-.43.95-.95h0c0-.53-.43-.95-.95-.95h0c-.53,0-.95.43-.95.95h0c0,.53.43.95.95.95Z" style="fill: #fff;"/>
        <path d="M30.54,21.95h0c0,.53.43.95.95.95h0c.53,0,.95-.43.95-.95h0c0-.53-.43-.95-.95-.95h0c-.53,0-.95.43-.95.95Z" style="fill: #fff;"/>
        <path d="M34.35,21.95h0c0,.53.43.95.95.95h0c.53,0,.95-.43.95-.95h0c0-.53-.43-.95-.95-.95h0c-.53,0-.95.43-.95.95Z" style="fill: #fff;"/>
        <path d="M33.4,24.81h0c.53,0,.95-.43.95-.95h0c0-.53-.43-.95-.95-.95h0c-.53,0-.95.43-.95.95h0c0,.53.43.95.95.95Z" style="fill: #fff;"/>
        <path d="M37.22,24.81h0c.53,0,.95-.43.95-.95h0c0-.53-.43-.95-.95-.95h0c-.53,0-.95.43-.95.95h0c0,.53.43.95.95.95Z" style="fill: #fff;"/>
        <path d="M38.17,21.95h0c0,.53.43.95.95.95h0c.53,0,.95-.43.95-.95h0c0-.53-.43-.95-.95-.95h0c-.53,0-.95.43-.95.95Z" style="fill: #fff;"/>
        <rect x="40.08" y="19.09" width="1.91" height="1.91" rx=".95" ry=".95" style="fill: #fff;"/>
        <path d="M45.8,20.04h0c0-.53-.43-.95-.95-.95h0c-.53,0-.95.43-.95.95h0c0,.53.43.95.95.95h0c.53,0,.95-.43.95-.95Z" style="fill: #fff;"/>
        <path d="M42.94,19.09h0c.53,0,.95-.43.95-.95h0c0-.53-.43-.95-.95-.95h0c-.53,0-.95.43-.95.95h0c0,.53.43.95.95.95Z" style="fill: #fff;"/>
        <path d="M45.8,16.22h0c0-.53-.43-.95-.95-.95h0c-.53,0-.95.43-.95.95h0c0,.53.43.95.95.95h0c.53,0,.95-.43.95-.95Z" style="fill: #fff;"/>
        <path d="M42.94,22.9h0c.53,0,.95-.43.95-.95h0c0-.53-.43-.95-.95-.95h0c-.53,0-.95.43-.95.95h0c0,.53.43.95.95.95Z" style="fill: #fff;"/>
        <path d="M41.03,24.81h0c.53,0,.95-.43.95-.95h0c0-.53-.43-.95-.95-.95h0c-.53,0-.95.43-.95.95h0c0,.53.43.95.95.95Z" style="fill: #fff;"/>
        <path d="M40.08,16.22h0c0,.53.43.95.95.95h0c.53,0,.95-.43.95-.95h0c0-.53-.43-.95-.95-.95h0c-.53,0-.95.43-.95.95Z" style="fill: #fff;"/>
        <path d="M26.72,2.86h0c0,.53.43.95.95.95h0c.53,0,.95-.43.95-.95h0c0-.53-.43-.95-.95-.95h0c-.53,0-.95.43-.95.95Z" style="fill: #fff;"/>
      </g>
      <g>
        <path d="M62.59,11.45h0c-.53,0-.95.43-.95.95h0c0,.53.43.95.95.95h0c.53,0,.95-.43.95-.95h0c0-.53-.43-.95-.95-.95Z" style="fill: #fff;"/>
        <path d="M64.5,9.54h0c-.53,0-.95.43-.95.95h0c0,.53.43.95.95.95h0c.53,0,.95-.43.95-.95h0c0-.53-.43-.95-.95-.95Z" style="fill: #fff;"/>
        <path d="M65.46,12.41h0c0,.53.43.95.95.95h0c.53,0,.95-.43.95-.95h0c0-.53-.43-.95-.95-.95h0c-.53,0-.95.43-.95.95Z" style="fill: #fff;"/>
        <path d="M68.32,9.54h0c-.53,0-.95.43-.95.95h0c0,.53.43.95.95.95h0c.53,0,.95-.43.95-.95h0c0-.53-.43-.95-.95-.95Z" style="fill: #fff;"/>
        <path d="M69.27,12.41h0c0,.53.43.95.95.95h0c.53,0,.95-.43.95-.95h0c0-.53-.43-.95-.95-.95h0c-.53,0-.95.43-.95.95Z" style="fill: #fff;"/>
        <path d="M68.32,15.27h0c.53,0,.95-.43.95-.95h0c0-.53-.43-.95-.95-.95h0c-.53,0-.95.43-.95.95h0c0,.53.43.95.95.95Z" style="fill: #fff;"/>
        <path d="M76.91,14.31h0c0-.53-.43-.95-.95-.95h0c-.53,0-.95.43-.95.95h0c0,.53.43.95.95.95h0c.53,0,.95-.43.95-.95Z" style="fill: #fff;"/>
        <path d="M59.73,10.5h0c0,.53.43.95.95.95h0c.53,0,.95-.43.95-.95h0c0-.53-.43-.95-.95-.95h0c-.53,0-.95.43-.95.95Z" style="fill: #fff;"/>
        <path d="M64.5,15.27h0c.53,0,.95-.43.95-.95h0c0-.53-.43-.95-.95-.95h0c-.53,0-.95.43-.95.95h0c0,.53.43.95.95.95Z" style="fill: #fff;"/>
        <path d="M62.59,3.82h0c-.53,0-.95.43-.95.95h0c0,.53.43.95.95.95h0c.53,0,.95-.43.95-.95h0c0-.53-.43-.95-.95-.95Z" style="fill: #fff;"/>
        <path d="M61.64,8.59h0c0,.53.43.95.95.95h0c.53,0,.95-.43.95-.95h0c0-.53-.43-.95-.95-.95h0c-.53,0-.95.43-.95.95Z" style="fill: #fff;"/>
        <path d="M60.69,5.73h0c-.53,0-.95.43-.95.95h0c0,.53.43.95.95.95h0c.53,0,.95-.43.95-.95h0c0-.53-.43-.95-.95-.95Z" style="fill: #fff;"/>
        <path d="M62.59,0h0c-.53,0-.95.43-.95.95h0c0,.53.43.95.95.95h0c.53,0,.95-.43.95-.95h0c0-.53-.43-.95-.95-.95Z" style="fill: #fff;"/>
        <path d="M70.23,0h0c-.53,0-.95.43-.95.95h0c0,.53.43.95.95.95h0c.53,0,.95-.43.95-.95h0c0-.53-.43-.95-.95-.95Z" style="fill: #fff;"/>
        <path d="M69.27,2.86h0c0-.53-.43-.95-.95-.95h0c-.53,0-.95.43-.95.95h0c0,.53.43.95.95.95h0c.53,0,.95-.43.95-.95Z" style="fill: #fff;"/>
        <path d="M66.41,0h0c-.53,0-.95.43-.95.95h0c0,.53.43.95.95.95h0c.53,0,.95-.43.95-.95h0c0-.53-.43-.95-.95-.95Z" style="fill: #fff;"/>
        <path d="M65.46,2.86h0c0-.53-.43-.95-.95-.95h0c-.53,0-.95.43-.95.95h0c0,.53.43.95.95.95h0c.53,0,.95-.43.95-.95Z" style="fill: #fff;"/>
        <path d="M76.91,2.86h0c0-.53-.43-.95-.95-.95h0c-.53,0-.95.43-.95.95h0c0,.53.43.95.95.95h0c.53,0,.95-.43.95-.95Z" style="fill: #fff;"/>
        <path d="M74.05,0h0c-.53,0-.95.43-.95.95h0c0,.53.43.95.95.95h0c.53,0,.95-.43.95-.95h0c0-.53-.43-.95-.95-.95Z" style="fill: #fff;"/>
        <path d="M73.09,4.77h0c0,.53.43.95.95.95h0c.53,0,.95-.43.95-.95h0c0-.53-.43-.95-.95-.95h0c-.53,0-.95.43-.95.95Z" style="fill: #fff;"/>
        <path d="M78.82,4.77h0c0-.53-.43-.95-.95-.95h0c-.53,0-.95.43-.95.95h0c0,.53.43.95.95.95h0c.53,0,.95-.43.95-.95Z" style="fill: #fff;"/>
        <path d="M73.09,2.86h0c0-.53-.43-.95-.95-.95h0c-.53,0-.95.43-.95.95h0c0,.53.43.95.95.95h0c.53,0,.95-.43.95-.95Z" style="fill: #fff;"/>
        <path d="M75.95,11.45h0c.53,0,.95-.43.95-.95h0c0-.53-.43-.95-.95-.95h0c-.53,0-.95.43-.95.95h0c0,.53.43.95.95.95Z" style="fill: #fff;"/>
        <path d="M75,6.68h0c0,.53.43.95.95.95h0c.53,0,.95-.43.95-.95h0c0-.53-.43-.95-.95-.95h0c-.53,0-.95.43-.95.95Z" style="fill: #fff;"/>
        <path d="M74.05,9.54h0c.53,0,.95-.43.95-.95h0c0-.53-.43-.95-.95-.95h0c-.53,0-.95.43-.95.95h0c0,.53.43.95.95.95Z" style="fill: #fff;"/>
        <path d="M78.82,8.59h0c0-.53-.43-.95-.95-.95h0c-.53,0-.95.43-.95.95h0c0,.53.43.95.95.95h0c.53,0,.95-.43.95-.95Z" style="fill: #fff;"/>
        <path d="M72.14,15.27h0c.53,0,.95-.43.95-.95h0c0-.53-.43-.95-.95-.95h0c-.53,0-.95.43-.95.95h0c0,.53.43.95.95.95Z" style="fill: #fff;"/>
        <path d="M72.14,11.45h0c.53,0,.95-.43.95-.95h0c0-.53-.43-.95-.95-.95h0c-.53,0-.95.43-.95.95h0c0,.53.43.95.95.95Z" style="fill: #fff;"/>
        <path d="M74.05,13.36h0c.53,0,.95-.43.95-.95h0c0-.53-.43-.95-.95-.95h0c-.53,0-.95.43-.95.95h0c0,.53.43.95.95.95Z" style="fill: #fff;"/>
        <path d="M59.73,21.95h0c0,.53.43.95.95.95h0c.53,0,.95-.43.95-.95h0c0-.53-.43-.95-.95-.95h0c-.53,0-.95.43-.95.95Z" style="fill: #fff;"/>
        <path d="M63.55,20.04h0c0-.53-.43-.95-.95-.95h0c-.53,0-.95.43-.95.95h0c0,.53.43.95.95.95h0c.53,0,.95-.43.95-.95Z" style="fill: #fff;"/>
        <path d="M57.82,20.04h0c0,.53.43.95.95.95h0c.53,0,.95-.43.95-.95h0c0-.53-.43-.95-.95-.95h0c-.53,0-.95.43-.95.95Z" style="fill: #fff;"/>
        <path d="M60.69,17.18h0c-.53,0-.95.43-.95.95h0c0,.53.43.95.95.95h0c.53,0,.95-.43.95-.95h0c0-.53-.43-.95-.95-.95Z" style="fill: #fff;"/>
        <path d="M62.59,17.18h0c.53,0,.95-.43.95-.95h0c0-.53-.43-.95-.95-.95h0c-.53,0-.95.43-.95.95h0c0,.53.43.95.95.95Z" style="fill: #fff;"/>
        <path d="M57.82,16.22h0c0,.53.43.95.95.95h0c.53,0,.95-.43.95-.95h0c0-.53-.43-.95-.95-.95h0c-.53,0-.95.43-.95.95Z" style="fill: #fff;"/>
        <path d="M60.69,13.36h0c-.53,0-.95.43-.95.95h0c0,.53.43.95.95.95h0c.53,0,.95-.43.95-.95h0c0-.53-.43-.95-.95-.95Z" style="fill: #fff;"/>
        <path d="M62.59,24.81h0c.53,0,.95-.43.95-.95h0c0-.53-.43-.95-.95-.95h0c-.53,0-.95.43-.95.95h0c0,.53.43.95.95.95Z" style="fill: #fff;"/>
        <path d="M63.55,21.95h0c0,.53.43.95.95.95h0c.53,0,.95-.43.95-.95h0c0-.53-.43-.95-.95-.95h0c-.53,0-.95.43-.95.95Z" style="fill: #fff;"/>
        <path d="M67.37,21.95h0c0,.53.43.95.95.95h0c.53,0,.95-.43.95-.95h0c0-.53-.43-.95-.95-.95h0c-.53,0-.95.43-.95.95Z" style="fill: #fff;"/>
        <path d="M66.41,24.81h0c.53,0,.95-.43.95-.95h0c0-.53-.43-.95-.95-.95h0c-.53,0-.95.43-.95.95h0c0,.53.43.95.95.95Z" style="fill: #fff;"/>
        <path d="M70.23,24.81h0c.53,0,.95-.43.95-.95h0c0-.53-.43-.95-.95-.95h0c-.53,0-.95.43-.95.95h0c0,.53.43.95.95.95Z" style="fill: #fff;"/>
        <path d="M71.18,21.95h0c0,.53.43.95.95.95h0c.53,0,.95-.43.95-.95h0c0-.53-.43-.95-.95-.95h0c-.53,0-.95.43-.95.95Z" style="fill: #fff;"/>
        <path d="M74.05,20.99h0c.53,0,.95-.43.95-.95h0c0-.53-.43-.95-.95-.95h0c-.53,0-.95.43-.95.95h0c0,.53.43.95.95.95Z" style="fill: #fff;"/>
        <path d="M78.82,20.04h0c0-.53-.43-.95-.95-.95h0c-.53,0-.95.43-.95.95h0c0,.53.43.95.95.95h0c.53,0,.95-.43.95-.95Z" style="fill: #fff;"/>
        <path d="M75.95,19.09h0c.53,0,.95-.43.95-.95h0c0-.53-.43-.95-.95-.95h0c-.53,0-.95.43-.95.95h0c0,.53.43.95.95.95Z" style="fill: #fff;"/>
        <path d="M78.82,16.22h0c0-.53-.43-.95-.95-.95h0c-.53,0-.95.43-.95.95h0c0,.53.43.95.95.95h0c.53,0,.95-.43.95-.95Z" style="fill: #fff;"/>
        <path d="M75.95,22.9h0c.53,0,.95-.43.95-.95h0c0-.53-.43-.95-.95-.95h0c-.53,0-.95.43-.95.95h0c0,.53.43.95.95.95Z" style="fill: #fff;"/>
        <path d="M74.05,24.81h0c.53,0,.95-.43.95-.95h0c0-.53-.43-.95-.95-.95h0c-.53,0-.95.43-.95.95h0c0,.53.43.95.95.95Z" style="fill: #fff;"/>
        <path d="M75,16.22h0c0-.53-.43-.95-.95-.95h0c-.53,0-.95.43-.95.95h0c0,.53.43.95.95.95h0c.53,0,.95-.43.95-.95Z" style="fill: #fff;"/>
        <path d="M60.69,1.91h0c-.53,0-.95.43-.95.95h0c0,.53.43.95.95.95h0c.53,0,.95-.43.95-.95h0c0-.53-.43-.95-.95-.95Z" style="fill: #fff;"/>
        <path d="M57.82,4.77h0c0,.53.43.95.95.95h0c.53,0,.95-.43.95-.95h0c0-.53-.43-.95-.95-.95h0c-.53,0-.95.43-.95.95Z" style="fill: #fff;"/>
        <path d="M57.82,8.59h0c0,.53.43.95.95.95h0c.53,0,.95-.43.95-.95h0c0-.53-.43-.95-.95-.95h0c-.53,0-.95.43-.95.95Z" style="fill: #fff;"/>
      </g>
      <g>
        <path d="M20.99,4.77h0c0-.53-.43-.95-.95-.95h0c-.53,0-.95.43-.95.95h0c0,.53.43.95.95.95h0c.53,0,.95-.43.95-.95Z" style="fill: #fff;"/>
        <path d="M9.54,10.5h0c0,.53.43.95.95.95h0c.53,0,.95-.43.95-.95h0c0-.53-.43-.95-.95-.95h0c-.53,0-.95.43-.95.95Z" style="fill: #fff;"/>
        <path d="M11.45,12.41h0c0,.53.43.95.95.95h0c.53,0,.95-.43.95-.95h0c0-.53-.43-.95-.95-.95h0c-.53,0-.95.43-.95.95Z" style="fill: #fff;"/>
        <path d="M19.09,14.31h0c0-.53-.43-.95-.95-.95h0c-.53,0-.95.43-.95.95h0c0,.53.43.95.95.95h0c.53,0,.95-.43.95-.95Z" style="fill: #fff;"/>
        <path d="M4.77,5.73h0c.53,0,.95-.43.95-.95h0c0-.53-.43-.95-.95-.95h0c-.53,0-.95.43-.95.95h0c0,.53.43.95.95.95Z" style="fill: #fff;"/>
        <path d="M4.77,0h0C4.24,0,3.82.43,3.82.95h0c0,.53.43.95.95.95h0c.53,0,.95-.43.95-.95h0C5.73.43,5.3,0,4.77,0Z" style="fill: #fff;"/>
        <path d="M11.45.95h0c0,.53.43.95.95.95h0c.53,0,.95-.43.95-.95h0C13.36.43,12.93,0,12.41,0h0C11.88,0,11.45.43,11.45.95Z" style="fill: #fff;"/>
        <path d="M10.5,3.82h0c.53,0,.95-.43.95-.95h0c0-.53-.43-.95-.95-.95h0c-.53,0-.95.43-.95.95h0c0,.53.43.95.95.95Z" style="fill: #fff;"/>
        <path d="M7.63.95h0c0,.53.43.95.95.95h0c.53,0,.95-.43.95-.95h0C9.54.43,9.12,0,8.59,0h0C8.06,0,7.63.43,7.63.95Z" style="fill: #fff;"/>
        <path d="M6.68,3.82h0c.53,0,.95-.43.95-.95h0c0-.53-.43-.95-.95-.95h0c-.53,0-.95.43-.95.95h0c0,.53.43.95.95.95Z" style="fill: #fff;"/>
        <path d="M19.09,2.86h0c0-.53-.43-.95-.95-.95h0c-.53,0-.95.43-.95.95h0c0,.53.43.95.95.95h0c.53,0,.95-.43.95-.95Z" style="fill: #fff;"/>
        <path d="M16.22,0h0C15.7,0,15.27.43,15.27.95h0c0,.53.43.95.95.95h0c.53,0,.95-.43.95-.95h0C17.18.43,16.75,0,16.22,0Z" style="fill: #fff;"/>
        <path d="M16.22,3.82h0c-.53,0-.95.43-.95.95h0c0,.53.43.95.95.95h0c.53,0,.95-.43.95-.95h0c0-.53-.43-.95-.95-.95Z" style="fill: #fff;"/>
        <path d="M13.36,2.86h0c0,.53.43.95.95.95h0c.53,0,.95-.43.95-.95h0c0-.53-.43-.95-.95-.95h0c-.53,0-.95.43-.95.95Z" style="fill: #fff;"/>
        <path d="M12.41,7.63h0c-.53,0-.95.43-.95.95h0c0,.53.43.95.95.95h0c.53,0,.95-.43.95-.95h0c0-.53-.43-.95-.95-.95Z" style="fill: #fff;"/>
        <path d="M18.13,7.63h0c.53,0,.95-.43.95-.95h0c0-.53-.43-.95-.95-.95h0c-.53,0-.95.43-.95.95h0c0,.53.43.95.95.95Z" style="fill: #fff;"/>
        <path d="M16.22,9.54h0c.53,0,.95-.43.95-.95h0c0-.53-.43-.95-.95-.95h0c-.53,0-.95.43-.95.95h0c0,.53.43.95.95.95Z" style="fill: #fff;"/>
        <path d="M14.31,5.73h0c-.53,0-.95.43-.95.95h0c0,.53.43.95.95.95h0c.53,0,.95-.43.95-.95h0c0-.53-.43-.95-.95-.95Z" style="fill: #fff;"/>
        <path d="M13.36,14.31h0c0,.53.43.95.95.95h0c.53,0,.95-.43.95-.95h0c0-.53-.43-.95-.95-.95h0c-.53,0-.95.43-.95.95Z" style="fill: #fff;"/>
        <path d="M13.36,10.5h0c0,.53.43.95.95.95h0c.53,0,.95-.43.95-.95h0c0-.53-.43-.95-.95-.95h0c-.53,0-.95.43-.95.95Z" style="fill: #fff;"/>
        <path d="M17.18,12.41h0c0-.53-.43-.95-.95-.95h0c-.53,0-.95.43-.95.95h0c0,.53.43.95.95.95h0c.53,0,.95-.43.95-.95Z" style="fill: #fff;"/>
        <path d="M1.91,21.95h0c0,.53.43.95.95.95h0c.53,0,.95-.43.95-.95h0c0-.53-.43-.95-.95-.95h0c-.53,0-.95.43-.95.95Z" style="fill: #fff;"/>
        <path d="M5.73,20.04h0c0-.53-.43-.95-.95-.95h0c-.53,0-.95.43-.95.95h0c0,.53.43.95.95.95h0c.53,0,.95-.43.95-.95Z" style="fill: #fff;"/>
        <path d="M0,20.04h0c0,.53.43.95.95.95h0c.53,0,.95-.43.95-.95h0c0-.53-.43-.95-.95-.95h0c-.53,0-.95.43-.95.95Z" style="fill: #fff;"/>
        <path d="M2.86,17.18h0c-.53,0-.95.43-.95.95h0c0,.53.43.95.95.95h0c.53,0,.95-.43.95-.95h0c0-.53-.43-.95-.95-.95Z" style="fill: #fff;"/>
        <path d="M4.77,24.81h0c.53,0,.95-.43.95-.95h0c0-.53-.43-.95-.95-.95h0c-.53,0-.95.43-.95.95h0c0,.53.43.95.95.95Z" style="fill: #fff;"/>
        <path d="M5.73,21.95h0c0,.53.43.95.95.95h0c.53,0,.95-.43.95-.95h0c0-.53-.43-.95-.95-.95h0c-.53,0-.95.43-.95.95Z" style="fill: #fff;"/>
        <path d="M9.54,21.95h0c0,.53.43.95.95.95h0c.53,0,.95-.43.95-.95h0c0-.53-.43-.95-.95-.95h0c-.53,0-.95.43-.95.95Z" style="fill: #fff;"/>
        <path d="M8.59,24.81h0c.53,0,.95-.43.95-.95h0c0-.53-.43-.95-.95-.95h0c-.53,0-.95.43-.95.95h0c0,.53.43.95.95.95Z" style="fill: #fff;"/>
        <path d="M12.41,24.81h0c.53,0,.95-.43.95-.95h0c0-.53-.43-.95-.95-.95h0c-.53,0-.95.43-.95.95h0c0,.53.43.95.95.95Z" style="fill: #fff;"/>
        <path d="M13.36,21.95h0c0,.53.43.95.95.95h0c.53,0,.95-.43.95-.95h0c0-.53-.43-.95-.95-.95h0c-.53,0-.95.43-.95.95Z" style="fill: #fff;"/>
        <rect x="15.27" y="19.09" width="1.91" height="1.91" rx=".95" ry=".95" style="fill: #fff;"/>
        <path d="M20.99,20.04h0c0-.53-.43-.95-.95-.95h0c-.53,0-.95.43-.95.95h0c0,.53.43.95.95.95h0c.53,0,.95-.43.95-.95Z" style="fill: #fff;"/>
        <path d="M18.13,19.09h0c.53,0,.95-.43.95-.95h0c0-.53-.43-.95-.95-.95h0c-.53,0-.95.43-.95.95h0c0,.53.43.95.95.95Z" style="fill: #fff;"/>
        <path d="M20.99,16.22h0c0-.53-.43-.95-.95-.95h0c-.53,0-.95.43-.95.95h0c0,.53.43.95.95.95h0c.53,0,.95-.43.95-.95Z" style="fill: #fff;"/>
        <path d="M18.13,22.9h0c.53,0,.95-.43.95-.95h0c0-.53-.43-.95-.95-.95h0c-.53,0-.95.43-.95.95h0c0,.53.43.95.95.95Z" style="fill: #fff;"/>
        <path d="M16.22,24.81h0c.53,0,.95-.43.95-.95h0c0-.53-.43-.95-.95-.95h0c-.53,0-.95.43-.95.95h0c0,.53.43.95.95.95Z" style="fill: #fff;"/>
        <path d="M15.27,16.22h0c0,.53.43.95.95.95h0c.53,0,.95-.43.95-.95h0c0-.53-.43-.95-.95-.95h0c-.53,0-.95.43-.95.95Z" style="fill: #fff;"/>
        <path d="M1.91,2.86h0c0,.53.43.95.95.95h0c.53,0,.95-.43.95-.95h0c0-.53-.43-.95-.95-.95h0c-.53,0-.95.43-.95.95Z" style="fill: #fff;"/>
      </g>
    </g>
  </g>
</svg>