<?xml version="1.0" encoding="UTF-8"?>
<svg id="Layer_2" data-name="Layer 2" xmlns="http://www.w3.org/2000/svg" viewBox="0 0 40.87 48.31">
  <defs>
    <style>
      .cls-1 {
        fill: #6644b1;
      }
    </style>
  </defs>
  <g id="Layer_1-2" data-name="Layer 1">
    <g>
      <path class="cls-1" d="M9.29,37.16h0c1.03,0,1.86-.83,1.86-1.86h0c0-1.03-.83-1.86-1.86-1.86h0c-1.03,0-1.86.83-1.86,1.86h0c0,1.03.83,1.86,1.86,1.86Z"/>
      <path class="cls-1" d="M0,35.3h0c0,1.03.83,1.86,1.86,1.86h0c1.03,0,1.86-.83,1.86-1.86h0c0-1.03-.83-1.86-1.86-1.86h0c-1.03,0-1.86.83-1.86,1.86Z"/>
      <path class="cls-1" d="M5.57,29.73h0c-1.03,0-1.86.83-1.86,1.86h0c0,1.03.83,1.86,1.86,1.86h0c1.03,0,1.86-.83,1.86-1.86h0c0-1.03-.83-1.86-1.86-1.86Z"/>
      <path class="cls-1" d="M5.57,40.87h0c1.03,0,1.86-.83,1.86-1.86h0c0-1.03-.83-1.86-1.86-1.86h0c-1.03,0-1.86.83-1.86,1.86h0c0,1.03.83,1.86,1.86,1.86Z"/>
      <path class="cls-1" d="M11.15,42.73h0c0-1.03-.83-1.86-1.86-1.86h0c-1.03,0-1.86.83-1.86,1.86h0c0,1.03.83,1.86,1.86,1.86h0c1.03,0,1.86-.83,1.86-1.86Z"/>
      <path class="cls-1" d="M0,42.73h0c0,1.03.83,1.86,1.86,1.86h0c1.03,0,1.86-.83,1.86-1.86h0c0-1.03-.83-1.86-1.86-1.86h0c-1.03,0-1.86.83-1.86,1.86Z"/>
      <path class="cls-1" d="M5.57,48.31h0c1.03,0,1.86-.83,1.86-1.86h0c0-1.03-.83-1.86-1.86-1.86h0c-1.03,0-1.86.83-1.86,1.86h0c0,1.03.83,1.86,1.86,1.86Z"/>
      <path class="cls-1" d="M5.57,22.29h0c-1.03,0-1.86.83-1.86,1.86h0c0,1.03.83,1.86,1.86,1.86h0c1.03,0,1.86-.83,1.86-1.86h0c0-1.03-.83-1.86-1.86-1.86Z"/>
      <path class="cls-1" d="M0,27.87h0c0,1.03.83,1.86,1.86,1.86h0c1.03,0,1.86-.83,1.86-1.86h0c0-1.03-.83-1.86-1.86-1.86h0c-1.03,0-1.86.83-1.86,1.86Z"/>
      <path class="cls-1" d="M0,20.44h0c0,1.03.83,1.86,1.86,1.86h0c1.03,0,1.86-.83,1.86-1.86h0c0-1.03-.83-1.86-1.86-1.86h0c-1.03,0-1.86.83-1.86,1.86Z"/>
      <path class="cls-1" d="M9.29,18.58h0c-1.03,0-1.86.83-1.86,1.86h0c0,1.03.83,1.86,1.86,1.86h0c1.03,0,1.86-.83,1.86-1.86h0c0-1.03-.83-1.86-1.86-1.86Z"/>
      <path class="cls-1" d="M9.29,11.15h0c-1.03,0-1.86.83-1.86,1.86h0c0,1.03.83,1.86,1.86,1.86h0c1.03,0,1.86-.83,1.86-1.86h0c0-1.03-.83-1.86-1.86-1.86Z"/>
      <rect class="cls-1" x="3.72" y="14.86" width="3.72" height="3.72" rx="1.86" ry="1.86"/>
      <path class="cls-1" d="M5.57,7.43h0c-1.03,0-1.86.83-1.86,1.86h0c0,1.03.83,1.86,1.86,1.86h0c1.03,0,1.86-.83,1.86-1.86h0c0-1.03-.83-1.86-1.86-1.86Z"/>
      <path class="cls-1" d="M0,13.01h0c0,1.03.83,1.86,1.86,1.86h0c1.03,0,1.86-.83,1.86-1.86h0c0-1.03-.83-1.86-1.86-1.86h0c-1.03,0-1.86.83-1.86,1.86Z"/>
      <path class="cls-1" d="M0,5.57h0c0,1.03.83,1.86,1.86,1.86h0c1.03,0,1.86-.83,1.86-1.86h0c0-1.03-.83-1.86-1.86-1.86h0c-1.03,0-1.86.83-1.86,1.86Z"/>
      <path class="cls-1" d="M5.57,0h0c-1.03,0-1.86.83-1.86,1.86h0c0,1.03.83,1.86,1.86,1.86h0c1.03,0,1.86-.83,1.86-1.86h0c0-1.03-.83-1.86-1.86-1.86Z"/>
      <path class="cls-1" d="M13.01,0h0c-1.03,0-1.86.83-1.86,1.86h0c0,1.03.83,1.86,1.86,1.86h0c1.03,0,1.86-.83,1.86-1.86h0c0-1.03-.83-1.86-1.86-1.86Z"/>
      <path class="cls-1" d="M20.44,0h0c-1.03,0-1.86.83-1.86,1.86h0c0,1.03.83,1.86,1.86,1.86h0c1.03,0,1.86-.83,1.86-1.86h0c0-1.03-.83-1.86-1.86-1.86Z"/>
      <path class="cls-1" d="M18.58,5.57h0c0-1.03-.83-1.86-1.86-1.86h0c-1.03,0-1.86.83-1.86,1.86h0c0,1.03.83,1.86,1.86,1.86h0c1.03,0,1.86-.83,1.86-1.86Z"/>
      <path class="cls-1" d="M27.87,0h0c-1.03,0-1.86.83-1.86,1.86h0c0,1.03.83,1.86,1.86,1.86h0c1.03,0,1.86-.83,1.86-1.86h0c0-1.03-.83-1.86-1.86-1.86Z"/>
      <path class="cls-1" d="M26.01,5.57h0c0-1.03-.83-1.86-1.86-1.86h0c-1.03,0-1.86.83-1.86,1.86h0c0,1.03.83,1.86,1.86,1.86h0c1.03,0,1.86-.83,1.86-1.86Z"/>
      <path class="cls-1" d="M33.44,5.57h0c0-1.03-.83-1.86-1.86-1.86h0c-1.03,0-1.86.83-1.86,1.86h0c0,1.03.83,1.86,1.86,1.86h0c1.03,0,1.86-.83,1.86-1.86Z"/>
      <path class="cls-1" d="M33.44,16.72h0c0,1.03.83,1.86,1.86,1.86h0c1.03,0,1.86-.83,1.86-1.86h0c0-1.03-.83-1.86-1.86-1.86h0c-1.03,0-1.86.83-1.86,1.86Z"/>
      <path class="cls-1" d="M40.87,13.01h0c0-1.03-.83-1.86-1.86-1.86h0c-1.03,0-1.86.83-1.86,1.86h0c0,1.03.83,1.86,1.86,1.86h0c1.03,0,1.86-.83,1.86-1.86Z"/>
      <path class="cls-1" d="M31.58,22.29h0c1.03,0,1.86-.83,1.86-1.86h0c0-1.03-.83-1.86-1.86-1.86h0c-1.03,0-1.86.83-1.86,1.86h0c0,1.03.83,1.86,1.86,1.86Z"/>
      <path class="cls-1" d="M29.73,13.01h0c0,1.03.83,1.86,1.86,1.86h0c1.03,0,1.86-.83,1.86-1.86h0c0-1.03-.83-1.86-1.86-1.86h0c-1.03,0-1.86.83-1.86,1.86Z"/>
      <path class="cls-1" d="M26.01,9.29h0c0,1.03.83,1.86,1.86,1.86h0c1.03,0,1.86-.83,1.86-1.86h0c0-1.03-.83-1.86-1.86-1.86h0c-1.03,0-1.86.83-1.86,1.86Z"/>
      <path class="cls-1" d="M24.15,29.73h0c1.03,0,1.86-.83,1.86-1.86h0c0-1.03-.83-1.86-1.86-1.86h0c-1.03,0-1.86.83-1.86,1.86h0c0,1.03.83,1.86,1.86,1.86Z"/>
      <path class="cls-1" d="M27.87,33.44h0c1.03,0,1.86-.83,1.86-1.86h0c0-1.03-.83-1.86-1.86-1.86h0c-1.03,0-1.86.83-1.86,1.86h0c0,1.03.83,1.86,1.86,1.86Z"/>
      <path class="cls-1" d="M31.58,29.73h0c1.03,0,1.86-.83,1.86-1.86h0c0-1.03-.83-1.86-1.86-1.86h0c-1.03,0-1.86.83-1.86,1.86h0c0,1.03.83,1.86,1.86,1.86Z"/>
      <path class="cls-1" d="M35.3,26.01h0c1.03,0,1.86-.83,1.86-1.86h0c0-1.03-.83-1.86-1.86-1.86h0c-1.03,0-1.86.83-1.86,1.86h0c0,1.03.83,1.86,1.86,1.86Z"/>
      <path class="cls-1" d="M40.87,20.44h0c0-1.03-.83-1.86-1.86-1.86h0c-1.03,0-1.86.83-1.86,1.86h0c0,1.03.83,1.86,1.86,1.86h0c1.03,0,1.86-.83,1.86-1.86Z"/>
      <path class="cls-1" d="M14.86,27.87h0c0,1.03.83,1.86,1.86,1.86h0c1.03,0,1.86-.83,1.86-1.86h0c0-1.03-.83-1.86-1.86-1.86h0c-1.03,0-1.86.83-1.86,1.86Z"/>
      <path class="cls-1" d="M18.58,31.58h0c0,1.03.83,1.86,1.86,1.86h0c1.03,0,1.86-.83,1.86-1.86h0c0-1.03-.83-1.86-1.86-1.86h0c-1.03,0-1.86.83-1.86,1.86Z"/>
      <path class="cls-1" d="M22.29,35.3h0c0,1.03.83,1.86,1.86,1.86h0c1.03,0,1.86-.83,1.86-1.86h0c0-1.03-.83-1.86-1.86-1.86h0c-1.03,0-1.86.83-1.86,1.86Z"/>
      <path class="cls-1" d="M37.16,39.02h0c0-1.03-.83-1.86-1.86-1.86h0c-1.03,0-1.86.83-1.86,1.86h0c0,1.03.83,1.86,1.86,1.86h0c1.03,0,1.86-.83,1.86-1.86Z"/>
      <path class="cls-1" d="M33.44,35.3h0c0-1.03-.83-1.86-1.86-1.86h0c-1.03,0-1.86.83-1.86,1.86h0c0,1.03.83,1.86,1.86,1.86h0c1.03,0,1.86-.83,1.86-1.86Z"/>
      <path class="cls-1" d="M40.87,42.73h0c0-1.03-.83-1.86-1.86-1.86h0c-1.03,0-1.86.83-1.86,1.86h0c0,1.03.83,1.86,1.86,1.86h0c1.03,0,1.86-.83,1.86-1.86Z"/>
      <path class="cls-1" d="M35.3,48.31h0c1.03,0,1.86-.83,1.86-1.86h0c0-1.03-.83-1.86-1.86-1.86h0c-1.03,0-1.86.83-1.86,1.86h0c0,1.03.83,1.86,1.86,1.86Z"/>
      <rect class="cls-1" x="29.73" y="40.87" width="3.72" height="3.72" rx="1.86" ry="1.86"/>
      <path class="cls-1" d="M26.01,39.02h0c0,1.03.83,1.86,1.86,1.86h0c1.03,0,1.86-.83,1.86-1.86h0c0-1.03-.83-1.86-1.86-1.86h0c-1.03,0-1.86.83-1.86,1.86Z"/>
      <path class="cls-1" d="M11.15,31.58h0c0,1.03.83,1.86,1.86,1.86h0c1.03,0,1.86-.83,1.86-1.86h0c0-1.03-.83-1.86-1.86-1.86h0c-1.03,0-1.86.83-1.86,1.86Z"/>
      <path class="cls-1" d="M16.72,37.16h0c1.03,0,1.86-.83,1.86-1.86h0c0-1.03-.83-1.86-1.86-1.86h0c-1.03,0-1.86.83-1.86,1.86h0c0,1.03.83,1.86,1.86,1.86Z"/>
      <path class="cls-1" d="M37.16,9.29h0c0-1.03-.83-1.86-1.86-1.86h0c-1.03,0-1.86.83-1.86,1.86h0c0,1.03.83,1.86,1.86,1.86h0c1.03,0,1.86-.83,1.86-1.86Z"/>
      <path class="cls-1" d="M7.43,27.87h0c0,1.03.83,1.86,1.86,1.86h0c1.03,0,1.86-.83,1.86-1.86h0c0-1.03-.83-1.86-1.86-1.86h0c-1.03,0-1.86.83-1.86,1.86Z"/>
      <path class="cls-1" d="M27.87,26.01h0c1.03,0,1.86-.83,1.86-1.86h0c0-1.03-.83-1.86-1.86-1.86h0c-1.03,0-1.86.83-1.86,1.86h0c0,1.03.83,1.86,1.86,1.86Z"/>
      <path class="cls-1" d="M11.15,5.57h0c0-1.03-.83-1.86-1.86-1.86h0c-1.03,0-1.86.83-1.86,1.86h0c0,1.03.83,1.86,1.86,1.86h0c1.03,0,1.86-.83,1.86-1.86Z"/>
    </g>
  </g>
</svg>