<?xml version="1.0" encoding="UTF-8"?>
<svg id="Layer_2" data-name="Layer 2" xmlns="http://www.w3.org/2000/svg" viewBox="0 0 40.87 48.31">
  <defs>
    <style>
      .cls-1 {
        fill: #6644b1;
      }
    </style>
  </defs>
  <g id="Layer_1-2" data-name="Layer 1">
    <g>
      <path class="cls-1" d="M5.57,0h0c-1.03,0-1.86.83-1.86,1.86h0c0,1.03.83,1.86,1.86,1.86h0c1.03,0,1.86-.83,1.86-1.86h0c0-1.03-.83-1.86-1.86-1.86Z"/>
      <path class="cls-1" d="M0,5.57h0c0,1.03.83,1.86,1.86,1.86h0c1.03,0,1.86-.83,1.86-1.86h0c0-1.03-.83-1.86-1.86-1.86h0c-1.03,0-1.86.83-1.86,1.86Z"/>
      <path class="cls-1" d="M11.15,5.57h0c0-1.03-.83-1.86-1.86-1.86h0c-1.03,0-1.86.83-1.86,1.86h0c0,1.03.83,1.86,1.86,1.86h0c1.03,0,1.86-.83,1.86-1.86Z"/>
      <path class="cls-1" d="M5.57,7.43h0c-1.03,0-1.86.83-1.86,1.86h0c0,1.03.83,1.86,1.86,1.86h0c1.03,0,1.86-.83,1.86-1.86h0c0-1.03-.83-1.86-1.86-1.86Z"/>
      <path class="cls-1" d="M5.57,14.86h0c-1.03,0-1.86.83-1.86,1.86h0c0,1.03.83,1.86,1.86,1.86h0c1.03,0,1.86-.83,1.86-1.86h0c0-1.03-.83-1.86-1.86-1.86Z"/>
      <path class="cls-1" d="M0,13.01h0c0,1.03.83,1.86,1.86,1.86h0c1.03,0,1.86-.83,1.86-1.86h0c0-1.03-.83-1.86-1.86-1.86h0c-1.03,0-1.86.83-1.86,1.86Z"/>
      <path class="cls-1" d="M11.15,13.01h0c0-1.03-.83-1.86-1.86-1.86h0c-1.03,0-1.86.83-1.86,1.86h0c0,1.03.83,1.86,1.86,1.86h0c1.03,0,1.86-.83,1.86-1.86Z"/>
      <path class="cls-1" d="M0,20.44h0c0,1.03.83,1.86,1.86,1.86h0c1.03,0,1.86-.83,1.86-1.86h0c0-1.03-.83-1.86-1.86-1.86h0c-1.03,0-1.86.83-1.86,1.86Z"/>
      <path class="cls-1" d="M0,27.87h0c0,1.03.83,1.86,1.86,1.86h0c1.03,0,1.86-.83,1.86-1.86h0c0-1.03-.83-1.86-1.86-1.86h0c-1.03,0-1.86.83-1.86,1.86Z"/>
      <path class="cls-1" d="M5.57,22.29h0c-1.03,0-1.86.83-1.86,1.86h0c0,1.03.83,1.86,1.86,1.86h0c1.03,0,1.86-.83,1.86-1.86h0c0-1.03-.83-1.86-1.86-1.86Z"/>
      <path class="cls-1" d="M11.15,20.44h0c0-1.03-.83-1.86-1.86-1.86h0c-1.03,0-1.86.83-1.86,1.86h0c0,1.03.83,1.86,1.86,1.86h0c1.03,0,1.86-.83,1.86-1.86Z"/>
      <path class="cls-1" d="M11.15,39.02h0c0,1.03.83,1.86,1.86,1.86h0c1.03,0,1.86-.83,1.86-1.86h0c0-1.03-.83-1.86-1.86-1.86h0c-1.03,0-1.86.83-1.86,1.86Z"/>
      <rect class="cls-1" x="7.43" y="40.87" width="3.72" height="3.72" rx="1.86" ry="1.86"/>
      <path class="cls-1" d="M27.87,37.16h0c-1.03,0-1.86.83-1.86,1.86h0c0,1.03.83,1.86,1.86,1.86h0c1.03,0,1.86-.83,1.86-1.86h0c0-1.03-.83-1.86-1.86-1.86Z"/>
      <path class="cls-1" d="M5.57,29.73h0c-1.03,0-1.86.83-1.86,1.86h0c0,1.03.83,1.86,1.86,1.86h0c1.03,0,1.86-.83,1.86-1.86h0c0-1.03-.83-1.86-1.86-1.86Z"/>
      <path class="cls-1" d="M3.72,39.02h0c0,1.03.83,1.86,1.86,1.86h0c1.03,0,1.86-.83,1.86-1.86h0c0-1.03-.83-1.86-1.86-1.86h0c-1.03,0-1.86.83-1.86,1.86Z"/>
      <path class="cls-1" d="M14.86,42.73h0c0,1.03.83,1.86,1.86,1.86h0c1.03,0,1.86-.83,1.86-1.86h0c0-1.03-.83-1.86-1.86-1.86h0c-1.03,0-1.86.83-1.86,1.86Z"/>
      <path class="cls-1" d="M11.15,46.45h0c0,1.03.83,1.86,1.86,1.86h0c1.03,0,1.86-.83,1.86-1.86h0c0-1.03-.83-1.86-1.86-1.86h0c-1.03,0-1.86.83-1.86,1.86Z"/>
      <path class="cls-1" d="M20.44,48.31h0c1.03,0,1.86-.83,1.86-1.86h0c0-1.03-.83-1.86-1.86-1.86h0c-1.03,0-1.86.83-1.86,1.86h0c0,1.03.83,1.86,1.86,1.86Z"/>
      <path class="cls-1" d="M27.87,48.31h0c1.03,0,1.86-.83,1.86-1.86h0c0-1.03-.83-1.86-1.86-1.86h0c-1.03,0-1.86.83-1.86,1.86h0c0,1.03.83,1.86,1.86,1.86Z"/>
      <path class="cls-1" d="M22.3,42.73h0c0,1.03.83,1.86,1.86,1.86h0c1.03,0,1.86-.83,1.86-1.86h0c0-1.03-.83-1.86-1.86-1.86h0c-1.03,0-1.86.83-1.86,1.86Z"/>
      <path class="cls-1" d="M31.58,44.59h0c1.03,0,1.86-.83,1.86-1.86h0c0-1.03-.83-1.86-1.86-1.86h0c-1.03,0-1.86.83-1.86,1.86h0c0,1.03.83,1.86,1.86,1.86Z"/>
      <path class="cls-1" d="M0,35.3h0c0,1.03.83,1.86,1.86,1.86h0c1.03,0,1.86-.83,1.86-1.86h0c0-1.03-.83-1.86-1.86-1.86h0c-1.03,0-1.86.83-1.86,1.86Z"/>
      <path class="cls-1" d="M11.15,35.3h0c0-1.03-.83-1.86-1.86-1.86h0c-1.03,0-1.86.83-1.86,1.86h0c0,1.03.83,1.86,1.86,1.86h0c1.03,0,1.86-.83,1.86-1.86Z"/>
      <path class="cls-1" d="M35.3,0h0c-1.03,0-1.86.83-1.86,1.86h0c0,1.03.83,1.86,1.86,1.86h0c1.03,0,1.86-.83,1.86-1.86h0c0-1.03-.83-1.86-1.86-1.86Z"/>
      <path class="cls-1" d="M29.73,5.57h0c0,1.03.83,1.86,1.86,1.86h0c1.03,0,1.86-.83,1.86-1.86h0c0-1.03-.83-1.86-1.86-1.86h0c-1.03,0-1.86.83-1.86,1.86Z"/>
      <path class="cls-1" d="M40.87,5.57h0c0-1.03-.83-1.86-1.86-1.86h0c-1.03,0-1.86.83-1.86,1.86h0c0,1.03.83,1.86,1.86,1.86h0c1.03,0,1.86-.83,1.86-1.86Z"/>
      <path class="cls-1" d="M33.44,9.29h0c0,1.03.83,1.86,1.86,1.86h0c1.03,0,1.86-.83,1.86-1.86h0c0-1.03-.83-1.86-1.86-1.86h0c-1.03,0-1.86.83-1.86,1.86Z"/>
      <rect class="cls-1" x="33.44" y="14.86" width="3.72" height="3.72" rx="1.86" ry="1.86"/>
      <path class="cls-1" d="M29.73,13.01h0c0,1.03.83,1.86,1.86,1.86h0c1.03,0,1.86-.83,1.86-1.86h0c0-1.03-.83-1.86-1.86-1.86h0c-1.03,0-1.86.83-1.86,1.86Z"/>
      <path class="cls-1" d="M40.87,13.01h0c0-1.03-.83-1.86-1.86-1.86h0c-1.03,0-1.86.83-1.86,1.86h0c0,1.03.83,1.86,1.86,1.86h0c1.03,0,1.86-.83,1.86-1.86Z"/>
      <path class="cls-1" d="M29.73,20.44h0c0,1.03.83,1.86,1.86,1.86h0c1.03,0,1.86-.83,1.86-1.86h0c0-1.03-.83-1.86-1.86-1.86h0c-1.03,0-1.86.83-1.86,1.86Z"/>
      <path class="cls-1" d="M40.87,20.44h0c0-1.03-.83-1.86-1.86-1.86h0c-1.03,0-1.86.83-1.86,1.86h0c0,1.03.83,1.86,1.86,1.86h0c1.03,0,1.86-.83,1.86-1.86Z"/>
      <path class="cls-1" d="M40.87,27.87h0c0-1.03-.83-1.86-1.86-1.86h0c-1.03,0-1.86.83-1.86,1.86h0c0,1.03.83,1.86,1.86,1.86h0c1.03,0,1.86-.83,1.86-1.86Z"/>
      <path class="cls-1" d="M35.3,26.01h0c1.03,0,1.86-.83,1.86-1.86h0c0-1.03-.83-1.86-1.86-1.86h0c-1.03,0-1.86.83-1.86,1.86h0c0,1.03.83,1.86,1.86,1.86Z"/>
      <path class="cls-1" d="M11.15,27.87h0c0-1.03-.83-1.86-1.86-1.86h0c-1.03,0-1.86.83-1.86,1.86h0c0,1.03.83,1.86,1.86,1.86h0c1.03,0,1.86-.83,1.86-1.86Z"/>
      <path class="cls-1" d="M29.73,27.87h0c0,1.03.83,1.86,1.86,1.86h0c1.03,0,1.86-.83,1.86-1.86h0c0-1.03-.83-1.86-1.86-1.86h0c-1.03,0-1.86.83-1.86,1.86Z"/>
      <path class="cls-1" d="M35.3,33.44h0c1.03,0,1.86-.83,1.86-1.86h0c0-1.03-.83-1.86-1.86-1.86h0c-1.03,0-1.86.83-1.86,1.86h0c0,1.03.83,1.86,1.86,1.86Z"/>
      <path class="cls-1" d="M35.3,40.87h0c1.03,0,1.86-.83,1.86-1.86h0c0-1.03-.83-1.86-1.86-1.86h0c-1.03,0-1.86.83-1.86,1.86h0c0,1.03.83,1.86,1.86,1.86Z"/>
      <path class="cls-1" d="M31.58,33.44h0c-1.03,0-1.86.83-1.86,1.86h0c0,1.03.83,1.86,1.86,1.86h0c1.03,0,1.86-.83,1.86-1.86h0c0-1.03-.83-1.86-1.86-1.86Z"/>
      <path class="cls-1" d="M40.87,35.3h0c0-1.03-.83-1.86-1.86-1.86h0c-1.03,0-1.86.83-1.86,1.86h0c0,1.03.83,1.86,1.86,1.86h0c1.03,0,1.86-.83,1.86-1.86Z"/>
    </g>
  </g>
</svg>