<?xml version="1.0" encoding="UTF-8"?>
<svg id="Layer_2" data-name="Layer 2" xmlns="http://www.w3.org/2000/svg" xmlns:xlink="http://www.w3.org/1999/xlink" viewBox="0 0 1920.09 107.04">
  <defs>
    <clipPath id="clippath">
      <rect width="1920.09" height="107.04" style="fill: none;"/>
    </clipPath>
  </defs>
  <g id="Layer_2-2" data-name="Layer 2">
    <g style="clip-path: url(#clippath);">
      <path d="M44.62,59.58h0c-3.52,0-6.36,2.83-6.36,6.36h0c0,3.52,2.83,6.36,6.36,6.36h0c3.52,0,6.36-2.83,6.36-6.36h0c0-3.52-2.83-6.36-6.36-6.36Z" />
      <path d="M25.54,78.65h0c0,3.52,2.83,6.36,6.36,6.36h0c3.52,0,6.36-2.83,6.36-6.36h0c0-3.52-2.83-6.36-6.36-6.36h0c-3.52,0-6.36,2.83-6.36,6.36Z" />
      <path d="M25.54,53.22h0c0,3.52,2.83,6.36,6.36,6.36h0c3.52,0,6.36-2.83,6.36-6.36h0c0-3.52-2.83-6.36-6.36-6.36h0c-3.52,0-6.36,2.83-6.36,6.36Z" />
      <path d="M63.69,53.22h0c0-3.52-2.83-6.36-6.36-6.36h0c-3.52,0-6.36,2.83-6.36,6.36h0c0,3.52,2.83,6.36,6.36,6.36h0c3.52,0,6.36-2.83,6.36-6.36Z" />
      <path d="M82.76,85.01h0c3.52,0,6.36-2.83,6.36-6.36h0c0-3.52-2.83-6.36-6.36-6.36h0c-3.52,0-6.36,2.83-6.36,6.36h0c0,3.52,2.83,6.36,6.36,6.36Z" />
      <path d="M63.69,65.94h0c0,3.52,2.83,6.36,6.36,6.36h0c3.52,0,6.36-2.83,6.36-6.36h0c0-3.52-2.83-6.36-6.36-6.36h0c-3.52,0-6.36,2.83-6.36,6.36Z" />
      <path d="M44.62,34.15h0c-3.52,0-6.36,2.83-6.36,6.36h0c0,3.52,2.83,6.36,6.36,6.36h0c3.52,0,6.36-2.83,6.36-6.36h0c0-3.52-2.83-6.36-6.36-6.36Z" />
      <path d="M57.33,85.01h0c3.52,0,6.36-2.83,6.36-6.36h0c0-3.52-2.83-6.36-6.36-6.36h0c-3.52,0-6.36,2.83-6.36,6.36h0c0,3.52,2.83,6.36,6.36,6.36Z" />
      <path d="M6.47,85.01h0c3.52,0,6.36-2.83,6.36-6.36h0c0-3.52-2.83-6.36-6.36-6.36h0c-3.52,0-6.36,2.83-6.36,6.36H.11c0,3.52,2.83,6.36,6.36,6.36Z" />
      <path d="M12.83,65.94h0c0,3.52,2.83,6.36,6.36,6.36h0c3.52,0,6.36-2.83,6.36-6.36h0c0-3.52-2.83-6.36-6.36-6.36h0c-3.52,0-6.36,2.83-6.36,6.36Z" />
      <path d="M120.91,59.58h0c-3.52,0-6.36,2.83-6.36,6.36h0c0,3.52,2.83,6.36,6.36,6.36h0c3.52,0,6.36-2.83,6.36-6.36h0c0-3.52-2.83-6.36-6.36-6.36Z" />
      <path d="M101.84,78.65h0c0,3.52,2.83,6.36,6.36,6.36h0c3.52,0,6.36-2.83,6.36-6.36h0c0-3.52-2.83-6.36-6.36-6.36h0c-3.52,0-6.36,2.83-6.36,6.36Z" />
      <path d="M101.84,53.22h0c0,3.52,2.83,6.36,6.36,6.36h0c3.52,0,6.36-2.83,6.36-6.36h0c0-3.52-2.83-6.36-6.36-6.36h0c-3.52,0-6.36,2.83-6.36,6.36Z" />
      <path d="M139.98,53.22h0c0-3.52-2.83-6.36-6.36-6.36h0c-3.52,0-6.36,2.83-6.36,6.36h0c0,3.52,2.83,6.36,6.36,6.36h0c3.52,0,6.36-2.83,6.36-6.36Z" />
      <path d="M159.05,85.01h0c3.52,0,6.36-2.83,6.36-6.36h0c0-3.52-2.83-6.36-6.36-6.36h0c-3.52,0-6.36,2.83-6.36,6.36h0c0,3.52,2.83,6.36,6.36,6.36Z" />
      <path d="M139.98,65.94h0c0,3.52,2.83,6.36,6.36,6.36h0c3.52,0,6.36-2.83,6.36-6.36h0c0-3.52-2.83-6.36-6.36-6.36h0c-3.52,0-6.36,2.83-6.36,6.36Z" />
      <path d="M120.91,34.15h0c-3.52,0-6.36,2.83-6.36,6.36h0c0,3.52,2.83,6.36,6.36,6.36h0c3.52,0,6.36-2.83,6.36-6.36h0c0-3.52-2.83-6.36-6.36-6.36Z" />
      <path d="M133.62,85.01h0c3.52,0,6.36-2.83,6.36-6.36h0c0-3.52-2.83-6.36-6.36-6.36h0c-3.52,0-6.36,2.83-6.36,6.36h0c0,3.52,2.83,6.36,6.36,6.36Z" />
      <path d="M82.76,85.01h0c3.52,0,6.36-2.83,6.36-6.36h0c0-3.52-2.83-6.36-6.36-6.36h0c-3.52,0-6.36,2.83-6.36,6.36h0c0,3.52,2.83,6.36,6.36,6.36Z" />
      <path d="M89.12,65.94h0c0,3.52,2.83,6.36,6.36,6.36h0c3.52,0,6.36-2.83,6.36-6.36h0c0-3.52-2.83-6.36-6.36-6.36h0c-3.52,0-6.36,2.83-6.36,6.36Z" />
      <path d="M197.2,59.58h0c-3.52,0-6.36,2.83-6.36,6.36h0c0,3.52,2.83,6.36,6.36,6.36h0c3.52,0,6.36-2.83,6.36-6.36h0c0-3.52-2.83-6.36-6.36-6.36Z" />
      <path d="M178.13,78.65h0c0,3.52,2.83,6.36,6.36,6.36h0c3.52,0,6.36-2.83,6.36-6.36h0c0-3.52-2.83-6.36-6.36-6.36h0c-3.52,0-6.36,2.83-6.36,6.36Z" />
      <path d="M178.13,53.22h0c0,3.52,2.83,6.36,6.36,6.36h0c3.52,0,6.36-2.83,6.36-6.36h0c0-3.52-2.83-6.36-6.36-6.36h0c-3.52,0-6.36,2.83-6.36,6.36Z" />
      <path d="M216.27,53.22h0c0-3.52-2.83-6.36-6.36-6.36h0c-3.52,0-6.36,2.83-6.36,6.36h0c0,3.52,2.83,6.36,6.36,6.36h0c3.52,0,6.36-2.83,6.36-6.36Z" />
      <path d="M235.34,85.01h0c3.52,0,6.36-2.83,6.36-6.36h0c0-3.52-2.83-6.36-6.36-6.36h0c-3.52,0-6.36,2.83-6.36,6.36h0c0,3.52,2.83,6.36,6.36,6.36Z" />
      <path d="M216.27,65.94h0c0,3.52,2.83,6.36,6.36,6.36h0c3.52,0,6.36-2.83,6.36-6.36h0c0-3.52-2.83-6.36-6.36-6.36h0c-3.52,0-6.36,2.83-6.36,6.36Z" />
      <path d="M197.2,34.15h0c-3.52,0-6.36,2.83-6.36,6.36h0c0,3.52,2.83,6.36,6.36,6.36h0c3.52,0,6.36-2.83,6.36-6.36h0c0-3.52-2.83-6.36-6.36-6.36Z" />
      <path d="M209.91,85.01h0c3.52,0,6.36-2.83,6.36-6.36h0c0-3.52-2.83-6.36-6.36-6.36h0c-3.52,0-6.36,2.83-6.36,6.36h0c0,3.52,2.83,6.36,6.36,6.36Z" />
      <path d="M159.05,85.01h0c3.52,0,6.36-2.83,6.36-6.36h0c0-3.52-2.83-6.36-6.36-6.36h0c-3.52,0-6.36,2.83-6.36,6.36h0c0,3.52,2.83,6.36,6.36,6.36Z" />
      <path d="M165.41,65.94h0c0,3.52,2.83,6.36,6.36,6.36h0c3.52,0,6.36-2.83,6.36-6.36h0c0-3.52-2.83-6.36-6.36-6.36h0c-3.52,0-6.36,2.83-6.36,6.36Z" />
      <path d="M273.49,59.58h0c-3.52,0-6.36,2.83-6.36,6.36h0c0,3.52,2.83,6.36,6.36,6.36h0c3.52,0,6.36-2.83,6.36-6.36h0c0-3.52-2.83-6.36-6.36-6.36Z" />
      <path d="M254.42,78.65h0c0,3.52,2.83,6.36,6.36,6.36h0c3.52,0,6.36-2.83,6.36-6.36h0c0-3.52-2.83-6.36-6.36-6.36h0c-3.52,0-6.36,2.83-6.36,6.36Z" />
      <path d="M254.42,53.22h0c0,3.52,2.83,6.36,6.36,6.36h0c3.52,0,6.36-2.83,6.36-6.36h0c0-3.52-2.83-6.36-6.36-6.36h0c-3.52,0-6.36,2.83-6.36,6.36Z" />
      <path d="M292.56,53.22h0c0-3.52-2.83-6.36-6.36-6.36h0c-3.52,0-6.36,2.83-6.36,6.36h0c0,3.52,2.83,6.36,6.36,6.36h0c3.52,0,6.36-2.83,6.36-6.36Z" />
      <path d="M311.63,85.01h0c3.52,0,6.36-2.83,6.36-6.36h0c0-3.52-2.83-6.36-6.36-6.36h0c-3.52,0-6.36,2.83-6.36,6.36h0c0,3.52,2.83,6.36,6.36,6.36Z" />
      <path d="M292.56,65.94h0c0,3.52,2.83,6.36,6.36,6.36h0c3.52,0,6.36-2.83,6.36-6.36h0c0-3.52-2.83-6.36-6.36-6.36h0c-3.52,0-6.36,2.83-6.36,6.36Z" />
      <path d="M273.49,34.15h0c-3.52,0-6.36,2.83-6.36,6.36h0c0,3.52,2.83,6.36,6.36,6.36h0c3.52,0,6.36-2.83,6.36-6.36h0c0-3.52-2.83-6.36-6.36-6.36Z" />
      <path d="M286.2,85.01h0c3.52,0,6.36-2.83,6.36-6.36h0c0-3.52-2.83-6.36-6.36-6.36h0c-3.52,0-6.36,2.83-6.36,6.36h0c0,3.52,2.83,6.36,6.36,6.36Z" />
      <path d="M235.34,85.01h0c3.52,0,6.36-2.83,6.36-6.36h0c0-3.52-2.83-6.36-6.36-6.36h0c-3.52,0-6.36,2.83-6.36,6.36h0c0,3.52,2.83,6.36,6.36,6.36Z" />
      <path d="M241.7,65.94h0c0,3.52,2.83,6.36,6.36,6.36h0c3.52,0,6.36-2.83,6.36-6.36h0c0-3.52-2.83-6.36-6.36-6.36h0c-3.52,0-6.36,2.83-6.36,6.36Z" />
      <path d="M349.78,59.58h0c-3.52,0-6.36,2.83-6.36,6.36h0c0,3.52,2.83,6.36,6.36,6.36h0c3.52,0,6.36-2.83,6.36-6.36h0c0-3.52-2.83-6.36-6.36-6.36Z" />
      <path d="M330.71,78.65h0c0,3.52,2.83,6.36,6.36,6.36h0c3.52,0,6.36-2.83,6.36-6.36h0c0-3.52-2.83-6.36-6.36-6.36h0c-3.52,0-6.36,2.83-6.36,6.36Z" />
      <path d="M330.71,53.22h0c0,3.52,2.83,6.36,6.36,6.36h0c3.52,0,6.36-2.83,6.36-6.36h0c0-3.52-2.83-6.36-6.36-6.36h0c-3.52,0-6.36,2.83-6.36,6.36Z" />
      <path d="M368.85,53.22h0c0-3.52-2.83-6.36-6.36-6.36h0c-3.52,0-6.36,2.83-6.36,6.36h0c0,3.52,2.83,6.36,6.36,6.36h0c3.52,0,6.36-2.83,6.36-6.36Z" />
      <path d="M387.92,85.01h0c3.52,0,6.36-2.83,6.36-6.36h0c0-3.52-2.83-6.36-6.36-6.36h0c-3.52,0-6.36,2.83-6.36,6.36h0c0,3.52,2.83,6.36,6.36,6.36Z" />
      <path d="M368.85,65.94h0c0,3.52,2.83,6.36,6.36,6.36h0c3.52,0,6.36-2.83,6.36-6.36h0c0-3.52-2.83-6.36-6.36-6.36h0c-3.52,0-6.36,2.83-6.36,6.36Z" />
      <path d="M349.78,34.15h0c-3.52,0-6.36,2.83-6.36,6.36h0c0,3.52,2.83,6.36,6.36,6.36h0c3.52,0,6.36-2.83,6.36-6.36h0c0-3.52-2.83-6.36-6.36-6.36Z" />
      <path d="M362.49,85.01h0c3.52,0,6.36-2.83,6.36-6.36h0c0-3.52-2.83-6.36-6.36-6.36h0c-3.52,0-6.36,2.83-6.36,6.36h0c0,3.52,2.83,6.36,6.36,6.36Z" />
      <path d="M311.63,85.01h0c3.52,0,6.36-2.83,6.36-6.36h0c0-3.52-2.83-6.36-6.36-6.36h0c-3.52,0-6.36,2.83-6.36,6.36h0c0,3.52,2.83,6.36,6.36,6.36Z" />
      <path d="M317.99,65.94h0c0,3.52,2.83,6.36,6.36,6.36h0c3.52,0,6.36-2.83,6.36-6.36h0c0-3.52-2.83-6.36-6.36-6.36h0c-3.52,0-6.36,2.83-6.36,6.36Z" />
      <path d="M426.07,59.58h0c-3.52,0-6.36,2.83-6.36,6.36h0c0,3.52,2.83,6.36,6.36,6.36h0c3.52,0,6.36-2.83,6.36-6.36h0c0-3.52-2.83-6.36-6.36-6.36Z" />
      <path d="M407,78.65h0c0,3.52,2.83,6.36,6.36,6.36h0c3.52,0,6.36-2.83,6.36-6.36h0c0-3.52-2.83-6.36-6.36-6.36h0c-3.52,0-6.36,2.83-6.36,6.36Z" />
      <path d="M407,53.22h0c0,3.52,2.83,6.36,6.36,6.36h0c3.52,0,6.36-2.83,6.36-6.36h0c0-3.52-2.83-6.36-6.36-6.36h0c-3.52,0-6.36,2.83-6.36,6.36Z" />
      <path d="M445.14,53.22h0c0-3.52-2.83-6.36-6.36-6.36h0c-3.52,0-6.36,2.83-6.36,6.36h0c0,3.52,2.83,6.36,6.36,6.36h0c3.52,0,6.36-2.83,6.36-6.36Z" />
      <path d="M464.21,85.01h0c3.52,0,6.36-2.83,6.36-6.36h0c0-3.52-2.83-6.36-6.36-6.36h0c-3.52,0-6.36,2.83-6.36,6.36h0c0,3.52,2.83,6.36,6.36,6.36Z" />
      <path d="M445.14,65.94h0c0,3.52,2.83,6.36,6.36,6.36h0c3.52,0,6.36-2.83,6.36-6.36h0c0-3.52-2.83-6.36-6.36-6.36h0c-3.52,0-6.36,2.83-6.36,6.36Z" />
      <path d="M426.07,34.15h0c-3.52,0-6.36,2.83-6.36,6.36h0c0,3.52,2.83,6.36,6.36,6.36h0c3.52,0,6.36-2.83,6.36-6.36h0c0-3.52-2.83-6.36-6.36-6.36Z" />
      <path d="M438.78,85.01h0c3.52,0,6.36-2.83,6.36-6.36h0c0-3.52-2.83-6.36-6.36-6.36h0c-3.52,0-6.36,2.83-6.36,6.36h0c0,3.52,2.83,6.36,6.36,6.36Z" />
      <path d="M387.92,85.01h0c3.52,0,6.36-2.83,6.36-6.36h0c0-3.52-2.83-6.36-6.36-6.36h0c-3.52,0-6.36,2.83-6.36,6.36h0c0,3.52,2.83,6.36,6.36,6.36Z" />
      <path d="M394.28,65.94h0c0,3.52,2.83,6.36,6.36,6.36h0c3.52,0,6.36-2.83,6.36-6.36h0c0-3.52-2.83-6.36-6.36-6.36h0c-3.52,0-6.36,2.83-6.36,6.36Z" />
      <path d="M502.36,59.58h0c-3.52,0-6.36,2.83-6.36,6.36h0c0,3.52,2.83,6.36,6.36,6.36h0c3.52,0,6.36-2.83,6.36-6.36h0c0-3.52-2.83-6.36-6.36-6.36Z" />
      <path d="M483.29,78.66h0c0,3.52,2.83,6.36,6.36,6.36h0c3.52,0,6.36-2.83,6.36-6.36h0c0-3.52-2.83-6.36-6.36-6.36h0c-3.52,0-6.36,2.83-6.36,6.36Z" />
      <path d="M483.29,53.22h0c0,3.52,2.83,6.36,6.36,6.36h0c3.52,0,6.36-2.83,6.36-6.36h0c0-3.52-2.83-6.36-6.36-6.36h0c-3.52,0-6.36,2.83-6.36,6.36Z" />
      <path d="M521.43,53.23h0c0-3.52-2.83-6.36-6.36-6.36h0c-3.52,0-6.36,2.83-6.36,6.36h0c0,3.52,2.83,6.36,6.36,6.36h0c3.52,0,6.36-2.83,6.36-6.36Z" />
      <path d="M540.5,85.01h0c3.52,0,6.36-2.83,6.36-6.36h0c0-3.52-2.83-6.36-6.36-6.36h0c-3.52,0-6.36,2.83-6.36,6.36h0c0,3.52,2.83,6.36,6.36,6.36Z" />
      <path d="M521.43,65.94h0c0,3.52,2.83,6.36,6.36,6.36h0c3.52,0,6.36-2.83,6.36-6.36h0c0-3.52-2.83-6.36-6.36-6.36h0c-3.52,0-6.36,2.83-6.36,6.36Z" />
      <path d="M502.36,34.15h0c-3.52,0-6.36,2.83-6.36,6.36h0c0,3.52,2.83,6.36,6.36,6.36h0c3.52,0,6.36-2.83,6.36-6.36h0c0-3.52-2.83-6.36-6.36-6.36Z" />
      <path d="M515.07,85.01h0c3.52,0,6.36-2.83,6.36-6.36h0c0-3.52-2.83-6.36-6.36-6.36h0c-3.52,0-6.36,2.83-6.36,6.36h0c0,3.52,2.83,6.36,6.36,6.36Z" />
      <path d="M464.21,85.01h0c3.52,0,6.36-2.83,6.36-6.36h0c0-3.52-2.83-6.36-6.36-6.36h0c-3.52,0-6.36,2.83-6.36,6.36h0c0,3.52,2.83,6.36,6.36,6.36Z" />
      <path d="M470.57,65.94h0c0,3.52,2.83,6.36,6.36,6.36h0c3.52,0,6.36-2.83,6.36-6.36h0c0-3.52-2.83-6.36-6.36-6.36h0c-3.52,0-6.36,2.83-6.36,6.36Z" />
      <path d="M578.65,59.58h0c-3.52,0-6.36,2.83-6.36,6.36h0c0,3.52,2.83,6.36,6.36,6.36h0c3.52,0,6.36-2.83,6.36-6.36h0c0-3.52-2.83-6.36-6.36-6.36Z" />
      <path d="M559.58,78.66h0c0,3.52,2.83,6.36,6.36,6.36h0c3.52,0,6.36-2.83,6.36-6.36h0c0-3.52-2.83-6.36-6.36-6.36h0c-3.52,0-6.36,2.83-6.36,6.36Z" />
      <path d="M559.58,53.23h0c0,3.52,2.83,6.36,6.36,6.36h0c3.52,0,6.36-2.83,6.36-6.36h0c0-3.52-2.83-6.36-6.36-6.36h0c-3.52,0-6.36,2.83-6.36,6.36Z" />
      <path d="M597.72,53.23h0c0-3.52-2.83-6.36-6.36-6.36h0c-3.52,0-6.36,2.83-6.36,6.36h0c0,3.52,2.83,6.36,6.36,6.36h0c3.52,0,6.36-2.83,6.36-6.36Z" />
      <path d="M616.8,85.01h0c3.52,0,6.36-2.83,6.36-6.36h0c0-3.52-2.83-6.36-6.36-6.36h0c-3.52,0-6.36,2.83-6.36,6.36h0c0,3.52,2.83,6.36,6.36,6.36Z" />
      <path d="M597.72,65.94h0c0,3.52,2.83,6.36,6.36,6.36h0c3.52,0,6.36-2.83,6.36-6.36h0c0-3.52-2.83-6.36-6.36-6.36h0c-3.52,0-6.36,2.83-6.36,6.36Z" />
      <path d="M578.65,34.15h0c-3.52,0-6.36,2.83-6.36,6.36h0c0,3.52,2.83,6.36,6.36,6.36h0c3.52,0,6.36-2.83,6.36-6.36h0c0-3.52-2.83-6.36-6.36-6.36Z" />
      <path d="M591.36,85.01h0c3.52,0,6.36-2.83,6.36-6.36h0c0-3.52-2.83-6.36-6.36-6.36h0c-3.52,0-6.36,2.83-6.36,6.36h0c0,3.52,2.83,6.36,6.36,6.36Z" />
      <path d="M540.5,85.01h0c3.52,0,6.36-2.83,6.36-6.36h0c0-3.52-2.83-6.36-6.36-6.36h0c-3.52,0-6.36,2.83-6.36,6.36h0c0,3.52,2.83,6.36,6.36,6.36Z" />
      <path d="M546.86,65.94h0c0,3.52,2.83,6.36,6.36,6.36h0c3.52,0,6.36-2.83,6.36-6.36h0c0-3.52-2.83-6.36-6.36-6.36h0c-3.52,0-6.36,2.83-6.36,6.36Z" />
      <path d="M120.91,59.58h0c-3.52,0-6.36,2.83-6.36,6.36h0c0,3.52,2.83,6.36,6.36,6.36h0c3.52,0,6.36-2.83,6.36-6.36h0c0-3.52-2.83-6.36-6.36-6.36Z" />
      <path d="M101.84,78.65h0c0,3.52,2.83,6.36,6.36,6.36h0c3.52,0,6.36-2.83,6.36-6.36h0c0-3.52-2.83-6.36-6.36-6.36h0c-3.52,0-6.36,2.83-6.36,6.36Z" />
      <path d="M101.84,53.22h0c0,3.52,2.83,6.36,6.36,6.36h0c3.52,0,6.36-2.83,6.36-6.36h0c0-3.52-2.83-6.36-6.36-6.36h0c-3.52,0-6.36,2.83-6.36,6.36Z" />
      <path d="M139.98,53.22h0c0-3.52-2.83-6.36-6.36-6.36h0c-3.52,0-6.36,2.83-6.36,6.36h0c0,3.52,2.83,6.36,6.36,6.36h0c3.52,0,6.36-2.83,6.36-6.36Z" />
      <path d="M159.05,85.01h0c3.52,0,6.36-2.83,6.36-6.36h0c0-3.52-2.83-6.36-6.36-6.36h0c-3.52,0-6.36,2.83-6.36,6.36h0c0,3.52,2.83,6.36,6.36,6.36Z" />
      <path d="M139.98,65.94h0c0,3.52,2.83,6.36,6.36,6.36h0c3.52,0,6.36-2.83,6.36-6.36h0c0-3.52-2.83-6.36-6.36-6.36h0c-3.52,0-6.36,2.83-6.36,6.36Z" />
      <path d="M120.91,34.15h0c-3.52,0-6.36,2.83-6.36,6.36h0c0,3.52,2.83,6.36,6.36,6.36h0c3.52,0,6.36-2.83,6.36-6.36h0c0-3.52-2.83-6.36-6.36-6.36Z" />
      <path d="M133.62,85.01h0c3.52,0,6.36-2.83,6.36-6.36h0c0-3.52-2.83-6.36-6.36-6.36h0c-3.52,0-6.36,2.83-6.36,6.36h0c0,3.52,2.83,6.36,6.36,6.36Z" />
      <path d="M82.76,85.01h0c3.52,0,6.36-2.83,6.36-6.36h0c0-3.52-2.83-6.36-6.36-6.36h0c-3.52,0-6.36,2.83-6.36,6.36h0c0,3.52,2.83,6.36,6.36,6.36Z" />
      <path d="M89.12,65.94h0c0,3.52,2.83,6.36,6.36,6.36h0c3.52,0,6.36-2.83,6.36-6.36h0c0-3.52-2.83-6.36-6.36-6.36h0c-3.52,0-6.36,2.83-6.36,6.36Z" />
      <path d="M349.78,59.58h0c-3.52,0-6.36,2.83-6.36,6.36h0c0,3.52,2.83,6.36,6.36,6.36h0c3.52,0,6.36-2.83,6.36-6.36h0c0-3.52-2.83-6.36-6.36-6.36Z" />
      <path d="M330.71,78.65h0c0,3.52,2.83,6.36,6.36,6.36h0c3.52,0,6.36-2.83,6.36-6.36h0c0-3.52-2.83-6.36-6.36-6.36h0c-3.52,0-6.36,2.83-6.36,6.36Z" />
      <path d="M330.71,53.22h0c0,3.52,2.83,6.36,6.36,6.36h0c3.52,0,6.36-2.83,6.36-6.36h0c0-3.52-2.83-6.36-6.36-6.36h0c-3.52,0-6.36,2.83-6.36,6.36Z" />
      <path d="M368.85,53.22h0c0-3.52-2.83-6.36-6.36-6.36h0c-3.52,0-6.36,2.83-6.36,6.36h0c0,3.52,2.83,6.36,6.36,6.36h0c3.52,0,6.36-2.83,6.36-6.36Z" />
      <path d="M387.92,85.01h0c3.52,0,6.36-2.83,6.36-6.36h0c0-3.52-2.83-6.36-6.36-6.36h0c-3.52,0-6.36,2.83-6.36,6.36h0c0,3.52,2.83,6.36,6.36,6.36Z" />
      <path d="M368.85,65.94h0c0,3.52,2.83,6.36,6.36,6.36h0c3.52,0,6.36-2.83,6.36-6.36h0c0-3.52-2.83-6.36-6.36-6.36h0c-3.52,0-6.36,2.83-6.36,6.36Z" />
      <path d="M349.78,34.15h0c-3.52,0-6.36,2.83-6.36,6.36h0c0,3.52,2.83,6.36,6.36,6.36h0c3.52,0,6.36-2.83,6.36-6.36h0c0-3.52-2.83-6.36-6.36-6.36Z" />
      <path d="M362.49,85.01h0c3.52,0,6.36-2.83,6.36-6.36h0c0-3.52-2.83-6.36-6.36-6.36h0c-3.52,0-6.36,2.83-6.36,6.36h0c0,3.52,2.83,6.36,6.36,6.36Z" />
      <path d="M311.63,85.01h0c3.52,0,6.36-2.83,6.36-6.36h0c0-3.52-2.83-6.36-6.36-6.36h0c-3.52,0-6.36,2.83-6.36,6.36h0c0,3.52,2.83,6.36,6.36,6.36Z" />
      <path d="M317.99,65.94h0c0,3.52,2.83,6.36,6.36,6.36h0c3.52,0,6.36-2.83,6.36-6.36h0c0-3.52-2.83-6.36-6.36-6.36h0c-3.52,0-6.36,2.83-6.36,6.36Z" />
      <path d="M426.07,59.58h0c-3.52,0-6.36,2.83-6.36,6.36h0c0,3.52,2.83,6.36,6.36,6.36h0c3.52,0,6.36-2.83,6.36-6.36h0c0-3.52-2.83-6.36-6.36-6.36Z" />
      <path d="M407,78.65h0c0,3.52,2.83,6.36,6.36,6.36h0c3.52,0,6.36-2.83,6.36-6.36h0c0-3.52-2.83-6.36-6.36-6.36h0c-3.52,0-6.36,2.83-6.36,6.36Z" />
      <path d="M407,53.22h0c0,3.52,2.83,6.36,6.36,6.36h0c3.52,0,6.36-2.83,6.36-6.36h0c0-3.52-2.83-6.36-6.36-6.36h0c-3.52,0-6.36,2.83-6.36,6.36Z" />
      <path d="M445.14,53.22h0c0-3.52-2.83-6.36-6.36-6.36h0c-3.52,0-6.36,2.83-6.36,6.36h0c0,3.52,2.83,6.36,6.36,6.36h0c3.52,0,6.36-2.83,6.36-6.36Z" />
      <path d="M464.21,85.01h0c3.52,0,6.36-2.83,6.36-6.36h0c0-3.52-2.83-6.36-6.36-6.36h0c-3.52,0-6.36,2.83-6.36,6.36h0c0,3.52,2.83,6.36,6.36,6.36Z" />
      <path d="M445.14,65.94h0c0,3.52,2.83,6.36,6.36,6.36h0c3.52,0,6.36-2.83,6.36-6.36h0c0-3.52-2.83-6.36-6.36-6.36h0c-3.52,0-6.36,2.83-6.36,6.36Z" />
      <path d="M426.07,34.15h0c-3.52,0-6.36,2.83-6.36,6.36h0c0,3.52,2.83,6.36,6.36,6.36h0c3.52,0,6.36-2.83,6.36-6.36h0c0-3.52-2.83-6.36-6.36-6.36Z" />
      <path d="M438.78,85.01h0c3.52,0,6.36-2.83,6.36-6.36h0c0-3.52-2.83-6.36-6.36-6.36h0c-3.52,0-6.36,2.83-6.36,6.36h0c0,3.52,2.83,6.36,6.36,6.36Z" />
      <path d="M387.92,85.01h0c3.52,0,6.36-2.83,6.36-6.36h0c0-3.52-2.83-6.36-6.36-6.36h0c-3.52,0-6.36,2.83-6.36,6.36h0c0,3.52,2.83,6.36,6.36,6.36Z" />
      <path d="M394.28,65.94h0c0,3.52,2.83,6.36,6.36,6.36h0c3.52,0,6.36-2.83,6.36-6.36h0c0-3.52-2.83-6.36-6.36-6.36h0c-3.52,0-6.36,2.83-6.36,6.36Z" />
      <path d="M502.36,59.58h0c-3.52,0-6.36,2.83-6.36,6.36h0c0,3.52,2.83,6.36,6.36,6.36h0c3.52,0,6.36-2.83,6.36-6.36h0c0-3.52-2.83-6.36-6.36-6.36Z" />
      <path d="M483.29,78.66h0c0,3.52,2.83,6.36,6.36,6.36h0c3.52,0,6.36-2.83,6.36-6.36h0c0-3.52-2.83-6.36-6.36-6.36h0c-3.52,0-6.36,2.83-6.36,6.36Z" />
      <path d="M483.29,53.22h0c0,3.52,2.83,6.36,6.36,6.36h0c3.52,0,6.36-2.83,6.36-6.36h0c0-3.52-2.83-6.36-6.36-6.36h0c-3.52,0-6.36,2.83-6.36,6.36Z" />
      <path d="M521.43,53.23h0c0-3.52-2.83-6.36-6.36-6.36h0c-3.52,0-6.36,2.83-6.36,6.36h0c0,3.52,2.83,6.36,6.36,6.36h0c3.52,0,6.36-2.83,6.36-6.36Z" />
      <path d="M540.5,85.01h0c3.52,0,6.36-2.83,6.36-6.36h0c0-3.52-2.83-6.36-6.36-6.36h0c-3.52,0-6.36,2.83-6.36,6.36h0c0,3.52,2.83,6.36,6.36,6.36Z" />
      <path d="M521.43,65.94h0c0,3.52,2.83,6.36,6.36,6.36h0c3.52,0,6.36-2.83,6.36-6.36h0c0-3.52-2.83-6.36-6.36-6.36h0c-3.52,0-6.36,2.83-6.36,6.36Z" />
      <path d="M502.36,34.15h0c-3.52,0-6.36,2.83-6.36,6.36h0c0,3.52,2.83,6.36,6.36,6.36h0c3.52,0,6.36-2.83,6.36-6.36h0c0-3.52-2.83-6.36-6.36-6.36Z" />
      <path d="M515.07,85.01h0c3.52,0,6.36-2.83,6.36-6.36h0c0-3.52-2.83-6.36-6.36-6.36h0c-3.52,0-6.36,2.83-6.36,6.36h0c0,3.52,2.83,6.36,6.36,6.36Z" />
      <path d="M464.21,85.01h0c3.52,0,6.36-2.83,6.36-6.36h0c0-3.52-2.83-6.36-6.36-6.36h0c-3.52,0-6.36,2.83-6.36,6.36h0c0,3.52,2.83,6.36,6.36,6.36Z" />
      <path d="M470.57,65.94h0c0,3.52,2.83,6.36,6.36,6.36h0c3.52,0,6.36-2.83,6.36-6.36h0c0-3.52-2.83-6.36-6.36-6.36h0c-3.52,0-6.36,2.83-6.36,6.36Z" />
      <path d="M578.65,59.58h0c-3.52,0-6.36,2.83-6.36,6.36h0c0,3.52,2.83,6.36,6.36,6.36h0c3.52,0,6.36-2.83,6.36-6.36h0c0-3.52-2.83-6.36-6.36-6.36Z" />
      <path d="M559.58,78.66h0c0,3.52,2.83,6.36,6.36,6.36h0c3.52,0,6.36-2.83,6.36-6.36h0c0-3.52-2.83-6.36-6.36-6.36h0c-3.52,0-6.36,2.83-6.36,6.36Z" />
      <path d="M559.58,53.23h0c0,3.52,2.83,6.36,6.36,6.36h0c3.52,0,6.36-2.83,6.36-6.36h0c0-3.52-2.83-6.36-6.36-6.36h0c-3.52,0-6.36,2.83-6.36,6.36Z" />
      <path d="M597.72,53.23h0c0-3.52-2.83-6.36-6.36-6.36h0c-3.52,0-6.36,2.83-6.36,6.36h0c0,3.52,2.83,6.36,6.36,6.36h0c3.52,0,6.36-2.83,6.36-6.36Z" />
      <path d="M616.8,85.01h0c3.52,0,6.36-2.83,6.36-6.36h0c0-3.52-2.83-6.36-6.36-6.36h0c-3.52,0-6.36,2.83-6.36,6.36h0c0,3.52,2.83,6.36,6.36,6.36Z" />
      <path d="M597.72,65.94h0c0,3.52,2.83,6.36,6.36,6.36h0c3.52,0,6.36-2.83,6.36-6.36h0c0-3.52-2.83-6.36-6.36-6.36h0c-3.52,0-6.36,2.83-6.36,6.36Z" />
      <path d="M578.65,34.15h0c-3.52,0-6.36,2.83-6.36,6.36h0c0,3.52,2.83,6.36,6.36,6.36h0c3.52,0,6.36-2.83,6.36-6.36h0c0-3.52-2.83-6.36-6.36-6.36Z" />
      <path d="M591.36,85.01h0c3.52,0,6.36-2.83,6.36-6.36h0c0-3.52-2.83-6.36-6.36-6.36h0c-3.52,0-6.36,2.83-6.36,6.36h0c0,3.52,2.83,6.36,6.36,6.36Z" />
      <path d="M540.5,85.01h0c3.52,0,6.36-2.83,6.36-6.36h0c0-3.52-2.83-6.36-6.36-6.36h0c-3.52,0-6.36,2.83-6.36,6.36h0c0,3.52,2.83,6.36,6.36,6.36Z" />
      <path d="M546.86,65.94h0c0,3.52,2.83,6.36,6.36,6.36h0c3.52,0,6.36-2.83,6.36-6.36h0c0-3.52-2.83-6.36-6.36-6.36h0c-3.52,0-6.36,2.83-6.36,6.36Z" />
      <path d="M654.94,59.58h0c-3.52,0-6.36,2.83-6.36,6.36h0c0,3.52,2.83,6.36,6.36,6.36h0c3.52,0,6.36-2.83,6.36-6.36h0c0-3.52-2.83-6.36-6.36-6.36Z" />
      <path d="M635.87,78.66h0c0,3.52,2.83,6.36,6.36,6.36h0c3.52,0,6.36-2.83,6.36-6.36h0c0-3.52-2.83-6.36-6.36-6.36h0c-3.52,0-6.36,2.83-6.36,6.36Z" />
      <path d="M635.87,53.23h0c0,3.52,2.83,6.36,6.36,6.36h0c3.52,0,6.36-2.83,6.36-6.36h0c0-3.52-2.83-6.36-6.36-6.36h0c-3.52,0-6.36,2.83-6.36,6.36Z" />
      <path d="M674.01,53.23h0c0-3.52-2.83-6.36-6.36-6.36h0c-3.52,0-6.36,2.83-6.36,6.36h0c0,3.52,2.83,6.36,6.36,6.36h0c3.52,0,6.36-2.83,6.36-6.36Z" />
      <path d="M693.09,85.01h0c3.52,0,6.36-2.83,6.36-6.36h0c0-3.52-2.83-6.36-6.36-6.36h0c-3.52,0-6.36,2.83-6.36,6.36h0c0,3.52,2.83,6.36,6.36,6.36Z" />
      <path d="M674.01,65.94h0c0,3.52,2.83,6.36,6.36,6.36h0c3.52,0,6.36-2.83,6.36-6.36h0c0-3.52-2.83-6.36-6.36-6.36h0c-3.52,0-6.36,2.83-6.36,6.36Z" />
      <path d="M654.94,34.15h0c-3.52,0-6.36,2.83-6.36,6.36h0c0,3.52,2.83,6.36,6.36,6.36h0c3.52,0,6.36-2.83,6.36-6.36h0c0-3.52-2.83-6.36-6.36-6.36Z" />
      <path d="M667.66,85.01h0c3.52,0,6.36-2.83,6.36-6.36h0c0-3.52-2.83-6.36-6.36-6.36h0c-3.52,0-6.36,2.83-6.36,6.36h0c0,3.52,2.83,6.36,6.36,6.36Z" />
      <path d="M616.8,85.01h0c3.52,0,6.36-2.83,6.36-6.36h0c0-3.52-2.83-6.36-6.36-6.36h0c-3.52,0-6.36,2.83-6.36,6.36h0c0,3.52,2.83,6.36,6.36,6.36Z" />
      <path d="M623.15,65.94h0c0,3.52,2.83,6.36,6.36,6.36h0c3.52,0,6.36-2.83,6.36-6.36h0c0-3.52-2.83-6.36-6.36-6.36h0c-3.52,0-6.36,2.83-6.36,6.36Z" />
      <path d="M731.23,59.58h0c-3.52,0-6.36,2.83-6.36,6.36h0c0,3.52,2.83,6.36,6.36,6.36h0c3.52,0,6.36-2.83,6.36-6.36h0c0-3.52-2.83-6.36-6.36-6.36Z" />
      <path d="M712.16,78.66h0c0,3.52,2.83,6.36,6.36,6.36h0c3.52,0,6.36-2.83,6.36-6.36h0c0-3.52-2.83-6.36-6.36-6.36h0c-3.52,0-6.36,2.83-6.36,6.36Z" />
      <path d="M712.16,53.23h0c0,3.52,2.83,6.36,6.36,6.36h0c3.52,0,6.36-2.83,6.36-6.36h0c0-3.52-2.83-6.36-6.36-6.36h0c-3.52,0-6.36,2.83-6.36,6.36Z" />
      <path d="M750.3,53.23h0c0-3.52-2.83-6.36-6.36-6.36h0c-3.52,0-6.36,2.83-6.36,6.36h0c0,3.52,2.83,6.36,6.36,6.36h0c3.52,0,6.36-2.83,6.36-6.36Z" />
      <path d="M769.38,85.01h0c3.52,0,6.36-2.83,6.36-6.36h0c0-3.52-2.83-6.36-6.36-6.36h0c-3.52,0-6.36,2.83-6.36,6.36h0c0,3.52,2.83,6.36,6.36,6.36Z" />
      <path d="M750.3,65.94h0c0,3.52,2.83,6.36,6.36,6.36h0c3.52,0,6.36-2.83,6.36-6.36h0c0-3.52-2.83-6.36-6.36-6.36h0c-3.52,0-6.36,2.83-6.36,6.36Z" />
      <path d="M731.23,34.15h0c-3.52,0-6.36,2.83-6.36,6.36h0c0,3.52,2.83,6.36,6.36,6.36h0c3.52,0,6.36-2.83,6.36-6.36h0c0-3.52-2.83-6.36-6.36-6.36Z" />
      <path d="M743.95,85.01h0c3.52,0,6.36-2.83,6.36-6.36h0c0-3.52-2.83-6.36-6.36-6.36h0c-3.52,0-6.36,2.83-6.36,6.36h0c0,3.52,2.83,6.36,6.36,6.36Z" />
      <path d="M693.09,85.01h0c3.52,0,6.36-2.83,6.36-6.36h0c0-3.52-2.83-6.36-6.36-6.36h0c-3.52,0-6.36,2.83-6.36,6.36h0c0,3.52,2.83,6.36,6.36,6.36Z" />
      <path d="M699.44,65.94h0c0,3.52,2.83,6.36,6.36,6.36h0c3.52,0,6.36-2.83,6.36-6.36h0c0-3.52-2.83-6.36-6.36-6.36h0c-3.52,0-6.36,2.83-6.36,6.36Z" />
      <path d="M807.52,59.58h0c-3.52,0-6.36,2.83-6.36,6.36h0c0,3.52,2.83,6.36,6.36,6.36h0c3.52,0,6.36-2.83,6.36-6.36h0c0-3.52-2.83-6.36-6.36-6.36Z" />
      <path d="M788.45,78.66h0c0,3.52,2.83,6.36,6.36,6.36h0c3.52,0,6.36-2.83,6.36-6.36h0c0-3.52-2.83-6.36-6.36-6.36h0c-3.52,0-6.36,2.83-6.36,6.36Z" />
      <path d="M788.45,53.23h0c0,3.52,2.83,6.36,6.36,6.36h0c3.52,0,6.36-2.83,6.36-6.36h0c0-3.52-2.83-6.36-6.36-6.36h0c-3.52,0-6.36,2.83-6.36,6.36Z" />
      <path d="M826.59,53.23h0c0-3.52-2.83-6.36-6.36-6.36h0c-3.52,0-6.36,2.83-6.36,6.36h0c0,3.52,2.83,6.36,6.36,6.36h0c3.52,0,6.36-2.83,6.36-6.36Z" />
      <path d="M845.67,85.01h0c3.52,0,6.36-2.83,6.36-6.36h0c0-3.52-2.83-6.36-6.36-6.36h0c-3.52,0-6.36,2.83-6.36,6.36h0c0,3.52,2.83,6.36,6.36,6.36Z" />
      <path d="M826.59,65.94h0c0,3.52,2.83,6.36,6.36,6.36h0c3.52,0,6.36-2.83,6.36-6.36h0c0-3.52-2.83-6.36-6.36-6.36h0c-3.52,0-6.36,2.83-6.36,6.36Z" />
      <path d="M807.52,34.15h0c-3.52,0-6.36,2.83-6.36,6.36h0c0,3.52,2.83,6.36,6.36,6.36h0c3.52,0,6.36-2.83,6.36-6.36h0c0-3.52-2.83-6.36-6.36-6.36Z" />
      <path d="M820.24,85.01h0c3.52,0,6.36-2.83,6.36-6.36h0c0-3.52-2.83-6.36-6.36-6.36h0c-3.52,0-6.36,2.83-6.36,6.36h0c0,3.52,2.83,6.36,6.36,6.36Z" />
      <path d="M769.38,85.01h0c3.52,0,6.36-2.83,6.36-6.36h0c0-3.52-2.83-6.36-6.36-6.36h0c-3.52,0-6.36,2.83-6.36,6.36h0c0,3.52,2.83,6.36,6.36,6.36Z" />
      <path d="M775.73,65.94h0c0,3.52,2.83,6.36,6.36,6.36h0c3.52,0,6.36-2.83,6.36-6.36h0c0-3.52-2.83-6.36-6.36-6.36h0c-3.52,0-6.36,2.83-6.36,6.36Z" />
      <path d="M883.81,59.58h0c-3.52,0-6.36,2.83-6.36,6.36h0c0,3.52,2.83,6.36,6.36,6.36h0c3.52,0,6.36-2.83,6.36-6.36h0c0-3.52-2.83-6.36-6.36-6.36Z" />
      <path d="M864.74,78.66h0c0,3.52,2.83,6.36,6.36,6.36h0c3.52,0,6.36-2.83,6.36-6.36h0c0-3.52-2.83-6.36-6.36-6.36h0c-3.52,0-6.36,2.83-6.36,6.36Z" />
      <path d="M864.74,53.23h0c0,3.52,2.83,6.36,6.36,6.36h0c3.52,0,6.36-2.83,6.36-6.36h0c0-3.52-2.83-6.36-6.36-6.36h0c-3.52,0-6.36,2.83-6.36,6.36Z" />
      <path d="M902.88,53.23h0c0-3.52-2.83-6.36-6.36-6.36h0c-3.52,0-6.36,2.83-6.36,6.36h0c0,3.52,2.83,6.36,6.36,6.36h0c3.52,0,6.36-2.83,6.36-6.36Z" />
      <path d="M921.96,85.01h0c3.52,0,6.36-2.83,6.36-6.36h0c0-3.52-2.83-6.36-6.36-6.36h0c-3.52,0-6.36,2.83-6.36,6.36h0c0,3.52,2.83,6.36,6.36,6.36Z" />
      <path d="M902.88,65.94h0c0,3.52,2.83,6.36,6.36,6.36h0c3.52,0,6.36-2.83,6.36-6.36h0c0-3.52-2.83-6.36-6.36-6.36h0c-3.52,0-6.36,2.83-6.36,6.36Z" />
      <path d="M883.81,34.15h0c-3.52,0-6.36,2.83-6.36,6.36h0c0,3.52,2.83,6.36,6.36,6.36h0c3.52,0,6.36-2.83,6.36-6.36h0c0-3.52-2.83-6.36-6.36-6.36Z" />
      <path d="M896.53,85.01h0c3.52,0,6.36-2.83,6.36-6.36h0c0-3.52-2.83-6.36-6.36-6.36h0c-3.52,0-6.36,2.83-6.36,6.36h0c0,3.52,2.83,6.36,6.36,6.36Z" />
      <path d="M845.67,85.01h0c3.52,0,6.36-2.83,6.36-6.36h0c0-3.52-2.83-6.36-6.36-6.36h0c-3.52,0-6.36,2.83-6.36,6.36h0c0,3.52,2.83,6.36,6.36,6.36Z" />
      <path d="M852.02,65.94h0c0,3.52,2.83,6.36,6.36,6.36h0c3.52,0,6.36-2.83,6.36-6.36h0c0-3.52-2.83-6.36-6.36-6.36h0c-3.52,0-6.36,2.83-6.36,6.36Z" />
      <path d="M960.1,59.59h0c-3.52,0-6.36,2.83-6.36,6.36h0c0,3.52,2.83,6.36,6.36,6.36h0c3.52,0,6.36-2.83,6.36-6.36h0c0-3.52-2.83-6.36-6.36-6.36Z" />
      <path d="M941.03,78.66h0c0,3.52,2.83,6.36,6.36,6.36h0c3.52,0,6.36-2.83,6.36-6.36h0c0-3.52-2.83-6.36-6.36-6.36h0c-3.52,0-6.36,2.83-6.36,6.36Z" />
      <path d="M941.03,53.23h0c0,3.52,2.83,6.36,6.36,6.36h0c3.52,0,6.36-2.83,6.36-6.36h0c0-3.52-2.83-6.36-6.36-6.36h0c-3.52,0-6.36,2.83-6.36,6.36Z" />
      <path d="M979.17,53.23h0c0-3.52-2.83-6.36-6.36-6.36h0c-3.52,0-6.36,2.83-6.36,6.36h0c0,3.52,2.83,6.36,6.36,6.36h0c3.52,0,6.36-2.83,6.36-6.36Z" />
      <path d="M998.25,85.02h0c3.52,0,6.36-2.83,6.36-6.36h0c0-3.52-2.83-6.36-6.36-6.36h0c-3.52,0-6.36,2.83-6.36,6.36h0c0,3.52,2.83,6.36,6.36,6.36Z" />
      <path d="M979.17,65.94h0c0,3.52,2.83,6.36,6.36,6.36h0c3.52,0,6.36-2.83,6.36-6.36h0c0-3.52-2.83-6.36-6.36-6.36h0c-3.52,0-6.36,2.83-6.36,6.36Z" />
      <path d="M960.1,34.15h0c-3.52,0-6.36,2.83-6.36,6.36h0c0,3.52,2.83,6.36,6.36,6.36h0c3.52,0,6.36-2.83,6.36-6.36h0c0-3.52-2.83-6.36-6.36-6.36Z" />
      <path d="M972.82,85.02h0c3.52,0,6.36-2.83,6.36-6.36h0c0-3.52-2.83-6.36-6.36-6.36h0c-3.52,0-6.36,2.83-6.36,6.36h0c0,3.52,2.83,6.36,6.36,6.36Z" />
      <path d="M921.96,85.01h0c3.52,0,6.36-2.83,6.36-6.36h0c0-3.52-2.83-6.36-6.36-6.36h0c-3.52,0-6.36,2.83-6.36,6.36h0c0,3.52,2.83,6.36,6.36,6.36Z" />
      <path d="M928.31,65.94h0c0,3.52,2.83,6.36,6.36,6.36h0c3.52,0,6.36-2.83,6.36-6.36h0c0-3.52-2.83-6.36-6.36-6.36h0c-3.52,0-6.36,2.83-6.36,6.36Z" />
      <path d="M1036.39,59.59h0c-3.52,0-6.36,2.83-6.36,6.36h0c0,3.52,2.83,6.36,6.36,6.36h0c3.52,0,6.36-2.83,6.36-6.36h0c0-3.52-2.83-6.36-6.36-6.36Z" />
      <path d="M1017.32,78.66h0c0,3.52,2.83,6.36,6.36,6.36h0c3.52,0,6.36-2.83,6.36-6.36h0c0-3.52-2.83-6.36-6.36-6.36h0c-3.52,0-6.36,2.83-6.36,6.36Z" />
      <path d="M1017.32,53.23h0c0,3.52,2.83,6.36,6.36,6.36h0c3.52,0,6.36-2.83,6.36-6.36h0c0-3.52-2.83-6.36-6.36-6.36h0c-3.52,0-6.36,2.83-6.36,6.36Z" />
      <path d="M1055.46,53.23h0c0-3.52-2.83-6.36-6.36-6.36h0c-3.52,0-6.36,2.83-6.36,6.36h0c0,3.52,2.83,6.36,6.36,6.36h0c3.52,0,6.36-2.83,6.36-6.36Z" />
      <path d="M1074.54,85.02h0c3.52,0,6.36-2.83,6.36-6.36h0c0-3.52-2.83-6.36-6.36-6.36h0c-3.52,0-6.36,2.83-6.36,6.36h0c0,3.52,2.83,6.36,6.36,6.36Z" />
      <path d="M1055.46,65.94h0c0,3.52,2.83,6.36,6.36,6.36h0c3.52,0,6.36-2.83,6.36-6.36h0c0-3.52-2.83-6.36-6.36-6.36h0c-3.52,0-6.36,2.83-6.36,6.36Z" />
      <path d="M1036.39,34.16h0c-3.52,0-6.36,2.83-6.36,6.36h0c0,3.52,2.83,6.36,6.36,6.36h0c3.52,0,6.36-2.83,6.36-6.36h0c0-3.52-2.83-6.36-6.36-6.36Z" />
      <path d="M1049.11,85.02h0c3.52,0,6.36-2.83,6.36-6.36h0c0-3.52-2.83-6.36-6.36-6.36h0c-3.52,0-6.36,2.83-6.36,6.36h0c0,3.52,2.83,6.36,6.36,6.36Z" />
      <path d="M998.25,85.02h0c3.52,0,6.36-2.83,6.36-6.36h0c0-3.52-2.83-6.36-6.36-6.36h0c-3.52,0-6.36,2.83-6.36,6.36h0c0,3.52,2.83,6.36,6.36,6.36Z" />
      <path d="M1004.6,65.94h0c0,3.52,2.83,6.36,6.36,6.36h0c3.52,0,6.36-2.83,6.36-6.36h0c0-3.52-2.83-6.36-6.36-6.36h0c-3.52,0-6.36,2.83-6.36,6.36Z" />
      <path d="M1112.68,59.59h0c-3.52,0-6.36,2.83-6.36,6.36h0c0,3.52,2.83,6.36,6.36,6.36h0c3.52,0,6.36-2.83,6.36-6.36h0c0-3.52-2.83-6.36-6.36-6.36Z" />
      <path d="M1093.61,78.66h0c0,3.52,2.83,6.36,6.36,6.36h0c3.52,0,6.36-2.83,6.36-6.36h0c0-3.52-2.83-6.36-6.36-6.36h0c-3.52,0-6.36,2.83-6.36,6.36Z" />
      <path d="M1093.61,53.23h0c0,3.52,2.83,6.36,6.36,6.36h0c3.52,0,6.36-2.83,6.36-6.36h0c0-3.52-2.83-6.36-6.36-6.36h0c-3.52,0-6.36,2.83-6.36,6.36Z" />
      <path d="M1131.76,53.23h0c0-3.52-2.83-6.36-6.36-6.36h0c-3.52,0-6.36,2.83-6.36,6.36h0c0,3.52,2.83,6.36,6.36,6.36h0c3.52,0,6.36-2.83,6.36-6.36Z" />
      <path d="M1150.83,85.02h0c3.52,0,6.36-2.83,6.36-6.36h0c0-3.52-2.83-6.36-6.36-6.36h0c-3.52,0-6.36,2.83-6.36,6.36h0c0,3.52,2.83,6.36,6.36,6.36Z" />
      <path d="M1131.76,65.94h0c0,3.52,2.83,6.36,6.36,6.36h0c3.52,0,6.36-2.83,6.36-6.36h0c0-3.52-2.83-6.36-6.36-6.36h0c-3.52,0-6.36,2.83-6.36,6.36Z" />
      <path d="M1112.68,34.16h0c-3.52,0-6.36,2.83-6.36,6.36h0c0,3.52,2.83,6.36,6.36,6.36h0c3.52,0,6.36-2.83,6.36-6.36h0c0-3.52-2.83-6.36-6.36-6.36Z" />
      <path d="M1125.4,85.02h0c3.52,0,6.36-2.83,6.36-6.36h0c0-3.52-2.83-6.36-6.36-6.36h0c-3.52,0-6.36,2.83-6.36,6.36h0c0,3.52,2.83,6.36,6.36,6.36Z" />
      <path d="M1074.54,85.02h0c3.52,0,6.36-2.83,6.36-6.36h0c0-3.52-2.83-6.36-6.36-6.36h0c-3.52,0-6.36,2.83-6.36,6.36h0c0,3.52,2.83,6.36,6.36,6.36Z" />
      <path d="M1080.9,65.94h0c0,3.52,2.83,6.36,6.36,6.36h0c3.52,0,6.36-2.83,6.36-6.36h0c0-3.52-2.83-6.36-6.36-6.36h0c-3.52,0-6.36,2.83-6.36,6.36Z" />
      <path d="M1188.97,59.59h0c-3.52,0-6.36,2.83-6.36,6.36h0c0,3.52,2.83,6.36,6.36,6.36h0c3.52,0,6.36-2.83,6.36-6.36h0c0-3.52-2.83-6.36-6.36-6.36Z" />
      <path d="M1169.9,78.66h0c0,3.52,2.83,6.36,6.36,6.36h0c3.52,0,6.36-2.83,6.36-6.36h0c0-3.52-2.83-6.36-6.36-6.36h0c-3.52,0-6.36,2.83-6.36,6.36Z" />
      <path d="M1169.9,53.23h0c0,3.52,2.83,6.36,6.36,6.36h0c3.52,0,6.36-2.83,6.36-6.36h0c0-3.52-2.83-6.36-6.36-6.36h0c-3.52,0-6.36,2.83-6.36,6.36Z" />
      <path d="M1208.05,53.23h0c0-3.52-2.83-6.36-6.36-6.36h0c-3.52,0-6.36,2.83-6.36,6.36h0c0,3.52,2.83,6.36,6.36,6.36h0c3.52,0,6.36-2.83,6.36-6.36Z" />
      <path d="M1227.12,85.02h0c3.52,0,6.36-2.83,6.36-6.36h0c0-3.52-2.83-6.36-6.36-6.36h0c-3.52,0-6.36,2.83-6.36,6.36h0c0,3.52,2.83,6.36,6.36,6.36Z" />
      <path d="M1208.05,65.94h0c0,3.52,2.83,6.36,6.36,6.36h0c3.52,0,6.36-2.83,6.36-6.36h0c0-3.52-2.83-6.36-6.36-6.36h0c-3.52,0-6.36,2.83-6.36,6.36Z" />
      <path d="M1188.97,34.16h0c-3.52,0-6.36,2.83-6.36,6.36h0c0,3.52,2.83,6.36,6.36,6.36h0c3.52,0,6.36-2.83,6.36-6.36h0c0-3.52-2.83-6.36-6.36-6.36Z" />
      <path d="M1201.69,85.02h0c3.52,0,6.36-2.83,6.36-6.36h0c0-3.52-2.83-6.36-6.36-6.36h0c-3.52,0-6.36,2.83-6.36,6.36h0c0,3.52,2.83,6.36,6.36,6.36Z" />
      <path d="M1150.83,85.02h0c3.52,0,6.36-2.83,6.36-6.36h0c0-3.52-2.83-6.36-6.36-6.36h0c-3.52,0-6.36,2.83-6.36,6.36h0c0,3.52,2.83,6.36,6.36,6.36Z" />
      <path d="M1157.19,65.94h0c0,3.52,2.83,6.36,6.36,6.36h0c3.52,0,6.36-2.83,6.36-6.36h0c0-3.52-2.83-6.36-6.36-6.36h0c-3.52,0-6.36,2.83-6.36,6.36Z" />
      <path d="M731.23,59.58h0c-3.52,0-6.36,2.83-6.36,6.36h0c0,3.52,2.83,6.36,6.36,6.36h0c3.52,0,6.36-2.83,6.36-6.36h0c0-3.52-2.83-6.36-6.36-6.36Z" />
      <path d="M712.16,78.66h0c0,3.52,2.83,6.36,6.36,6.36h0c3.52,0,6.36-2.83,6.36-6.36h0c0-3.52-2.83-6.36-6.36-6.36h0c-3.52,0-6.36,2.83-6.36,6.36Z" />
      <path d="M712.16,53.23h0c0,3.52,2.83,6.36,6.36,6.36h0c3.52,0,6.36-2.83,6.36-6.36h0c0-3.52-2.83-6.36-6.36-6.36h0c-3.52,0-6.36,2.83-6.36,6.36Z" />
      <path d="M750.3,53.23h0c0-3.52-2.83-6.36-6.36-6.36h0c-3.52,0-6.36,2.83-6.36,6.36h0c0,3.52,2.83,6.36,6.36,6.36h0c3.52,0,6.36-2.83,6.36-6.36Z" />
      <path d="M769.38,85.01h0c3.52,0,6.36-2.83,6.36-6.36h0c0-3.52-2.83-6.36-6.36-6.36h0c-3.52,0-6.36,2.83-6.36,6.36h0c0,3.52,2.83,6.36,6.36,6.36Z" />
      <path d="M750.3,65.94h0c0,3.52,2.83,6.36,6.36,6.36h0c3.52,0,6.36-2.83,6.36-6.36h0c0-3.52-2.83-6.36-6.36-6.36h0c-3.52,0-6.36,2.83-6.36,6.36Z" />
      <path d="M731.23,34.15h0c-3.52,0-6.36,2.83-6.36,6.36h0c0,3.52,2.83,6.36,6.36,6.36h0c3.52,0,6.36-2.83,6.36-6.36h0c0-3.52-2.83-6.36-6.36-6.36Z" />
      <path d="M743.95,85.01h0c3.52,0,6.36-2.83,6.36-6.36h0c0-3.52-2.83-6.36-6.36-6.36h0c-3.52,0-6.36,2.83-6.36,6.36h0c0,3.52,2.83,6.36,6.36,6.36Z" />
      <path d="M693.09,85.01h0c3.52,0,6.36-2.83,6.36-6.36h0c0-3.52-2.83-6.36-6.36-6.36h0c-3.52,0-6.36,2.83-6.36,6.36h0c0,3.52,2.83,6.36,6.36,6.36Z" />
      <path d="M699.44,65.94h0c0,3.52,2.83,6.36,6.36,6.36h0c3.52,0,6.36-2.83,6.36-6.36h0c0-3.52-2.83-6.36-6.36-6.36h0c-3.52,0-6.36,2.83-6.36,6.36Z" />
      <path d="M960.1,59.59h0c-3.52,0-6.36,2.83-6.36,6.36h0c0,3.52,2.83,6.36,6.36,6.36h0c3.52,0,6.36-2.83,6.36-6.36h0c0-3.52-2.83-6.36-6.36-6.36Z" />
      <path d="M941.03,78.66h0c0,3.52,2.83,6.36,6.36,6.36h0c3.52,0,6.36-2.83,6.36-6.36h0c0-3.52-2.83-6.36-6.36-6.36h0c-3.52,0-6.36,2.83-6.36,6.36Z" />
      <path d="M941.03,53.23h0c0,3.52,2.83,6.36,6.36,6.36h0c3.52,0,6.36-2.83,6.36-6.36h0c0-3.52-2.83-6.36-6.36-6.36h0c-3.52,0-6.36,2.83-6.36,6.36Z" />
      <path d="M979.17,53.23h0c0-3.52-2.83-6.36-6.36-6.36h0c-3.52,0-6.36,2.83-6.36,6.36h0c0,3.52,2.83,6.36,6.36,6.36h0c3.52,0,6.36-2.83,6.36-6.36Z" />
      <path d="M998.25,85.02h0c3.52,0,6.36-2.83,6.36-6.36h0c0-3.52-2.83-6.36-6.36-6.36h0c-3.52,0-6.36,2.83-6.36,6.36h0c0,3.52,2.83,6.36,6.36,6.36Z" />
      <path d="M979.17,65.94h0c0,3.52,2.83,6.36,6.36,6.36h0c3.52,0,6.36-2.83,6.36-6.36h0c0-3.52-2.83-6.36-6.36-6.36h0c-3.52,0-6.36,2.83-6.36,6.36Z" />
      <path d="M960.1,34.15h0c-3.52,0-6.36,2.83-6.36,6.36h0c0,3.52,2.83,6.36,6.36,6.36h0c3.52,0,6.36-2.83,6.36-6.36h0c0-3.52-2.83-6.36-6.36-6.36Z" />
      <path d="M972.82,85.02h0c3.52,0,6.36-2.83,6.36-6.36h0c0-3.52-2.83-6.36-6.36-6.36h0c-3.52,0-6.36,2.83-6.36,6.36h0c0,3.52,2.83,6.36,6.36,6.36Z" />
      <path d="M921.96,85.01h0c3.52,0,6.36-2.83,6.36-6.36h0c0-3.52-2.83-6.36-6.36-6.36h0c-3.52,0-6.36,2.83-6.36,6.36h0c0,3.52,2.83,6.36,6.36,6.36Z" />
      <path d="M928.31,65.94h0c0,3.52,2.83,6.36,6.36,6.36h0c3.52,0,6.36-2.83,6.36-6.36h0c0-3.52-2.83-6.36-6.36-6.36h0c-3.52,0-6.36,2.83-6.36,6.36Z" />
      <path d="M1036.39,59.59h0c-3.52,0-6.36,2.83-6.36,6.36h0c0,3.52,2.83,6.36,6.36,6.36h0c3.52,0,6.36-2.83,6.36-6.36h0c0-3.52-2.83-6.36-6.36-6.36Z" />
      <path d="M1017.32,78.66h0c0,3.52,2.83,6.36,6.36,6.36h0c3.52,0,6.36-2.83,6.36-6.36h0c0-3.52-2.83-6.36-6.36-6.36h0c-3.52,0-6.36,2.83-6.36,6.36Z" />
      <path d="M1017.32,53.23h0c0,3.52,2.83,6.36,6.36,6.36h0c3.52,0,6.36-2.83,6.36-6.36h0c0-3.52-2.83-6.36-6.36-6.36h0c-3.52,0-6.36,2.83-6.36,6.36Z" />
      <path d="M1055.46,53.23h0c0-3.52-2.83-6.36-6.36-6.36h0c-3.52,0-6.36,2.83-6.36,6.36h0c0,3.52,2.83,6.36,6.36,6.36h0c3.52,0,6.36-2.83,6.36-6.36Z" />
      <path d="M1074.54,85.02h0c3.52,0,6.36-2.83,6.36-6.36h0c0-3.52-2.83-6.36-6.36-6.36h0c-3.52,0-6.36,2.83-6.36,6.36h0c0,3.52,2.83,6.36,6.36,6.36Z" />
      <path d="M1055.46,65.94h0c0,3.52,2.83,6.36,6.36,6.36h0c3.52,0,6.36-2.83,6.36-6.36h0c0-3.52-2.83-6.36-6.36-6.36h0c-3.52,0-6.36,2.83-6.36,6.36Z" />
      <path d="M1036.39,34.16h0c-3.52,0-6.36,2.83-6.36,6.36h0c0,3.52,2.83,6.36,6.36,6.36h0c3.52,0,6.36-2.83,6.36-6.36h0c0-3.52-2.83-6.36-6.36-6.36Z" />
      <path d="M1049.11,85.02h0c3.52,0,6.36-2.83,6.36-6.36h0c0-3.52-2.83-6.36-6.36-6.36h0c-3.52,0-6.36,2.83-6.36,6.36h0c0,3.52,2.83,6.36,6.36,6.36Z" />
      <path d="M998.25,85.02h0c3.52,0,6.36-2.83,6.36-6.36h0c0-3.52-2.83-6.36-6.36-6.36h0c-3.52,0-6.36,2.83-6.36,6.36h0c0,3.52,2.83,6.36,6.36,6.36Z" />
      <path d="M1004.6,65.94h0c0,3.52,2.83,6.36,6.36,6.36h0c3.52,0,6.36-2.83,6.36-6.36h0c0-3.52-2.83-6.36-6.36-6.36h0c-3.52,0-6.36,2.83-6.36,6.36Z" />
      <path d="M1112.68,59.59h0c-3.52,0-6.36,2.83-6.36,6.36h0c0,3.52,2.83,6.36,6.36,6.36h0c3.52,0,6.36-2.83,6.36-6.36h0c0-3.52-2.83-6.36-6.36-6.36Z" />
      <path d="M1093.61,78.66h0c0,3.52,2.83,6.36,6.36,6.36h0c3.52,0,6.36-2.83,6.36-6.36h0c0-3.52-2.83-6.36-6.36-6.36h0c-3.52,0-6.36,2.83-6.36,6.36Z" />
      <path d="M1093.61,53.23h0c0,3.52,2.83,6.36,6.36,6.36h0c3.52,0,6.36-2.83,6.36-6.36h0c0-3.52-2.83-6.36-6.36-6.36h0c-3.52,0-6.36,2.83-6.36,6.36Z" />
      <path d="M1131.76,53.23h0c0-3.52-2.83-6.36-6.36-6.36h0c-3.52,0-6.36,2.83-6.36,6.36h0c0,3.52,2.83,6.36,6.36,6.36h0c3.52,0,6.36-2.83,6.36-6.36Z" />
      <path d="M1150.83,85.02h0c3.52,0,6.36-2.83,6.36-6.36h0c0-3.52-2.83-6.36-6.36-6.36h0c-3.52,0-6.36,2.83-6.36,6.36h0c0,3.52,2.83,6.36,6.36,6.36Z" />
      <path d="M1131.76,65.94h0c0,3.52,2.83,6.36,6.36,6.36h0c3.52,0,6.36-2.83,6.36-6.36h0c0-3.52-2.83-6.36-6.36-6.36h0c-3.52,0-6.36,2.83-6.36,6.36Z" />
      <path d="M1112.68,34.16h0c-3.52,0-6.36,2.83-6.36,6.36h0c0,3.52,2.83,6.36,6.36,6.36h0c3.52,0,6.36-2.83,6.36-6.36h0c0-3.52-2.83-6.36-6.36-6.36Z" />
      <path d="M1125.4,85.02h0c3.52,0,6.36-2.83,6.36-6.36h0c0-3.52-2.83-6.36-6.36-6.36h0c-3.52,0-6.36,2.83-6.36,6.36h0c0,3.52,2.83,6.36,6.36,6.36Z" />
      <path d="M1074.54,85.02h0c3.52,0,6.36-2.83,6.36-6.36h0c0-3.52-2.83-6.36-6.36-6.36h0c-3.52,0-6.36,2.83-6.36,6.36h0c0,3.52,2.83,6.36,6.36,6.36Z" />
      <path d="M1080.9,65.94h0c0,3.52,2.83,6.36,6.36,6.36h0c3.52,0,6.36-2.83,6.36-6.36h0c0-3.52-2.83-6.36-6.36-6.36h0c-3.52,0-6.36,2.83-6.36,6.36Z" />
      <path d="M1188.97,59.59h0c-3.52,0-6.36,2.83-6.36,6.36h0c0,3.52,2.83,6.36,6.36,6.36h0c3.52,0,6.36-2.83,6.36-6.36h0c0-3.52-2.83-6.36-6.36-6.36Z" />
      <path d="M1169.9,78.66h0c0,3.52,2.83,6.36,6.36,6.36h0c3.52,0,6.36-2.83,6.36-6.36h0c0-3.52-2.83-6.36-6.36-6.36h0c-3.52,0-6.36,2.83-6.36,6.36Z" />
      <path d="M1169.9,53.23h0c0,3.52,2.83,6.36,6.36,6.36h0c3.52,0,6.36-2.83,6.36-6.36h0c0-3.52-2.83-6.36-6.36-6.36h0c-3.52,0-6.36,2.83-6.36,6.36Z" />
      <path d="M1208.05,53.23h0c0-3.52-2.83-6.36-6.36-6.36h0c-3.52,0-6.36,2.83-6.36,6.36h0c0,3.52,2.83,6.36,6.36,6.36h0c3.52,0,6.36-2.83,6.36-6.36Z" />
      <path d="M1227.12,85.02h0c3.52,0,6.36-2.83,6.36-6.36h0c0-3.52-2.83-6.36-6.36-6.36h0c-3.52,0-6.36,2.83-6.36,6.36h0c0,3.52,2.83,6.36,6.36,6.36Z" />
      <path d="M1208.05,65.94h0c0,3.52,2.83,6.36,6.36,6.36h0c3.52,0,6.36-2.83,6.36-6.36h0c0-3.52-2.83-6.36-6.36-6.36h0c-3.52,0-6.36,2.83-6.36,6.36Z" />
      <path d="M1188.97,34.16h0c-3.52,0-6.36,2.83-6.36,6.36h0c0,3.52,2.83,6.36,6.36,6.36h0c3.52,0,6.36-2.83,6.36-6.36h0c0-3.52-2.83-6.36-6.36-6.36Z" />
      <path d="M1201.69,85.02h0c3.52,0,6.36-2.83,6.36-6.36h0c0-3.52-2.83-6.36-6.36-6.36h0c-3.52,0-6.36,2.83-6.36,6.36h0c0,3.52,2.83,6.36,6.36,6.36Z" />
      <path d="M1150.83,85.02h0c3.52,0,6.36-2.83,6.36-6.36h0c0-3.52-2.83-6.36-6.36-6.36h0c-3.52,0-6.36,2.83-6.36,6.36h0c0,3.52,2.83,6.36,6.36,6.36Z" />
      <path d="M1157.19,65.94h0c0,3.52,2.83,6.36,6.36,6.36h0c3.52,0,6.36-2.83,6.36-6.36h0c0-3.52-2.83-6.36-6.36-6.36h0c-3.52,0-6.36,2.83-6.36,6.36Z" />
      <path d="M1265.26,59.59h0c-3.52,0-6.36,2.83-6.36,6.36h0c0,3.52,2.83,6.36,6.36,6.36h0c3.52,0,6.36-2.83,6.36-6.36h0c0-3.52-2.83-6.36-6.36-6.36Z" />
      <path d="M1246.19,78.66h0c0,3.52,2.83,6.36,6.36,6.36h0c3.52,0,6.36-2.83,6.36-6.36h0c0-3.52-2.83-6.36-6.36-6.36h0c-3.52,0-6.36,2.83-6.36,6.36Z" />
      <path d="M1246.19,53.23h0c0,3.52,2.83,6.36,6.36,6.36h0c3.52,0,6.36-2.83,6.36-6.36h0c0-3.52-2.83-6.36-6.36-6.36h0c-3.52,0-6.36,2.83-6.36,6.36Z" />
      <path d="M1284.34,53.23h0c0-3.52-2.83-6.36-6.36-6.36h0c-3.52,0-6.36,2.83-6.36,6.36h0c0,3.52,2.83,6.36,6.36,6.36h0c3.52,0,6.36-2.83,6.36-6.36Z" />
      <path d="M1303.41,85.02h0c3.52,0,6.36-2.83,6.36-6.36h0c0-3.52-2.83-6.36-6.36-6.36h0c-3.52,0-6.36,2.83-6.36,6.36h0c0,3.52,2.83,6.36,6.36,6.36Z" />
      <path d="M1284.34,65.94h0c0,3.52,2.83,6.36,6.36,6.36h0c3.52,0,6.36-2.83,6.36-6.36h0c0-3.52-2.83-6.36-6.36-6.36h0c-3.52,0-6.36,2.83-6.36,6.36Z" />
      <path d="M1265.26,34.16h0c-3.52,0-6.36,2.83-6.36,6.36h0c0,3.52,2.83,6.36,6.36,6.36h0c3.52,0,6.36-2.83,6.36-6.36h0c0-3.52-2.83-6.36-6.36-6.36Z" />
      <path d="M1277.98,85.02h0c3.52,0,6.36-2.83,6.36-6.36h0c0-3.52-2.83-6.36-6.36-6.36h0c-3.52,0-6.36,2.83-6.36,6.36h0c0,3.52,2.83,6.36,6.36,6.36Z" />
      <path d="M1227.12,85.02h0c3.52,0,6.36-2.83,6.36-6.36h0c0-3.52-2.83-6.36-6.36-6.36h0c-3.52,0-6.36,2.83-6.36,6.36h0c0,3.52,2.83,6.36,6.36,6.36Z" />
      <path d="M1233.48,65.94h0c0,3.52,2.83,6.36,6.36,6.36h0c3.52,0,6.36-2.83,6.36-6.36h0c0-3.52-2.83-6.36-6.36-6.36h0c-3.52,0-6.36,2.83-6.36,6.36Z" />
      <path d="M1341.55,59.59h0c-3.52,0-6.36,2.83-6.36,6.36h0c0,3.52,2.83,6.36,6.36,6.36h0c3.52,0,6.36-2.83,6.36-6.36h0c0-3.52-2.83-6.36-6.36-6.36Z" />
      <path d="M1322.48,78.66h0c0,3.52,2.83,6.36,6.36,6.36h0c3.52,0,6.36-2.83,6.36-6.36h0c0-3.52-2.83-6.36-6.36-6.36h0c-3.52,0-6.36,2.83-6.36,6.36Z" />
      <path d="M1322.48,53.23h0c0,3.52,2.83,6.36,6.36,6.36h0c3.52,0,6.36-2.83,6.36-6.36h0c0-3.52-2.83-6.36-6.36-6.36h0c-3.52,0-6.36,2.83-6.36,6.36Z" />
      <path d="M1360.63,53.23h0c0-3.52-2.83-6.36-6.36-6.36h0c-3.52,0-6.36,2.83-6.36,6.36h0c0,3.52,2.83,6.36,6.36,6.36h0c3.52,0,6.36-2.83,6.36-6.36Z" />
      <path d="M1379.7,85.02h0c3.52,0,6.36-2.83,6.36-6.36h0c0-3.52-2.83-6.36-6.36-6.36h0c-3.52,0-6.36,2.83-6.36,6.36h0c0,3.52,2.83,6.36,6.36,6.36Z" />
      <path d="M1360.63,65.94h0c0,3.52,2.83,6.36,6.36,6.36h0c3.52,0,6.36-2.83,6.36-6.36h0c0-3.52-2.83-6.36-6.36-6.36h0c-3.52,0-6.36,2.83-6.36,6.36Z" />
      <path d="M1341.55,34.16h0c-3.52,0-6.36,2.83-6.36,6.36h0c0,3.52,2.83,6.36,6.36,6.36h0c3.52,0,6.36-2.83,6.36-6.36h0c0-3.52-2.83-6.36-6.36-6.36Z" />
      <path d="M1354.27,85.02h0c3.52,0,6.36-2.83,6.36-6.36h0c0-3.52-2.83-6.36-6.36-6.36h0c-3.52,0-6.36,2.83-6.36,6.36h0c0,3.52,2.83,6.36,6.36,6.36Z" />
      <path d="M1303.41,85.02h0c3.52,0,6.36-2.83,6.36-6.36h0c0-3.52-2.83-6.36-6.36-6.36h0c-3.52,0-6.36,2.83-6.36,6.36h0c0,3.52,2.83,6.36,6.36,6.36Z" />
      <path d="M1309.77,65.94h0c0,3.52,2.83,6.36,6.36,6.36h0c3.52,0,6.36-2.83,6.36-6.36h0c0-3.52-2.83-6.36-6.36-6.36h0c-3.52,0-6.36,2.83-6.36,6.36Z" />
      <path d="M1417.84,59.59h0c-3.52,0-6.36,2.83-6.36,6.36h0c0,3.52,2.83,6.36,6.36,6.36h0c3.52,0,6.36-2.83,6.36-6.36h0c0-3.52-2.83-6.36-6.36-6.36Z" />
      <path d="M1398.77,78.66h0c0,3.52,2.83,6.36,6.36,6.36h0c3.52,0,6.36-2.83,6.36-6.36h0c0-3.52-2.83-6.36-6.36-6.36h0c-3.52,0-6.36,2.83-6.36,6.36Z" />
      <path d="M1398.77,53.23h0c0,3.52,2.83,6.36,6.36,6.36h0c3.52,0,6.36-2.83,6.36-6.36h0c0-3.52-2.83-6.36-6.36-6.36h0c-3.52,0-6.36,2.83-6.36,6.36Z" />
      <path d="M1436.92,53.23h0c0-3.52-2.83-6.36-6.36-6.36h0c-3.52,0-6.36,2.83-6.36,6.36h0c0,3.52,2.83,6.36,6.36,6.36h0c3.52,0,6.36-2.83,6.36-6.36Z" />
      <path d="M1455.99,85.02h0c3.52,0,6.36-2.83,6.36-6.36h0c0-3.52-2.83-6.36-6.36-6.36h0c-3.52,0-6.36,2.83-6.36,6.36h0c0,3.52,2.83,6.36,6.36,6.36Z" />
      <path d="M1436.92,65.95h0c0,3.52,2.83,6.36,6.36,6.36h0c3.52,0,6.36-2.83,6.36-6.36h0c0-3.52-2.83-6.36-6.36-6.36h0c-3.52,0-6.36,2.83-6.36,6.36Z" />
      <path d="M1417.84,34.16h0c-3.52,0-6.36,2.83-6.36,6.36h0c0,3.52,2.83,6.36,6.36,6.36h0c3.52,0,6.36-2.83,6.36-6.36h0c0-3.52-2.83-6.36-6.36-6.36Z" />
      <path d="M1430.56,85.02h0c3.52,0,6.36-2.83,6.36-6.36h0c0-3.52-2.83-6.36-6.36-6.36h0c-3.52,0-6.36,2.83-6.36,6.36h0c0,3.52,2.83,6.36,6.36,6.36Z" />
      <path d="M1379.7,85.02h0c3.52,0,6.36-2.83,6.36-6.36h0c0-3.52-2.83-6.36-6.36-6.36h0c-3.52,0-6.36,2.83-6.36,6.36h0c0,3.52,2.83,6.36,6.36,6.36Z" />
      <path d="M1386.06,65.94h0c0,3.52,2.83,6.36,6.36,6.36h0c3.52,0,6.36-2.83,6.36-6.36h0c0-3.52-2.83-6.36-6.36-6.36h0c-3.52,0-6.36,2.83-6.36,6.36Z" />
      <path d="M1494.13,59.59h0c-3.52,0-6.36,2.83-6.36,6.36h0c0,3.52,2.83,6.36,6.36,6.36h0c3.52,0,6.36-2.83,6.36-6.36h0c0-3.52-2.83-6.36-6.36-6.36Z" />
      <path d="M1475.06,78.66h0c0,3.52,2.83,6.36,6.36,6.36h0c3.52,0,6.36-2.83,6.36-6.36h0c0-3.52-2.83-6.36-6.36-6.36h0c-3.52,0-6.36,2.83-6.36,6.36Z" />
      <path d="M1475.06,53.23h0c0,3.52,2.83,6.36,6.36,6.36h0c3.52,0,6.36-2.83,6.36-6.36h0c0-3.52-2.83-6.36-6.36-6.36h0c-3.52,0-6.36,2.83-6.36,6.36Z" />
      <path d="M1513.21,53.23h0c0-3.52-2.83-6.36-6.36-6.36h0c-3.52,0-6.36,2.83-6.36,6.36h0c0,3.52,2.83,6.36,6.36,6.36h0c3.52,0,6.36-2.83,6.36-6.36Z" />
      <path d="M1532.28,85.02h0c3.52,0,6.36-2.83,6.36-6.36h0c0-3.52-2.83-6.36-6.36-6.36h0c-3.52,0-6.36,2.83-6.36,6.36h0c0,3.52,2.83,6.36,6.36,6.36Z" />
      <path d="M1513.21,65.95h0c0,3.52,2.83,6.36,6.36,6.36h0c3.52,0,6.36-2.83,6.36-6.36h0c0-3.52-2.83-6.36-6.36-6.36h0c-3.52,0-6.36,2.83-6.36,6.36Z" />
      <path d="M1494.13,34.16h0c-3.52,0-6.36,2.83-6.36,6.36h0c0,3.52,2.83,6.36,6.36,6.36h0c3.52,0,6.36-2.83,6.36-6.36h0c0-3.52-2.83-6.36-6.36-6.36Z" />
      <path d="M1506.85,85.02h0c3.52,0,6.36-2.83,6.36-6.36h0c0-3.52-2.83-6.36-6.36-6.36h0c-3.52,0-6.36,2.83-6.36,6.36h0c0,3.52,2.83,6.36,6.36,6.36Z" />
      <path d="M1455.99,85.02h0c3.52,0,6.36-2.83,6.36-6.36h0c0-3.52-2.83-6.36-6.36-6.36h0c-3.52,0-6.36,2.83-6.36,6.36h0c0,3.52,2.83,6.36,6.36,6.36Z" />
      <path d="M1462.35,65.95h0c0,3.52,2.83,6.36,6.36,6.36h0c3.52,0,6.36-2.83,6.36-6.36h0c0-3.52-2.83-6.36-6.36-6.36h0c-3.52,0-6.36,2.83-6.36,6.36Z" />
      <path d="M1570.42,59.59h0c-3.52,0-6.36,2.83-6.36,6.36h0c0,3.52,2.83,6.36,6.36,6.36h0c3.52,0,6.36-2.83,6.36-6.36h0c0-3.52-2.83-6.36-6.36-6.36Z" />
      <path d="M1551.35,78.66h0c0,3.52,2.83,6.36,6.36,6.36h0c3.52,0,6.36-2.83,6.36-6.36h0c0-3.52-2.83-6.36-6.36-6.36h0c-3.52,0-6.36,2.83-6.36,6.36Z" />
      <path d="M1551.35,53.23h0c0,3.52,2.83,6.36,6.36,6.36h0c3.52,0,6.36-2.83,6.36-6.36h0c0-3.52-2.83-6.36-6.36-6.36h0c-3.52,0-6.36,2.83-6.36,6.36Z" />
      <path d="M1589.5,53.23h0c0-3.52-2.83-6.36-6.36-6.36h0c-3.52,0-6.36,2.83-6.36,6.36h0c0,3.52,2.83,6.36,6.36,6.36h0c3.52,0,6.36-2.83,6.36-6.36Z" />
      <path d="M1608.57,85.02h0c3.52,0,6.36-2.83,6.36-6.36h0c0-3.52-2.83-6.36-6.36-6.36h0c-3.52,0-6.36,2.83-6.36,6.36h0c0,3.52,2.83,6.36,6.36,6.36Z" />
      <path d="M1589.5,65.95h0c0,3.52,2.83,6.36,6.36,6.36h0c3.52,0,6.36-2.83,6.36-6.36h0c0-3.52-2.83-6.36-6.36-6.36h0c-3.52,0-6.36,2.83-6.36,6.36Z" />
      <path d="M1570.43,34.16h0c-3.52,0-6.36,2.83-6.36,6.36h0c0,3.52,2.83,6.36,6.36,6.36h0c3.52,0,6.36-2.83,6.36-6.36h0c0-3.52-2.83-6.36-6.36-6.36Z" />
      <path d="M1583.14,85.02h0c3.52,0,6.36-2.83,6.36-6.36h0c0-3.52-2.83-6.36-6.36-6.36h0c-3.52,0-6.36,2.83-6.36,6.36h0c0,3.52,2.83,6.36,6.36,6.36Z" />
      <path d="M1532.28,85.02h0c3.52,0,6.36-2.83,6.36-6.36h0c0-3.52-2.83-6.36-6.36-6.36h0c-3.52,0-6.36,2.83-6.36,6.36h0c0,3.52,2.83,6.36,6.36,6.36Z" />
      <path d="M1538.64,65.95h0c0,3.52,2.83,6.36,6.36,6.36h0c3.52,0,6.36-2.83,6.36-6.36h0c0-3.52-2.83-6.36-6.36-6.36h0c-3.52,0-6.36,2.83-6.36,6.36Z" />
      <path d="M1646.72,59.59h0c-3.52,0-6.36,2.83-6.36,6.36h0c0,3.52,2.83,6.36,6.36,6.36h0c3.52,0,6.36-2.83,6.36-6.36h0c0-3.52-2.83-6.36-6.36-6.36Z" />
      <path d="M1627.64,78.66h0c0,3.52,2.83,6.36,6.36,6.36h0c3.52,0,6.36-2.83,6.36-6.36h0c0-3.52-2.83-6.36-6.36-6.36h0c-3.52,0-6.36,2.83-6.36,6.36Z" />
      <path d="M1627.64,53.23h0c0,3.52,2.83,6.36,6.36,6.36h0c3.52,0,6.36-2.83,6.36-6.36h0c0-3.52-2.83-6.36-6.36-6.36h0c-3.52,0-6.36,2.83-6.36,6.36Z" />
      <path d="M1665.79,53.23h0c0-3.52-2.83-6.36-6.36-6.36h0c-3.52,0-6.36,2.83-6.36,6.36h0c0,3.52,2.83,6.36,6.36,6.36h0c3.52,0,6.36-2.83,6.36-6.36Z" />
      <path d="M1684.86,85.02h0c3.52,0,6.36-2.83,6.36-6.36h0c0-3.52-2.83-6.36-6.36-6.36h0c-3.52,0-6.36,2.83-6.36,6.36h0c0,3.52,2.83,6.36,6.36,6.36Z" />
      <path d="M1665.79,65.95h0c0,3.52,2.83,6.36,6.36,6.36h0c3.52,0,6.36-2.83,6.36-6.36h0c0-3.52-2.83-6.36-6.36-6.36h0c-3.52,0-6.36,2.83-6.36,6.36Z" />
      <path d="M1646.72,34.16h0c-3.52,0-6.36,2.83-6.36,6.36h0c0,3.52,2.83,6.36,6.36,6.36h0c3.52,0,6.36-2.83,6.36-6.36h0c0-3.52-2.83-6.36-6.36-6.36Z" />
      <path d="M1659.43,85.02h0c3.52,0,6.36-2.83,6.36-6.36h0c0-3.52-2.83-6.36-6.36-6.36h0c-3.52,0-6.36,2.83-6.36,6.36h0c0,3.52,2.83,6.36,6.36,6.36Z" />
      <path d="M1608.57,85.02h0c3.52,0,6.36-2.83,6.36-6.36h0c0-3.52-2.83-6.36-6.36-6.36h0c-3.52,0-6.36,2.83-6.36,6.36h0c0,3.52,2.83,6.36,6.36,6.36Z" />
      <path d="M1614.93,65.95h0c0,3.52,2.83,6.36,6.36,6.36h0c3.52,0,6.36-2.83,6.36-6.36h0c0-3.52-2.83-6.36-6.36-6.36h0c-3.52,0-6.36,2.83-6.36,6.36Z" />
      <path d="M1723.01,59.59h0c-3.52,0-6.36,2.83-6.36,6.36h0c0,3.52,2.83,6.36,6.36,6.36h0c3.52,0,6.36-2.83,6.36-6.36h0c0-3.52-2.83-6.36-6.36-6.36Z" />
      <path d="M1703.93,78.66h0c0,3.52,2.83,6.36,6.36,6.36h0c3.52,0,6.36-2.83,6.36-6.36h0c0-3.52-2.83-6.36-6.36-6.36h0c-3.52,0-6.36,2.83-6.36,6.36Z" />
      <path d="M1703.93,53.23h0c0,3.52,2.83,6.36,6.36,6.36h0c3.52,0,6.36-2.83,6.36-6.36h0c0-3.52-2.83-6.36-6.36-6.36h0c-3.52,0-6.36,2.83-6.36,6.36Z" />
      <path d="M1742.08,53.23h0c0-3.52-2.83-6.36-6.36-6.36h0c-3.52,0-6.36,2.83-6.36,6.36h0c0,3.52,2.83,6.36,6.36,6.36h0c3.52,0,6.36-2.83,6.36-6.36Z" />
      <path d="M1761.15,85.02h0c3.52,0,6.36-2.83,6.36-6.36h0c0-3.52-2.83-6.36-6.36-6.36h0c-3.52,0-6.36,2.83-6.36,6.36h0c0,3.52,2.83,6.36,6.36,6.36Z" />
      <path d="M1742.08,65.95h0c0,3.52,2.83,6.36,6.36,6.36h0c3.52,0,6.36-2.83,6.36-6.36h0c0-3.52-2.83-6.36-6.36-6.36h0c-3.52,0-6.36,2.83-6.36,6.36Z" />
      <path d="M1723.01,34.16h0c-3.52,0-6.36,2.83-6.36,6.36h0c0,3.52,2.83,6.36,6.36,6.36h0c3.52,0,6.36-2.83,6.36-6.36h0c0-3.52-2.83-6.36-6.36-6.36Z" />
      <path d="M1735.72,85.02h0c3.52,0,6.36-2.83,6.36-6.36h0c0-3.52-2.83-6.36-6.36-6.36h0c-3.52,0-6.36,2.83-6.36,6.36h0c0,3.52,2.83,6.36,6.36,6.36Z" />
      <path d="M1684.86,85.02h0c3.52,0,6.36-2.83,6.36-6.36h0c0-3.52-2.83-6.36-6.36-6.36h0c-3.52,0-6.36,2.83-6.36,6.36h0c0,3.52,2.83,6.36,6.36,6.36Z" />
      <path d="M1691.22,65.95h0c0,3.52,2.83,6.36,6.36,6.36h0c3.52,0,6.36-2.83,6.36-6.36h0c0-3.52-2.83-6.36-6.36-6.36h0c-3.52,0-6.36,2.83-6.36,6.36Z" />
      <path d="M1799.3,59.59h0c-3.52,0-6.36,2.83-6.36,6.36h0c0,3.52,2.83,6.36,6.36,6.36h0c3.52,0,6.36-2.83,6.36-6.36h0c0-3.52-2.83-6.36-6.36-6.36Z" />
      <path d="M1780.22,78.66h0c0,3.52,2.83,6.36,6.36,6.36h0c3.52,0,6.36-2.83,6.36-6.36h0c0-3.52-2.83-6.36-6.36-6.36h0c-3.52,0-6.36,2.83-6.36,6.36Z" />
      <path d="M1780.22,53.23h0c0,3.52,2.83,6.36,6.36,6.36h0c3.52,0,6.36-2.83,6.36-6.36h0c0-3.52-2.83-6.36-6.36-6.36h0c-3.52,0-6.36,2.83-6.36,6.36Z" />
      <path d="M1818.37,53.23h0c0-3.52-2.83-6.36-6.36-6.36h0c-3.52,0-6.36,2.83-6.36,6.36h0c0,3.52,2.83,6.36,6.36,6.36h0c3.52,0,6.36-2.83,6.36-6.36Z" />
      <path d="M1837.44,85.02h0c3.52,0,6.36-2.83,6.36-6.36h0c0-3.52-2.83-6.36-6.36-6.36h0c-3.52,0-6.36,2.83-6.36,6.36h0c0,3.52,2.83,6.36,6.36,6.36Z" />
      <path d="M1818.37,65.95h0c0,3.52,2.83,6.36,6.36,6.36h0c3.52,0,6.36-2.83,6.36-6.36h0c0-3.52-2.83-6.36-6.36-6.36h0c-3.52,0-6.36,2.83-6.36,6.36Z" />
      <path d="M1799.3,34.16h0c-3.52,0-6.36,2.83-6.36,6.36h0c0,3.52,2.83,6.36,6.36,6.36h0c3.52,0,6.36-2.83,6.36-6.36h0c0-3.52-2.83-6.36-6.36-6.36Z" />
      <path d="M1812.01,85.02h0c3.52,0,6.36-2.83,6.36-6.36h0c0-3.52-2.83-6.36-6.36-6.36h0c-3.52,0-6.36,2.83-6.36,6.36h0c0,3.52,2.83,6.36,6.36,6.36Z" />
      <path d="M1761.15,85.02h0c3.52,0,6.36-2.83,6.36-6.36h0c0-3.52-2.83-6.36-6.36-6.36h0c-3.52,0-6.36,2.83-6.36,6.36h0c0,3.52,2.83,6.36,6.36,6.36Z" />
      <path d="M1767.51,65.95h0c0,3.52,2.83,6.36,6.36,6.36h0c3.52,0,6.36-2.83,6.36-6.36h0c0-3.52-2.83-6.36-6.36-6.36h0c-3.52,0-6.36,2.83-6.36,6.36Z" />
      <path d="M1341.55,59.59h0c-3.52,0-6.36,2.83-6.36,6.36h0c0,3.52,2.83,6.36,6.36,6.36h0c3.52,0,6.36-2.83,6.36-6.36h0c0-3.52-2.83-6.36-6.36-6.36Z" />
      <path d="M1322.48,78.66h0c0,3.52,2.83,6.36,6.36,6.36h0c3.52,0,6.36-2.83,6.36-6.36h0c0-3.52-2.83-6.36-6.36-6.36h0c-3.52,0-6.36,2.83-6.36,6.36Z" />
      <path d="M1322.48,53.23h0c0,3.52,2.83,6.36,6.36,6.36h0c3.52,0,6.36-2.83,6.36-6.36h0c0-3.52-2.83-6.36-6.36-6.36h0c-3.52,0-6.36,2.83-6.36,6.36Z" />
      <path d="M1360.63,53.23h0c0-3.52-2.83-6.36-6.36-6.36h0c-3.52,0-6.36,2.83-6.36,6.36h0c0,3.52,2.83,6.36,6.36,6.36h0c3.52,0,6.36-2.83,6.36-6.36Z" />
      <path d="M1379.7,85.02h0c3.52,0,6.36-2.83,6.36-6.36h0c0-3.52-2.83-6.36-6.36-6.36h0c-3.52,0-6.36,2.83-6.36,6.36h0c0,3.52,2.83,6.36,6.36,6.36Z" />
      <path d="M1360.63,65.94h0c0,3.52,2.83,6.36,6.36,6.36h0c3.52,0,6.36-2.83,6.36-6.36h0c0-3.52-2.83-6.36-6.36-6.36h0c-3.52,0-6.36,2.83-6.36,6.36Z" />
      <path d="M1341.55,34.16h0c-3.52,0-6.36,2.83-6.36,6.36h0c0,3.52,2.83,6.36,6.36,6.36h0c3.52,0,6.36-2.83,6.36-6.36h0c0-3.52-2.83-6.36-6.36-6.36Z" />
      <path d="M1354.27,85.02h0c3.52,0,6.36-2.83,6.36-6.36h0c0-3.52-2.83-6.36-6.36-6.36h0c-3.52,0-6.36,2.83-6.36,6.36h0c0,3.52,2.83,6.36,6.36,6.36Z" />
      <path d="M1303.41,85.02h0c3.52,0,6.36-2.83,6.36-6.36h0c0-3.52-2.83-6.36-6.36-6.36h0c-3.52,0-6.36,2.83-6.36,6.36h0c0,3.52,2.83,6.36,6.36,6.36Z" />
      <path d="M1309.77,65.94h0c0,3.52,2.83,6.36,6.36,6.36h0c3.52,0,6.36-2.83,6.36-6.36h0c0-3.52-2.83-6.36-6.36-6.36h0c-3.52,0-6.36,2.83-6.36,6.36Z" />
      <path d="M1570.42,59.59h0c-3.52,0-6.36,2.83-6.36,6.36h0c0,3.52,2.83,6.36,6.36,6.36h0c3.52,0,6.36-2.83,6.36-6.36h0c0-3.52-2.83-6.36-6.36-6.36Z" />
      <path d="M1551.35,78.66h0c0,3.52,2.83,6.36,6.36,6.36h0c3.52,0,6.36-2.83,6.36-6.36h0c0-3.52-2.83-6.36-6.36-6.36h0c-3.52,0-6.36,2.83-6.36,6.36Z" />
      <path d="M1551.35,53.23h0c0,3.52,2.83,6.36,6.36,6.36h0c3.52,0,6.36-2.83,6.36-6.36h0c0-3.52-2.83-6.36-6.36-6.36h0c-3.52,0-6.36,2.83-6.36,6.36Z" />
      <path d="M1589.5,53.23h0c0-3.52-2.83-6.36-6.36-6.36h0c-3.52,0-6.36,2.83-6.36,6.36h0c0,3.52,2.83,6.36,6.36,6.36h0c3.52,0,6.36-2.83,6.36-6.36Z" />
      <path d="M1608.57,85.02h0c3.52,0,6.36-2.83,6.36-6.36h0c0-3.52-2.83-6.36-6.36-6.36h0c-3.52,0-6.36,2.83-6.36,6.36h0c0,3.52,2.83,6.36,6.36,6.36Z" />
      <path d="M1589.5,65.95h0c0,3.52,2.83,6.36,6.36,6.36h0c3.52,0,6.36-2.83,6.36-6.36h0c0-3.52-2.83-6.36-6.36-6.36h0c-3.52,0-6.36,2.83-6.36,6.36Z" />
      <path d="M1570.43,34.16h0c-3.52,0-6.36,2.83-6.36,6.36h0c0,3.52,2.83,6.36,6.36,6.36h0c3.52,0,6.36-2.83,6.36-6.36h0c0-3.52-2.83-6.36-6.36-6.36Z" />
      <path d="M1583.14,85.02h0c3.52,0,6.36-2.83,6.36-6.36h0c0-3.52-2.83-6.36-6.36-6.36h0c-3.52,0-6.36,2.83-6.36,6.36h0c0,3.52,2.83,6.36,6.36,6.36Z" />
      <path d="M1532.28,85.02h0c3.52,0,6.36-2.83,6.36-6.36h0c0-3.52-2.83-6.36-6.36-6.36h0c-3.52,0-6.36,2.83-6.36,6.36h0c0,3.52,2.83,6.36,6.36,6.36Z" />
      <path d="M1538.64,65.95h0c0,3.52,2.83,6.36,6.36,6.36h0c3.52,0,6.36-2.83,6.36-6.36h0c0-3.52-2.83-6.36-6.36-6.36h0c-3.52,0-6.36,2.83-6.36,6.36Z" />
      <path d="M1646.72,59.59h0c-3.52,0-6.36,2.83-6.36,6.36h0c0,3.52,2.83,6.36,6.36,6.36h0c3.52,0,6.36-2.83,6.36-6.36h0c0-3.52-2.83-6.36-6.36-6.36Z" />
      <path d="M1627.64,78.66h0c0,3.52,2.83,6.36,6.36,6.36h0c3.52,0,6.36-2.83,6.36-6.36h0c0-3.52-2.83-6.36-6.36-6.36h0c-3.52,0-6.36,2.83-6.36,6.36Z" />
      <path d="M1627.64,53.23h0c0,3.52,2.83,6.36,6.36,6.36h0c3.52,0,6.36-2.83,6.36-6.36h0c0-3.52-2.83-6.36-6.36-6.36h0c-3.52,0-6.36,2.83-6.36,6.36Z" />
      <path d="M1665.79,53.23h0c0-3.52-2.83-6.36-6.36-6.36h0c-3.52,0-6.36,2.83-6.36,6.36h0c0,3.52,2.83,6.36,6.36,6.36h0c3.52,0,6.36-2.83,6.36-6.36Z" />
      <path d="M1684.86,85.02h0c3.52,0,6.36-2.83,6.36-6.36h0c0-3.52-2.83-6.36-6.36-6.36h0c-3.52,0-6.36,2.83-6.36,6.36h0c0,3.52,2.83,6.36,6.36,6.36Z" />
      <path d="M1665.79,65.95h0c0,3.52,2.83,6.36,6.36,6.36h0c3.52,0,6.36-2.83,6.36-6.36h0c0-3.52-2.83-6.36-6.36-6.36h0c-3.52,0-6.36,2.83-6.36,6.36Z" />
      <path d="M1646.72,34.16h0c-3.52,0-6.36,2.83-6.36,6.36h0c0,3.52,2.83,6.36,6.36,6.36h0c3.52,0,6.36-2.83,6.36-6.36h0c0-3.52-2.83-6.36-6.36-6.36Z" />
      <path d="M1659.43,85.02h0c3.52,0,6.36-2.83,6.36-6.36h0c0-3.52-2.83-6.36-6.36-6.36h0c-3.52,0-6.36,2.83-6.36,6.36h0c0,3.52,2.83,6.36,6.36,6.36Z" />
      <path d="M1608.57,85.02h0c3.52,0,6.36-2.83,6.36-6.36h0c0-3.52-2.83-6.36-6.36-6.36h0c-3.52,0-6.36,2.83-6.36,6.36h0c0,3.52,2.83,6.36,6.36,6.36Z" />
      <path d="M1614.93,65.95h0c0,3.52,2.83,6.36,6.36,6.36h0c3.52,0,6.36-2.83,6.36-6.36h0c0-3.52-2.83-6.36-6.36-6.36h0c-3.52,0-6.36,2.83-6.36,6.36Z" />
      <path d="M1723.01,59.59h0c-3.52,0-6.36,2.83-6.36,6.36h0c0,3.52,2.83,6.36,6.36,6.36h0c3.52,0,6.36-2.83,6.36-6.36h0c0-3.52-2.83-6.36-6.36-6.36Z" />
      <path d="M1703.93,78.66h0c0,3.52,2.83,6.36,6.36,6.36h0c3.52,0,6.36-2.83,6.36-6.36h0c0-3.52-2.83-6.36-6.36-6.36h0c-3.52,0-6.36,2.83-6.36,6.36Z" />
      <path d="M1703.93,53.23h0c0,3.52,2.83,6.36,6.36,6.36h0c3.52,0,6.36-2.83,6.36-6.36h0c0-3.52-2.83-6.36-6.36-6.36h0c-3.52,0-6.36,2.83-6.36,6.36Z" />
      <path d="M1742.08,53.23h0c0-3.52-2.83-6.36-6.36-6.36h0c-3.52,0-6.36,2.83-6.36,6.36h0c0,3.52,2.83,6.36,6.36,6.36h0c3.52,0,6.36-2.83,6.36-6.36Z" />
      <path d="M1761.15,85.02h0c3.52,0,6.36-2.83,6.36-6.36h0c0-3.52-2.83-6.36-6.36-6.36h0c-3.52,0-6.36,2.83-6.36,6.36h0c0,3.52,2.83,6.36,6.36,6.36Z" />
      <path d="M1742.08,65.95h0c0,3.52,2.83,6.36,6.36,6.36h0c3.52,0,6.36-2.83,6.36-6.36h0c0-3.52-2.83-6.36-6.36-6.36h0c-3.52,0-6.36,2.83-6.36,6.36Z" />
      <path d="M1723.01,34.16h0c-3.52,0-6.36,2.83-6.36,6.36h0c0,3.52,2.83,6.36,6.36,6.36h0c3.52,0,6.36-2.83,6.36-6.36h0c0-3.52-2.83-6.36-6.36-6.36Z" />
      <path d="M1735.72,85.02h0c3.52,0,6.36-2.83,6.36-6.36h0c0-3.52-2.83-6.36-6.36-6.36h0c-3.52,0-6.36,2.83-6.36,6.36h0c0,3.52,2.83,6.36,6.36,6.36Z" />
      <path d="M1684.86,85.02h0c3.52,0,6.36-2.83,6.36-6.36h0c0-3.52-2.83-6.36-6.36-6.36h0c-3.52,0-6.36,2.83-6.36,6.36h0c0,3.52,2.83,6.36,6.36,6.36Z" />
      <path d="M1691.22,65.95h0c0,3.52,2.83,6.36,6.36,6.36h0c3.52,0,6.36-2.83,6.36-6.36h0c0-3.52-2.83-6.36-6.36-6.36h0c-3.52,0-6.36,2.83-6.36,6.36Z" />
      <path d="M1799.3,59.59h0c-3.52,0-6.36,2.83-6.36,6.36h0c0,3.52,2.83,6.36,6.36,6.36h0c3.52,0,6.36-2.83,6.36-6.36h0c0-3.52-2.83-6.36-6.36-6.36Z" />
      <path d="M1780.22,78.66h0c0,3.52,2.83,6.36,6.36,6.36h0c3.52,0,6.36-2.83,6.36-6.36h0c0-3.52-2.83-6.36-6.36-6.36h0c-3.52,0-6.36,2.83-6.36,6.36Z" />
      <path d="M1780.22,53.23h0c0,3.52,2.83,6.36,6.36,6.36h0c3.52,0,6.36-2.83,6.36-6.36h0c0-3.52-2.83-6.36-6.36-6.36h0c-3.52,0-6.36,2.83-6.36,6.36Z" />
      <path d="M1818.37,53.23h0c0-3.52-2.83-6.36-6.36-6.36h0c-3.52,0-6.36,2.83-6.36,6.36h0c0,3.52,2.83,6.36,6.36,6.36h0c3.52,0,6.36-2.83,6.36-6.36Z" />
      <path d="M1837.44,85.02h0c3.52,0,6.36-2.83,6.36-6.36h0c0-3.52-2.83-6.36-6.36-6.36h0c-3.52,0-6.36,2.83-6.36,6.36h0c0,3.52,2.83,6.36,6.36,6.36Z" />
      <path d="M1818.37,65.95h0c0,3.52,2.83,6.36,6.36,6.36h0c3.52,0,6.36-2.83,6.36-6.36h0c0-3.52-2.83-6.36-6.36-6.36h0c-3.52,0-6.36,2.83-6.36,6.36Z" />
      <path d="M1799.3,34.16h0c-3.52,0-6.36,2.83-6.36,6.36h0c0,3.52,2.83,6.36,6.36,6.36h0c3.52,0,6.36-2.83,6.36-6.36h0c0-3.52-2.83-6.36-6.36-6.36Z" />
      <path d="M1812.01,85.02h0c3.52,0,6.36-2.83,6.36-6.36h0c0-3.52-2.83-6.36-6.36-6.36h0c-3.52,0-6.36,2.83-6.36,6.36h0c0,3.52,2.83,6.36,6.36,6.36Z" />
      <path d="M1761.15,85.02h0c3.52,0,6.36-2.83,6.36-6.36h0c0-3.52-2.83-6.36-6.36-6.36h0c-3.52,0-6.36,2.83-6.36,6.36h0c0,3.52,2.83,6.36,6.36,6.36Z" />
      <path d="M1767.51,65.95h0c0,3.52,2.83,6.36,6.36,6.36h0c3.52,0,6.36-2.83,6.36-6.36h0c0-3.52-2.83-6.36-6.36-6.36h0c-3.52,0-6.36,2.83-6.36,6.36Z" />
      <path d="M1875.59,59.59h0c-3.52,0-6.36,2.83-6.36,6.36h0c0,3.52,2.83,6.36,6.36,6.36h0c3.52,0,6.36-2.83,6.36-6.36h0c0-3.52-2.83-6.36-6.36-6.36Z" />
      <path d="M1856.51,78.66h0c0,3.52,2.83,6.36,6.36,6.36h0c3.52,0,6.36-2.83,6.36-6.36h0c0-3.52-2.83-6.36-6.36-6.36h0c-3.52,0-6.36,2.83-6.36,6.36Z" />
      <path d="M1856.51,53.23h0c0,3.52,2.83,6.36,6.36,6.36h0c3.52,0,6.36-2.83,6.36-6.36h0c0-3.52-2.83-6.36-6.36-6.36h0c-3.52,0-6.36,2.83-6.36,6.36Z" />
      <path d="M1894.66,53.23h0c0-3.52-2.83-6.36-6.36-6.36h0c-3.52,0-6.36,2.83-6.36,6.36h0c0,3.52,2.83,6.36,6.36,6.36h0c3.52,0,6.36-2.83,6.36-6.36Z" />
      <path d="M1913.73,85.02h0c3.52,0,6.36-2.83,6.36-6.36h0c0-3.52-2.83-6.36-6.36-6.36h0c-3.52,0-6.36,2.83-6.36,6.36h0c0,3.52,2.83,6.36,6.36,6.36Z" />
      <path d="M1894.66,65.95h0c0,3.52,2.83,6.36,6.36,6.36h0c3.52,0,6.36-2.83,6.36-6.36h0c0-3.52-2.83-6.36-6.36-6.36h0c-3.52,0-6.36,2.83-6.36,6.36Z" />
      <path d="M1875.59,34.16h0c-3.52,0-6.36,2.83-6.36,6.36h0c0,3.52,2.83,6.36,6.36,6.36h0c3.52,0,6.36-2.83,6.36-6.36h0c0-3.52-2.83-6.36-6.36-6.36Z" />
      <path d="M1888.3,85.02h0c3.52,0,6.36-2.83,6.36-6.36h0c0-3.52-2.83-6.36-6.36-6.36h0c-3.52,0-6.36,2.83-6.36,6.36h0c0,3.52,2.83,6.36,6.36,6.36Z" />
      <path d="M1837.44,85.02h0c3.52,0,6.36-2.83,6.36-6.36h0c0-3.52-2.83-6.36-6.36-6.36h0c-3.52,0-6.36,2.83-6.36,6.36h0c0,3.52,2.83,6.36,6.36,6.36Z" />
      <path d="M1843.8,65.95h0c0,3.52,2.83,6.36,6.36,6.36h0c3.52,0,6.36-2.83,6.36-6.36h0c0-3.52-2.83-6.36-6.36-6.36h0c-3.52,0-6.36,2.83-6.36,6.36Z" />
      <path d="M1913.73,85.02h0c3.52,0,6.36-2.83,6.36-6.36h0c0-3.52-2.83-6.36-6.36-6.36h0c-3.52,0-6.36,2.83-6.36,6.36h0c0,3.52,2.83,6.36,6.36,6.36Z" />
      <path d="M1913.73,85.02h0c3.52,0,6.36-2.83,6.36-6.36h0c0-3.52-2.83-6.36-6.36-6.36h0c-3.52,0-6.36,2.83-6.36,6.36h0c0,3.52,2.83,6.36,6.36,6.36Z" />
    </g>
  </g>
</svg>