<?xml version="1.0" encoding="UTF-8"?>
<svg id="Layer_2" data-name="Layer 2" xmlns="http://www.w3.org/2000/svg" xmlns:xlink="http://www.w3.org/1999/xlink" viewBox="0 0 790.53 344.13">
  <defs>
    <filter id="drop-shadow-1" x="82.75" y="18.74" width="625.24" height="78.73" filterUnits="userSpaceOnUse">
      <feOffset dx="4" dy="4"/>
      <feGaussianBlur result="blur" stdDeviation="11"/>
      <feFlood flood-color="#000" flood-opacity=".3"/>
      <feComposite in2="blur" operator="in"/>
      <feComposite in="SourceGraphic"/>
    </filter>
    <filter id="drop-shadow-2" x="446.1" y="135.17" width="344.43" height="86.26" filterUnits="userSpaceOnUse">
      <feOffset dx="4" dy="4"/>
      <feGaussianBlur result="blur-2" stdDeviation="11"/>
      <feFlood flood-color="#000" flood-opacity=".3"/>
      <feComposite in2="blur-2" operator="in"/>
      <feComposite in="SourceGraphic"/>
    </filter>
    <filter id="drop-shadow-3" x="129.33" y="17.44" width="419.15" height="85.36" filterUnits="userSpaceOnUse">
      <feOffset dx="4" dy="4"/>
      <feGaussianBlur result="blur-3" stdDeviation="11"/>
      <feFlood flood-color="#000" flood-opacity=".3"/>
      <feComposite in2="blur-3" operator="in"/>
      <feComposite in="SourceGraphic"/>
    </filter>
    <filter id="drop-shadow-4" x="8.39" y="137.27" width="398.71" height="107" filterUnits="userSpaceOnUse">
      <feOffset dx="4" dy="4"/>
      <feGaussianBlur result="blur-4" stdDeviation="11"/>
      <feFlood flood-color="#000" flood-opacity=".3"/>
      <feComposite in2="blur-4" operator="in"/>
      <feComposite in="SourceGraphic"/>
    </filter>
  </defs>
  <g id="Layer_1-2" data-name="Layer 1">
    <g>
      <g style="filter: url(#drop-shadow-1);">
        <rect x="10.71" y="14.6" width="770.8" height="329.53" style="fill: none;"/>
        <path d="M101.14,71.84l-8.04,24.37h-10.34l26.32-77.46h12.07l26.43,77.46h-10.69l-8.27-24.37h-27.47ZM126.54,64.02l-7.59-22.3c-1.72-5.06-2.87-9.65-4.02-14.14h-.23c-1.15,4.6-2.41,9.31-3.91,14.02l-7.59,22.41h23.33Z" style="fill: #fff;"/>
        <path d="M568.46,24.6v15.97h14.48v7.7h-14.48v30c0,6.9,1.95,10.8,7.58,10.8,2.64,0,4.6-.34,5.86-.69l.46,7.59c-1.95.8-5.06,1.38-8.96,1.38-4.71,0-8.5-1.49-10.92-4.25-2.87-2.99-3.91-7.93-3.91-14.48v-30.34h-8.62v-7.7h8.62v-13.33l9.88-2.64Z" style="fill: #fff;"/>
        <path d="M644.43,67.93c0,20.57-14.25,29.54-27.7,29.54-15.06,0-26.66-11.03-26.66-28.62,0-18.62,12.18-29.54,27.58-29.54s26.78,11.61,26.78,28.62ZM600.3,68.5c0,12.18,7.01,21.38,16.89,21.38s16.89-9.08,16.89-21.61c0-9.42-4.71-21.38-16.66-21.38s-17.12,11.03-17.12,21.61Z" style="fill: #fff;"/>
        <path d="M707.99,67.93c0,20.57-14.25,29.54-27.7,29.54-15.06,0-26.66-11.03-26.66-28.62,0-18.62,12.18-29.54,27.58-29.54s26.78,11.61,26.78,28.62ZM663.85,68.5c0,12.18,7.01,21.38,16.89,21.38s16.89-9.08,16.89-21.61c0-9.42-4.71-21.38-16.66-21.38s-17.12,11.03-17.12,21.61Z" style="fill: #fff;"/>
      </g>
      <g style="filter: url(#drop-shadow-2);">
        <g>
          <path d="M727.5,135.17h0c-1.84,0-3.32,1.48-3.32,3.32h0c0,1.84,1.48,3.32,3.32,3.32h0c1.84,0,3.32-1.48,3.32-3.32h0c0-1.84-1.48-3.32-3.32-3.32Z" style="fill: #fff;"/>
          <path d="M717.54,145.12h0c0,1.84,1.48,3.32,3.32,3.32h0c1.84,0,3.32-1.48,3.32-3.32h0c0-1.84-1.48-3.32-3.32-3.32h0c-1.84,0-3.32,1.48-3.32,3.32Z" style="fill: #fff;"/>
          <path d="M737.45,145.12h0c0-1.84-1.48-3.32-3.32-3.32h0c-1.84,0-3.32,1.48-3.32,3.32h0c0,1.84,1.48,3.32,3.32,3.32h0c1.84,0,3.32-1.48,3.32-3.32Z" style="fill: #fff;"/>
          <path d="M724.18,151.76h0c0,1.84,1.48,3.32,3.32,3.32h0c1.84,0,3.32-1.48,3.32-3.32h0c0-1.84-1.48-3.32-3.32-3.32h0c-1.84,0-3.32,1.48-3.32,3.32Z" style="fill: #fff;"/>
          <path d="M780.58,135.17h0c-1.84,0-3.32,1.48-3.32,3.32h0c0,1.84,1.48,3.32,3.32,3.32h0c1.84,0,3.32-1.48,3.32-3.32h0c0-1.84-1.48-3.32-3.32-3.32Z" style="fill: #fff;"/>
          <path d="M773.94,141.81h0c-1.84,0-3.32,1.48-3.32,3.32h0c0,1.84,1.48,3.32,3.32,3.32h0c1.84,0,3.32-1.48,3.32-3.32h0c0-1.84-1.48-3.32-3.32-3.32Z" style="fill: #fff;"/>
          <path d="M767.31,148.44h0c-1.84,0-3.32,1.48-3.32,3.32h0c0,1.84,1.48,3.32,3.32,3.32h0c1.84,0,3.32-1.48,3.32-3.32h0c0-1.84-1.48-3.32-3.32-3.32Z" style="fill: #fff;"/>
          <path d="M760.67,155.08h0c-1.84,0-3.32,1.48-3.32,3.32h0c0,1.84,1.48,3.32,3.32,3.32h0c1.84,0,3.32-1.48,3.32-3.32h0c0-1.84-1.48-3.32-3.32-3.32Z" style="fill: #fff;"/>
          <path d="M730.81,158.39h0c0,1.84,1.48,3.32,3.32,3.32h0c1.84,0,3.32-1.48,3.32-3.32h0c0-1.84-1.48-3.32-3.32-3.32h0c-1.84,0-3.32,1.48-3.32,3.32Z" style="fill: #fff;"/>
          <path d="M737.45,165.03h0c0,1.84,1.48,3.32,3.32,3.32h0c1.84,0,3.32-1.48,3.32-3.32h0c0-1.84-1.48-3.32-3.32-3.32h0c-1.84,0-3.32,1.48-3.32,3.32Z" style="fill: #fff;"/>
          <path d="M744.09,151.76h0c0-1.84-1.48-3.32-3.32-3.32h0c-1.84,0-3.32,1.48-3.32,3.32h0c0,1.84,1.48,3.32,3.32,3.32h0c1.84,0,3.32-1.48,3.32-3.32Z" style="fill: #fff;"/>
          <path d="M750.72,158.39h0c0-1.84-1.48-3.32-3.32-3.32h0c-1.84,0-3.32,1.48-3.32,3.32h0c0,1.84,1.48,3.32,3.32,3.32h0c1.84,0,3.32-1.48,3.32-3.32Z" style="fill: #fff;"/>
          <path d="M757.36,165.03h0c0-1.84-1.48-3.32-3.32-3.32h0c-1.84,0-3.32,1.48-3.32,3.32h0c0,1.84,1.48,3.32,3.32,3.32h0c1.84,0,3.32-1.48,3.32-3.32Z" style="fill: #fff;"/>
          <path d="M744.09,171.66h0c0,1.84,1.48,3.32,3.32,3.32h0c1.84,0,3.32-1.48,3.32-3.32h0c0-1.84-1.48-3.32-3.32-3.32h0c-1.84,0-3.32,1.48-3.32,3.32Z" style="fill: #fff;"/>
          <path d="M760.67,174.98h0c1.84,0,3.32-1.48,3.32-3.32h0c0-1.84-1.48-3.32-3.32-3.32h0c-1.84,0-3.32,1.48-3.32,3.32h0c0,1.84,1.48,3.32,3.32,3.32Z" style="fill: #fff;"/>
          <path d="M754.04,181.62h0c1.84,0,3.32-1.48,3.32-3.32h0c0-1.84-1.48-3.32-3.32-3.32h0c-1.84,0-3.32,1.48-3.32,3.32h0c0,1.84,1.48,3.32,3.32,3.32Z" style="fill: #fff;"/>
          <path d="M783.9,145.12h0c0,1.84,1.48,3.32,3.32,3.32h0c1.84,0,3.32-1.48,3.32-3.32h0c0-1.84-1.48-3.32-3.32-3.32h0c-1.84,0-3.32,1.48-3.32,3.32Z" style="fill: #fff;"/>
          <path d="M780.58,155.08h0c1.84,0,3.32-1.48,3.32-3.32h0c0-1.84-1.48-3.32-3.32-3.32h0c-1.84,0-3.32,1.48-3.32,3.32h0c0,1.84,1.48,3.32,3.32,3.32Z" style="fill: #fff;"/>
          <path d="M773.94,161.71h0c1.84,0,3.32-1.48,3.32-3.32h0c0-1.84-1.48-3.32-3.32-3.32h0c-1.84,0-3.32,1.48-3.32,3.32h0c0,1.84,1.48,3.32,3.32,3.32Z" style="fill: #fff;"/>
          <path d="M767.31,168.35h0c1.84,0,3.32-1.48,3.32-3.32h0c0-1.84-1.48-3.32-3.32-3.32h0c-1.84,0-3.32,1.48-3.32,3.32h0c0,1.84,1.48,3.32,3.32,3.32Z" style="fill: #fff;"/>
          <path d="M754.04,208.16h0c1.84,0,3.32-1.48,3.32-3.32h0c0-1.84-1.48-3.32-3.32-3.32h0c-1.84,0-3.32,1.48-3.32,3.32h0c0,1.84,1.48,3.32,3.32,3.32Z" style="fill: #fff;"/>
          <path d="M744.09,198.21h0c0,1.84,1.48,3.32,3.32,3.32h0c1.84,0,3.32-1.48,3.32-3.32h0c0-1.84-1.48-3.32-3.32-3.32h0c-1.84,0-3.32,1.48-3.32,3.32Z" style="fill: #fff;"/>
          <path d="M754.04,194.89h0c1.84,0,3.32-1.48,3.32-3.32h0c0-1.84-1.48-3.32-3.32-3.32h0c-1.84,0-3.32,1.48-3.32,3.32h0c0,1.84,1.48,3.32,3.32,3.32Z" style="fill: #fff;"/>
          <path d="M744.09,184.94h0c0,1.84,1.48,3.32,3.32,3.32h0c1.84,0,3.32-1.48,3.32-3.32h0c0-1.84-1.48-3.32-3.32-3.32h0c-1.84,0-3.32,1.48-3.32,3.32Z" style="fill: #fff;"/>
          <path d="M763.99,198.21h0c0-1.84-1.48-3.32-3.32-3.32h0c-1.84,0-3.32,1.48-3.32,3.32h0c0,1.84,1.48,3.32,3.32,3.32h0c1.84,0,3.32-1.48,3.32-3.32Z" style="fill: #fff;"/>
          <path d="M754.04,221.43h0c1.84,0,3.32-1.48,3.32-3.32h0c0-1.84-1.48-3.32-3.32-3.32h0c-1.84,0-3.32,1.48-3.32,3.32h0c0,1.84,1.48,3.32,3.32,3.32Z" style="fill: #fff;"/>
          <path d="M744.09,211.48h0c0,1.84,1.48,3.32,3.32,3.32h0c1.84,0,3.32-1.48,3.32-3.32h0c0-1.84-1.48-3.32-3.32-3.32h0c-1.84,0-3.32,1.48-3.32,3.32Z" style="fill: #fff;"/>
          <path d="M763.99,211.48h0c0-1.84-1.48-3.32-3.32-3.32h0c-1.84,0-3.32,1.48-3.32,3.32h0c0,1.84,1.48,3.32,3.32,3.32h0c1.84,0,3.32-1.48,3.32-3.32Z" style="fill: #fff;"/>
          <path d="M763.99,184.94h0c0-1.84-1.48-3.32-3.32-3.32h0c-1.84,0-3.32,1.48-3.32,3.32h0c0,1.84,1.48,3.32,3.32,3.32h0c1.84,0,3.32-1.48,3.32-3.32Z" style="fill: #fff;"/>
        </g>
        <g>
          <path d="M466.01,178.3h0c0-1.84-1.48-3.32-3.32-3.32h0c-1.84,0-3.32,1.48-3.32,3.32h0c0,1.84,1.48,3.32,3.32,3.32h0c1.84,0,3.32-1.48,3.32-3.32Z" style="fill: #fff;"/>
          <path d="M505.82,158.39h0c0,1.84,1.48,3.32,3.32,3.32h0c1.84,0,3.32-1.48,3.32-3.32h0c0-1.84-1.48-3.32-3.32-3.32h0c-1.84,0-3.32,1.48-3.32,3.32Z" style="fill: #fff;"/>
          <path d="M499.19,145.12h0c0-1.84-1.48-3.32-3.32-3.32h0c-1.84,0-3.32,1.48-3.32,3.32h0c0,1.84,1.48,3.32,3.32,3.32h0c1.84,0,3.32-1.48,3.32-3.32Z" style="fill: #fff;"/>
          <path d="M485.92,178.3h0c0,1.84,1.48,3.32,3.32,3.32h0c1.84,0,3.32-1.48,3.32-3.32h0c0-1.84-1.48-3.32-3.32-3.32h0c-1.84,0-3.32,1.48-3.32,3.32Z" style="fill: #fff;"/>
          <path d="M472.65,178.3h0c0,1.84,1.48,3.32,3.32,3.32h0c1.84,0,3.32-1.48,3.32-3.32h0c0-1.84-1.48-3.32-3.32-3.32h0c-1.84,0-3.32,1.48-3.32,3.32Z" style="fill: #fff;"/>
          <path d="M482.6,168.35h0c-1.84,0-3.32,1.48-3.32,3.32h0c0,1.84,1.48,3.32,3.32,3.32h0c1.84,0,3.32-1.48,3.32-3.32h0c0-1.84-1.48-3.32-3.32-3.32Z" style="fill: #fff;"/>
          <path d="M482.6,188.25h0c1.84,0,3.32-1.48,3.32-3.32h0c0-1.84-1.48-3.32-3.32-3.32h0c-1.84,0-3.32,1.48-3.32,3.32h0c0,1.84,1.48,3.32,3.32,3.32Z" style="fill: #fff;"/>
          <path d="M495.87,174.98h0c1.84,0,3.32-1.48,3.32-3.32h0c0-1.84-1.48-3.32-3.32-3.32h0c-1.84,0-3.32,1.48-3.32,3.32h0c0,1.84,1.48,3.32,3.32,3.32Z" style="fill: #fff;"/>
          <path d="M519.09,165.03h0c0-1.84-1.48-3.32-3.32-3.32h0c-1.84,0-3.32,1.48-3.32,3.32h0c0,1.84,1.48,3.32,3.32,3.32h0c1.84,0,3.32-1.48,3.32-3.32Z" style="fill: #fff;"/>
          <path d="M519.09,151.76h0c0-1.84-1.48-3.32-3.32-3.32h0c-1.84,0-3.32,1.48-3.32,3.32h0c0,1.84,1.48,3.32,3.32,3.32h0c1.84,0,3.32-1.48,3.32-3.32Z" style="fill: #fff;"/>
          <path d="M512.46,184.93h0c0-1.84-1.48-3.32-3.32-3.32h0c-1.84,0-3.32,1.48-3.32,3.32h0c0,1.84,1.48,3.32,3.32,3.32h0c1.84,0,3.32-1.48,3.32-3.32Z" style="fill: #fff;"/>
          <path d="M456.06,168.35h0c-1.84,0-3.32,1.48-3.32,3.32h0c0,1.84,1.48,3.32,3.32,3.32h0c1.84,0,3.32-1.48,3.32-3.32h0c0-1.84-1.48-3.32-3.32-3.32Z" style="fill: #fff;"/>
          <path d="M462.69,155.08h0c1.84,0,3.32-1.48,3.32-3.32h0c0-1.84-1.48-3.32-3.32-3.32h0c-1.84,0-3.32,1.48-3.32,3.32h0c0,1.84,1.48,3.32,3.32,3.32Z" style="fill: #fff;"/>
          <path d="M466.01,165.03h0c0-1.84-1.48-3.32-3.32-3.32h0c-1.84,0-3.32,1.48-3.32,3.32h0c0,1.84,1.48,3.32,3.32,3.32h0c1.84,0,3.32-1.48,3.32-3.32Z" style="fill: #fff;"/>
          <path d="M456.06,155.08h0c-1.84,0-3.32,1.48-3.32,3.32h0c0,1.84,1.48,3.32,3.32,3.32h0c1.84,0,3.32-1.48,3.32-3.32h0c0-1.84-1.48-3.32-3.32-3.32Z" style="fill: #fff;"/>
          <path d="M462.69,135.17h0c-1.84,0-3.32,1.48-3.32,3.32h0c0,1.84,1.48,3.32,3.32,3.32h0c1.84,0,3.32-1.48,3.32-3.32h0c0-1.84-1.48-3.32-3.32-3.32Z" style="fill: #fff;"/>
          <path d="M489.23,135.17h0c-1.84,0-3.32,1.48-3.32,3.32h0c0,1.84,1.48,3.32,3.32,3.32h0c1.84,0,3.32-1.48,3.32-3.32h0c0-1.84-1.48-3.32-3.32-3.32Z" style="fill: #fff;"/>
          <path d="M485.92,145.12h0c0-1.84-1.48-3.32-3.32-3.32h0c-1.84,0-3.32,1.48-3.32,3.32h0c0,1.84,1.48,3.32,3.32,3.32h0c1.84,0,3.32-1.48,3.32-3.32Z" style="fill: #fff;"/>
          <path d="M475.96,135.17h0c-1.84,0-3.32,1.48-3.32,3.32h0c0,1.84,1.48,3.32,3.32,3.32h0c1.84,0,3.32-1.48,3.32-3.32h0c0-1.84-1.48-3.32-3.32-3.32Z" style="fill: #fff;"/>
          <path d="M472.65,145.12h0c0-1.84-1.48-3.32-3.32-3.32h0c-1.84,0-3.32,1.48-3.32,3.32h0c0,1.84,1.48,3.32,3.32,3.32h0c1.84,0,3.32-1.48,3.32-3.32Z" style="fill: #fff;"/>
          <path d="M502.5,135.17h0c-1.84,0-3.32,1.48-3.32,3.32h0c0,1.84,1.48,3.32,3.32,3.32h0c1.84,0,3.32-1.48,3.32-3.32h0c0-1.84-1.48-3.32-3.32-3.32Z" style="fill: #fff;"/>
          <path d="M499.19,151.76h0c0,1.84,1.48,3.32,3.32,3.32h0c1.84,0,3.32-1.48,3.32-3.32h0c0-1.84-1.48-3.32-3.32-3.32h0c-1.84,0-3.32,1.48-3.32,3.32Z" style="fill: #fff;"/>
          <path d="M512.46,145.12h0c0,1.83-1.49,3.32-3.32,3.32h0c-1.83,0-3.32-1.49-3.32-3.32h0c0-1.83,1.49-3.32,3.32-3.32h0c1.83,0,3.32,1.49,3.32,3.32Z" style="fill: #fff;"/>
          <path d="M502.5,168.35h0c1.84,0,3.32-1.48,3.32-3.32h0c0-1.84-1.48-3.32-3.32-3.32h0c-1.84,0-3.32,1.48-3.32,3.32h0c0,1.84,1.48,3.32,3.32,3.32Z" style="fill: #fff;"/>
          <path d="M495.87,188.25h0c1.84,0,3.32-1.48,3.32-3.32h0c0-1.84-1.48-3.32-3.32-3.32h0c-1.84,0-3.32,1.48-3.32,3.32h0c0,1.84,1.48,3.32,3.32,3.32Z" style="fill: #fff;"/>
          <path d="M509.14,174.98h0c1.84,0,3.32-1.48,3.32-3.32h0c0-1.84-1.48-3.32-3.32-3.32h0c-1.84,0-3.32,1.48-3.32,3.32h0c0,1.84,1.48,3.32,3.32,3.32Z" style="fill: #fff;"/>
          <path d="M502.5,181.62h0c1.84,0,3.32-1.48,3.32-3.32h0c0-1.84-1.48-3.32-3.32-3.32h0c-1.84,0-3.32,1.48-3.32,3.32h0c0,1.84,1.48,3.32,3.32,3.32Z" style="fill: #fff;"/>
          <path d="M452.74,211.48h0c0,1.84,1.48,3.32,3.32,3.32h0c1.84,0,3.32-1.48,3.32-3.32h0c0-1.84-1.48-3.32-3.32-3.32h0c-1.84,0-3.32,1.48-3.32,3.32Z" style="fill: #fff;"/>
          <path d="M466.01,204.84h0c0-1.84-1.48-3.32-3.32-3.32h0c-1.84,0-3.32,1.48-3.32,3.32h0c0,1.84,1.48,3.32,3.32,3.32h0c1.84,0,3.32-1.48,3.32-3.32Z" style="fill: #fff;"/>
          <path d="M446.1,204.84h0c0,1.84,1.48,3.32,3.32,3.32h0c1.84,0,3.32-1.48,3.32-3.32h0c0-1.84-1.48-3.32-3.32-3.32h0c-1.84,0-3.32,1.48-3.32,3.32Z" style="fill: #fff;"/>
          <path d="M456.06,194.89h0c-1.84,0-3.32,1.48-3.32,3.32h0c0,1.84,1.48,3.32,3.32,3.32h0c1.84,0,3.32-1.48,3.32-3.32h0c0-1.84-1.48-3.32-3.32-3.32Z" style="fill: #fff;"/>
          <path d="M466.01,191.57h0c0-1.84-1.48-3.32-3.32-3.32h0c-1.84,0-3.32,1.48-3.32,3.32h0c0,1.84,1.48,3.32,3.32,3.32h0c1.84,0,3.32-1.48,3.32-3.32Z" style="fill: #fff;"/>
          <path d="M446.1,191.57h0c0,1.84,1.48,3.32,3.32,3.32h0c1.84,0,3.32-1.48,3.32-3.32h0c0-1.84-1.48-3.32-3.32-3.32h0c-1.84,0-3.32,1.48-3.32,3.32Z" style="fill: #fff;"/>
          <path d="M456.06,181.62h0c-1.84,0-3.32,1.48-3.32,3.32h0c0,1.84,1.48,3.32,3.32,3.32h0c1.84,0,3.32-1.48,3.32-3.32h0c0-1.84-1.48-3.32-3.32-3.32Z" style="fill: #fff;"/>
          <path d="M462.69,221.43h0c1.84,0,3.32-1.48,3.32-3.32h0c0-1.84-1.48-3.32-3.32-3.32h0c-1.84,0-3.32,1.48-3.32,3.32h0c0,1.84,1.48,3.32,3.32,3.32Z" style="fill: #fff;"/>
          <path d="M466.01,211.48h0c0,1.84,1.48,3.32,3.32,3.32h0c1.84,0,3.32-1.48,3.32-3.32h0c0-1.84-1.48-3.32-3.32-3.32h0c-1.84,0-3.32,1.48-3.32,3.32Z" style="fill: #fff;"/>
          <path d="M479.28,211.48h0c0,1.84,1.48,3.32,3.32,3.32h0c1.84,0,3.32-1.48,3.32-3.32h0c0-1.84-1.48-3.32-3.32-3.32h0c-1.84,0-3.32,1.48-3.32,3.32Z" style="fill: #fff;"/>
          <path d="M475.96,221.43h0c1.84,0,3.32-1.48,3.32-3.32h0c0-1.84-1.48-3.32-3.32-3.32h0c-1.84,0-3.32,1.48-3.32,3.32h0c0,1.84,1.48,3.32,3.32,3.32Z" style="fill: #fff;"/>
          <path d="M489.23,221.43h0c1.84,0,3.32-1.48,3.32-3.32h0c0-1.84-1.48-3.32-3.32-3.32h0c-1.84,0-3.32,1.48-3.32,3.32h0c0,1.84,1.48,3.32,3.32,3.32Z" style="fill: #fff;"/>
          <path d="M492.55,211.48h0c0,1.84,1.48,3.32,3.32,3.32h0c1.84,0,3.32-1.48,3.32-3.32h0c0-1.84-1.48-3.32-3.32-3.32h0c-1.84,0-3.32,1.48-3.32,3.32Z" style="fill: #fff;"/>
          <path d="M502.5,208.16h0c1.84,0,3.32-1.48,3.32-3.32h0c0-1.84-1.48-3.32-3.32-3.32h0c-1.84,0-3.32,1.48-3.32,3.32h0c0,1.84,1.48,3.32,3.32,3.32Z" style="fill: #fff;"/>
          <path d="M519.09,204.84h0c0-1.84-1.48-3.32-3.32-3.32h0c-1.84,0-3.32,1.48-3.32,3.32h0c0,1.84,1.48,3.32,3.32,3.32h0c1.84,0,3.32-1.48,3.32-3.32Z" style="fill: #fff;"/>
          <path d="M509.14,201.52h0c1.84,0,3.32-1.48,3.32-3.32h0c0-1.84-1.48-3.32-3.32-3.32h0c-1.84,0-3.32,1.48-3.32,3.32h0c0,1.84,1.48,3.32,3.32,3.32Z" style="fill: #fff;"/>
          <path d="M519.09,191.57h0c0-1.84-1.48-3.32-3.32-3.32h0c-1.84,0-3.32,1.48-3.32,3.32h0c0,1.84,1.48,3.32,3.32,3.32h0c1.84,0,3.32-1.48,3.32-3.32Z" style="fill: #fff;"/>
          <path d="M509.14,214.79h0c1.84,0,3.32-1.48,3.32-3.32h0c0-1.84-1.48-3.32-3.32-3.32h0c-1.84,0-3.32,1.48-3.32,3.32h0c0,1.84,1.48,3.32,3.32,3.32Z" style="fill: #fff;"/>
          <path d="M502.5,221.43h0c1.84,0,3.32-1.48,3.32-3.32h0c0-1.84-1.48-3.32-3.32-3.32h0c-1.84,0-3.32,1.48-3.32,3.32h0c0,1.84,1.48,3.32,3.32,3.32Z" style="fill: #fff;"/>
          <path d="M505.82,191.57h0c0,1.83-1.49,3.32-3.32,3.32h0c-1.83,0-3.32-1.49-3.32-3.32h0c0-1.83,1.49-3.32,3.32-3.32h0c1.83,0,3.32,1.49,3.32,3.32Z" style="fill: #fff;"/>
          <path d="M456.06,141.8h0c-1.84,0-3.32,1.48-3.32,3.32h0c0,1.84,1.48,3.32,3.32,3.32h0c1.84,0,3.32-1.48,3.32-3.32h0c0-1.84-1.48-3.32-3.32-3.32Z" style="fill: #fff;"/>
          <path d="M446.1,165.03h0c0,1.84,1.48,3.32,3.32,3.32h0c1.84,0,3.32-1.48,3.32-3.32h0c0-1.84-1.48-3.32-3.32-3.32h0c-1.84,0-3.32,1.48-3.32,3.32Z" style="fill: #fff;"/>
          <path d="M446.1,178.3h0c0,1.84,1.48,3.32,3.32,3.32h0c1.84,0,3.32-1.48,3.32-3.32h0c0-1.84-1.48-3.32-3.32-3.32h0c-1.84,0-3.32,1.48-3.32,3.32Z" style="fill: #fff;"/>
          <path d="M446.1,151.76h0c0,1.84,1.48,3.32,3.32,3.32h0c1.84,0,3.32-1.48,3.32-3.32h0c0-1.84-1.48-3.32-3.32-3.32h0c-1.84,0-3.32,1.48-3.32,3.32Z" style="fill: #fff;"/>
        </g>
        <g>
          <path d="M648.46,201.52h0c1.84,0,3.32-1.48,3.32-3.32h0c0-1.84-1.48-3.32-3.32-3.32h0c-1.84,0-3.32,1.48-3.32,3.32h0c0,1.84,1.48,3.32,3.32,3.32Z" style="fill: #fff;"/>
          <path d="M631.87,198.21h0c0,1.84,1.48,3.32,3.32,3.32h0c1.84,0,3.32-1.48,3.32-3.32h0c0-1.84-1.48-3.32-3.32-3.32h0c-1.84,0-3.32,1.48-3.32,3.32Z" style="fill: #fff;"/>
          <path d="M641.82,188.25h0c-1.84,0-3.32,1.48-3.32,3.32h0c0,1.84,1.48,3.32,3.32,3.32h0c1.84,0,3.32-1.48,3.32-3.32h0c0-1.84-1.48-3.32-3.32-3.32Z" style="fill: #fff;"/>
          <path d="M641.82,208.16h0c1.84,0,3.32-1.48,3.32-3.32h0c0-1.84-1.48-3.32-3.32-3.32h0c-1.84,0-3.32,1.48-3.32,3.32h0c0,1.84,1.48,3.32,3.32,3.32Z" style="fill: #fff;"/>
          <path d="M651.77,211.48h0c0-1.84-1.48-3.32-3.32-3.32h0c-1.84,0-3.32,1.48-3.32,3.32h0c0,1.84,1.48,3.32,3.32,3.32h0c1.84,0,3.32-1.48,3.32-3.32Z" style="fill: #fff;"/>
          <path d="M631.87,211.48h0c0,1.84,1.48,3.32,3.32,3.32h0c1.84,0,3.32-1.48,3.32-3.32h0c0-1.84-1.48-3.32-3.32-3.32h0c-1.84,0-3.32,1.48-3.32,3.32Z" style="fill: #fff;"/>
          <path d="M641.82,221.43h0c1.84,0,3.32-1.48,3.32-3.32h0c0-1.84-1.48-3.32-3.32-3.32h0c-1.84,0-3.32,1.48-3.32,3.32h0c0,1.84,1.48,3.32,3.32,3.32Z" style="fill: #fff;"/>
          <path d="M641.82,174.98h0c-1.84,0-3.32,1.48-3.32,3.32h0c0,1.84,1.48,3.32,3.32,3.32h0c1.84,0,3.32-1.48,3.32-3.32h0c0-1.84-1.48-3.32-3.32-3.32Z" style="fill: #fff;"/>
          <path d="M631.87,184.93h0c0,1.84,1.48,3.32,3.32,3.32h0c1.84,0,3.32-1.48,3.32-3.32h0c0-1.84-1.48-3.32-3.32-3.32h0c-1.84,0-3.32,1.48-3.32,3.32Z" style="fill: #fff;"/>
          <path d="M631.87,171.66h0c0,1.84,1.48,3.32,3.32,3.32h0c1.84,0,3.32-1.48,3.32-3.32h0c0-1.84-1.48-3.32-3.32-3.32h0c-1.84,0-3.32,1.48-3.32,3.32Z" style="fill: #fff;"/>
          <path d="M648.46,168.35h0c-1.84,0-3.32,1.48-3.32,3.32h0c0,1.84,1.48,3.32,3.32,3.32h0c1.84,0,3.32-1.48,3.32-3.32h0c0-1.84-1.48-3.32-3.32-3.32Z" style="fill: #fff;"/>
          <path d="M648.46,155.08h0c-1.84,0-3.32,1.48-3.32,3.32h0c0,1.84,1.48,3.32,3.32,3.32h0c1.84,0,3.32-1.48,3.32-3.32h0c0-1.84-1.48-3.32-3.32-3.32Z" style="fill: #fff;"/>
          <path d="M645.14,165.03h0c0,1.83-1.49,3.32-3.32,3.32h0c-1.83,0-3.32-1.49-3.32-3.32h0c0-1.83,1.49-3.32,3.32-3.32h0c1.83,0,3.32,1.49,3.32,3.32Z" style="fill: #fff;"/>
          <path d="M641.82,148.44h0c-1.84,0-3.32,1.48-3.32,3.32h0c0,1.84,1.48,3.32,3.32,3.32h0c1.84,0,3.32-1.48,3.32-3.32h0c0-1.84-1.48-3.32-3.32-3.32Z" style="fill: #fff;"/>
          <path d="M631.87,158.39h0c0,1.84,1.48,3.32,3.32,3.32h0c1.84,0,3.32-1.48,3.32-3.32h0c0-1.84-1.48-3.32-3.32-3.32h0c-1.84,0-3.32,1.48-3.32,3.32Z" style="fill: #fff;"/>
          <path d="M631.87,145.12h0c0,1.84,1.48,3.32,3.32,3.32h0c1.84,0,3.32-1.48,3.32-3.32h0c0-1.84-1.48-3.32-3.32-3.32h0c-1.84,0-3.32,1.48-3.32,3.32Z" style="fill: #fff;"/>
          <path d="M641.82,135.17h0c-1.84,0-3.32,1.48-3.32,3.32h0c0,1.84,1.48,3.32,3.32,3.32h0c1.84,0,3.32-1.48,3.32-3.32h0c0-1.84-1.48-3.32-3.32-3.32Z" style="fill: #fff;"/>
          <path d="M655.09,135.17h0c-1.84,0-3.32,1.48-3.32,3.32h0c0,1.84,1.48,3.32,3.32,3.32h0c1.84,0,3.32-1.48,3.32-3.32h0c0-1.84-1.48-3.32-3.32-3.32Z" style="fill: #fff;"/>
          <path d="M668.36,135.17h0c-1.84,0-3.32,1.48-3.32,3.32h0c0,1.84,1.48,3.32,3.32,3.32h0c1.84,0,3.32-1.48,3.32-3.32h0c0-1.84-1.48-3.32-3.32-3.32Z" style="fill: #fff;"/>
          <path d="M665.05,145.12h0c0-1.84-1.48-3.32-3.32-3.32h0c-1.84,0-3.32,1.48-3.32,3.32h0c0,1.84,1.48,3.32,3.32,3.32h0c1.84,0,3.32-1.48,3.32-3.32Z" style="fill: #fff;"/>
          <path d="M681.63,135.17h0c-1.84,0-3.32,1.48-3.32,3.32h0c0,1.84,1.48,3.32,3.32,3.32h0c1.84,0,3.32-1.48,3.32-3.32h0c0-1.84-1.48-3.32-3.32-3.32Z" style="fill: #fff;"/>
          <path d="M678.32,145.12h0c0-1.84-1.48-3.32-3.32-3.32h0c-1.84,0-3.32,1.48-3.32,3.32h0c0,1.84,1.48,3.32,3.32,3.32h0c1.84,0,3.32-1.48,3.32-3.32Z" style="fill: #fff;"/>
          <path d="M691.59,145.12h0c0-1.84-1.48-3.32-3.32-3.32h0c-1.84,0-3.32,1.48-3.32,3.32h0c0,1.84,1.48,3.32,3.32,3.32h0c1.84,0,3.32-1.48,3.32-3.32Z" style="fill: #fff;"/>
          <path d="M691.59,165.03h0c0,1.84,1.48,3.32,3.32,3.32h0c1.84,0,3.32-1.48,3.32-3.32h0c0-1.84-1.48-3.32-3.32-3.32h0c-1.84,0-3.32,1.48-3.32,3.32Z" style="fill: #fff;"/>
          <path d="M704.86,158.39h0c0-1.84-1.48-3.32-3.32-3.32h0c-1.84,0-3.32,1.48-3.32,3.32h0c0,1.84,1.48,3.32,3.32,3.32h0c1.84,0,3.32-1.48,3.32-3.32Z" style="fill: #fff;"/>
          <path d="M688.27,174.98h0c1.84,0,3.32-1.48,3.32-3.32h0c0-1.84-1.48-3.32-3.32-3.32h0c-1.84,0-3.32,1.48-3.32,3.32h0c0,1.84,1.48,3.32,3.32,3.32Z" style="fill: #fff;"/>
          <path d="M684.95,158.39h0c0,1.84,1.48,3.32,3.32,3.32h0c1.84,0,3.32-1.48,3.32-3.32h0c0-1.84-1.48-3.32-3.32-3.32h0c-1.84,0-3.32,1.48-3.32,3.32Z" style="fill: #fff;"/>
          <path d="M678.32,151.76h0c0,1.84,1.48,3.32,3.32,3.32h0c1.84,0,3.32-1.48,3.32-3.32h0c0-1.84-1.48-3.32-3.32-3.32h0c-1.84,0-3.32,1.48-3.32,3.32Z" style="fill: #fff;"/>
          <path d="M675,188.25h0c1.84,0,3.32-1.48,3.32-3.32h0c0-1.84-1.48-3.32-3.32-3.32h0c-1.84,0-3.32,1.48-3.32,3.32h0c0,1.84,1.48,3.32,3.32,3.32Z" style="fill: #fff;"/>
          <path d="M681.63,194.89h0c1.84,0,3.32-1.48,3.32-3.32h0c0-1.84-1.48-3.32-3.32-3.32h0c-1.84,0-3.32,1.48-3.32,3.32h0c0,1.84,1.48,3.32,3.32,3.32Z" style="fill: #fff;"/>
          <path d="M688.27,188.25h0c1.84,0,3.32-1.48,3.32-3.32h0c0-1.84-1.48-3.32-3.32-3.32h0c-1.84,0-3.32,1.48-3.32,3.32h0c0,1.84,1.48,3.32,3.32,3.32Z" style="fill: #fff;"/>
          <path d="M694.9,181.62h0c1.84,0,3.32-1.48,3.32-3.32h0c0-1.84-1.48-3.32-3.32-3.32h0c-1.84,0-3.32,1.48-3.32,3.32h0c0,1.84,1.48,3.32,3.32,3.32Z" style="fill: #fff;"/>
          <path d="M704.86,171.66h0c0-1.84-1.48-3.32-3.32-3.32h0c-1.84,0-3.32,1.48-3.32,3.32h0c0,1.84,1.48,3.32,3.32,3.32h0c1.84,0,3.32-1.48,3.32-3.32Z" style="fill: #fff;"/>
          <path d="M658.41,184.94h0c0,1.84,1.48,3.32,3.32,3.32h0c1.84,0,3.32-1.48,3.32-3.32h0c0-1.84-1.48-3.32-3.32-3.32h0c-1.84,0-3.32,1.48-3.32,3.32Z" style="fill: #fff;"/>
          <path d="M665.05,191.57h0c0,1.84,1.48,3.32,3.32,3.32h0c1.84,0,3.32-1.48,3.32-3.32h0c0-1.84-1.48-3.32-3.32-3.32h0c-1.84,0-3.32,1.48-3.32,3.32Z" style="fill: #fff;"/>
          <path d="M671.68,198.21h0c0,1.84,1.48,3.32,3.32,3.32h0c1.84,0,3.32-1.48,3.32-3.32h0c0-1.84-1.48-3.32-3.32-3.32h0c-1.84,0-3.32,1.48-3.32,3.32Z" style="fill: #fff;"/>
          <path d="M698.22,204.84h0c0-1.84-1.48-3.32-3.32-3.32h0c-1.84,0-3.32,1.48-3.32,3.32h0c0,1.84,1.48,3.32,3.32,3.32h0c1.84,0,3.32-1.48,3.32-3.32Z" style="fill: #fff;"/>
          <path d="M691.59,198.21h0c0-1.84-1.48-3.32-3.32-3.32h0c-1.84,0-3.32,1.48-3.32,3.32h0c0,1.84,1.48,3.32,3.32,3.32h0c1.84,0,3.32-1.48,3.32-3.32Z" style="fill: #fff;"/>
          <path d="M704.86,211.48h0c0-1.84-1.48-3.32-3.32-3.32h0c-1.84,0-3.32,1.48-3.32,3.32h0c0,1.84,1.48,3.32,3.32,3.32h0c1.84,0,3.32-1.48,3.32-3.32Z" style="fill: #fff;"/>
          <path d="M694.9,221.43h0c1.84,0,3.32-1.48,3.32-3.32h0c0-1.84-1.48-3.32-3.32-3.32h0c-1.84,0-3.32,1.48-3.32,3.32h0c0,1.84,1.48,3.32,3.32,3.32Z" style="fill: #fff;"/>
          <path d="M691.59,211.48h0c0,1.83-1.49,3.32-3.32,3.32h0c-1.83,0-3.32-1.49-3.32-3.32h0c0-1.83,1.49-3.32,3.32-3.32h0c1.83,0,3.32,1.49,3.32,3.32Z" style="fill: #fff;"/>
          <path d="M678.32,204.84h0c0,1.84,1.48,3.32,3.32,3.32h0c1.84,0,3.32-1.48,3.32-3.32h0c0-1.84-1.48-3.32-3.32-3.32h0c-1.84,0-3.32,1.48-3.32,3.32Z" style="fill: #fff;"/>
          <path d="M651.77,191.57h0c0,1.84,1.48,3.32,3.32,3.32h0c1.84,0,3.32-1.48,3.32-3.32h0c0-1.84-1.48-3.32-3.32-3.32h0c-1.84,0-3.32,1.48-3.32,3.32Z" style="fill: #fff;"/>
          <path d="M661.73,201.52h0c1.84,0,3.32-1.48,3.32-3.32h0c0-1.84-1.48-3.32-3.32-3.32h0c-1.84,0-3.32,1.48-3.32,3.32h0c0,1.84,1.48,3.32,3.32,3.32Z" style="fill: #fff;"/>
          <path d="M698.22,151.76h0c0-1.84-1.48-3.32-3.32-3.32h0c-1.84,0-3.32,1.48-3.32,3.32h0c0,1.84,1.48,3.32,3.32,3.32h0c1.84,0,3.32-1.48,3.32-3.32Z" style="fill: #fff;"/>
          <path d="M645.14,184.93h0c0,1.84,1.48,3.32,3.32,3.32h0c1.84,0,3.32-1.48,3.32-3.32h0c0-1.84-1.48-3.32-3.32-3.32h0c-1.84,0-3.32,1.48-3.32,3.32Z" style="fill: #fff;"/>
          <path d="M681.63,181.62h0c1.84,0,3.32-1.48,3.32-3.32h0c0-1.84-1.48-3.32-3.32-3.32h0c-1.84,0-3.32,1.48-3.32,3.32h0c0,1.84,1.48,3.32,3.32,3.32Z" style="fill: #fff;"/>
          <path d="M651.77,145.12h0c0-1.84-1.48-3.32-3.32-3.32h0c-1.84,0-3.32,1.48-3.32,3.32h0c0,1.84,1.48,3.32,3.32,3.32h0c1.84,0,3.32-1.48,3.32-3.32Z" style="fill: #fff;"/>
        </g>
        <g>
          <path d="M548.92,135.17h0c-1.84,0-3.32,1.48-3.32,3.32h0c0,1.84,1.48,3.32,3.32,3.32h0c1.84,0,3.32-1.48,3.32-3.32h0c0-1.84-1.48-3.32-3.32-3.32Z" style="fill: #fff;"/>
          <path d="M538.97,145.12h0c0,1.84,1.48,3.32,3.32,3.32h0c1.84,0,3.32-1.48,3.32-3.32h0c0-1.84-1.48-3.32-3.32-3.32h0c-1.84,0-3.32,1.48-3.32,3.32Z" style="fill: #fff;"/>
          <path d="M558.87,145.12h0c0-1.84-1.48-3.32-3.32-3.32h0c-1.84,0-3.32,1.48-3.32,3.32h0c0,1.84,1.48,3.32,3.32,3.32h0c1.84,0,3.32-1.48,3.32-3.32Z" style="fill: #fff;"/>
          <path d="M548.92,148.44h0c-1.84,0-3.32,1.48-3.32,3.32h0c0,1.84,1.48,3.32,3.32,3.32h0c1.84,0,3.32-1.48,3.32-3.32h0c0-1.84-1.48-3.32-3.32-3.32Z" style="fill: #fff;"/>
          <path d="M548.92,161.71h0c-1.84,0-3.32,1.48-3.32,3.32h0c0,1.84,1.48,3.32,3.32,3.32h0c1.84,0,3.32-1.48,3.32-3.32h0c0-1.84-1.48-3.32-3.32-3.32Z" style="fill: #fff;"/>
          <path d="M538.97,158.39h0c0,1.84,1.48,3.32,3.32,3.32h0c1.84,0,3.32-1.48,3.32-3.32h0c0-1.84-1.48-3.32-3.32-3.32h0c-1.84,0-3.32,1.48-3.32,3.32Z" style="fill: #fff;"/>
          <path d="M558.87,158.39h0c0-1.84-1.48-3.32-3.32-3.32h0c-1.84,0-3.32,1.48-3.32,3.32h0c0,1.84,1.48,3.32,3.32,3.32h0c1.84,0,3.32-1.48,3.32-3.32Z" style="fill: #fff;"/>
          <path d="M538.97,171.66h0c0,1.84,1.48,3.32,3.32,3.32h0c1.84,0,3.32-1.48,3.32-3.32h0c0-1.84-1.48-3.32-3.32-3.32h0c-1.84,0-3.32,1.48-3.32,3.32Z" style="fill: #fff;"/>
          <path d="M538.97,184.93h0c0,1.84,1.48,3.32,3.32,3.32h0c1.84,0,3.32-1.48,3.32-3.32h0c0-1.84-1.48-3.32-3.32-3.32h0c-1.84,0-3.32,1.48-3.32,3.32Z" style="fill: #fff;"/>
          <path d="M548.92,174.98h0c-1.84,0-3.32,1.48-3.32,3.32h0c0,1.84,1.48,3.32,3.32,3.32h0c1.84,0,3.32-1.48,3.32-3.32h0c0-1.84-1.48-3.32-3.32-3.32Z" style="fill: #fff;"/>
          <path d="M558.87,171.66h0c0-1.84-1.48-3.32-3.32-3.32h0c-1.84,0-3.32,1.48-3.32,3.32h0c0,1.84,1.48,3.32,3.32,3.32h0c1.84,0,3.32-1.48,3.32-3.32Z" style="fill: #fff;"/>
          <path d="M558.87,204.84h0c0,1.84,1.48,3.32,3.32,3.32h0c1.84,0,3.32-1.48,3.32-3.32h0c0-1.84-1.48-3.32-3.32-3.32h0c-1.84,0-3.32,1.48-3.32,3.32Z" style="fill: #fff;"/>
          <path d="M558.87,211.48h0c0,1.83-1.49,3.32-3.32,3.32h0c-1.83,0-3.32-1.49-3.32-3.32h0c0-1.83,1.49-3.32,3.32-3.32h0c1.83,0,3.32,1.49,3.32,3.32Z" style="fill: #fff;"/>
          <path d="M588.73,201.52h0c-1.84,0-3.32,1.48-3.32,3.32h0c0,1.84,1.48,3.32,3.32,3.32h0c1.84,0,3.32-1.48,3.32-3.32h0c0-1.84-1.48-3.32-3.32-3.32Z" style="fill: #fff;"/>
          <path d="M548.92,188.25h0c-1.84,0-3.32,1.48-3.32,3.32h0c0,1.84,1.48,3.32,3.32,3.32h0c1.84,0,3.32-1.48,3.32-3.32h0c0-1.84-1.48-3.32-3.32-3.32Z" style="fill: #fff;"/>
          <path d="M545.6,204.84h0c0,1.84,1.48,3.32,3.32,3.32h0c1.84,0,3.32-1.48,3.32-3.32h0c0-1.84-1.48-3.32-3.32-3.32h0c-1.84,0-3.32,1.48-3.32,3.32Z" style="fill: #fff;"/>
          <path d="M565.51,211.48h0c0,1.84,1.48,3.32,3.32,3.32h0c1.84,0,3.32-1.48,3.32-3.32h0c0-1.84-1.48-3.32-3.32-3.32h0c-1.84,0-3.32,1.48-3.32,3.32Z" style="fill: #fff;"/>
          <path d="M558.87,218.11h0c0,1.84,1.48,3.32,3.32,3.32h0c1.84,0,3.32-1.48,3.32-3.32h0c0-1.84-1.48-3.32-3.32-3.32h0c-1.84,0-3.32,1.48-3.32,3.32Z" style="fill: #fff;"/>
          <path d="M575.46,221.43h0c1.84,0,3.32-1.48,3.32-3.32h0c0-1.84-1.48-3.32-3.32-3.32h0c-1.84,0-3.32,1.48-3.32,3.32h0c0,1.84,1.48,3.32,3.32,3.32Z" style="fill: #fff;"/>
          <path d="M588.73,221.43h0c1.84,0,3.32-1.48,3.32-3.32h0c0-1.84-1.48-3.32-3.32-3.32h0c-1.84,0-3.32,1.48-3.32,3.32h0c0,1.84,1.48,3.32,3.32,3.32Z" style="fill: #fff;"/>
          <path d="M578.78,211.48h0c0,1.84,1.48,3.32,3.32,3.32h0c1.84,0,3.32-1.48,3.32-3.32h0c0-1.84-1.48-3.32-3.32-3.32h0c-1.84,0-3.32,1.48-3.32,3.32Z" style="fill: #fff;"/>
          <path d="M595.37,214.79h0c1.84,0,3.32-1.48,3.32-3.32h0c0-1.84-1.48-3.32-3.32-3.32h0c-1.84,0-3.32,1.48-3.32,3.32h0c0,1.84,1.48,3.32,3.32,3.32Z" style="fill: #fff;"/>
          <path d="M538.97,198.21h0c0,1.84,1.48,3.32,3.32,3.32h0c1.84,0,3.32-1.48,3.32-3.32h0c0-1.84-1.48-3.32-3.32-3.32h0c-1.84,0-3.32,1.48-3.32,3.32Z" style="fill: #fff;"/>
          <path d="M558.87,198.21h0c0-1.84-1.48-3.32-3.32-3.32h0c-1.84,0-3.32,1.48-3.32,3.32h0c0,1.84,1.48,3.32,3.32,3.32h0c1.84,0,3.32-1.48,3.32-3.32Z" style="fill: #fff;"/>
          <path d="M602,135.17h0c-1.84,0-3.32,1.48-3.32,3.32h0c0,1.84,1.48,3.32,3.32,3.32h0c1.84,0,3.32-1.48,3.32-3.32h0c0-1.84-1.48-3.32-3.32-3.32Z" style="fill: #fff;"/>
          <path d="M592.05,145.12h0c0,1.84,1.48,3.32,3.32,3.32h0c1.84,0,3.32-1.48,3.32-3.32h0c0-1.84-1.48-3.32-3.32-3.32h0c-1.84,0-3.32,1.48-3.32,3.32Z" style="fill: #fff;"/>
          <path d="M611.96,145.12h0c0-1.84-1.48-3.32-3.32-3.32h0c-1.84,0-3.32,1.48-3.32,3.32h0c0,1.84,1.48,3.32,3.32,3.32h0c1.84,0,3.32-1.48,3.32-3.32Z" style="fill: #fff;"/>
          <path d="M598.69,151.76h0c0,1.84,1.48,3.32,3.32,3.32h0c1.84,0,3.32-1.48,3.32-3.32h0c0-1.84-1.48-3.32-3.32-3.32h0c-1.84,0-3.32,1.48-3.32,3.32Z" style="fill: #fff;"/>
          <path d="M605.32,165.03h0c0,1.83-1.49,3.32-3.32,3.32h0c-1.83,0-3.32-1.49-3.32-3.32h0c0-1.83,1.49-3.32,3.32-3.32h0c1.83,0,3.32,1.49,3.32,3.32Z" style="fill: #fff;"/>
          <path d="M592.05,158.39h0c0,1.84,1.48,3.32,3.32,3.32h0c1.84,0,3.32-1.48,3.32-3.32h0c0-1.84-1.48-3.32-3.32-3.32h0c-1.84,0-3.32,1.48-3.32,3.32Z" style="fill: #fff;"/>
          <path d="M611.96,158.39h0c0-1.84-1.48-3.32-3.32-3.32h0c-1.84,0-3.32,1.48-3.32,3.32h0c0,1.84,1.48,3.32,3.32,3.32h0c1.84,0,3.32-1.48,3.32-3.32Z" style="fill: #fff;"/>
          <path d="M592.05,171.66h0c0,1.84,1.48,3.32,3.32,3.32h0c1.84,0,3.32-1.48,3.32-3.32h0c0-1.84-1.48-3.32-3.32-3.32h0c-1.84,0-3.32,1.48-3.32,3.32Z" style="fill: #fff;"/>
          <path d="M611.96,171.66h0c0-1.84-1.48-3.32-3.32-3.32h0c-1.84,0-3.32,1.48-3.32,3.32h0c0,1.84,1.48,3.32,3.32,3.32h0c1.84,0,3.32-1.48,3.32-3.32Z" style="fill: #fff;"/>
          <path d="M611.96,184.93h0c0-1.84-1.48-3.32-3.32-3.32h0c-1.84,0-3.32,1.48-3.32,3.32h0c0,1.84,1.48,3.32,3.32,3.32h0c1.84,0,3.32-1.48,3.32-3.32Z" style="fill: #fff;"/>
          <path d="M602,181.62h0c1.84,0,3.32-1.48,3.32-3.32h0c0-1.84-1.48-3.32-3.32-3.32h0c-1.84,0-3.32,1.48-3.32,3.32h0c0,1.84,1.48,3.32,3.32,3.32Z" style="fill: #fff;"/>
          <path d="M558.87,184.93h0c0-1.84-1.48-3.32-3.32-3.32h0c-1.84,0-3.32,1.48-3.32,3.32h0c0,1.84,1.48,3.32,3.32,3.32h0c1.84,0,3.32-1.48,3.32-3.32Z" style="fill: #fff;"/>
          <path d="M592.05,184.93h0c0,1.84,1.48,3.32,3.32,3.32h0c1.84,0,3.32-1.48,3.32-3.32h0c0-1.84-1.48-3.32-3.32-3.32h0c-1.84,0-3.32,1.48-3.32,3.32Z" style="fill: #fff;"/>
          <path d="M602,194.89h0c1.84,0,3.32-1.48,3.32-3.32h0c0-1.84-1.48-3.32-3.32-3.32h0c-1.84,0-3.32,1.48-3.32,3.32h0c0,1.84,1.48,3.32,3.32,3.32Z" style="fill: #fff;"/>
          <path d="M602,208.16h0c1.84,0,3.32-1.48,3.32-3.32h0c0-1.84-1.48-3.32-3.32-3.32h0c-1.84,0-3.32,1.48-3.32,3.32h0c0,1.84,1.48,3.32,3.32,3.32Z" style="fill: #fff;"/>
          <path d="M595.37,194.89h0c-1.84,0-3.32,1.48-3.32,3.32h0c0,1.84,1.48,3.32,3.32,3.32h0c1.84,0,3.32-1.48,3.32-3.32h0c0-1.84-1.48-3.32-3.32-3.32Z" style="fill: #fff;"/>
          <path d="M611.96,198.21h0c0-1.84-1.48-3.32-3.32-3.32h0c-1.84,0-3.32,1.48-3.32,3.32h0c0,1.84,1.48,3.32,3.32,3.32h0c1.84,0,3.32-1.48,3.32-3.32Z" style="fill: #fff;"/>
        </g>
      </g>
      <g style="filter: url(#drop-shadow-3);">
        <g id="Layer_1-2" data-name="Layer 1-2">
          <g>
            <g>
              <path d="M175.29,20.72h0c0,1.82,1.46,3.28,3.28,3.28h0c1.82,0,3.28-1.46,3.28-3.28h0c0-1.82-1.46-3.28-3.28-3.28h0c-1.82,0-3.28,1.46-3.28,3.28Z" style="fill: #fff;"/>
              <path d="M172.01,30.57h0c1.82,0,3.28-1.46,3.28-3.28h0c0-1.82-1.46-3.28-3.28-3.28h0c-1.82,0-3.28,1.46-3.28,3.28h0c0,1.82,1.46,3.28,3.28,3.28Z" style="fill: #fff;"/>
              <path d="M181.86,27.28h0c0,1.82,1.46,3.28,3.28,3.28h0c1.82,0,3.28-1.46,3.28-3.28h0c0-1.82-1.46-3.28-3.28-3.28h0c-1.82,0-3.28,1.46-3.28,3.28Z" style="fill: #fff;"/>
              <path d="M191.7,17.44h0c-1.82,0-3.28,1.46-3.28,3.28h0c0,1.82,1.46,3.28,3.28,3.28h0c1.82,0,3.28-1.46,3.28-3.28h0c0-1.82-1.46-3.28-3.28-3.28Z" style="fill: #fff;"/>
              <path d="M194.99,27.28h0c0,1.82,1.46,3.28,3.28,3.28h0c1.82,0,3.28-1.46,3.28-3.28h0c0-1.82-1.46-3.28-3.28-3.28h0c-1.82,0-3.28,1.46-3.28,3.28Z" style="fill: #fff;"/>
              <path d="M191.7,37.13h0c1.82,0,3.28-1.46,3.28-3.28h0c0-1.82-1.46-3.28-3.28-3.28h0c-1.82,0-3.28,1.46-3.28,3.28h0c0,1.82,1.46,3.28,3.28,3.28Z" style="fill: #fff;"/>
              <path d="M149.03,20.72h0c0,1.82,1.46,3.28,3.28,3.28h0c1.82,0,3.28-1.46,3.28-3.28h0c0-1.82-1.46-3.28-3.28-3.28h0c-1.82,0-3.28,1.46-3.28,3.28Z" style="fill: #fff;"/>
              <path d="M145.74,30.57h0c1.82,0,3.28-1.46,3.28-3.28h0c0-1.82-1.46-3.28-3.28-3.28h0c-1.82,0-3.28,1.46-3.28,3.28h0c0,1.82,1.46,3.28,3.28,3.28Z" style="fill: #fff;"/>
              <path d="M139.18,17.44h0c-1.82,0-3.28,1.46-3.28,3.28h0c0,1.82,1.46,3.28,3.28,3.28h0c1.82,0,3.28-1.46,3.28-3.28h0c0-1.82-1.46-3.28-3.28-3.28Z" style="fill: #fff;"/>
              <path d="M129.33,27.28h0c0,1.82,1.46,3.28,3.28,3.28h0c1.82,0,3.28-1.46,3.28-3.28h0c0-1.82-1.46-3.28-3.28-3.28h0c-1.82,0-3.28,1.46-3.28,3.28Z" style="fill: #fff;"/>
              <path d="M139.18,37.13h0c1.82,0,3.28-1.46,3.28-3.28h0c0-1.82-1.46-3.28-3.28-3.28h0c-1.82,0-3.28,1.46-3.28,3.28h0c0,1.82,1.46,3.28,3.28,3.28Z" style="fill: #fff;"/>
              <path d="M175.29,79.81h0c0-1.82-1.46-3.28-3.28-3.28h0c-1.82,0-3.28,1.46-3.28,3.28h0c0,1.82,1.46,3.28,3.28,3.28h0c1.82,0,3.28-1.46,3.28-3.28Z" style="fill: #fff;"/>
              <path d="M155.59,79.81h0c0,1.82,1.46,3.28,3.28,3.28h0c1.82,0,3.28-1.46,3.28-3.28h0c0-1.82-1.46-3.28-3.28-3.28h0c-1.82,0-3.28,1.46-3.28,3.28Z" style="fill: #fff;"/>
              <path d="M165.44,76.53h0c1.82,0,3.28-1.46,3.28-3.28h0c0-1.82-1.46-3.28-3.28-3.28h0c-1.82,0-3.28,1.46-3.28,3.28h0c0,1.82,1.46,3.28,3.28,3.28Z" style="fill: #fff;"/>
              <path d="M165.44,89.66h0c1.82,0,3.28-1.46,3.28-3.28h0c0-1.82-1.46-3.28-3.28-3.28h0c-1.82,0-3.28,1.46-3.28,3.28h0c0,1.82,1.46,3.28,3.28,3.28Z" style="fill: #fff;"/>
              <path d="M175.29,92.94h0c0-1.82-1.46-3.28-3.28-3.28h0c-1.82,0-3.28,1.46-3.28,3.28h0c0,1.82,1.46,3.28,3.28,3.28h0c1.82,0,3.28-1.46,3.28-3.28Z" style="fill: #fff;"/>
              <path d="M162.16,92.94h0c0,1.81-1.47,3.28-3.28,3.28h0c-1.81,0-3.28-1.47-3.28-3.28h0c0-1.81,1.47-3.28,3.28-3.28h0c1.81,0,3.28,1.47,3.28,3.28Z" style="fill: #fff;"/>
              <path d="M165.44,102.79h0c1.82,0,3.28-1.46,3.28-3.28h0c0-1.82-1.46-3.28-3.28-3.28h0c-1.82,0-3.28,1.46-3.28,3.28h0c0,1.82,1.46,3.28,3.28,3.28Z" style="fill: #fff;"/>
              <path d="M165.44,63.4h0c1.82,0,3.28-1.46,3.28-3.28h0c0-1.82-1.46-3.28-3.28-3.28h0c-1.82,0-3.28,1.46-3.28,3.28h0c0,1.82,1.46,3.28,3.28,3.28Z" style="fill: #fff;"/>
              <path d="M155.59,66.68h0c0,1.82,1.46,3.28,3.28,3.28h0c1.82,0,3.28-1.46,3.28-3.28h0c0-1.82-1.46-3.28-3.28-3.28h0c-1.82,0-3.28,1.46-3.28,3.28Z" style="fill: #fff;"/>
              <path d="M155.59,53.55h0c0,1.82,1.46,3.28,3.28,3.28h0c1.82,0,3.28-1.46,3.28-3.28h0c0-1.82-1.46-3.28-3.28-3.28h0c-1.82,0-3.28,1.46-3.28,3.28Z" style="fill: #fff;"/>
              <path d="M175.29,53.55h0c0-1.82-1.46-3.28-3.28-3.28h0c-1.82,0-3.28,1.46-3.28,3.28h0c0,1.82,1.46,3.28,3.28,3.28h0c1.82,0,3.28-1.46,3.28-3.28Z" style="fill: #fff;"/>
              <path d="M175.29,40.42h0c0-1.82-1.46-3.28-3.28-3.28h0c-1.82,0-3.28,1.46-3.28,3.28h0c0,1.82,1.46,3.28,3.28,3.28h0c1.82,0,3.28-1.46,3.28-3.28Z" style="fill: #fff;"/>
              <path d="M165.44,50.26h0c1.82,0,3.28-1.46,3.28-3.28h0c0-1.82-1.46-3.28-3.28-3.28h0c-1.82,0-3.28,1.46-3.28,3.28h0c0,1.82,1.46,3.28,3.28,3.28Z" style="fill: #fff;"/>
              <path d="M165.44,37.13h0c1.82,0,3.28-1.46,3.28-3.28h0c0-1.82-1.46-3.28-3.28-3.28h0c-1.82,0-3.28,1.46-3.28,3.28h0c0,1.82,1.46,3.28,3.28,3.28Z" style="fill: #fff;"/>
              <path d="M155.59,40.42h0c0,1.82,1.46,3.28,3.28,3.28h0c1.82,0,3.28-1.46,3.28-3.28h0c0-1.82-1.46-3.28-3.28-3.28h0c-1.82,0-3.28,1.46-3.28,3.28Z" style="fill: #fff;"/>
              <path d="M155.59,27.28h0c0,1.82,1.46,3.28,3.28,3.28h0c1.82,0,3.28-1.46,3.28-3.28h0c0-1.82-1.46-3.28-3.28-3.28h0c-1.82,0-3.28,1.46-3.28,3.28Z" style="fill: #fff;"/>
              <path d="M165.44,17.44h0c-1.82,0-3.28,1.46-3.28,3.28h0c0,1.82,1.46,3.28,3.28,3.28h0c1.82,0,3.28-1.46,3.28-3.28h0c0-1.82-1.46-3.28-3.28-3.28Z" style="fill: #fff;"/>
              <path d="M175.29,66.68h0c0-1.82-1.46-3.28-3.28-3.28h0c-1.82,0-3.28,1.46-3.28,3.28h0c0,1.82,1.46,3.28,3.28,3.28h0c1.82,0,3.28-1.46,3.28-3.28Z" style="fill: #fff;"/>
            </g>
            <g>
              <path d="M234.35,83.09h0c1.82,0,3.28-1.46,3.28-3.28h0c0-1.82-1.46-3.28-3.28-3.28h0c-1.82,0-3.28,1.46-3.28,3.28h0c0,1.82,1.46,3.28,3.28,3.28Z" style="fill: #fff;"/>
              <path d="M217.94,79.81h0c0,1.82,1.46,3.28,3.28,3.28h0c1.82,0,3.28-1.46,3.28-3.28h0c0-1.82-1.46-3.28-3.28-3.28h0c-1.82,0-3.28,1.46-3.28,3.28Z" style="fill: #fff;"/>
              <path d="M227.79,69.96h0c-1.82,0-3.28,1.46-3.28,3.28h0c0,1.82,1.46,3.28,3.28,3.28h0c1.82,0,3.28-1.46,3.28-3.28h0c0-1.82-1.46-3.28-3.28-3.28Z" style="fill: #fff;"/>
              <path d="M227.79,89.66h0c1.82,0,3.28-1.46,3.28-3.28h0c0-1.82-1.46-3.28-3.28-3.28h0c-1.82,0-3.28,1.46-3.28,3.28h0c0,1.82,1.46,3.28,3.28,3.28Z" style="fill: #fff;"/>
              <path d="M237.63,92.94h0c0-1.82-1.46-3.28-3.28-3.28h0c-1.82,0-3.28,1.46-3.28,3.28h0c0,1.82,1.46,3.28,3.28,3.28h0c1.82,0,3.28-1.46,3.28-3.28Z" style="fill: #fff;"/>
              <path d="M217.94,92.94h0c0,1.82,1.46,3.28,3.28,3.28h0c1.82,0,3.28-1.46,3.28-3.28h0c0-1.82-1.46-3.28-3.28-3.28h0c-1.82,0-3.28,1.46-3.28,3.28Z" style="fill: #fff;"/>
              <path d="M227.79,102.79h0c1.82,0,3.28-1.46,3.28-3.28h0c0-1.82-1.46-3.28-3.28-3.28h0c-1.82,0-3.28,1.46-3.28,3.28h0c0,1.82,1.46,3.28,3.28,3.28Z" style="fill: #fff;"/>
              <path d="M227.79,56.83h0c-1.82,0-3.28,1.46-3.28,3.28h0c0,1.82,1.46,3.28,3.28,3.28h0c1.82,0,3.28-1.46,3.28-3.28h0c0-1.82-1.46-3.28-3.28-3.28Z" style="fill: #fff;"/>
              <path d="M217.94,66.68h0c0,1.82,1.46,3.28,3.28,3.28h0c1.82,0,3.28-1.46,3.28-3.28h0c0-1.82-1.46-3.28-3.28-3.28h0c-1.82,0-3.28,1.46-3.28,3.28Z" style="fill: #fff;"/>
              <path d="M217.94,53.55h0c0,1.82,1.46,3.28,3.28,3.28h0c1.82,0,3.28-1.46,3.28-3.28h0c0-1.82-1.46-3.28-3.28-3.28h0c-1.82,0-3.28,1.46-3.28,3.28Z" style="fill: #fff;"/>
              <path d="M234.35,50.26h0c-1.82,0-3.28,1.46-3.28,3.28h0c0,1.82,1.46,3.28,3.28,3.28h0c1.82,0,3.28-1.46,3.28-3.28h0c0-1.82-1.46-3.28-3.28-3.28Z" style="fill: #fff;"/>
              <path d="M234.35,37.13h0c-1.82,0-3.28,1.46-3.28,3.28h0c0,1.82,1.46,3.28,3.28,3.28h0c1.82,0,3.28-1.46,3.28-3.28h0c0-1.82-1.46-3.28-3.28-3.28Z" style="fill: #fff;"/>
              <path d="M231.07,46.98h0c0,1.81-1.47,3.28-3.28,3.28h0c-1.81,0-3.28-1.47-3.28-3.28h0c0-1.81,1.47-3.28,3.28-3.28h0c1.81,0,3.28,1.47,3.28,3.28Z" style="fill: #fff;"/>
              <path d="M227.79,30.57h0c-1.82,0-3.28,1.46-3.28,3.28h0c0,1.82,1.46,3.28,3.28,3.28h0c1.82,0,3.28-1.46,3.28-3.28h0c0-1.82-1.46-3.28-3.28-3.28Z" style="fill: #fff;"/>
              <path d="M217.94,40.42h0c0,1.82,1.46,3.28,3.28,3.28h0c1.82,0,3.28-1.46,3.28-3.28h0c0-1.82-1.46-3.28-3.28-3.28h0c-1.82,0-3.28,1.46-3.28,3.28Z" style="fill: #fff;"/>
              <path d="M217.94,27.28h0c0,1.82,1.46,3.28,3.28,3.28h0c1.82,0,3.28-1.46,3.28-3.28h0c0-1.82-1.46-3.28-3.28-3.28h0c-1.82,0-3.28,1.46-3.28,3.28Z" style="fill: #fff;"/>
              <path d="M227.79,17.44h0c-1.82,0-3.28,1.46-3.28,3.28h0c0,1.82,1.46,3.28,3.28,3.28h0c1.82,0,3.28-1.46,3.28-3.28h0c0-1.82-1.46-3.28-3.28-3.28Z" style="fill: #fff;"/>
              <path d="M240.92,17.44h0c-1.82,0-3.28,1.46-3.28,3.28h0c0,1.82,1.46,3.28,3.28,3.28h0c1.82,0,3.28-1.46,3.28-3.28h0c0-1.82-1.46-3.28-3.28-3.28Z" style="fill: #fff;"/>
              <path d="M254.05,17.44h0c-1.82,0-3.28,1.46-3.28,3.28h0c0,1.82,1.46,3.28,3.28,3.28h0c1.82,0,3.28-1.46,3.28-3.28h0c0-1.82-1.46-3.28-3.28-3.28Z" style="fill: #fff;"/>
              <path d="M250.77,27.28h0c0-1.82-1.46-3.28-3.28-3.28h0c-1.82,0-3.28,1.46-3.28,3.28h0c0,1.82,1.46,3.28,3.28,3.28h0c1.82,0,3.28-1.46,3.28-3.28Z" style="fill: #fff;"/>
              <path d="M267.18,17.44h0c-1.82,0-3.28,1.46-3.28,3.28h0c0,1.82,1.46,3.28,3.28,3.28h0c1.82,0,3.28-1.46,3.28-3.28h0c0-1.82-1.46-3.28-3.28-3.28Z" style="fill: #fff;"/>
              <path d="M263.9,27.28h0c0-1.82-1.46-3.28-3.28-3.28h0c-1.82,0-3.28,1.46-3.28,3.28h0c0,1.82,1.46,3.28,3.28,3.28h0c1.82,0,3.28-1.46,3.28-3.28Z" style="fill: #fff;"/>
              <path d="M277.03,27.28h0c0-1.82-1.46-3.28-3.28-3.28h0c-1.82,0-3.28,1.46-3.28,3.28h0c0,1.82,1.46,3.28,3.28,3.28h0c1.82,0,3.28-1.46,3.28-3.28Z" style="fill: #fff;"/>
              <path d="M277.03,46.98h0c0,1.82,1.46,3.28,3.28,3.28h0c1.82,0,3.28-1.46,3.28-3.28h0c0-1.82-1.46-3.28-3.28-3.28h0c-1.82,0-3.28,1.46-3.28,3.28Z" style="fill: #fff;"/>
              <path d="M290.16,40.42h0c0-1.82-1.46-3.28-3.28-3.28h0c-1.82,0-3.28,1.46-3.28,3.28h0c0,1.82,1.46,3.28,3.28,3.28h0c1.82,0,3.28-1.46,3.28-3.28Z" style="fill: #fff;"/>
              <path d="M273.75,56.83h0c1.82,0,3.28-1.46,3.28-3.28h0c0-1.82-1.46-3.28-3.28-3.28h0c-1.82,0-3.28,1.46-3.28,3.28h0c0,1.82,1.46,3.28,3.28,3.28Z" style="fill: #fff;"/>
              <path d="M270.46,40.42h0c0,1.82,1.46,3.28,3.28,3.28h0c1.82,0,3.28-1.46,3.28-3.28h0c0-1.82-1.46-3.28-3.28-3.28h0c-1.82,0-3.28,1.46-3.28,3.28Z" style="fill: #fff;"/>
              <path d="M263.9,33.85h0c0,1.82,1.46,3.28,3.28,3.28h0c1.82,0,3.28-1.46,3.28-3.28h0c0-1.82-1.46-3.28-3.28-3.28h0c-1.82,0-3.28,1.46-3.28,3.28Z" style="fill: #fff;"/>
              <path d="M260.62,69.96h0c1.82,0,3.28-1.46,3.28-3.28h0c0-1.82-1.46-3.28-3.28-3.28h0c-1.82,0-3.28,1.46-3.28,3.28h0c0,1.82,1.46,3.28,3.28,3.28Z" style="fill: #fff;"/>
              <path d="M267.18,76.53h0c1.82,0,3.28-1.46,3.28-3.28h0c0-1.82-1.46-3.28-3.28-3.28h0c-1.82,0-3.28,1.46-3.28,3.28h0c0,1.82,1.46,3.28,3.28,3.28Z" style="fill: #fff;"/>
              <path d="M273.75,69.96h0c1.82,0,3.28-1.46,3.28-3.28h0c0-1.82-1.46-3.28-3.28-3.28h0c-1.82,0-3.28,1.46-3.28,3.28h0c0,1.82,1.46,3.28,3.28,3.28Z" style="fill: #fff;"/>
              <path d="M280.31,63.4h0c1.82,0,3.28-1.46,3.28-3.28h0c0-1.82-1.46-3.28-3.28-3.28h0c-1.82,0-3.28,1.46-3.28,3.28h0c0,1.82,1.46,3.28,3.28,3.28Z" style="fill: #fff;"/>
              <path d="M290.16,53.55h0c0-1.82-1.46-3.28-3.28-3.28h0c-1.82,0-3.28,1.46-3.28,3.28h0c0,1.82,1.46,3.28,3.28,3.28h0c1.82,0,3.28-1.46,3.28-3.28Z" style="fill: #fff;"/>
              <path d="M244.2,66.68h0c0,1.82,1.46,3.28,3.28,3.28h0c1.82,0,3.28-1.46,3.28-3.28h0c0-1.82-1.46-3.28-3.28-3.28h0c-1.82,0-3.28,1.46-3.28,3.28Z" style="fill: #fff;"/>
              <path d="M250.77,73.25h0c0,1.82,1.46,3.28,3.28,3.28h0c1.82,0,3.28-1.46,3.28-3.28h0c0-1.82-1.46-3.28-3.28-3.28h0c-1.82,0-3.28,1.46-3.28,3.28Z" style="fill: #fff;"/>
              <path d="M257.33,79.81h0c0,1.82,1.46,3.28,3.28,3.28h0c1.82,0,3.28-1.46,3.28-3.28h0c0-1.82-1.46-3.28-3.28-3.28h0c-1.82,0-3.28,1.46-3.28,3.28Z" style="fill: #fff;"/>
              <path d="M283.6,86.38h0c0-1.82-1.46-3.28-3.28-3.28h0c-1.82,0-3.28,1.46-3.28,3.28h0c0,1.82,1.46,3.28,3.28,3.28h0c1.82,0,3.28-1.46,3.28-3.28Z" style="fill: #fff;"/>
              <path d="M277.03,79.81h0c0-1.82-1.46-3.28-3.28-3.28h0c-1.82,0-3.28,1.46-3.28,3.28h0c0,1.82,1.46,3.28,3.28,3.28h0c1.82,0,3.28-1.46,3.28-3.28Z" style="fill: #fff;"/>
              <path d="M290.16,92.94h0c0-1.82-1.46-3.28-3.28-3.28h0c-1.82,0-3.28,1.46-3.28,3.28h0c0,1.82,1.46,3.28,3.28,3.28h0c1.82,0,3.28-1.46,3.28-3.28Z" style="fill: #fff;"/>
              <path d="M280.31,102.79h0c1.82,0,3.28-1.46,3.28-3.28h0c0-1.82-1.46-3.28-3.28-3.28h0c-1.82,0-3.28,1.46-3.28,3.28h0c0,1.82,1.46,3.28,3.28,3.28Z" style="fill: #fff;"/>
              <path d="M277.03,92.94h0c0,1.81-1.47,3.28-3.28,3.28h0c-1.81,0-3.28-1.47-3.28-3.28h0c0-1.81,1.47-3.28,3.28-3.28h0c1.81,0,3.28,1.47,3.28,3.28Z" style="fill: #fff;"/>
              <path d="M263.9,86.38h0c0,1.82,1.46,3.28,3.28,3.28h0c1.82,0,3.28-1.46,3.28-3.28h0c0-1.82-1.46-3.28-3.28-3.28h0c-1.82,0-3.28,1.46-3.28,3.28Z" style="fill: #fff;"/>
              <path d="M237.63,73.25h0c0,1.82,1.46,3.28,3.28,3.28h0c1.82,0,3.28-1.46,3.28-3.28h0c0-1.82-1.46-3.28-3.28-3.28h0c-1.82,0-3.28,1.46-3.28,3.28Z" style="fill: #fff;"/>
              <path d="M247.48,83.09h0c1.82,0,3.28-1.46,3.28-3.28h0c0-1.82-1.46-3.28-3.28-3.28h0c-1.82,0-3.28,1.46-3.28,3.28h0c0,1.82,1.46,3.28,3.28,3.28Z" style="fill: #fff;"/>
              <path d="M283.6,33.85h0c0-1.82-1.46-3.28-3.28-3.28h0c-1.82,0-3.28,1.46-3.28,3.28h0c0,1.82,1.46,3.28,3.28,3.28h0c1.82,0,3.28-1.46,3.28-3.28Z" style="fill: #fff;"/>
              <path d="M231.07,66.68h0c0,1.82,1.46,3.28,3.28,3.28h0c1.82,0,3.28-1.46,3.28-3.28h0c0-1.82-1.46-3.28-3.28-3.28h0c-1.82,0-3.28,1.46-3.28,3.28Z" style="fill: #fff;"/>
              <path d="M267.18,63.4h0c1.82,0,3.28-1.46,3.28-3.28h0c0-1.82-1.46-3.28-3.28-3.28h0c-1.82,0-3.28,1.46-3.28,3.28h0c0,1.82,1.46,3.28,3.28,3.28Z" style="fill: #fff;"/>
              <path d="M237.64,27.28h0c0-1.82-1.46-3.28-3.28-3.28h0c-1.82,0-3.28,1.46-3.28,3.28h0c0,1.82,1.46,3.28,3.28,3.28h0c1.82,0,3.28-1.46,3.28-3.28Z" style="fill: #fff;"/>
            </g>
            <g>
              <path d="M313.09,17.44h0c-1.82,0-3.28,1.46-3.28,3.28h0c0,1.82,1.46,3.28,3.28,3.28h0c1.82,0,3.28-1.46,3.28-3.28h0c0-1.82-1.46-3.28-3.28-3.28Z" style="fill: #fff;"/>
              <path d="M303.25,27.28h0c0,1.82,1.46,3.28,3.28,3.28h0c1.82,0,3.28-1.46,3.28-3.28h0c0-1.82-1.46-3.28-3.28-3.28h0c-1.82,0-3.28,1.46-3.28,3.28Z" style="fill: #fff;"/>
              <path d="M322.94,27.28h0c0-1.82-1.46-3.28-3.28-3.28h0c-1.82,0-3.28,1.46-3.28,3.28h0c0,1.82,1.46,3.28,3.28,3.28h0c1.82,0,3.28-1.46,3.28-3.28Z" style="fill: #fff;"/>
              <path d="M313.09,30.57h0c-1.82,0-3.28,1.46-3.28,3.28h0c0,1.82,1.46,3.28,3.28,3.28h0c1.82,0,3.28-1.46,3.28-3.28h0c0-1.82-1.46-3.28-3.28-3.28Z" style="fill: #fff;"/>
              <path d="M313.09,43.7h0c-1.82,0-3.28,1.46-3.28,3.28h0c0,1.82,1.46,3.28,3.28,3.28h0c1.82,0,3.28-1.46,3.28-3.28h0c0-1.82-1.46-3.28-3.28-3.28Z" style="fill: #fff;"/>
              <path d="M303.25,40.42h0c0,1.82,1.46,3.28,3.28,3.28h0c1.82,0,3.28-1.46,3.28-3.28h0c0-1.82-1.46-3.28-3.28-3.28h0c-1.82,0-3.28,1.46-3.28,3.28Z" style="fill: #fff;"/>
              <path d="M322.94,40.42h0c0-1.82-1.46-3.28-3.28-3.28h0c-1.82,0-3.28,1.46-3.28,3.28h0c0,1.82,1.46,3.28,3.28,3.28h0c1.82,0,3.28-1.46,3.28-3.28Z" style="fill: #fff;"/>
              <path d="M303.25,53.55h0c0,1.82,1.46,3.28,3.28,3.28h0c1.82,0,3.28-1.46,3.28-3.28h0c0-1.82-1.46-3.28-3.28-3.28h0c-1.82,0-3.28,1.46-3.28,3.28Z" style="fill: #fff;"/>
              <path d="M303.25,66.68h0c0,1.82,1.46,3.28,3.28,3.28h0c1.82,0,3.28-1.46,3.28-3.28h0c0-1.82-1.46-3.28-3.28-3.28h0c-1.82,0-3.28,1.46-3.28,3.28Z" style="fill: #fff;"/>
              <path d="M313.09,56.83h0c-1.82,0-3.28,1.46-3.28,3.28h0c0,1.82,1.46,3.28,3.28,3.28h0c1.82,0,3.28-1.46,3.28-3.28h0c0-1.82-1.46-3.28-3.28-3.28Z" style="fill: #fff;"/>
              <path d="M322.94,53.55h0c0-1.82-1.46-3.28-3.28-3.28h0c-1.82,0-3.28,1.46-3.28,3.28h0c0,1.82,1.46,3.28,3.28,3.28h0c1.82,0,3.28-1.46,3.28-3.28Z" style="fill: #fff;"/>
              <path d="M322.94,86.38h0c0,1.82,1.46,3.28,3.28,3.28h0c1.82,0,3.28-1.46,3.28-3.28h0c0-1.82-1.46-3.28-3.28-3.28h0c-1.82,0-3.28,1.46-3.28,3.28Z" style="fill: #fff;"/>
              <path d="M322.94,92.94h0c0,1.81-1.47,3.28-3.28,3.28h0c-1.81,0-3.28-1.47-3.28-3.28h0c0-1.81,1.47-3.28,3.28-3.28h0c1.81,0,3.28,1.47,3.28,3.28Z" style="fill: #fff;"/>
              <path d="M352.49,83.09h0c-1.82,0-3.28,1.46-3.28,3.28h0c0,1.82,1.46,3.28,3.28,3.28h0c1.82,0,3.28-1.46,3.28-3.28h0c0-1.82-1.46-3.28-3.28-3.28Z" style="fill: #fff;"/>
              <path d="M313.09,69.96h0c-1.82,0-3.28,1.46-3.28,3.28h0c0,1.82,1.46,3.28,3.28,3.28h0c1.82,0,3.28-1.46,3.28-3.28h0c0-1.82-1.46-3.28-3.28-3.28Z" style="fill: #fff;"/>
              <path d="M309.81,86.38h0c0,1.82,1.46,3.28,3.28,3.28h0c1.82,0,3.28-1.46,3.28-3.28h0c0-1.82-1.46-3.28-3.28-3.28h0c-1.82,0-3.28,1.46-3.28,3.28Z" style="fill: #fff;"/>
              <path d="M329.51,92.94h0c0,1.82,1.46,3.28,3.28,3.28h0c1.82,0,3.28-1.46,3.28-3.28h0c0-1.82-1.46-3.28-3.28-3.28h0c-1.82,0-3.28,1.46-3.28,3.28Z" style="fill: #fff;"/>
              <path d="M322.94,99.51h0c0,1.82,1.46,3.28,3.28,3.28h0c1.82,0,3.28-1.46,3.28-3.28h0c0-1.82-1.46-3.28-3.28-3.28h0c-1.82,0-3.28,1.46-3.28,3.28Z" style="fill: #fff;"/>
              <path d="M339.36,102.79h0c1.82,0,3.28-1.46,3.28-3.28h0c0-1.82-1.46-3.28-3.28-3.28h0c-1.82,0-3.28,1.46-3.28,3.28h0c0,1.82,1.46,3.28,3.28,3.28Z" style="fill: #fff;"/>
              <path d="M352.49,102.79h0c1.82,0,3.28-1.46,3.28-3.28h0c0-1.82-1.46-3.28-3.28-3.28h0c-1.82,0-3.28,1.46-3.28,3.28h0c0,1.82,1.46,3.28,3.28,3.28Z" style="fill: #fff;"/>
              <path d="M342.64,92.94h0c0,1.82,1.46,3.28,3.28,3.28h0c1.82,0,3.28-1.46,3.28-3.28h0c0-1.82-1.46-3.28-3.28-3.28h0c-1.82,0-3.28,1.46-3.28,3.28Z" style="fill: #fff;"/>
              <path d="M359.09,96.23h0c1.82,0,3.28-1.46,3.28-3.28h0c0-1.82-1.46-3.28-3.28-3.28h0c-1.82,0-3.28,1.46-3.28,3.28h0c0,1.82,1.46,3.28,3.28,3.28Z" style="fill: #fff;"/>
              <path d="M303.25,79.81h0c0,1.82,1.46,3.28,3.28,3.28h0c1.82,0,3.28-1.46,3.28-3.28h0c0-1.82-1.46-3.28-3.28-3.28h0c-1.82,0-3.28,1.46-3.28,3.28Z" style="fill: #fff;"/>
              <path d="M322.94,79.81h0c0-1.82-1.46-3.28-3.28-3.28h0c-1.82,0-3.28,1.46-3.28,3.28h0c0,1.82,1.46,3.28,3.28,3.28h0c1.82,0,3.28-1.46,3.28-3.28Z" style="fill: #fff;"/>
              <path d="M365.65,17.44h0c-1.82,0-3.28,1.46-3.28,3.28h0c0,1.82,1.46,3.28,3.28,3.28h0c1.82,0,3.28-1.46,3.28-3.28h0c0-1.82-1.46-3.28-3.28-3.28Z" style="fill: #fff;"/>
              <path d="M355.8,27.28h0c0,1.82,1.46,3.28,3.28,3.28h0c1.82,0,3.28-1.46,3.28-3.28h0c0-1.82-1.46-3.28-3.28-3.28h0c-1.82,0-3.28,1.46-3.28,3.28Z" style="fill: #fff;"/>
              <path d="M375.5,27.29h0c0-1.82-1.46-3.28-3.28-3.28h0c-1.82,0-3.28,1.46-3.28,3.28h0c0,1.82,1.46,3.28,3.28,3.28h0c1.82,0,3.28-1.46,3.28-3.28Z" style="fill: #fff;"/>
              <path d="M362.37,33.85h0c0,1.82,1.46,3.28,3.28,3.28h0c1.82,0,3.28-1.46,3.28-3.28h0c0-1.82-1.46-3.28-3.28-3.28h0c-1.82,0-3.28,1.46-3.28,3.28Z" style="fill: #fff;"/>
              <path d="M368.94,46.98h0c0,1.81-1.47,3.28-3.28,3.28h0c-1.81,0-3.28-1.47-3.28-3.28h0c0-1.81,1.47-3.28,3.28-3.28h0c1.81,0,3.28,1.47,3.28,3.28Z" style="fill: #fff;"/>
              <path d="M355.8,40.42h0c0,1.82,1.46,3.28,3.28,3.28h0c1.82,0,3.28-1.46,3.28-3.28h0c0-1.82-1.46-3.28-3.28-3.28h0c-1.82,0-3.28,1.46-3.28,3.28Z" style="fill: #fff;"/>
              <path d="M375.5,40.42h0c0-1.82-1.46-3.28-3.28-3.28h0c-1.82,0-3.28,1.46-3.28,3.28h0c0,1.82,1.46,3.28,3.28,3.28h0c1.82,0,3.28-1.46,3.28-3.28Z" style="fill: #fff;"/>
              <path d="M355.8,53.55h0c0,1.82,1.46,3.28,3.28,3.28h0c1.82,0,3.28-1.46,3.28-3.28h0c0-1.82-1.46-3.28-3.28-3.28h0c-1.82,0-3.28,1.46-3.28,3.28Z" style="fill: #fff;"/>
              <path d="M375.5,53.55h0c0-1.82-1.46-3.28-3.28-3.28h0c-1.82,0-3.28,1.46-3.28,3.28h0c0,1.82,1.46,3.28,3.28,3.28h0c1.82,0,3.28-1.46,3.28-3.28Z" style="fill: #fff;"/>
              <path d="M375.5,66.68h0c0-1.82-1.46-3.28-3.28-3.28h0c-1.82,0-3.28,1.46-3.28,3.28h0c0,1.82,1.46,3.28,3.28,3.28h0c1.82,0,3.28-1.46,3.28-3.28Z" style="fill: #fff;"/>
              <path d="M365.65,63.4h0c1.82,0,3.28-1.46,3.28-3.28h0c0-1.82-1.46-3.28-3.28-3.28h0c-1.82,0-3.28,1.46-3.28,3.28h0c0,1.82,1.46,3.28,3.28,3.28Z" style="fill: #fff;"/>
              <path d="M322.94,66.68h0c0-1.82-1.46-3.28-3.28-3.28h0c-1.82,0-3.28,1.46-3.28,3.28h0c0,1.82,1.46,3.28,3.28,3.28h0c1.82,0,3.28-1.46,3.28-3.28Z" style="fill: #fff;"/>
              <path d="M355.8,66.68h0c0,1.82,1.46,3.28,3.28,3.28h0c1.82,0,3.28-1.46,3.28-3.28h0c0-1.82-1.46-3.28-3.28-3.28h0c-1.82,0-3.28,1.46-3.28,3.28Z" style="fill: #fff;"/>
              <path d="M365.65,76.53h0c1.82,0,3.28-1.46,3.28-3.28h0c0-1.82-1.46-3.28-3.28-3.28h0c-1.82,0-3.28,1.46-3.28,3.28h0c0,1.82,1.46,3.28,3.28,3.28Z" style="fill: #fff;"/>
              <path d="M365.65,89.66h0c1.82,0,3.28-1.46,3.28-3.28h0c0-1.82-1.46-3.28-3.28-3.28h0c-1.82,0-3.28,1.46-3.28,3.28h0c0,1.82,1.46,3.28,3.28,3.28Z" style="fill: #fff;"/>
              <path d="M359.09,76.53h0c-1.82,0-3.28,1.46-3.28,3.28h0c0,1.82,1.46,3.28,3.28,3.28h0c1.82,0,3.28-1.46,3.28-3.28h0c0-1.82-1.46-3.28-3.28-3.28Z" style="fill: #fff;"/>
              <path d="M375.5,79.81h0c0-1.82-1.46-3.28-3.28-3.28h0c-1.82,0-3.28,1.46-3.28,3.28h0c0,1.82,1.46,3.28,3.28,3.28h0c1.82,0,3.28-1.46,3.28-3.28Z" style="fill: #fff;"/>
            </g>
            <g>
              <path d="M434.5,20.72h0c0,1.82,1.46,3.28,3.28,3.28h0c1.82,0,3.28-1.46,3.28-3.28h0c0-1.82-1.46-3.28-3.28-3.28h0c-1.82,0-3.28,1.46-3.28,3.28Z" style="fill: #fff;"/>
              <path d="M431.21,30.57h0c1.82,0,3.28-1.46,3.28-3.28h0c0-1.82-1.46-3.28-3.28-3.28h0c-1.82,0-3.28,1.46-3.28,3.28h0c0,1.82,1.46,3.28,3.28,3.28Z" style="fill: #fff;"/>
              <path d="M441.06,27.29h0c0,1.82,1.46,3.28,3.28,3.28h0c1.82,0,3.28-1.46,3.28-3.28h0c0-1.82-1.46-3.28-3.28-3.28h0c-1.82,0-3.28,1.46-3.28,3.28Z" style="fill: #fff;"/>
              <path d="M450.91,17.44h0c-1.82,0-3.28,1.46-3.28,3.28h0c0,1.82,1.46,3.28,3.28,3.28h0c1.82,0,3.28-1.46,3.28-3.28h0c0-1.82-1.46-3.28-3.28-3.28Z" style="fill: #fff;"/>
              <path d="M454.19,27.29h0c0,1.82,1.46,3.28,3.28,3.28h0c1.82,0,3.28-1.46,3.28-3.28h0c0-1.82-1.46-3.28-3.28-3.28h0c-1.82,0-3.28,1.46-3.28,3.28Z" style="fill: #fff;"/>
              <path d="M450.91,37.13h0c1.82,0,3.28-1.46,3.28-3.28h0c0-1.82-1.46-3.28-3.28-3.28h0c-1.82,0-3.28,1.46-3.28,3.28h0c0,1.82,1.46,3.28,3.28,3.28Z" style="fill: #fff;"/>
              <path d="M408.23,20.72h0c0,1.82,1.46,3.28,3.28,3.28h0c1.82,0,3.28-1.46,3.28-3.28h0c0-1.82-1.46-3.28-3.28-3.28h0c-1.82,0-3.28,1.46-3.28,3.28Z" style="fill: #fff;"/>
              <path d="M404.95,30.57h0c1.82,0,3.28-1.46,3.28-3.28h0c0-1.82-1.46-3.28-3.28-3.28h0c-1.82,0-3.28,1.46-3.28,3.28h0c0,1.82,1.46,3.28,3.28,3.28Z" style="fill: #fff;"/>
              <path d="M398.38,17.44h0c-1.82,0-3.28,1.46-3.28,3.28h0c0,1.82,1.46,3.28,3.28,3.28h0c1.82,0,3.28-1.46,3.28-3.28h0c0-1.82-1.46-3.28-3.28-3.28Z" style="fill: #fff;"/>
              <path d="M388.54,27.29h0c0,1.82,1.46,3.28,3.28,3.28h0c1.82,0,3.28-1.46,3.28-3.28h0c0-1.82-1.46-3.28-3.28-3.28h0c-1.82,0-3.28,1.46-3.28,3.28Z" style="fill: #fff;"/>
              <path d="M398.38,37.13h0c1.82,0,3.28-1.46,3.28-3.28h0c0-1.82-1.46-3.28-3.28-3.28h0c-1.82,0-3.28,1.46-3.28,3.28h0c0,1.82,1.46,3.28,3.28,3.28Z" style="fill: #fff;"/>
              <path d="M434.5,79.81h0c0-1.82-1.46-3.28-3.28-3.28h0c-1.82,0-3.28,1.46-3.28,3.28h0c0,1.82,1.46,3.28,3.28,3.28h0c1.82,0,3.28-1.46,3.28-3.28Z" style="fill: #fff;"/>
              <path d="M414.8,79.81h0c0,1.82,1.46,3.28,3.28,3.28h0c1.82,0,3.28-1.46,3.28-3.28h0c0-1.82-1.46-3.28-3.28-3.28h0c-1.82,0-3.28,1.46-3.28,3.28Z" style="fill: #fff;"/>
              <path d="M424.65,76.53h0c1.82,0,3.28-1.46,3.28-3.28h0c0-1.82-1.46-3.28-3.28-3.28h0c-1.82,0-3.28,1.46-3.28,3.28h0c0,1.82,1.46,3.28,3.28,3.28Z" style="fill: #fff;"/>
              <path d="M424.65,89.66h0c1.82,0,3.28-1.46,3.28-3.28h0c0-1.82-1.46-3.28-3.28-3.28h0c-1.82,0-3.28,1.46-3.28,3.28h0c0,1.82,1.46,3.28,3.28,3.28Z" style="fill: #fff;"/>
              <path d="M434.5,92.94h0c0-1.82-1.46-3.28-3.28-3.28h0c-1.82,0-3.28,1.46-3.28,3.28h0c0,1.82,1.46,3.28,3.28,3.28h0c1.82,0,3.28-1.46,3.28-3.28Z" style="fill: #fff;"/>
              <path d="M421.36,92.94h0c0,1.81-1.47,3.28-3.28,3.28h0c-1.81,0-3.28-1.47-3.28-3.28h0c0-1.81,1.47-3.28,3.28-3.28h0c1.81,0,3.28,1.47,3.28,3.28Z" style="fill: #fff;"/>
              <path d="M424.65,102.79h0c1.82,0,3.28-1.46,3.28-3.28h0c0-1.82-1.46-3.28-3.28-3.28h0c-1.82,0-3.28,1.46-3.28,3.28h0c0,1.82,1.46,3.28,3.28,3.28Z" style="fill: #fff;"/>
              <path d="M424.65,63.4h0c1.82,0,3.28-1.46,3.28-3.28h0c0-1.82-1.46-3.28-3.28-3.28h0c-1.82,0-3.28,1.46-3.28,3.28h0c0,1.82,1.46,3.28,3.28,3.28Z" style="fill: #fff;"/>
              <path d="M414.8,66.68h0c0,1.82,1.46,3.28,3.28,3.28h0c1.82,0,3.28-1.46,3.28-3.28h0c0-1.82-1.46-3.28-3.28-3.28h0c-1.82,0-3.28,1.46-3.28,3.28Z" style="fill: #fff;"/>
              <path d="M414.8,53.55h0c0,1.82,1.46,3.28,3.28,3.28h0c1.82,0,3.28-1.46,3.28-3.28h0c0-1.82-1.46-3.28-3.28-3.28h0c-1.82,0-3.28,1.46-3.28,3.28Z" style="fill: #fff;"/>
              <path d="M434.5,53.55h0c0-1.82-1.46-3.28-3.28-3.28h0c-1.82,0-3.28,1.46-3.28,3.28h0c0,1.82,1.46,3.28,3.28,3.28h0c1.82,0,3.28-1.46,3.28-3.28Z" style="fill: #fff;"/>
              <path d="M434.5,40.42h0c0-1.82-1.46-3.28-3.28-3.28h0c-1.82,0-3.28,1.46-3.28,3.28h0c0,1.82,1.46,3.28,3.28,3.28h0c1.82,0,3.28-1.46,3.28-3.28Z" style="fill: #fff;"/>
              <path d="M424.65,50.27h0c1.82,0,3.28-1.46,3.28-3.28h0c0-1.82-1.46-3.28-3.28-3.28h0c-1.82,0-3.28,1.46-3.28,3.28h0c0,1.82,1.46,3.28,3.28,3.28Z" style="fill: #fff;"/>
              <path d="M424.65,37.13h0c1.82,0,3.28-1.46,3.28-3.28h0c0-1.82-1.46-3.28-3.28-3.28h0c-1.82,0-3.28,1.46-3.28,3.28h0c0,1.82,1.46,3.28,3.28,3.28Z" style="fill: #fff;"/>
              <path d="M414.8,40.42h0c0,1.82,1.46,3.28,3.28,3.28h0c1.82,0,3.28-1.46,3.28-3.28h0c0-1.82-1.46-3.28-3.28-3.28h0c-1.82,0-3.28,1.46-3.28,3.28Z" style="fill: #fff;"/>
              <path d="M414.8,27.29h0c0,1.82,1.46,3.28,3.28,3.28h0c1.82,0,3.28-1.46,3.28-3.28h0c0-1.82-1.46-3.28-3.28-3.28h0c-1.82,0-3.28,1.46-3.28,3.28Z" style="fill: #fff;"/>
              <path d="M424.65,17.44h0c-1.82,0-3.28,1.46-3.28,3.28h0c0,1.82,1.46,3.28,3.28,3.28h0c1.82,0,3.28-1.46,3.28-3.28h0c0-1.82-1.46-3.28-3.28-3.28Z" style="fill: #fff;"/>
              <path d="M434.5,66.68h0c0-1.82-1.46-3.28-3.28-3.28h0c-1.82,0-3.28,1.46-3.28,3.28h0c0,1.82,1.46,3.28,3.28,3.28h0c1.82,0,3.28-1.46,3.28-3.28Z" style="fill: #fff;"/>
            </g>
            <g>
              <path d="M505.8,50.27h0c-1.82,0-3.28,1.46-3.28,3.28h0c0,1.82,1.46,3.28,3.28,3.28h0c1.82,0,3.28-1.46,3.28-3.28h0c0-1.82-1.46-3.28-3.28-3.28Z" style="fill: #fff;"/>
              <path d="M486.1,102.79h0c1.82,0,3.28-1.46,3.28-3.28h0c0-1.82-1.46-3.28-3.28-3.28h0c-1.82,0-3.28,1.46-3.28,3.28h0c0,1.82,1.46,3.28,3.28,3.28Z" style="fill: #fff;"/>
              <path d="M476.25,92.94h0c0,1.82,1.46,3.28,3.28,3.28h0c1.82,0,3.28-1.46,3.28-3.28h0c0-1.82-1.46-3.28-3.28-3.28h0c-1.82,0-3.28,1.46-3.28,3.28Z" style="fill: #fff;"/>
              <path d="M495.95,92.94h0c0-1.82-1.46-3.28-3.28-3.28h0c-1.82,0-3.28,1.46-3.28,3.28h0c0,1.82,1.46,3.28,3.28,3.28h0c1.82,0,3.28-1.46,3.28-3.28Z" style="fill: #fff;"/>
              <path d="M495.95,79.81h0c0-1.82-1.46-3.28-3.28-3.28h0c-1.82,0-3.28,1.46-3.28,3.28h0c0,1.82,1.46,3.28,3.28,3.28h0c1.82,0,3.28-1.46,3.28-3.28Z" style="fill: #fff;"/>
              <path d="M486.1,76.53h0c1.82,0,3.28-1.46,3.28-3.28h0c0-1.82-1.46-3.28-3.28-3.28h0c-1.82,0-3.28,1.46-3.28,3.28h0c0,1.82,1.46,3.28,3.28,3.28Z" style="fill: #fff;"/>
              <path d="M486.1,89.66h0c1.82,0,3.28-1.46,3.28-3.28h0c0-1.82-1.46-3.28-3.28-3.28h0c-1.82,0-3.28,1.46-3.28,3.28h0c0,1.82,1.46,3.28,3.28,3.28Z" style="fill: #fff;"/>
              <path d="M476.25,79.81h0c0,1.82,1.46,3.28,3.28,3.28h0c1.82,0,3.28-1.46,3.28-3.28h0c0-1.82-1.46-3.28-3.28-3.28h0c-1.82,0-3.28,1.46-3.28,3.28Z" style="fill: #fff;"/>
              <path d="M486.1,56.83h0c-1.82,0-3.28,1.46-3.28,3.28h0c0,1.82,1.46,3.28,3.28,3.28h0c1.82,0,3.28-1.46,3.28-3.28h0c0-1.82-1.46-3.28-3.28-3.28Z" style="fill: #fff;"/>
              <path d="M476.25,66.68h0c0,1.82,1.46,3.28,3.28,3.28h0c1.82,0,3.28-1.46,3.28-3.28h0c0-1.82-1.46-3.28-3.28-3.28h0c-1.82,0-3.28,1.46-3.28,3.28Z" style="fill: #fff;"/>
              <path d="M476.25,53.55h0c0,1.82,1.46,3.28,3.28,3.28h0c1.82,0,3.28-1.46,3.28-3.28h0c0-1.82-1.46-3.28-3.28-3.28h0c-1.82,0-3.28,1.46-3.28,3.28Z" style="fill: #fff;"/>
              <path d="M495.95,53.55h0c0-1.82-1.46-3.28-3.28-3.28h0c-1.82,0-3.28,1.46-3.28,3.28h0c0,1.82,1.46,3.28,3.28,3.28h0c1.82,0,3.28-1.46,3.28-3.28Z" style="fill: #fff;"/>
              <path d="M505.8,69.96h0c1.82,0,3.28-1.46,3.28-3.28h0c0-1.82-1.46-3.28-3.28-3.28h0c-1.82,0-3.28,1.46-3.28,3.28h0c0,1.82,1.46,3.28,3.28,3.28Z" style="fill: #fff;"/>
              <path d="M509.08,60.11h0c0,1.82,1.46,3.28,3.28,3.28h0c1.82,0,3.28-1.46,3.28-3.28h0c0-1.82-1.46-3.28-3.28-3.28h0c-1.82,0-3.28,1.46-3.28,3.28Z" style="fill: #fff;"/>
              <path d="M518.93,50.27h0c-1.82,0-3.28,1.46-3.28,3.28h0c0,1.82,1.46,3.28,3.28,3.28h0c1.82,0,3.28-1.46,3.28-3.28h0c0-1.82-1.46-3.28-3.28-3.28Z" style="fill: #fff;"/>
              <path d="M518.93,69.96h0c1.82,0,3.28-1.46,3.28-3.28h0c0-1.82-1.46-3.28-3.28-3.28h0c-1.82,0-3.28,1.46-3.28,3.28h0c0,1.82,1.46,3.28,3.28,3.28Z" style="fill: #fff;"/>
              <path d="M522.21,60.11h0c0,1.82,1.46,3.28,3.28,3.28h0c1.82,0,3.28-1.46,3.28-3.28h0c0-1.82-1.46-3.28-3.28-3.28h0c-1.82,0-3.28,1.46-3.28,3.28Z" style="fill: #fff;"/>
              <path d="M495.95,60.11h0c0,1.82,1.46,3.28,3.28,3.28h0c1.82,0,3.28-1.46,3.28-3.28h0c0-1.82-1.46-3.28-3.28-3.28h0c-1.82,0-3.28,1.46-3.28,3.28Z" style="fill: #fff;"/>
              <path d="M486.1,43.7h0c-1.82,0-3.28,1.46-3.28,3.28h0c0,1.82,1.46,3.28,3.28,3.28h0c1.82,0,3.28-1.46,3.28-3.28h0c0-1.82-1.46-3.28-3.28-3.28Z" style="fill: #fff;"/>
              <path d="M486.1,30.57h0c-1.82,0-3.28,1.46-3.28,3.28h0c0,1.82,1.46,3.28,3.28,3.28h0c1.82,0,3.28-1.46,3.28-3.28h0c0-1.82-1.46-3.28-3.28-3.28Z" style="fill: #fff;"/>
              <path d="M476.25,40.42h0c0,1.82,1.46,3.28,3.28,3.28h0c1.82,0,3.28-1.46,3.28-3.28h0c0-1.82-1.46-3.28-3.28-3.28h0c-1.82,0-3.28,1.46-3.28,3.28Z" style="fill: #fff;"/>
              <path d="M495.95,40.42h0c0-1.82-1.46-3.28-3.28-3.28h0c-1.82,0-3.28,1.46-3.28,3.28h0c0,1.82,1.46,3.28,3.28,3.28h0c1.82,0,3.28-1.46,3.28-3.28Z" style="fill: #fff;"/>
              <path d="M492.67,69.96h0c1.82,0,3.28-1.46,3.28-3.28h0c0-1.82-1.46-3.28-3.28-3.28h0c-1.82,0-3.28,1.46-3.28,3.28h0c0,1.82,1.46,3.28,3.28,3.28Z" style="fill: #fff;"/>
              <path d="M486.1,17.44h0c-1.82,0-3.28,1.46-3.28,3.28h0c0,1.82,1.46,3.28,3.28,3.28h0c1.82,0,3.28-1.46,3.28-3.28h0c0-1.82-1.46-3.28-3.28-3.28Z" style="fill: #fff;"/>
              <path d="M528.78,27.29h0c0,1.82,1.46,3.28,3.28,3.28h0c1.82,0,3.28-1.46,3.28-3.28h0c0-1.82-1.46-3.28-3.28-3.28h0c-1.82,0-3.28,1.46-3.28,3.28Z" style="fill: #fff;"/>
              <path d="M538.63,50.27h0c1.82,0,3.28-1.46,3.28-3.28h0c0-1.82-1.46-3.28-3.28-3.28h0c-1.82,0-3.28,1.46-3.28,3.28h0c0,1.82,1.46,3.28,3.28,3.28Z" style="fill: #fff;"/>
              <path d="M548.47,40.42h0c0-1.82-1.46-3.28-3.28-3.28h0c-1.82,0-3.28,1.46-3.28,3.28h0c0,1.82,1.46,3.28,3.28,3.28h0c1.82,0,3.28-1.46,3.28-3.28Z" style="fill: #fff;"/>
              <path d="M548.47,27.29h0c0-1.82-1.46-3.28-3.28-3.28h0c-1.82,0-3.28,1.46-3.28,3.28h0c0,1.82,1.46,3.28,3.28,3.28h0c1.82,0,3.28-1.46,3.28-3.28Z" style="fill: #fff;"/>
              <path d="M528.78,40.42h0c0,1.82,1.46,3.28,3.28,3.28h0c1.82,0,3.28-1.46,3.28-3.28h0c0-1.82-1.46-3.28-3.28-3.28h0c-1.82,0-3.28,1.46-3.28,3.28Z" style="fill: #fff;"/>
              <path d="M532.06,50.27h0c-1.82,0-3.28,1.46-3.28,3.28h0c0,1.82,1.46,3.28,3.28,3.28h0c1.82,0,3.28-1.46,3.28-3.28h0c0-1.82-1.46-3.28-3.28-3.28Z" style="fill: #fff;"/>
              <path d="M548.47,53.55h0c0-1.82-1.46-3.28-3.28-3.28h0c-1.82,0-3.28,1.46-3.28,3.28h0c0,1.82,1.46,3.28,3.28,3.28h0c1.82,0,3.28-1.46,3.28-3.28Z" style="fill: #fff;"/>
              <path d="M548.47,66.68h0c0-1.82-1.46-3.28-3.28-3.28h0c-1.82,0-3.28,1.46-3.28,3.28h0c0,1.82,1.46,3.28,3.28,3.28h0c1.82,0,3.28-1.46,3.28-3.28Z" style="fill: #fff;"/>
              <path d="M548.47,92.94h0c0-1.82-1.46-3.28-3.28-3.28h0c-1.82,0-3.28,1.46-3.28,3.28h0c0,1.82,1.46,3.28,3.28,3.28h0c1.82,0,3.28-1.46,3.28-3.28Z" style="fill: #fff;"/>
              <path d="M548.47,79.81h0c0-1.82-1.46-3.28-3.28-3.28h0c-1.82,0-3.28,1.46-3.28,3.28h0c0,1.82,1.46,3.28,3.28,3.28h0c1.82,0,3.28-1.46,3.28-3.28Z" style="fill: #fff;"/>
              <path d="M528.78,66.68h0c0,1.82,1.46,3.28,3.28,3.28h0c1.82,0,3.28-1.46,3.28-3.28h0c0-1.82-1.46-3.28-3.28-3.28h0c-1.82,0-3.28,1.46-3.28,3.28Z" style="fill: #fff;"/>
              <path d="M535.34,33.85h0c0,1.82,1.46,3.28,3.28,3.28h0c1.82,0,3.28-1.46,3.28-3.28h0c0-1.82-1.46-3.28-3.28-3.28h0c-1.82,0-3.28,1.46-3.28,3.28Z" style="fill: #fff;"/>
              <path d="M538.63,17.44h0c-1.82,0-3.28,1.46-3.28,3.28h0c0,1.82,1.46,3.28,3.28,3.28h0c1.82,0,3.28-1.46,3.28-3.28h0c0-1.82-1.46-3.28-3.28-3.28Z" style="fill: #fff;"/>
              <path d="M538.63,63.4h0c1.82,0,3.28-1.46,3.28-3.28h0c0-1.82-1.46-3.28-3.28-3.28h0c-1.82,0-3.28,1.46-3.28,3.28h0c0,1.82,1.46,3.28,3.28,3.28Z" style="fill: #fff;"/>
              <path d="M538.63,76.53h0c1.82,0,3.28-1.46,3.28-3.28h0c0-1.82-1.46-3.28-3.28-3.28h0c-1.82,0-3.28,1.46-3.28,3.28h0c0,1.82,1.46,3.28,3.28,3.28Z" style="fill: #fff;"/>
              <path d="M538.63,89.66h0c1.82,0,3.28-1.46,3.28-3.28h0c0-1.82-1.46-3.28-3.28-3.28h0c-1.82,0-3.28,1.46-3.28,3.28h0c0,1.82,1.46,3.28,3.28,3.28Z" style="fill: #fff;"/>
              <path d="M538.63,102.79h0c1.82,0,3.28-1.46,3.28-3.28h0c0-1.82-1.46-3.28-3.28-3.28h0c-1.82,0-3.28,1.46-3.28,3.28h0c0,1.82,1.46,3.28,3.28,3.28Z" style="fill: #fff;"/>
              <path d="M528.78,92.94h0c0,1.82,1.46,3.28,3.28,3.28h0c1.82,0,3.28-1.46,3.28-3.28h0c0-1.82-1.46-3.28-3.28-3.28h0c-1.82,0-3.28,1.46-3.28,3.28Z" style="fill: #fff;"/>
              <path d="M528.78,79.81h0c0,1.82,1.46,3.28,3.28,3.28h0c1.82,0,3.28-1.46,3.28-3.28h0c0-1.82-1.46-3.28-3.28-3.28h0c-1.82,0-3.28,1.46-3.28,3.28Z" style="fill: #fff;"/>
              <path d="M476.25,27.29h0c0,1.82,1.46,3.28,3.28,3.28h0c1.82,0,3.28-1.46,3.28-3.28h0c0-1.82-1.46-3.28-3.28-3.28h0c-1.82,0-3.28,1.46-3.28,3.28Z" style="fill: #fff;"/>
              <path d="M495.95,27.29h0c0-1.82-1.46-3.28-3.28-3.28h0c-1.82,0-3.28,1.46-3.28,3.28h0c0,1.82,1.46,3.28,3.28,3.28h0c1.82,0,3.28-1.46,3.28-3.28Z" style="fill: #fff;"/>
            </g>
          </g>
        </g>
      </g>
      <g style="filter: url(#drop-shadow-4);">
        <path d="M8.39,137.27h10.11v34.71h.23c1.61-2.87,4.14-5.4,7.24-7.13,2.99-1.72,6.55-2.87,10.34-2.87,7.47,0,19.42,4.6,19.42,23.79v33.1h-10.11v-31.95c0-8.96-3.33-16.55-12.87-16.55-6.55,0-11.72,4.6-13.56,10.11-.57,1.38-.69,2.87-.69,4.83v33.56h-10.11v-81.6Z" style="fill: #fff;"/>
        <path d="M77.81,192.89c.23,13.68,8.96,19.31,19.08,19.31,7.24,0,11.61-1.26,15.4-2.87l1.72,7.24c-3.56,1.61-9.65,3.45-18.5,3.45-17.12,0-27.35-11.26-27.35-28.04s9.88-30,26.09-30c18.16,0,22.99,15.97,22.99,26.2,0,2.07-.23,3.68-.34,4.71h-39.08ZM107.46,185.65c.11-6.44-2.64-16.43-14.02-16.43-10.23,0-14.71,9.42-15.52,16.43h29.54Z" style="fill: #fff;"/>
        <path d="M160.56,218.87l-.8-7.01h-.34c-3.1,4.37-9.08,8.28-17.01,8.28-11.26,0-17.01-7.93-17.01-15.98,0-13.45,11.95-20.8,33.44-20.69v-1.15c0-4.6-1.26-12.87-12.64-12.87-5.17,0-10.57,1.61-14.48,4.14l-2.3-6.67c4.6-2.99,11.26-4.94,18.27-4.94,17.01,0,21.15,11.61,21.15,22.76v20.8c0,4.83.23,9.54.92,13.33h-9.19ZM159.07,190.48c-11.03-.23-23.56,1.72-23.56,12.53,0,6.55,4.37,9.65,9.54,9.65,7.24,0,11.84-4.6,13.45-9.31.34-1.03.57-2.18.57-3.22v-9.65Z" style="fill: #fff;"/>
        <path d="M188.15,163.24l10.92,31.26c1.84,5.06,3.33,9.65,4.48,14.25h.35c1.26-4.6,2.87-9.2,4.71-14.25l10.8-31.26h10.57l-21.84,55.63h-9.65l-21.15-55.63h10.8Z" style="fill: #fff;"/>
        <path d="M244.58,163.24l12.18,32.87c1.26,3.68,2.64,8.04,3.56,11.38h.23c1.03-3.33,2.18-7.58,3.56-11.61l11.03-32.64h10.69l-15.17,39.65c-7.24,19.08-12.18,28.85-19.08,34.82-4.94,4.37-9.88,6.09-12.41,6.55l-2.53-8.5c2.53-.8,5.86-2.41,8.85-4.94,2.76-2.18,6.21-6.09,8.5-11.26.46-1.03.8-1.84.8-2.41s-.23-1.38-.69-2.64l-20.57-51.26h11.03Z" style="fill: #fff;"/>
        <path d="M331.58,147.27v15.97h14.48v7.7h-14.48v30c0,6.9,1.95,10.8,7.59,10.8,2.64,0,4.6-.34,5.86-.69l.46,7.59c-1.95.8-5.06,1.38-8.96,1.38-4.71,0-8.5-1.49-10.92-4.25-2.87-2.99-3.91-7.93-3.91-14.48v-30.34h-8.62v-7.7h8.62v-13.33l9.88-2.64Z" style="fill: #fff;"/>
        <path d="M407.1,190.59c0,20.57-14.25,29.54-27.7,29.54-15.06,0-26.66-11.03-26.66-28.62,0-18.62,12.18-29.54,27.58-29.54s26.78,11.61,26.78,28.62ZM362.96,191.17c0,12.18,7.01,21.38,16.89,21.38s16.9-9.08,16.9-21.61c0-9.42-4.71-21.38-16.67-21.38s-17.12,11.03-17.12,21.61Z" style="fill: #fff;"/>
      </g>
    </g>
  </g>
</svg>