<svg fill="none" height="24" viewBox="0 0 24 24" width="24" xmlns="http://www.w3.org/2000/svg">
    <g stroke="#ffffff" stroke-linecap="round" stroke-linejoin="round" stroke-width="1.5">
        <path d="m6.70117 9.26001 5.30003 3.06999 5.26-3.04999" />
        <path d="m12.002 17.7701v-5.45" />
        <path
            d="m6.23047 10.3001c0-.82998.58998-1.83998 1.31998-2.23998l3.20005-1.78c.68-.38 1.7999-.38 2.4899 0l3.2001 1.78c.72.4 1.32 1.41 1.32 2.23998v3.39c0 .83-.59 1.84-1.32 2.24l-3.2001 1.78c-.68.38-1.7999.38-2.4899 0l-3.20005-1.78c-.36-.2-.69-.55-.93-.96" />
        <path d="m22 15c0 3.87-3.13 7-7 7l1.05-1.75" />
        <path d="m2 9c0-3.87 3.13-7 7-7l-1.04999 1.75" />
    </g>
</svg>