<?xml version="1.0" encoding="UTF-8"?>
<svg id="Layer_2" data-name="Layer 2" xmlns="http://www.w3.org/2000/svg" viewBox="0 0 242.22 101.37">
  <defs>
    <style>
      .cls-1 {
        fill: #6644b1;
      }
    </style>
  </defs>
  <g id="Layer_1-2" data-name="Layer 1">
    <g>
      <path class="cls-1" d="M39.04,3.11c.1.13.23.36.38.68.15.32.21.81.18,1.46-.04.65-.19,1.53-.48,2.62-.29,1.09-.83,2.46-1.64,4.11-.77,1.65-1.47,3.37-2.09,5.16-.62,1.79-1.16,3.72-1.61,5.77-.45,2.05-.8,4.23-1.03,6.55-.24,2.32-.37,4.82-.4,7.5-.4.1-.81.2-1.21.3-.37.07-.79.13-1.26.18-.47.05-.94.04-1.41-.02-.6.13-1.23.09-1.87-.13-.64-.22-1.23-.71-1.76-1.49-.64-1.71-1.21-3.46-1.71-5.24-.51-1.78-.96-3.55-1.36-5.31-.4-1.76-.76-3.48-1.06-5.16-.3-1.68-.59-3.26-.86-4.73-.47,1.41-.98,3.01-1.54,4.81-.55,1.79-1.09,3.65-1.61,5.56-.52,1.91-.98,3.83-1.36,5.74-.39,1.91-.63,3.68-.73,5.29-.54.17-1.07.29-1.61.35-.47.07-.96.06-1.46-.02-.51-.08-.94-.31-1.31-.68l-.15.2c-.07.07-.15.04-.25-.1-.1-.14-.18-.29-.25-.45-.13-.2-.24-.45-.3-.76v.91c0,.24,0,.43,0,.6s-.02.25-.05.25c-.24,0-.4-.15-.51-.45-.1-.47-.27-1.41-.5-2.82-.24-1.41-.53-3.06-.88-4.96-.35-1.9-.75-3.95-1.18-6.17-.44-2.22-.91-4.38-1.41-6.5-.51-2.12-1.04-4.08-1.61-5.89-.57-1.81-1.14-3.29-1.71-4.43-.51-.17-.91-.41-1.21-.73-.3-.32-.27-.61.1-.88,1.81-.97,3.51-1.41,5.09-1.31.67.04,1.34.19,2.01.48.67.29,1.3.74,1.89,1.36.59.62,1.12,1.46,1.59,2.52.47,1.06.82,2.39,1.06,4.01.27,1.71.49,3.37.65,4.98.17,1.61.3,3.17.4,4.68.87-2.35,1.78-4.62,2.72-6.8.94-2.18,1.88-4.04,2.82-5.59-.04-.13-.07-.26-.1-.38-.04-.12-.07-.23-.1-.33-.2-.07-.33-.2-.38-.4-.05-.2.06-.38.33-.55,1.34-.47,2.53-.65,3.55-.55,1.02.1,1.69.65,1.99,1.66.47,1.48.91,3.48,1.34,5.99.42,2.52.96,5.26,1.64,8.21,1.24-3.96,2.63-7.73,4.15-11.31,1.53-3.58,3.13-6.84,4.81-9.8.07,0,.13.09.2.25.03.1.05.18.05.25l.65-.4c.07.17.13.32.2.45.1.24.22.42.35.55.1.07.24.14.43.23.18.09.38.17.58.25.2.09.38.17.53.25.15.1.25.16.28.19Z"/>
      <path class="cls-1" d="M36.27,20.24c0-3.26.29-5.96.88-8.11.59-2.15,1.23-3.87,1.94-5.16.71-1.29,1.37-2.21,1.99-2.75.62-.54.96-.82,1.03-.85.6-.34,1.27-.42,2.01-.25.74.17,1.43.47,2.07.91.64.43,1.17.93,1.59,1.49.42.55.63,1.07.63,1.54,0,.34-.23.76-.68,1.29-.45.52-.96,1.27-1.51,2.24-.55.98-1.06,2.23-1.51,3.78-.45,1.54-.68,3.48-.68,5.79,0,2.45.25,4.5.76,6.14.51,1.65,1.08,2.97,1.74,3.98.65,1.01,1.3,1.73,1.94,2.17.64.44,1.07.67,1.31.71.4.04.95-.22,1.64-.76.69-.54,1.37-1.39,2.04-2.57.67-1.18,1.25-2.66,1.74-4.46.49-1.79.73-3.94.73-6.42,0-1.54-.11-2.9-.33-4.08-.22-1.18-.49-2.19-.83-3.05-.34-.86-.73-1.57-1.18-2.14-.45-.57-.9-1.04-1.34-1.41-1.11-.84-2.34-1.28-3.68-1.31l-.35-.1.4-.2c.2-.1.29-.22.25-.35-.04-.04.17-.04.6,0,.43.04.95.13,1.54.28.59.15,1.18.37,1.76.65.59.29,1.01.66,1.29,1.13-.24-.6-.65-1.07-1.26-1.41s-1.23-.6-1.89-.78c-.65-.18-1.23-.31-1.74-.38-.5-.07-.76-.12-.76-.15,0-.17.06-.38.18-.63.12-.25.38-.46.78-.63.71-.34,1.54-.52,2.49-.55.96-.04,1.94.11,2.95.43,1.01.32,2,.84,2.97,1.56.97.72,1.85,1.67,2.62,2.85.77,1.18,1.39,2.61,1.87,4.31.47,1.7.71,3.69.71,5.97,0,3.19-.4,5.96-1.21,8.31-.81,2.35-1.79,4.31-2.95,5.87-1.16,1.56-2.39,2.73-3.7,3.5-1.31.77-2.47,1.16-3.48,1.16-2.72,0-5.04-.56-6.98-1.69-1.93-1.12-3.52-2.54-4.76-4.26-1.24-1.71-2.16-3.6-2.75-5.67-.58-2.07-.88-4.04-.88-5.92Z"/>
      <path class="cls-1" d="M95.55,11.47c.03,2.82.13,5.48.3,7.98.17,2.5.35,4.73.55,6.67.23,2.28.49,4.4.76,6.34l-.51,1.81-.5.1-.2,1.26-.4,1.51-.65.1-.1,1.16c-.1-.04-.2-.05-.3-.05-.2,0-.37.03-.5.1-.07.03-.11.13-.13.28-.02.15-.06.24-.13.28-.67-1.24-1.29-2.7-1.87-4.36-.57-1.66-1.09-3.45-1.56-5.36-.47-1.91-.89-3.89-1.26-5.92-.37-2.03-.69-4.02-.96-5.97-.44,1.34-.92,2.78-1.43,4.31-.52,1.53-1.04,3.05-1.56,4.56-.52,1.51-1.03,2.97-1.54,4.38-.51,1.41-.96,2.65-1.36,3.73-.1.27-.42.54-.96.81-.54.27-1.12.4-1.76.4s-1.24-.21-1.81-.63c-.57-.42-.91-1.2-1.01-2.34-.3-.71-.65-1.53-1.03-2.47-.39-.94-.81-1.96-1.26-3.07-.45-1.11-.93-2.27-1.43-3.5-.5-1.23-1.02-2.48-1.56-3.75-.2,1.91-.41,3.68-.63,5.29-.22,1.61-.41,3.01-.58,4.18-.2,1.38-.39,2.65-.55,3.83l-.65-.1-1.91,3.37-1.31.4-.4.81c-.17-.1-.32-.2-.45-.3-.13-.07-.28-.13-.43-.18-.15-.05-.28-.04-.38.02-.2.1-.38.34-.53.73-.15.38-.31.58-.48.58.1-1.04.21-2.43.33-4.15.12-1.73.23-3.65.35-5.77.12-2.12.22-4.33.3-6.65.08-2.32.14-4.57.18-6.75.04-2.18.04-4.21,0-6.09-.04-1.88-.1-3.44-.2-4.68,0-.03-.04-.08-.1-.15.03,0,.07-.02.1-.05-.04-.3-.06-.58-.07-.83-.02-.25-.06-.48-.13-.68.4-.13.82-.24,1.26-.3.37-.07.8-.1,1.29-.1s1,.07,1.54.2c.67-.13,1.35-.2,2.04-.2s1.32.09,1.91.25c.59.17,1.1.43,1.54.78s.74.82.91,1.38c1.01,3.49,1.94,6.78,2.79,9.85.85,3.07,1.55,5.64,2.09,7.68.71-1.88,1.43-3.73,2.19-5.54.76-1.81,1.48-3.51,2.19-5.09.71-1.58,1.35-2.98,1.94-4.2.59-1.23,1.05-2.17,1.38-2.85-.04-.24-.05-.43-.05-.6v-.51c.51-.3,1.16-.56,1.96-.78.81-.22,1.63-.34,2.47-.38.84-.03,1.6.07,2.29.3.69.24,1.18.64,1.48,1.21.17.34.29.72.35,1.16.07.44.11.96.13,1.56.02.6.02,1.31.02,2.12,0,.8,0,1.76,0,2.87Z"/>
      <path class="cls-1" d="M103.66,28.8c1.71-.54,3.53-1.06,5.46-1.56,1.93-.5,3.87-.92,5.82-1.26,1.95-.34,3.83-.54,5.64-.63,1.81-.09,3.44,0,4.89.28,0,.1-.05.22-.15.35-.1.13-.22.27-.35.4-.13.13-.29.3-.45.51l-.25.6-1.92.91,1.41.15c-.27.1-.54.22-.8.35-.24.1-.48.23-.73.38-.25.15-.48.31-.68.48-.44.34-.76.65-.96.96-.2.3-.47.52-.81.65-.13,0-.84.15-2.12.45-1.28.3-2.91.76-4.91,1.36-2,.6-4.25,1.36-6.75,2.27s-5.01,1.98-7.53,3.23c-.4.2-.84,0-1.31-.6-.47-.6-.86-1.34-1.16-2.19-.3-.86-.44-1.71-.43-2.57.02-.86.35-1.45.98-1.79.24-.13.59-.29,1.06-.45,0-1.44,0-3.04.02-4.78.02-1.74.02-3.53.02-5.34,0-1.81,0-3.61-.02-5.39-.02-1.78-.05-3.43-.1-4.96-.05-1.53-.13-2.86-.23-4-.1-1.14-.22-1.98-.35-2.52.37-.1.77-.22,1.21-.35.37-.07.8-.14,1.29-.23.49-.08.98-.09,1.48-.02,1.34-.17,2.99-.29,4.94-.35,1.95-.07,3.91-.11,5.89-.13,1.98-.02,3.83,0,5.54.02,1.71.04,2.97.05,3.78.05-.04.1-.05.22-.05.35v.45s0,.5,0,.5c-.2.07-.39.17-.55.3-.17.1-.34.22-.51.35-.17.13-.34.29-.51.45-.07.07-.16.14-.28.23-.12.09-.24.18-.38.28-.13.13-.3.25-.51.35l1.01.05-1.66.86-.05.6c-.37.17-.72.32-1.06.45-.27.13-.53.24-.78.33-.25.09-.41.14-.48.18-.07,0-.41.05-1.03.15-.62.1-1.39.23-2.32.38-.92.15-1.96.32-3.1.51-1.14.18-2.26.36-3.37.53,0,.2,0,.4-.02.6-.02.2-.02.4-.02.6-.04.67-.07,1.31-.1,1.91-.04.6-.09,1.21-.15,1.81,1.11-.13,2.26-.25,3.45-.35,1.19-.1,2.36-.19,3.5-.28,1.14-.08,2.21-.13,3.2-.15.99-.02,1.82-.02,2.49-.02,0,.17-.07.39-.2.65-.07.13-.13.27-.2.4l-.2,1.21-1.56.85.65.05-1.66,1.06.05.51-1.81.45-.35.6c-.34.17-.67.32-1.01.45-.27.13-.54.26-.83.38-.29.12-.51.21-.68.28-.07,0-.28.04-.63.13-.35.09-.8.2-1.34.35-.54.15-1.12.31-1.74.48-.62.17-1.25.32-1.89.45-.13,1.34-.27,2.52-.4,3.53-.13,1-.25,1.82-.35,2.46Z"/>
      <path class="cls-1" d="M147.38,8.3c-.23,4.26-.39,7.89-.45,10.88-.07,2.99-.07,5.49-.02,7.5.05,2.01.13,3.62.23,4.81s.19,2.13.28,2.82c.08.69.14,1.19.18,1.51.03.32.02.6-.05.83-.13.34-.38.67-.73,1.01-.35.34-.77.62-1.26.86-.49.24-1.01.38-1.56.43-.55.05-1.09-.02-1.61-.23-.52-.2-1-.58-1.43-1.13-.44-.55-.77-1.32-1.01-2.29-.87-1.34-1.75-2.8-2.62-4.38-.87-1.58-1.74-3.2-2.59-4.86-.85-1.66-1.7-3.34-2.52-5.04-.82-1.7-1.64-3.33-2.44-4.91-.17,2.18-.34,4.28-.51,6.3-.17,2.01-.34,3.81-.51,5.39-.17,1.85-.34,3.56-.51,5.14l-.3-.15-1.26,2.67-.76.4-.6,1.76-.6-.55-.71,1.87h-.35c-.1,0-.2.02-.3.05-.1.04-.18.07-.25.1-.17.1-.37.3-.6.6-.04-.27-.06-.94-.07-2.01-.02-1.07-.02-2.42-.02-4.03,0-1.61,0-3.42,0-5.42,0-2,0-4.04-.02-6.14-.02-2.1-.04-4.18-.05-6.25-.02-2.07-.06-3.98-.13-5.74-.07-1.76-.15-3.28-.25-4.56-.1-1.28-.22-2.2-.35-2.77.17-.07.35-.13.55-.2.4-.13.91-.22,1.51-.25.71-.3,1.45-.51,2.24-.63.79-.12,1.54-.09,2.26.07.72.17,1.38.48,1.99.93.6.45,1.06,1.1,1.36,1.94.6,1.78,1.28,3.6,2.01,5.47.74,1.87,1.49,3.7,2.24,5.49.76,1.79,1.48,3.51,2.19,5.14s1.34,3.06,1.92,4.31c.17-2.38.37-4.87.6-7.45.23-2.59.49-5.04.78-7.38.29-2.33.56-4.41.83-6.22.27-1.81.52-3.14.76-3.98.07.07.13.29.18.65.05.37.11.59.18.65.07.07.13-.04.2-.3.07-.27.13-.37.2-.3.03.04.08.15.15.35.07.2.13.42.18.65.05.24.11.46.18.68.07.22.12.36.15.43.1.1.29.15.55.15.13,0,.25-.02.35-.05.27.51.52,1.02.76,1.56.2.47.42.99.65,1.56.24.57.45,1.16.65,1.76.06.19.11.36.15.49Z"/>
      <path class="cls-1" d="M183.85,1.85c.17.17.36.47.58.91.22.44.4.94.55,1.51.15.57.24,1.18.25,1.81.02.64-.09,1.23-.33,1.76-.24.54-.64.98-1.21,1.31-.57.34-1.34.51-2.32.51-.07,0-.46.02-1.18.07-.72.05-1.62.11-2.7.18-1.07.07-2.28.14-3.6.23-1.32.08-2.61.16-3.85.23l-.15,4.23c1.04-.1,2.1-.19,3.17-.28,1.07-.08,2.11-.15,3.1-.2.99-.05,1.91-.09,2.77-.13.86-.03,1.59-.05,2.19-.05,0,.17-.07.39-.2.65-.07.13-.13.27-.2.4l-.15,1.21-1.56.86.6.05-1.61,1.06.05.51-1.81.45-.35.6c-.3.17-.62.32-.96.45-.27.13-.55.27-.86.4-.3.13-.54.24-.71.3-.1,0-.52.09-1.26.28-.74.18-1.6.41-2.57.68-.1,1.48-.19,2.83-.28,4.06-.09,1.23-.16,2.31-.23,3.25-.1,1.11-.17,2.1-.2,2.97l-.35-.4-.2,1.26-.6.15-.65,1.91-1.46.91-.86,1.21-.45-.25-.4,1.31c-.1.1-.18.2-.25.3-.2.2-.32.3-.35.3-.03-.27-.07-.91-.13-1.91-.05-1.01-.1-2.27-.15-3.78-.05-1.51-.1-3.21-.15-5.11-.05-1.9-.1-3.84-.15-5.84-.05-2-.12-4-.2-5.99-.09-2-.18-3.87-.28-5.62l-.6-.15.35-.6-.96-.3-1.36-.3.45-.51-.76-.65.81-.71-1.96-.05c-.07-.1-.13-.22-.2-.35-.13-.27-.2-.45-.2-.55.2-.03.66-.11,1.38-.23.72-.12,1.62-.26,2.7-.43-.07-.6-.13-1.14-.2-1.61-.07-.47-.13-.89-.2-1.26-.04-.1,0-.24.13-.43.12-.18.31-.31.58-.38.4-.13.93-.25,1.59-.35s1.32-.09,1.99.02c.67.12,1.34.39,1.99.81.65.42,1.18,1.1,1.59,2.04,1.54-.24,3.1-.49,4.66-.76,1.56-.27,3.01-.53,4.33-.78,1.32-.25,2.48-.48,3.48-.68.98-.22,1.67-.38,2.08-.52Z"/>
      <path class="cls-1" d="M182.69,20.24c0-3.26.29-5.96.88-8.11.59-2.15,1.23-3.87,1.94-5.16.71-1.29,1.37-2.21,1.99-2.75.62-.54.96-.82,1.03-.85.6-.34,1.28-.42,2.01-.25.74.17,1.43.47,2.07.91.64.43,1.16.93,1.59,1.49.42.55.63,1.07.63,1.54,0,.34-.23.76-.68,1.29-.45.52-.96,1.27-1.51,2.24-.55.98-1.06,2.23-1.51,3.78-.45,1.54-.68,3.48-.68,5.79,0,2.45.25,4.5.76,6.14.51,1.65,1.08,2.97,1.74,3.98.65,1.01,1.3,1.73,1.94,2.17.64.44,1.07.67,1.31.71.4.04.95-.22,1.64-.76.69-.54,1.37-1.39,2.04-2.57.67-1.18,1.25-2.66,1.74-4.46s.73-3.94.73-6.42c0-1.54-.11-2.9-.33-4.08-.22-1.18-.49-2.19-.83-3.05-.34-.86-.73-1.57-1.18-2.14-.45-.57-.9-1.04-1.34-1.41-1.11-.84-2.34-1.28-3.68-1.31l-.35-.1.4-.2c.2-.1.29-.22.25-.35-.04-.04.17-.04.6,0,.44.04.95.13,1.54.28.59.15,1.18.37,1.76.65.59.29,1.01.66,1.29,1.13-.23-.6-.65-1.07-1.26-1.41-.6-.34-1.23-.6-1.89-.78-.65-.18-1.23-.31-1.74-.38-.51-.07-.76-.12-.76-.15,0-.17.06-.38.18-.63.12-.25.38-.46.78-.63.71-.34,1.54-.52,2.49-.55.96-.04,1.94.11,2.95.43,1.01.32,2,.84,2.97,1.56.97.72,1.85,1.67,2.62,2.85.77,1.18,1.39,2.61,1.86,4.31.47,1.7.71,3.69.71,5.97,0,3.19-.4,5.96-1.21,8.31-.81,2.35-1.79,4.31-2.95,5.87-1.16,1.56-2.39,2.73-3.7,3.5-1.31.77-2.47,1.16-3.48,1.16-2.72,0-5.05-.56-6.98-1.69-1.93-1.12-3.52-2.54-4.76-4.26-1.24-1.71-2.16-3.6-2.75-5.67-.58-2.07-.87-4.04-.87-5.92Z"/>
      <path class="cls-1" d="M237.29,16.31c0,1.28-.18,2.41-.55,3.4-.37.99-.86,1.87-1.46,2.62-.6.75-1.32,1.42-2.14,1.99-.82.57-1.69,1.06-2.59,1.46.97,1.74,1.65,3.6,2.04,5.56.38,1.96.4,3.72.03,5.26.07-1.18.02-2.25-.15-3.23-.17-.97-.37-1.81-.6-2.52-.3-.84-.64-1.58-1.01-2.22.34,1.21.62,2.37.86,3.48.2.94.36,1.89.48,2.85.12.96.09,1.7-.07,2.24-.04-.03-.06-.07-.07-.1-.02-.03-.04-.07-.07-.1l-.1-.1c-.1.2-.22.37-.35.51-.1.13-.2.26-.3.38-.1.12-.18.18-.25.18-.07.03-.17.06-.3.07-.13.02-.29.04-.45.07-.17.03-.35.08-.55.15l-.45-.51c-.51-1.98-1.28-3.84-2.32-5.56-1.04-1.73-2.12-3.3-3.22-4.71-.91.13-1.75.22-2.52.25-.77.03-1.43.05-1.96.05h-.3c-.07.77-.12,1.48-.15,2.12-.04.64-.07,1.19-.1,1.66-.04.54-.07,1.01-.1,1.41-.07.13-.15.27-.25.4-.07.13-.15.29-.25.45-.1.17-.22.35-.35.55-.07.13-.16.3-.28.5-.12.2-.23.42-.33.65-.13.27-.27.55-.4.86-.1.04-.22.08-.35.15-.23.13-.44.3-.6.5-.03.07-.07.14-.1.23-.03.09-.08.19-.15.33-.07.13-.12.29-.15.45l-.4-.05-.6.96-.2-.1c-.13-.07-.22-.1-.25-.1-.13.07-.24.19-.33.38-.08.18-.18.28-.28.28-.04-.2-.07-.71-.1-1.51-.04-.81-.07-1.81-.13-3.02-.05-1.21-.1-2.57-.15-4.1s-.09-3.13-.13-4.81c-.77-.47-1.48-1.11-2.12-1.91-.64-.81-1.14-1.79-1.51-2.97-.04-.1-.09-.39-.18-.86-.08-.47-.09-.87-.02-1.21.07.34.16.7.28,1.08.12.39.24.76.38,1.11.13.35.28.66.43.93.15.27.29.45.43.55-.47-.97-.79-1.89-.96-2.75-.17-.85-.18-1.57-.05-2.14.27.84,1.32,1.63,3.17,2.37-.07-1.68-.14-3.31-.23-4.89-.09-1.58-.16-3.06-.23-4.43-.97.13-2,.34-3.07.6-.4-.13-.79-.48-1.16-1.03-.37-.55-.65-1.17-.83-1.84-.18-.67-.24-1.34-.18-2.01.07-.67.32-1.21.76-1.61.24-.2.83-.46,1.79-.78.96-.32,2.16-.61,3.6-.88,1.44-.27,3.05-.47,4.81-.6,1.76-.13,3.54-.13,5.34.02,1.79.15,3.55.49,5.26,1.01,1.71.52,3.22,1.31,4.53,2.37,1.31,1.06,2.37,2.42,3.17,4.08.81,1.67,1.2,3.71,1.16,6.13ZM233.36,14.9c.04-.71-.24-1.38-.83-2.01s-1.47-1.18-2.65-1.64c-1.18-.45-2.63-.8-4.36-1.03-1.73-.24-3.72-.3-5.97-.2.03.27.05.54.05.83v.93c-.03,1.61-.08,3.23-.15,4.86-.07,1.63-.15,3.23-.25,4.81,1.51,0,3.09-.19,4.73-.58,1.64-.38,3.15-.88,4.53-1.49,1.38-.6,2.52-1.29,3.42-2.07.91-.77,1.4-1.58,1.46-2.42Z"/>
      <path class="cls-1" d="M43.21,71.97c.96,3.5,1.14,6.85.56,10.04-.58,3.19-1.75,5.98-3.5,8.36-1.75,2.39-4.02,4.29-6.81,5.7-2.79,1.41-5.94,2.11-9.44,2.11-2.71,0-5.36-.51-7.97-1.51-2.6-1.01-4.93-2.56-6.97-4.66-2.05-2.1-3.68-4.74-4.9-7.93-1.22-3.19-1.75-6.96-1.59-11.31.16-5.1,1.13-9.47,2.91-13.1,1.78-3.64,3.94-6.63,6.49-8.96,2.55-2.34,5.3-4.06,8.25-5.18,2.95-1.12,5.65-1.71,8.13-1.79,2.47-.08,4.53.32,6.18,1.2,1.65.88,2.44,2.16,2.39,3.86,0,.91-.12,1.87-.36,2.91-.24,1.03-.56,2.05-.96,3.03-.4.98-.87,1.85-1.4,2.59-.53.74-1.12,1.25-1.75,1.51-2.12-1.06-4.17-1.66-6.13-1.79-1.97-.13-3.81.08-5.54.64-1.73.56-3.31,1.42-4.74,2.59-1.43,1.17-2.67,2.48-3.7,3.94-1.03,1.46-1.85,3.04-2.43,4.74-.58,1.7-.91,3.37-.96,5.02-.05,1.27.27,2.62.96,4.02.69,1.41,1.69,2.71,2.99,3.9,1.3,1.2,2.84,2.19,4.62,2.99,1.78.8,3.76,1.19,5.94,1.19,2.55,0,4.91-.54,7.09-1.63,2.18-1.09,4.08-2.39,5.7-3.9,1.62-1.51,2.89-3.08,3.82-4.7.93-1.62,1.4-2.93,1.4-3.94,0-.74.09-1.16.28-1.23.18-.08.38-.01.6.2.2.21.5.58.87,1.11Z"/>
      <path class="cls-1" d="M82.96,45.76c.37,1.12.45,2.6.24,4.46-.21,1.86-.53,4.49-.96,7.89-.58,4.3-1.01,8.37-1.27,12.19-.27,3.83-.45,7.25-.56,10.28-.16,3.51-.21,6.77-.16,9.8l-.32.8-.48-.08-.48,2.47-.56-.08-.56-.16-1.12,4.86-.88-.72-.4.72-.96.08-.16.64c-.11.42-.24.64-.4.64-.11.05-.29.08-.56.08-.91-2.23-1.63-4.85-2.19-7.85-.56-3-1-6.23-1.31-9.68-.32.21-.67.37-1.03.48-.8,0-1.75.07-2.87.2-1.12.13-2.31.31-3.59.52-1.27.21-2.56.43-3.86.64-1.3.21-2.51.43-3.62.64-.11.91-.17,1.7-.2,2.39-.03.69-.07,1.3-.12,1.83-.05.58-.08,1.11-.08,1.59l-.56-.72-.4,2.07-.96.24-1.03,3.03-2.31,1.43-1.36,1.91-.72-.48-.64,2.15c-.11.16-.24.32-.4.48-.32.32-.53.48-.64.48-.05-.43-.11-1.43-.16-3.03-.05-1.59-.12-3.57-.2-5.94-.08-2.36-.15-5.03-.2-8.01-.05-2.97-.12-6.04-.2-9.2-.08-3.16-.17-6.32-.28-9.48-.11-3.16-.24-6.12-.4-8.88-.16-2.76-.33-5.22-.52-7.37-.18-2.15-.38-3.81-.6-4.98-.05-.16.01-.38.2-.68.19-.29.49-.49.92-.6.58-.16,1.3-.32,2.15-.48.85-.16,1.75-.21,2.71-.16.96.05,1.9.29,2.83.72.93.43,1.76,1.11,2.51,2.07.74.96,1.31,2.23,1.71,3.82.4,1.59.57,3.61.52,6.05-.11,3.08-.23,6.2-.36,9.36-.13,3.16-.28,6.2-.44,9.12,2.23-.27,4.53-.41,6.89-.44,2.36-.03,4.61.07,6.73.28-.16-3.13-.23-6.23-.2-9.28.03-3.05.08-5.89.16-8.52.08-2.63.21-4.98.4-7.05.18-2.07.36-3.66.52-4.78.85-.37,1.94-.64,3.26-.8,1.33-.16,2.64-.17,3.94-.04,1.3.13,2.47.44,3.51.92,1.04.47,1.72,1.19,2.04,2.15Z"/>
      <path class="cls-1" d="M119.69,90.3c0,.16.07.44.2.83.13.4.27.81.4,1.23.13.43.27.83.4,1.23.13.4.2.65.2.76-.05.58-.13,1.07-.24,1.47-.11.4-.21.76-.32,1.07-.11.21-.28.38-.52.52-.24.13-.41.25-.52.36-.11.16-.15.28-.12.36.03.08-.01.17-.12.28s-.24.18-.4.24c-.16.05-.29.13-.4.24-.27.11-.56.16-.88.16h-.4c-.85,0-1.99-1.07-3.43-3.22-1.43-2.15-2.97-4.98-4.62-8.48-.27.11-.54.21-.83.32-.29.11-.6.21-.92.32-.91-.11-2.07-.12-3.51-.04-1.43.08-2.97.2-4.62.36-1.65.16-3.31.36-4.98.6-1.67.24-3.17.44-4.5.6-.91,1.75-1.85,3.49-2.83,5.22-.98,1.73-2.01,3.44-3.07,5.14-.21.11-.34,0-.4-.32-.05-.32-.21-.58-.48-.8-.11-.11-.29-.09-.56.04-.27.13-.48.12-.64-.04-.05-.05-.11-.23-.16-.52-.05-.29-.11-.57-.16-.83l-.16-1.12c-.21,0-.43-.08-.64-.24-.43-.21-.72-.58-.88-1.12-.05-.11-.07-.31-.04-.6.03-.29.07-.65.12-1.07.05-.42.11-.93.16-1.51-.16.21-.32.37-.48.48-.32.21-.51.21-.56,0-.11-.53-.17-1.05-.2-1.55-.03-.51.01-.97.12-1.39.37-1.12,1.13-3.15,2.27-6.09,1.14-2.95,2.37-6.47,3.7-10.56,1.33-4.09,2.56-8.62,3.7-13.58,1.14-4.97,1.9-10.02,2.27-15.18,3.19-.42,5.75-.57,7.69-.44,1.94.13,3.39.49,4.34,1.07,1.54-.05,2.94.23,4.18.83,1.25.61,1.98,1.79,2.19,3.55.16,1.43.41,3.41.76,5.94.34,2.52.92,5.54,1.71,9.04.8,3.5,1.9,7.49,3.31,11.95,1.41,4.46,3.28,9.37,5.62,14.74.05.21.04.29-.04.24-.08-.05-.19-.14-.32-.28-.13-.13-.24-.24-.32-.32s-.11-.03-.11.13ZM94.67,78.51c1.7-.05,3.44-.04,5.22.04,1.78.08,3.52.2,5.22.36-.96-2.28-1.88-4.61-2.79-6.97-.91-2.36-1.75-4.74-2.55-7.13-.85,2.5-1.69,4.87-2.51,7.13-.83,2.26-1.69,4.45-2.59,6.58Z"/>
      <path class="cls-1" d="M156.89,51.74c-.37,6.74-.61,12.48-.72,17.21-.11,4.73-.12,8.68-.04,11.87.08,3.19.2,5.73.36,7.61.16,1.88.31,3.37.44,4.46.13,1.09.22,1.88.28,2.39.05.51.03.94-.08,1.31-.21.53-.6,1.06-1.16,1.6-.56.53-1.22.98-1.99,1.36-.77.37-1.6.6-2.47.68-.87.08-1.73-.04-2.55-.36-.82-.32-1.58-.92-2.27-1.79-.69-.88-1.22-2.08-1.59-3.62-1.38-2.12-2.76-4.43-4.14-6.93-1.38-2.5-2.75-5.06-4.1-7.69-1.36-2.63-2.68-5.28-3.99-7.97-1.3-2.68-2.59-5.27-3.86-7.77-.27,3.45-.53,6.77-.8,9.96-.27,3.19-.53,6.03-.8,8.52-.27,2.92-.53,5.63-.8,8.12l-.48-.24-1.99,4.22-1.2.64-.96,2.79-.96-.88-1.11,2.95h-.56c-.16,0-.32.03-.48.08-.16.05-.29.11-.4.16-.27.16-.58.48-.96.96-.05-.43-.09-1.49-.12-3.19-.03-1.7-.04-3.82-.04-6.37s0-5.4,0-8.56-.02-6.4-.04-9.72c-.03-3.32-.05-6.61-.08-9.88-.03-3.27-.09-6.29-.2-9.08-.11-2.79-.24-5.19-.4-7.21-.16-2.02-.34-3.48-.56-4.38.27-.11.56-.21.88-.32.64-.21,1.43-.34,2.39-.4,1.11-.48,2.3-.81,3.55-1,1.25-.18,2.44-.15,3.59.12,1.14.27,2.19.76,3.15,1.47.96.72,1.67,1.74,2.15,3.07.96,2.82,2.02,5.7,3.19,8.64,1.17,2.95,2.35,5.84,3.55,8.68,1.2,2.84,2.35,5.55,3.46,8.13,1.12,2.57,2.12,4.85,3.03,6.81.27-3.77.58-7.7.96-11.79.37-4.09.78-7.98,1.23-11.67.45-3.69.89-6.97,1.31-9.84.42-2.87.82-4.97,1.2-6.29.11.11.2.45.28,1.03.08.58.17.93.28,1.03.11.11.21-.05.32-.48.11-.42.21-.58.32-.48.05.05.13.24.24.56.11.32.2.67.28,1.03.08.37.17.73.28,1.07.11.34.18.57.24.68.16.16.45.24.88.24.21,0,.4-.03.56-.08.42.8.82,1.62,1.2,2.47.32.74.66,1.57,1.03,2.47.37.91.72,1.83,1.03,2.79.1.32.18.58.24.8Z"/>
      <path class="cls-1" d="M197.13,75.8c.32,3.08.05,5.98-.8,8.68-.85,2.71-2.17,5.06-3.94,7.05-1.78,1.99-3.97,3.57-6.57,4.74-2.6,1.17-5.47,1.75-8.6,1.75-2.71,0-5.36-.51-7.97-1.51-2.6-1.01-4.93-2.56-6.97-4.66-2.05-2.1-3.68-4.74-4.9-7.93-1.22-3.19-1.75-6.96-1.6-11.31.16-5.1,1.13-9.47,2.91-13.1,1.78-3.64,3.94-6.63,6.49-8.96,2.55-2.34,5.3-4.06,8.24-5.18,2.95-1.12,5.66-1.71,8.12-1.79,2.47-.08,4.53.32,6.18,1.2,1.65.88,2.44,2.16,2.39,3.86,0,.91-.12,1.87-.36,2.91-.24,1.03-.56,2.05-.96,3.03-.4.98-.86,1.85-1.4,2.59-.53.74-1.12,1.25-1.75,1.51-2.12-1.06-4.17-1.66-6.13-1.79-1.97-.13-3.81.08-5.54.64-1.73.56-3.31,1.42-4.74,2.59-1.43,1.17-2.67,2.48-3.7,3.94-1.03,1.46-1.85,3.04-2.43,4.74-.58,1.7-.91,3.37-.96,5.02-.05,1.27.27,2.62.96,4.02.69,1.41,1.69,2.71,2.99,3.9,1.3,1.2,2.84,2.19,4.62,2.99,1.78.8,3.76,1.2,5.94,1.2,1.65,0,3.24-.25,4.78-.76,1.54-.51,2.97-1.16,4.3-1.95,1.33-.8,2.52-1.7,3.59-2.71,1.06-1.01,1.99-2.04,2.79-3.11-1.43-.11-3.07-.24-4.9-.4-1.83-.16-3.56-.32-5.18-.48-1.62-.16-3-.29-4.14-.4-1.14-.11-1.79-.16-1.95-.16-1.65-.48-3.16-1.39-4.54-2.75-1.38-1.35-2.57-2.67-3.59-3.94-.11-.11.73-.33,2.51-.68,1.78-.35,4.48-.78,8.09-1.31-1.17-.05-2.43-.04-3.79.04-1.36.08-2.6.17-3.75.28-1.14.11-2.11.21-2.91.32-.8.11-1.22.16-1.27.16-.58-.16-.91-.37-.96-.64,1.33-.16,3.17-.41,5.54-.76,2.36-.34,4.87-.66,7.53-.96,2.66-.29,5.26-.51,7.81-.64,2.55-.13,4.7-.09,6.45.12.8.11,1.49.56,2.07,1.36.58.8,1.05,1.75,1.39,2.87.35,1.12.57,2.26.68,3.42.09,1.17.07,2.15-.09,2.95Z"/>
      <path class="cls-1" d="M207.72,84.16c2.71-.85,5.59-1.67,8.65-2.47,3.05-.8,6.12-1.46,9.2-1.99,3.08-.53,6.05-.86,8.92-1,2.87-.13,5.44.02,7.73.44,0,.16-.08.35-.24.56-.16.21-.35.43-.56.64-.21.21-.45.48-.72.8l-.4.96-3.03,1.43,2.23.24c-.43.16-.85.35-1.27.56-.37.16-.76.36-1.16.6-.4.24-.76.49-1.07.76-.69.53-1.2,1.03-1.51,1.51-.32.48-.74.82-1.27,1.03-.21,0-1.33.24-3.35.72-2.02.48-4.61,1.19-7.77,2.15-3.16.96-6.72,2.15-10.67,3.59-3.96,1.43-7.93,3.13-11.91,5.1-.64.32-1.33,0-2.07-.96-.74-.96-1.36-2.11-1.83-3.46-.48-1.36-.7-2.71-.68-4.06.03-1.36.54-2.3,1.55-2.83.37-.21.93-.45,1.67-.72,0-2.28.01-4.8.04-7.57.03-2.76.04-5.58.04-8.44,0-2.87-.02-5.71-.04-8.52-.03-2.81-.08-5.43-.16-7.85-.08-2.42-.2-4.53-.36-6.33-.16-1.81-.34-3.13-.56-3.99.58-.16,1.22-.34,1.91-.56.58-.11,1.26-.22,2.03-.36.77-.13,1.55-.14,2.35-.04,2.12-.27,4.73-.45,7.81-.56,3.08-.11,6.19-.17,9.32-.2,3.13-.03,6.05-.01,8.76.04,2.71.05,4.7.08,5.98.08-.05.16-.08.34-.08.56v.72s0,.8,0,.8c-.32.11-.61.27-.88.48-.27.16-.53.34-.8.56-.27.21-.53.45-.8.72-.11.11-.25.23-.44.36-.19.13-.38.28-.6.44-.21.21-.48.4-.8.56l1.6.08-2.63,1.36-.08.96c-.58.27-1.14.51-1.67.72-.43.21-.83.38-1.23.52-.4.13-.65.23-.76.28-.11,0-.65.08-1.63.24-.98.16-2.2.36-3.66.6-1.46.24-3.1.51-4.9.8-1.81.29-3.59.57-5.34.83,0,.32-.02.64-.04.96-.03.32-.04.64-.04.96-.05,1.06-.11,2.07-.16,3.03-.05.96-.13,1.91-.24,2.87,1.75-.21,3.57-.4,5.46-.56,1.88-.16,3.73-.31,5.54-.44,1.8-.13,3.49-.21,5.06-.24,1.57-.03,2.88-.04,3.94-.04,0,.27-.11.61-.32,1.03-.11.21-.21.43-.32.64l-.32,1.91-2.47,1.36,1.03.08-2.63,1.67.08.8-2.87.72-.56.96c-.53.27-1.06.51-1.6.72-.43.21-.87.41-1.31.6-.45.19-.81.33-1.07.44-.11,0-.44.07-1,.2-.56.13-1.26.32-2.11.56s-1.77.49-2.75.76c-.98.27-1.98.51-2.99.72-.21,2.12-.43,3.99-.64,5.58-.23,1.59-.42,2.9-.58,3.91Z"/>
    </g>
  </g>
</svg>